<mxfile host="Electron" modified="2023-11-30T23:31:01.638Z" agent="Mozilla/5.0 (Windows NT 10.0; Win64; x64) AppleWebKit/537.36 (KHTML, like Gecko) draw.io/22.1.2 Chrome/114.0.5735.289 Electron/25.9.4 Safari/537.36" etag="PkpNTkemLOGZVFemT9IV" version="22.1.2" type="device">
  <diagram name="PÃ¡gina-1" id="vydMGs622qEWZncBNMTA">
    <mxGraphModel dx="1863" dy="606" grid="1" gridSize="10" guides="1" tooltips="1" connect="1" arrows="1" fold="1" page="1" pageScale="1" pageWidth="827" pageHeight="1169" math="0" shadow="0">
      <root>
        <mxCell id="0" />
        <mxCell id="1" parent="0" />
        <mxCell id="ct5YZA5BsSOBDLUgeaoR-1" value=":Factura" style="shape=umlLifeline;perimeter=lifelinePerimeter;whiteSpace=wrap;html=1;container=0;dropTarget=0;collapsible=0;recursiveResize=0;outlineConnect=0;portConstraint=eastwest;newEdgeStyle={&quot;edgeStyle&quot;:&quot;elbowEdgeStyle&quot;,&quot;elbow&quot;:&quot;vertical&quot;,&quot;curved&quot;:0,&quot;rounded&quot;:0};" parent="1" vertex="1">
          <mxGeometry x="-207" y="60" width="100" height="700" as="geometry" />
        </mxCell>
        <mxCell id="ct5YZA5BsSOBDLUgeaoR-3" value="" style="html=1;points=[];perimeter=orthogonalPerimeter;outlineConnect=0;targetShapes=umlLifeline;portConstraint=eastwest;newEdgeStyle={&quot;edgeStyle&quot;:&quot;elbowEdgeStyle&quot;,&quot;elbow&quot;:&quot;vertical&quot;,&quot;curved&quot;:0,&quot;rounded&quot;:0};" parent="ct5YZA5BsSOBDLUgeaoR-1" vertex="1">
          <mxGeometry x="45" y="71" width="10" height="30" as="geometry" />
        </mxCell>
        <mxCell id="ct5YZA5BsSOBDLUgeaoR-4" value="" style="html=1;points=[];perimeter=orthogonalPerimeter;outlineConnect=0;targetShapes=umlLifeline;portConstraint=eastwest;newEdgeStyle={&quot;edgeStyle&quot;:&quot;elbowEdgeStyle&quot;,&quot;elbow&quot;:&quot;vertical&quot;,&quot;curved&quot;:0,&quot;rounded&quot;:0};" parent="ct5YZA5BsSOBDLUgeaoR-1" vertex="1">
          <mxGeometry x="45" y="215" width="10" height="466" as="geometry" />
        </mxCell>
        <mxCell id="ct5YZA5BsSOBDLUgeaoR-7" value="4. imprimir()" style="html=1;verticalAlign=bottom;startArrow=oval;endArrow=block;startSize=8;edgeStyle=elbowEdgeStyle;elbow=vertical;curved=0;rounded=0;" parent="1" edge="1">
          <mxGeometry x="0.0664" y="10" relative="1" as="geometry">
            <mxPoint x="-474.5" y="281" as="sourcePoint" />
            <mxPoint x="-162" y="281" as="targetPoint" />
            <mxPoint as="offset" />
          </mxGeometry>
        </mxCell>
        <mxCell id="ct5YZA5BsSOBDLUgeaoR-8" value=":Item" style="shape=umlLifeline;perimeter=lifelinePerimeter;whiteSpace=wrap;html=1;container=0;dropTarget=0;collapsible=0;recursiveResize=0;outlineConnect=0;portConstraint=eastwest;newEdgeStyle={&quot;edgeStyle&quot;:&quot;elbowEdgeStyle&quot;,&quot;elbow&quot;:&quot;vertical&quot;,&quot;curved&quot;:0,&quot;rounded&quot;:0};" parent="1" vertex="1">
          <mxGeometry x="-37" y="60" width="100" height="700" as="geometry" />
        </mxCell>
        <mxCell id="ct5YZA5BsSOBDLUgeaoR-11" value="5. getPrecio()" style="html=1;verticalAlign=bottom;startArrow=oval;endArrow=block;startSize=8;edgeStyle=elbowEdgeStyle;elbow=vertical;curved=0;rounded=0;" parent="1" target="ct5YZA5BsSOBDLUgeaoR-12" edge="1">
          <mxGeometry x="0.0664" y="10" relative="1" as="geometry">
            <mxPoint x="-147" y="340.40999999999997" as="sourcePoint" />
            <mxPoint x="3" y="340" as="targetPoint" />
            <mxPoint as="offset" />
          </mxGeometry>
        </mxCell>
        <mxCell id="ct5YZA5BsSOBDLUgeaoR-12" value="" style="html=1;points=[];perimeter=orthogonalPerimeter;outlineConnect=0;targetShapes=umlLifeline;portConstraint=eastwest;newEdgeStyle={&quot;edgeStyle&quot;:&quot;elbowEdgeStyle&quot;,&quot;elbow&quot;:&quot;vertical&quot;,&quot;curved&quot;:0,&quot;rounded&quot;:0};" parent="1" vertex="1">
          <mxGeometry x="8" y="331" width="10" height="370" as="geometry" />
        </mxCell>
        <mxCell id="ct5YZA5BsSOBDLUgeaoR-13" value=":ConjuntoTratamiento" style="shape=umlLifeline;perimeter=lifelinePerimeter;whiteSpace=wrap;html=1;container=0;dropTarget=0;collapsible=0;recursiveResize=0;outlineConnect=0;portConstraint=eastwest;newEdgeStyle={&quot;edgeStyle&quot;:&quot;elbowEdgeStyle&quot;,&quot;elbow&quot;:&quot;vertical&quot;,&quot;curved&quot;:0,&quot;rounded&quot;:0};" parent="1" vertex="1">
          <mxGeometry x="114" y="60" width="120" height="700" as="geometry" />
        </mxCell>
        <mxCell id="ct5YZA5BsSOBDLUgeaoR-14" value="" style="html=1;points=[];perimeter=orthogonalPerimeter;outlineConnect=0;targetShapes=umlLifeline;portConstraint=eastwest;newEdgeStyle={&quot;edgeStyle&quot;:&quot;elbowEdgeStyle&quot;,&quot;elbow&quot;:&quot;vertical&quot;,&quot;curved&quot;:0,&quot;rounded&quot;:0};" parent="ct5YZA5BsSOBDLUgeaoR-13" vertex="1">
          <mxGeometry x="53" y="318" width="10" height="305" as="geometry" />
        </mxCell>
        <mxCell id="ct5YZA5BsSOBDLUgeaoR-15" value="6. calcularPrecio()" style="html=1;verticalAlign=bottom;startArrow=oval;endArrow=block;startSize=8;edgeStyle=elbowEdgeStyle;elbow=vertical;curved=0;rounded=0;" parent="1" edge="1">
          <mxGeometry x="-0.28" y="10" relative="1" as="geometry">
            <mxPoint x="18" y="381.03999999999996" as="sourcePoint" />
            <mxPoint x="173" y="381.63" as="targetPoint" />
            <mxPoint as="offset" />
          </mxGeometry>
        </mxCell>
        <mxCell id="ct5YZA5BsSOBDLUgeaoR-16" value="for" style="shape=umlFrame;whiteSpace=wrap;html=1;pointerEvents=0;" parent="1" vertex="1">
          <mxGeometry x="134" y="341" width="219" height="340" as="geometry" />
        </mxCell>
        <mxCell id="ct5YZA5BsSOBDLUgeaoR-17" value=":Tratamiento" style="shape=umlLifeline;perimeter=lifelinePerimeter;whiteSpace=wrap;html=1;container=0;dropTarget=0;collapsible=0;recursiveResize=0;outlineConnect=0;portConstraint=eastwest;newEdgeStyle={&quot;edgeStyle&quot;:&quot;elbowEdgeStyle&quot;,&quot;elbow&quot;:&quot;vertical&quot;,&quot;curved&quot;:0,&quot;rounded&quot;:0};" parent="1" vertex="1">
          <mxGeometry x="283" y="60" width="100" height="700" as="geometry" />
        </mxCell>
        <mxCell id="ct5YZA5BsSOBDLUgeaoR-18" value="" style="html=1;points=[[0,0,0,0,5],[0,1,0,0,-5],[1,0,0,0,5],[1,1,0,0,-5]];perimeter=orthogonalPerimeter;outlineConnect=0;targetShapes=umlLifeline;portConstraint=eastwest;newEdgeStyle={&quot;curved&quot;:0,&quot;rounded&quot;:0};" parent="ct5YZA5BsSOBDLUgeaoR-17" vertex="1">
          <mxGeometry x="45" y="418" width="10" height="93" as="geometry" />
        </mxCell>
        <mxCell id="ct5YZA5BsSOBDLUgeaoR-20" value="precioTotal = 0" style="rounded=0;whiteSpace=wrap;html=1;" parent="1" vertex="1">
          <mxGeometry x="193" y="391" width="120" height="60" as="geometry" />
        </mxCell>
        <mxCell id="ct5YZA5BsSOBDLUgeaoR-23" value="7. calcularPrecio()" style="html=1;verticalAlign=bottom;startArrow=oval;endArrow=block;startSize=8;edgeStyle=elbowEdgeStyle;elbow=vertical;curved=0;rounded=0;" parent="1" edge="1">
          <mxGeometry x="0.0664" y="10" relative="1" as="geometry">
            <mxPoint x="178" y="482.23" as="sourcePoint" />
            <mxPoint x="333" y="482.81999999999994" as="targetPoint" />
            <mxPoint as="offset" />
          </mxGeometry>
        </mxCell>
        <mxCell id="ct5YZA5BsSOBDLUgeaoR-24" value="precioTratamientoIndividual" style="html=1;verticalAlign=bottom;endArrow=open;dashed=1;endSize=8;curved=0;rounded=0;" parent="1" edge="1">
          <mxGeometry relative="1" as="geometry">
            <mxPoint x="330" y="563" as="sourcePoint" />
            <mxPoint x="180" y="563" as="targetPoint" />
          </mxGeometry>
        </mxCell>
        <mxCell id="ct5YZA5BsSOBDLUgeaoR-25" value="precioTotal += precioTratamientoIndividual" style="rounded=0;whiteSpace=wrap;html=1;" parent="1" vertex="1">
          <mxGeometry x="185" y="590" width="159" height="60" as="geometry" />
        </mxCell>
        <mxCell id="ct5YZA5BsSOBDLUgeaoR-27" value="totalConjuntoTratamiento" style="html=1;verticalAlign=bottom;endArrow=open;dashed=1;endSize=8;curved=0;rounded=0;" parent="1" target="ct5YZA5BsSOBDLUgeaoR-12" edge="1">
          <mxGeometry relative="1" as="geometry">
            <mxPoint x="165" y="676" as="sourcePoint" />
            <mxPoint x="26" y="676" as="targetPoint" />
          </mxGeometry>
        </mxCell>
        <mxCell id="ct5YZA5BsSOBDLUgeaoR-28" value="totalFactura = 0" style="rounded=0;whiteSpace=wrap;html=1;" parent="1" vertex="1">
          <mxGeometry x="-137" y="391" width="120" height="60" as="geometry" />
        </mxCell>
        <mxCell id="ct5YZA5BsSOBDLUgeaoR-29" value="totalItem = totalCombo * cantidad" style="rounded=0;whiteSpace=wrap;html=1;" parent="1" vertex="1">
          <mxGeometry x="28" y="705" width="135" height="60" as="geometry" />
        </mxCell>
        <mxCell id="ct5YZA5BsSOBDLUgeaoR-30" value="totalItem" style="html=1;verticalAlign=bottom;endArrow=open;dashed=1;endSize=8;curved=0;rounded=0;" parent="1" edge="1">
          <mxGeometry relative="1" as="geometry">
            <mxPoint x="9" y="694" as="sourcePoint" />
            <mxPoint x="-150" y="693" as="targetPoint" />
          </mxGeometry>
        </mxCell>
        <mxCell id="ct5YZA5BsSOBDLUgeaoR-31" value="totalFactura += totalItem" style="rounded=0;whiteSpace=wrap;html=1;" parent="1" vertex="1">
          <mxGeometry x="-132" y="736" width="120" height="60" as="geometry" />
        </mxCell>
        <mxCell id="ct5YZA5BsSOBDLUgeaoR-32" value="totalFactura" style="html=1;verticalAlign=bottom;endArrow=open;dashed=1;endSize=8;curved=0;rounded=0;" parent="1" edge="1">
          <mxGeometry relative="1" as="geometry">
            <mxPoint x="-156" y="729" as="sourcePoint" />
            <mxPoint x="-474.5" y="729" as="targetPoint" />
          </mxGeometry>
        </mxCell>
        <mxCell id="ct5YZA5BsSOBDLUgeaoR-34" value="for" style="shape=umlFrame;whiteSpace=wrap;html=1;pointerEvents=0;" parent="1" vertex="1">
          <mxGeometry x="-186.5" y="236" width="580.5" height="570" as="geometry" />
        </mxCell>
        <mxCell id="ct5YZA5BsSOBDLUgeaoR-35" value="[0..[tratamientos.size()]" style="text;html=1;strokeColor=none;fillColor=none;align=center;verticalAlign=middle;whiteSpace=wrap;rounded=0;" parent="1" vertex="1">
          <mxGeometry x="194" y="341" width="140" height="30" as="geometry" />
        </mxCell>
        <mxCell id="ct5YZA5BsSOBDLUgeaoR-36" value="[0..[items.size()]" style="text;html=1;strokeColor=none;fillColor=none;align=center;verticalAlign=middle;whiteSpace=wrap;rounded=0;" parent="1" vertex="1">
          <mxGeometry x="-122" y="245" width="130" height="30" as="geometry" />
        </mxCell>
        <mxCell id="A4i2rFd_N0FerUAMC1Gy-4" value=":Veterinaria" style="shape=umlLifeline;perimeter=lifelinePerimeter;whiteSpace=wrap;html=1;container=0;dropTarget=0;collapsible=0;recursiveResize=0;outlineConnect=0;portConstraint=eastwest;newEdgeStyle={&quot;edgeStyle&quot;:&quot;elbowEdgeStyle&quot;,&quot;elbow&quot;:&quot;vertical&quot;,&quot;curved&quot;:0,&quot;rounded&quot;:0};" parent="1" vertex="1">
          <mxGeometry x="-524" y="60" width="100" height="780" as="geometry" />
        </mxCell>
        <mxCell id="A4i2rFd_N0FerUAMC1Gy-16" value="" style="html=1;points=[[0,0,0,0,5],[0,1,0,0,-5],[1,0,0,0,5],[1,1,0,0,-5]];perimeter=orthogonalPerimeter;outlineConnect=0;targetShapes=umlLifeline;portConstraint=eastwest;newEdgeStyle={&quot;curved&quot;:0,&quot;rounded&quot;:0};" parent="A4i2rFd_N0FerUAMC1Gy-4" vertex="1">
          <mxGeometry x="51" y="609" width="10" height="40" as="geometry" />
        </mxCell>
        <mxCell id="A4i2rFd_N0FerUAMC1Gy-17" value="8. this.facturacionMensual.add(Factura)" style="html=1;align=left;spacingLeft=2;endArrow=block;rounded=0;edgeStyle=orthogonalEdgeStyle;curved=0;rounded=0;" parent="A4i2rFd_N0FerUAMC1Gy-4" target="A4i2rFd_N0FerUAMC1Gy-16" edge="1">
          <mxGeometry x="0.4188" y="12" relative="1" as="geometry">
            <mxPoint x="56" y="567" as="sourcePoint" />
            <Array as="points">
              <mxPoint x="86" y="597" />
            </Array>
            <mxPoint as="offset" />
          </mxGeometry>
        </mxCell>
        <mxCell id="A4i2rFd_N0FerUAMC1Gy-19" value="" style="html=1;points=[[0,0,0,0,5],[0,1,0,0,-5],[1,0,0,0,5],[1,1,0,0,-5]];perimeter=orthogonalPerimeter;outlineConnect=0;targetShapes=umlLifeline;portConstraint=eastwest;newEdgeStyle={&quot;curved&quot;:0,&quot;rounded&quot;:0};" parent="A4i2rFd_N0FerUAMC1Gy-4" vertex="1">
          <mxGeometry x="45" y="210" width="10" height="490" as="geometry" />
        </mxCell>
        <mxCell id="ct5YZA5BsSOBDLUgeaoR-2" value="&lt;font style=&quot;font-size: 10px;&quot;&gt;1. facturarServicio(ConjuntoTratamiento, DueÃ±o, Mascota)&lt;/font&gt;" style="html=1;verticalAlign=bottom;startArrow=oval;endArrow=block;startSize=8;edgeStyle=elbowEdgeStyle;elbow=vertical;curved=0;rounded=0;" parent="1" source="A4i2rFd_N0FerUAMC1Gy-5" edge="1">
          <mxGeometry x="1" y="142" relative="1" as="geometry">
            <mxPoint x="-758" y="130" as="sourcePoint" />
            <mxPoint x="-474" y="130" as="targetPoint" />
            <mxPoint x="-142" as="offset" />
          </mxGeometry>
        </mxCell>
        <mxCell id="A4i2rFd_N0FerUAMC1Gy-8" value="2. new Factura(DueÃ±o, Mascota)" style="html=1;verticalAlign=bottom;startArrow=oval;endArrow=block;startSize=8;edgeStyle=elbowEdgeStyle;elbow=vertical;curved=0;rounded=0;" parent="1" edge="1">
          <mxGeometry x="0.0664" y="10" relative="1" as="geometry">
            <mxPoint x="-469" y="140" as="sourcePoint" />
            <mxPoint x="-160.5" y="140" as="targetPoint" />
            <mxPoint as="offset" />
          </mxGeometry>
        </mxCell>
        <mxCell id="A4i2rFd_N0FerUAMC1Gy-9" value="" style="html=1;verticalAlign=bottom;startArrow=oval;endArrow=block;startSize=8;edgeStyle=elbowEdgeStyle;elbow=vertical;curved=0;rounded=0;" parent="1" target="A4i2rFd_N0FerUAMC1Gy-5" edge="1">
          <mxGeometry x="-0.0845" y="10" relative="1" as="geometry">
            <mxPoint x="-758" y="130" as="sourcePoint" />
            <mxPoint x="-474" y="130" as="targetPoint" />
            <mxPoint as="offset" />
          </mxGeometry>
        </mxCell>
        <mxCell id="A4i2rFd_N0FerUAMC1Gy-5" value="" style="html=1;points=[[0,0,0,0,5],[0,1,0,0,-5],[1,0,0,0,5],[1,1,0,0,-5]];perimeter=orthogonalPerimeter;outlineConnect=0;targetShapes=umlLifeline;portConstraint=eastwest;newEdgeStyle={&quot;curved&quot;:0,&quot;rounded&quot;:0};" parent="1" vertex="1">
          <mxGeometry x="-479" y="120" width="10" height="110" as="geometry" />
        </mxCell>
        <mxCell id="A4i2rFd_N0FerUAMC1Gy-11" value="3. agregarTratamiento(ConjuntoTratamiento)" style="html=1;verticalAlign=bottom;startArrow=oval;endArrow=block;startSize=8;edgeStyle=elbowEdgeStyle;elbow=vertical;curved=0;rounded=0;" parent="1" source="A4i2rFd_N0FerUAMC1Gy-12" edge="1">
          <mxGeometry x="1" y="136" relative="1" as="geometry">
            <mxPoint x="-469" y="190" as="sourcePoint" />
            <mxPoint x="-160.5" y="190" as="targetPoint" />
            <mxPoint x="-135" as="offset" />
          </mxGeometry>
        </mxCell>
        <mxCell id="A4i2rFd_N0FerUAMC1Gy-14" value="" style="html=1;verticalAlign=bottom;startArrow=oval;endArrow=block;startSize=8;edgeStyle=elbowEdgeStyle;elbow=vertical;curved=0;rounded=0;" parent="1" target="A4i2rFd_N0FerUAMC1Gy-12" edge="1">
          <mxGeometry x="0.0664" y="10" relative="1" as="geometry">
            <mxPoint x="-469" y="190" as="sourcePoint" />
            <mxPoint x="-160.5" y="190" as="targetPoint" />
            <mxPoint as="offset" />
          </mxGeometry>
        </mxCell>
        <mxCell id="A4i2rFd_N0FerUAMC1Gy-12" value="" style="html=1;points=[];perimeter=orthogonalPerimeter;outlineConnect=0;targetShapes=umlLifeline;portConstraint=eastwest;newEdgeStyle={&quot;edgeStyle&quot;:&quot;elbowEdgeStyle&quot;,&quot;elbow&quot;:&quot;vertical&quot;,&quot;curved&quot;:0,&quot;rounded&quot;:0};" parent="1" vertex="1">
          <mxGeometry x="-162" y="180" width="10" height="30" as="geometry" />
        </mxCell>
        <mxCell id="A4i2rFd_N0FerUAMC1Gy-18" value="totalFactura" style="html=1;verticalAlign=bottom;endArrow=open;dashed=1;endSize=8;curved=0;rounded=0;" parent="1" edge="1">
          <mxGeometry relative="1" as="geometry">
            <mxPoint x="-478.5" y="750" as="sourcePoint" />
            <mxPoint x="-684" y="750" as="targetPoint" />
          </mxGeometry>
        </mxCell>
        <mxCell id="KRvy2InHizURFNskHZFZ-1" value="" style="shape=image;verticalLabelPosition=bottom;labelBackgroundColor=default;verticalAlign=top;aspect=fixed;imageAspect=0;image=data:image/png,iVBORw0KGgoAAAANSUhEUgAABKYAAANACAYAAAARpGX3AAAAAXNSR0IArs4c6QAAAARnQU1BAACxjwv8YQUAAAAJcEhZcwAAEnQAABJ0Ad5mH3gAAABjaVRYdFNuaXBNZXRhZGF0YQAAAAAAeyJjbGlwUG9pbnRzIjpbeyJ4IjowLCJ5IjowfSx7IngiOjExOTAsInkiOjB9LHsieCI6MTE5MCwieSI6ODMzfSx7IngiOjAsInkiOjgzM31dfUBEog4AAP82SURBVHhe7L0HeBbXtba9jHrvEpIoAkQVvVeDKO4dF+LuuCZOcdo5cSpxcpL86T354jhxwb13mgHTe+8dJIQACfUu4N/30jtYVkAWIJm27uua65Vm9uw2I2nm0bPWvkREjrnNMAzDMAzDMAzDMAzDMD5XWvk+DcMwDMMwDMMwDMMwDONzxYQpwzAMwzAMwzAMwzAM46xgwpRhGIZhGIZhGIZhGIZxVjBhyjAMwzAMwzAMwzAMwzgrmDBlGIZhGIZhGIZhGIZhnBVMmDIMwzAMwzAMwzAMwzDOCiZMGYZhGIZhGIZhGIZhGGeFS9x2rO7LU8PPz08SEhL00zAMwzAuBCorKyU/P9/3nWEYxqkTEREhkZGRvu8MwzAMe74yPovTFqaSkpJk2rRp+mkYhmEYFwIzZsyQu+++2/edYRjGqfPtb39bvvWtb/m+MwzDMOz5yvgsTluYSklJkWXLlsnWhQsle8cO317DMAzDOD/pPWKE7CkokOuuu863xzAM49SZPHmyTJx4v/zzn3N8ewzDMC5erryyt9TW7rHnK6NRzliYmj1limxZscK31zAMwzDOTzJvvllKg4PtwckwjDMCYSozc5I89tjzvj2GYRgXLw8/nCkpKaX2fGU0iiU/NwzDMAzDMAzDMAzDMM4KJkwZhmEYhmEYhmEYhmEYZwUTpgzDMAzDMAzDMAzDMIyzgglThmEYhmEYhmEYhmEYxlnBhCnDMAzDMAzDMAzDMAzjrGDClGEYhmEYhmEYhmEYhnFWMGHKuOi55JJLxD8gQMKioiQkPFy/ro9/YKCEuv2hERF1x1z5z4tWfn4SFBIi4dHR+tmqVcv/yAaHhkpoZKS2ZxiGYRiGYTQfPHcGBvpLbGyYJCZGSlJS3cbXCQkREhYWJH5+9opmGMbFhf3WMy56AoODpU16ukz8yldk7K236tf1SeveXSbcfrtcdd99kuqO+fn7+460PFHx8dJvzBj5wre+Jf0zMyUyNtZ3pOUYds01cu3992u7hmEYhmEYRvMRGhooPXu2kZ/9bKI89dT9MmXKI7o999zD8s9/3ic33NBfkpOjfKUNwzAuDkyYMi56aqqrpSg/X6rKyyUuOVnFoPrEu32RcXFSXVkph7Kz5Whtre9Iy1NWWChbV62SGS++KFtWrpSykhLfkZZj/cKFsuC997RdwzAMwzAMo/nAMRUQ4CdRUaGSnX1YXn55ifzkJ2/JT3/6tvzqVx/I3LlbJD+/zFfaMAzj4sCEKeOi5+iRI1JeWioHs7MlIDBQYlu3lojYWLmkVSsNoUOs4iHi8IEDUl5SIseOHfOdeWIQtvqOHi3tu3WTkLAw397To7qqSg7n5srujRv1s8Z939IgvmVv26btGYZhGIZhGC1DXl6prFuXLfPnb9Vt0aLtkpV1WCoqqn0lTp3Q0CDp1i1Zrruun6SnJ0lISKDviGEYxrmLn9sm1315akRERMhDDz0ku9eulfz9+317DeP8pNUll2hupdZpaZrXqfjwYSlxG9936ddPBaE9mzbpvY7wxP6kdu0kITVVYhITNfcT4lV0QoJ07d9fBk+YoC4rhC44dvSoBAYFSWqnTpLUtq2eR1nyOFWUluonAhj7wyIjJaVDB20nwJ0THBYmyb5+ke8qxp1HHVGu/qT27ev6kOQePFw5XF0IbZzD/pSOHfUzPiVF+4OoVlleruGIbVxfEOBi3bmJrj7qPeLOpR+MibZwkTUcb1zr1ppzC9GstqZGx2cYFwIdevSQavez8eKLL/r2GIZhnDpjxoyRDh16ytSp63x7DOMTyC9FPqkhQzpJQUG5bN2aK/v2FfiO1hEZGSLt28dLRkaqpKUluPspXs8h91RRUYWWiYsLl/T0RBWhOnRIcOXiJSYmTPddemlXueqqPho2iDAVFOSvDq2OHRPds95Rqak5op/sy8hIcXVFqBgWHR2qdSUnR7v24/TrqKgQ7TN10x/qoD8pKdEqgtGfo0cb/6etcXEzcGAHiYiotucro1HI4nxav0lS3IvusmXLZPaUKbJlxQrfXsM4P0H0QXAZfdNNKupscvf2ugUL1PnUa/hwyd29W1bOmSNFeXnSZ9QoyRg2TKLj41WMQpxZv2iR7Nm8WYWn3iNGqOhUW12toXfUtW31ahW+RlxzjUTExKgwVFVRIfu2b5ePXnlF91Fv2y5dpODAARWiigsKZOf69XKktlb6uX6snjtXhbE09/LcISNDBS1yTpGQ/ejRo5Lt6pr/9tuy3/UVAanPpZdK1wEDVBBjfLi9ls2YIStmzdK8WhMffVQFM/oVFh0tZcXFsuDdd6X74MES6fqzc906WfThh9J94ECdB8QtL7/Wgb17Zc7rr2ubCGGGcSGQefPNUup+Nq677jrfHsMwjFNn8uTJkpk5SR577HnfHsP4hPDwYBV4vva1CZKTUygffbRBVq3aIxjyEXjKyqpUEBo/vodMmNBT/P1bSUCAv+Tllcjs2Zvk6afnaT2ZmT3kiit6aV21tUd136ZNORISEqDiUUxMqKurWg4eLJK1a7OlsrJaBYJnn10gS5bskMOHy6Rfv/byjW9cLvn5pfLkkx9LmzYxcvXVfSUsLFD7GRQU4M7d6/q3V0UuXFiIZoQilpdXab1/+tN0Pd/EKeNkPPxwpqSklNrzldEo5pgyDIfnJELQwUGEcyhryxYVmVitb9fGjZKzY4eG5w0cN052rFkj895+W9bOn6/CDC6pksJC2efKFB46pILR2gUL5OM33pCNS5aoC2r41VdrmNzs11+XVbNnS0VZmaT36SNBoaFaByGEuJLY/+bf/iYrXRlcWziYEKpy9+xRMUodTa6PB9z37/zzn7Jp+XIVnug3IhnlSgoKtP9r5s6VVXPmyK4NG1RIU6dTZaX2tcfgwZLQpo2Wn/fWW7Lo/fe1f+3cGMPdmAsOHjweQrjZtUF/Ni5dquNr37279oV6Kl1/DeNCwBxThmE0B+aYMhqjvmMKt9PIkV3khhsGyI03DpDRo7tKaWml7NhxQJYs2SnvvrtK3nhjhaxdm+XevYLVyVRQUKaf117bV11PL720VMWhN95YLrNmbZQtW/ar+yk2NlxFrOeeW6iurISESOnUKVHWrMlSh1ZFRY3WM2xYupZfuXKPik79+7eXdu3iZMaMDfLUU3PdfbxWz9+8eb9Mm7ZO3nxzhSxevF2qq2ulV6+2kptbqCJXZaW56I0TY44poylYjinD8IE4RB4phBvcU2kZGZLYpo2UFRVJcX6+htUld+igAlCvESNkwhe+IJfdeaf0GDJEw91wGeFe8sLp+MSlRJiehu+5ujr37SsTJk2SK+6+W1e9IxyP5Oq4mhDHaAtBiVBCziUxe0NURCMnVlaWCkO4lw66jbA7dXG1aqWheKzid+2DD8r1Dz+sqw0iqtFeaESEryZR4QvXFhvtIWzhovLAIYUINfaWW+QGV89V99wjA8ePV0cYYz7THFqGYRiGYRgXKzicnntugSY/f+KJt+QPf5gmK1bs1hA7hKcf/vB6mTz5BnnooTEyeHBHSUiIkNTUGOnaNVnLHDpUKtu356pjia24uEJKSipVdKqtPSKlpVVSWFgu5eXVTXY0ITghXH300UbZufOg1hcWFiSjR3eT73znKvnxj2+Qr351gowfnyHx8eGSnBwjwcEBvrMNwzBODxOmDKMeuIRKi4slIjpaOvbsqcnPC/Py1IHk5+enYW+4qfL271d31K7169U1Nf+dd2THunVSWljoq+kTNE9UeLjGzRKml7NzpzqRNixapKFzOKpKi4o0HA8XUl5OjgpbJ4NyuLsKDh3ScuS/4ntC/gjRo+9d+vfXsECOE26HeIUTi9BDLxwPEMAIT+T8hlAXuacIZUSEIrQwZ9cuFe9YmZB6cGoZhmEYhmEYpw7Jz9ev36eJzxcs2CbLlu3S57w+fdrKwIEd1RGFU2n79gNSWFgmrVpdojmjcDaRb4rwPESn5qSqqlYOHizWMENcUAhgPXu2kXHjemg43549eeqgogzhh4T7kWvVMAzjTLDfIoZRj8KDB3VDcCE5OEIOQhECDoIUwhFOKFatI1cTeZbY5r75pmxduVLLNUSdU8XFKv4ccnUtr3/eW29pyB/CF06lmpoaFZAaW/mvsXI8GCAipXXvru4tQvAI0yMHVhFClju3PvTtRK4sIMQQh1jbzp01XHfFzJmyeOpUFdVIfG4YhmEYhmE0L6mpsZo3KjIyWF1L//73XJk+fb3s3XtYXU88++GMIq8UIhUJyJuCe6RVMQt3E5+cS7JzhCWedz0QwxC7vGdMXFE9eqRoUvXly3fJCy8skrffXimbN+f4niub5sQyDMNoDBOmDKMehMYhwpA3iVXsyryQuYIC3Uc+JsLdWDUP0YZcUmy4lAjHAwQs/pgTwkeuJpKgH9q3T91UbTp3rlshzzsvJkbLEX7XLOCICgjQ9nlYQJxCqGJ1Plbgq++W+iwQuRgT9TCmgOBgDWNs3b59XZ/rPcQYhmEYhmEYZw4r6CEcEYqHEBUfHyHp6e75q3WUJh2vqTkq27blSnFxuYb2kacqKSlSN9xNnFtTU6t14axi9T5EKJ4NOUb+KFbU4zycUJTBiXUyaJO8WKzkx8YqfawAyKqB7LfnQcMwmgMTpgyjAYhTJPhGxCHBuBfmhluKJOIkE49KSJCr77tPHvnlL+Xhn/9c7vjud6X7kCFaLj8nR91MA8aOlVsee0xG33yz1rVk2jQN56t/3j0/+IEMGDdORarmgHA+8kXtWLtWwiIi5Iq77pIv/vjH2hd/1wdWAmwq5J/asHix7N+1S3oNGyZf+Na35KZHH5XUjh2lwpePyjAMwzAMw2g+SEK+dOlOCQkJkscfv0aefvpBufnmQSogkS8KcYjwv0WLdkhMTJh885tXyJQpj+j22GOXqZC1bdsBFYxYDe0Xv7hVxozppqF3Bw4Uy/XX95ff//4Ot/8WyczsLvv3F6pL6mRs335Q5s7domGHDz44Rv72t3vk0UfHq7OLfQ3d+IZhGKcD78mn5b9MSUmRZcuWyewpU2TLihW+vYZx/hMcFnbcBYVTihxThLwBLiJcTghTQcHB+kef/0Ah0pB7ieTluJRYOS8kPFzPoQ42wC1F7ibq4TycSIhg5Ikikbh/YKB+jwjGcfJT0Q/cW4QJnqwcfaKc5r/at09XEvSSk3v9IwSQEDycW2XFxep8Yj99I/G5BysT4ohiH/mn4t33rCrIuMhZ5QlS1GGr8hkXEpk33yyl7ufTljM2DONMmDx5snvhnySPPfa8b49hfIK/fysJDw9W1xEhcwhGCE71QVzC1YQYBVVVNe4Z75h+Igbl5ZWoEwoXlVcG2J+bS97SY7oCH04pnFe0UVZWpasB4njiORRBqbr6iNZJWGBW1mEN88OFxTm7duXpJ9Df9u3jjp/ruacQtEi6Tru2Kp9xMhBIU1JK7fnKaBQTpgzDMAzDYcKUYRjNgQlThmEYn2DClNEULJTPMAzDMAzDMAzDMAzDOCuYMGUYhmEYhmEYhmEYhmGcFUyYMgzDMAzDMAzDMAzDMM4KJkwZhmEYhmEYhmEYhmEYZ4UzTn5+ePduyd+/37fXMAzDMM4/cvfula79+0tWcbEl5zQM44wg+fl9931Fpk1b79tjGIZxcbJ9e66MHNnVfZVlz1dGo5yxMHW0rEyXjDcMwzCM85U9mzdL2y5dZOfBg/bgZBjGGYEw9ZWvfEvWrcvy7TEMw7g4Wblyj/Tu3VYqKnba85XRKGcsTM2eMkW2rFjh22sYhmEY5yeZN98spcHB9uBkGMYZgTCVmTlJHnvsed8ewzCMi5eHH86UlJRSe74yGsVyTBmGYRiGYRiGYRiGYRhnBROmDMMwDMMwDMMwDMMwjLOCCVOGYRiGYRiGYRiGYRjGWcGEKcMwDMMwDMMwDMMwDOOscFaFqeCwMAmLjJSgkBDfnouPVn5+EhwaKmFRUToPl1xCPvo6OMa+iOho/eT7zw3XD/+AAL0+oREREhAY6DvQctBeuJsH2vPz9/ftNQzDMAzDMC4mAgL8JCYmTJKSIt0WpVtiYqTbFyqtWn3yrNwUqCsiIlji48MlODjglM83DMMwWp6zKkwNv/pqufaBB6T/mDG+PRcfUXFxMvTKK+WGRx6R/mPHSkBQkO+ISGRMjAxw+yZ9+9vSLzNTouLjfUdaHn9/f0lNT5er7rtPLrv9dmnfvbvvSMvROi1Nbnz0Ubny7rsloU0b317DMAzDMAzjYqJjxwT5n/+5Sv7znwfl+ecf0e3JJ+9z+66WiIhT+4d2enqS3HvvKPnVrybJiBGdJSrq4v2HuGEYxrnKWRWm1i1YIPPeeUe2rFzp23PxUVpUJKWFheoWSu3USQUhDxxlyWlp6h4qPHhQy31eHKmtlUPZ2bLwvfdkybRpsn/3bt+RliN//36Z89prsuiDD3S8hmEYhmEYxsVFt27JMm5chiQnR8srryyVX/7yPfnxj9+Qn//8PXnuuQVSXl7lK9k0srMPy/vvr5Y//3mGrF2bJaWlp3a+YRiG0fKcVWHq0L59sm/7djl84IBvz5mRkJoq3QYOlPQ+fXx7zg0QllI6dpRew4dLSocOvr111FRVSWFenpQVFUlMYqLEpaRIYHCwhu5FJyRITFKSijTFhw9r2c+CsTMHzMWZcOzYMSkvKZF9O3aoKEX/WpqK0lLJ2rpVcnbtksryct9ewzAMwzAM40KBcLorr+wtw4ala4heQ9iHY6q29ojMm7dF5s7dIgsWbJMlS3bIxo05UlNzRMWrzMzuMmBAmu+sk1NSUik7dx6SVav2yKFDJXq+YRiGcW5BkPWxui9PjZSUFFm2bJnMnjJFtqxY4dt7aiS2bav5lcqKi6Xw0CEVb8ix5B8YKIGEtLmvjx09KkX5+VKUl6fCDDmP4lNTNecRZY+64zXV1VJVXi6d+/aVdt26SXVlpayaM0eFFcQv2ohr3VoFHzh65IgKPQWuTepMbNNGQ+hoNyAg4Hgup5KCAik4eFD716pVK4mMi1PxyMsFRT30jTI4njgWEROj59ZvgzEMmjBBOvbqJTvWrpUVs2ZJZVmZloPW7dtLz2HDpPvgwbJ0+nTZ5OYV5xTfE+a4YfFiWT1vnhS7tsKjoyXezT3t0Yeqigp1UtFHxjH48sslyI0XwW/3pk2S58Zf7cZInipCATkPEIEQBJmjUDenzE+tm0edAzcX9I9rwjmMhfqZa8ohWlEP14Cva2tqJC8n57ijq+E1OuLOp72cnTvViYXgxlweceeRT4oyzHWVu26RsbHH62M/7RPueImbf25Wxsuc464yDMNoTjJvvllK3d+J6667zrfHMAzj1Jk8ebJkZk6Sxx573rfn1IiKCpX09ESprT0qYWE8m/q7ZyJRQWXfvgLJzS2SyMgQzbmEeLN9+0H9ZB85mcjNtGdPnp4fGxuueZmOHDkq4eHB+mxVXV0jFRU1ui86mpxNrXTfwYPFWheEhASqY6l16ygJDKxz8xcXV6j7qLCwXOts2zZOqqpqJTjYX4KCAvT4pk05EhcX7t4Tol1/QvU8yMsr0b6XlVVJmzYx8r//e7Wrq0CmTl3r3id2+UrVMXp0V7n22n6SkBAhf/jDdNmyJfe4S8rf30/n5ooreknXrsmSn18q06atlwMHiqSyssbNV5BujD0qKlhKSqq0X8yfNy+Ml3GTd4r5QCjz5qX+HHA8NTXG9SNS/Pzq/pdfWlqpc11cjNhl7n7DaAoPP5zpfieU2vOV0ShnVZi64u67VZTZuW6dLJ81SyY++qiKIgg/oeHhKkbw/aalS1VoQkjp0r+/jLjmGhWZVBSprpbiggI5mJUlHTIyVBxCQCkrLFT3zYL33lMBDGEIQQT4g7R9zRpZOXu2HMzOlsvvuENiW7eWENcm9eJw4nPXhg1ahrKIPX1HjVIBScUaBLGqKtmwZImsX7hQnU0cb9e1qwo5TOrO9etl9dy5cnDvXhnpfhDbdO4sWdu2ydp58yR3zx7tC5Dwu3O/fppza6/r85KpU1VM6+Orb/Zrr8nujRu1D90GDJCB48ercNfK9bPUjR0BaoebQ85nPhGEKisqpMDNF+NHzEG06+rmTs/z85PDubk6tl2u3rZdumj/EJYYNyGEzAuCGMIYQt/2tWt1vJRDXEKYYr6YS4QkQv42LV+uZchHxTVCpKMc5fP275d3/vlPFev6uToZW2VpqTrEgHBOxEf204+P33hD55j5zhg61D0Q+Imfq4vx0s68t95yDwa1WLv0fMMwjDPFhCnDMJqDMxWm+vVrL9/85uUqHiHyIBL5+7dyz0XH5L33Vss776xSx9Dll/dS0eX3v5+mn716tZGrruojgwd3lKee+lidQiNHdpGBAztIUVGFCllBQf6u3moVdBBXOnRIcPUH6D5cSX/60wwVeDp3TpKrr+4jl17aVYKD69rPyjosb7+9UpYv3yW9e7eVe+4ZKXl5pSqeIXpt2bJf/vKXmTJ6dDcZP76HpKUlqPiF8LNy5R55991V6njKyEiRO+8c4fpQouP5+OMtvpHX4Y1t3LgesmLFbnn//TUqKNEvuP/+0TJmTDcV4RDr6MNHH23Q8XBux46JbrzlKipt23ZABSTEKm9eENGYE4Qtzo+MDFbxreEc9O/f3v096CdDh6br3DMHiIIcW7cu25Wbrv0xDKNxTJgymgLWoMl1X54aERER8tBDD8nutWtP271C2BkOIBxHhG/1GDxYHTMIOrNeeUWWzZyp30clJKiggUDSZ+RI/Zz50ksy5/XXVVxZt3ChCjNHESouuUQFqdf//GcVOxCtEEU2LVmiTqXlH32kbiTqBcLU0nv31mTbOHrmvvmmLHr/fXU54fpBZCKsjFxPgy+7TMvPf+cdFYtWubYRjJLat1fBiP+2zHzxRT2OQwhBLCE5WUWobatXq4CF2IU7CFHNA8cXAg6iEqLX3s2bVdRJ695djy2dNk0dS11dG1369VMh6sNnnpEty5eriEfScAS6jW6MoWFhkp+bq3mhPnbzQ54oEqdHu3o3Ll4s06ZM0T4ktmsnsa5vtFtTU6PXArfUmnnzZOpzz6kYhziGaIWwhCiIUEQ5BKXl7towB8wHubEARxcOLa7nxqVLZaWbb9xfhAG2cWWYU8ogAnbo2VOvPfmkFrj52uquFUJbp1699PrucWNk3rK3bZPVH3+s143rimiG+IhrCvGRPhmGYTQHHXr0kGr3e+hF93vcMAzjdBkzZox06NBTpk5d59tzauBUGjGii0RHh8nrry+Xf/3rY1myZKcKLW3bxsratdkSHh6kSb1xLC1evEM/EWo6d26t5Qhbq66ulU6dEo8LND/96duyYsUudWS1axcnu3fnyf/93zu6D2HJc0BlZeXLzTcP0n7MnLlRhS9cTdTVrl2sijhVVTUaiofQhXD0+99P1TKDBnWUCRN6yv79BdrvZ59dIAUF5ZKRkarCGGIU/f3oo40yZ85m14d8Fa/qgyNr7958OXy4zNWVoWIbYXs4whYu3C7r1mWpmwlRiTC/n/3sHVm+fLcmNUecw621bVuu7ucalJdXq1jlzQuuK+aJ8vTht7/9UFau3P1fc3D99f1VXJs/f6vOE+Pr0CFe5zknp1AWLdru67FhGI2BEBwRUW3PV0ajtEiOKcSFy++6S+56/HG5/TvfkXG33ipxycm+o42DiIGYciArS50zCB8ITgg1CCUIVNSFc6f3iBEqVCACEcpHyBruHVw7CDkISghLvGxMuPNOuenLX9YtY9gwzcFEGJkHDiPaJAQO4Wjfzp0qkCD8IIwltWunTiREOIQu+kkbuJFiExP1OI6tcZMm6Qp7A8eN03xSYdHR6iyiT+X005WnT/VBpKooK9OwwxA3HlbDQ+wJdG0f2LtXx4WYg3CV7OrsOXSormZ4mRsT+aSi4+I03A0RCxcRIhXzQVuIa4wVgQmnFX2jj+3c9zGE1PkEOvqEs4u5L2fuXH/qi2celEN4Ouw2Qv3IQYX7inmi77i62nbtqn2jravuvVdXG0RwI3wP8Qtq3NzS1u4NG1T0OtG8xCYlSb/Ro+V6Vw/Xbewtt+i9pWGJvvA+wzAMwzCM8wHC4m69dbD85jdfkD//+S75wQ+uk8su6+k7+mn4xxthZQgsiDT79xfK9u0H1O2TnByl4lJTwOlTUlKh5+KSys0tVocRX+Mk8vbhqAoI8NO6e/RIUREKV9RNNw2UH/3oBnn00XHSp087SUmJUYEJEJQIe9u165CKTziJunZtrWLVrl15sm7dPjlwoFhmzNigIlhAQCsVlxDMcDTh6OLrhhCGx9g//niz/N//vatJy7duPaAvt488ksn/oFUY41xcTgUFZRrqR38IsyOsb+nSnXLoULE6yU7cxhEVvrZudc/1bj7o644dB3XevTlo3z5Ox8Q8kZtq8+YcdUoxJvpgGIZhNB8t8maPYIOgsnfLFnW5EBaGyNMUvFXqEHIQRhBI+COBs4ccRJuXL1e3DqF7uH6GXHGFOpkQMSjTEFxHhMkRLkd/2BBUyHtEyJ4HLiAcOIhZ2q77pAziR2BgoApgQB8QfupD+BtuKfJJ4Yzas3mzrF+0SEPyCNvDJdRQdGkI7TEm2kaUQujCYcQ84lhClKMd2mY+CQkkXxWOscWuHdpt2C/6hPhG/xkfddE3yuKowkGGI8k1qm1oPq3Gkpz7yiEOIgYyJgQlRDBC+hDgEM9I8o54hGCFcEVIIdeQ+aZPwP3Aca41dTYkIjZWOvbsqWIfwiT14KDi3tIQTzcmry7DMAzDMIxzHUQO8irh+FmzZq9s3rxfBZgTceTIMQ0bwz2EsIKQgpDDsw+hdYGBdflQPwuev8izRH4nT7ipE3RqtD6EK/ax8ViF8EX+JdrgOE6r1av3yMKF2+SVV5bIm2+uUHHGPRIez3mFwAP0DScTkIuJjTYRihDHaAvxqylQN2IQoXy4mkh8Tn/69m0vrVtHq2vrRFRX1wlOhB0icJ0MyiGOHTxYon2s319vDgihZF5wXPF8Tn4sTwQzDMMwmpcWEaYQEAi/Ik/QvLff1lA7XEhNAcEC58+JQKRCWFn4/vsqrOBeImH6gLFjjyfbbgghYyQFR/QhTA8RBxdWQ6EMIQy31YlAOEGIAZxBDdtBnMHxhNBCKBz5j7yx8z2CDw8GjUEdCE4IQ3FJSepkIjG55xijfvpQ5tu34N13tQ02wuEIhSMkrz4IW55zjJBGQiS9c9iWzZghe7bUxfXTP/pwsrn3aKwc4h2CWvtu3XS+CcVEREQM1LnlKcYHop8nAp4IXGgpnTppnYQFznvnHc15xRwzLsMwDMMwjPMJRCYEnmeema9hbq+9tkxWr97rO/ppeD5CzEGgORmtWl2iAo33fzrEJMLR2O+BGERSb0QXvv4sKIP4QnlEs2XLdmpfva2uz3V5UhFxEGsQ3IA+47yCiIgQFalIGk5oHQ4v+tXYeE4GridcSri7vDHzD9ETQZ8IxcNJdZJHTKWxcowD4apOpPLX/FQefI1gZRiGYTQv51UsFI4bVnwjjAuxCLcP+ZI899NR/rK4DWcRZSiLiOSJQuQmapOerqGAhJw1FQQUxDbEGFbEI3eUt1ocLiF1GhUX64p1JOsm7E5D12JjVVjhP0iUIxyRz/pOLQ+EMUSX/Jwc7b8mKHf1HnDtMj6OIVwxbpKLk2xd++A2cjUFuHNwMHGcJOE4pVhtj/MIPWS8hAh659Sfn+aCPvOgQD/4o04fyN2FMBjk+nf8yakJ4H5r5cozHuqKdHOH6EXfTzR/hmEYhmEYFws1NUdVUImPD9cQQTZCzxCBTibaNAUcQoTNEZ5HHquePVOP18/GynYkMz8RiE6syofYQy4mkriTE4twRXI3VVYSwlehydZZcY8VA09UF/tI+l6/3bS0eElMjNDwPFxauKcAIS4pKUpDBElO3hwgziEi5ueXqRDFKoBeP0gWHxtbF0VhGIZhNB/nlTCVmJqqOYseeOIJeeTnP5dJ3/qW9B4+XBNuEzJIuBf5mLoPHqxlKEuSbNxarAT34E9/qiv/IRAhNjUVnEpeCBy5mW788pe1/S9OniyjrrtOV5PDzUMY4uibbpL7f/ITPX7n44/rSnmIQmPc/i98+9syZuJEFWtOBAIUea4QY3BLHd7/6aTyJATfvGyZuonu/t73tI2HfvYzufmrX9UV9wgZRCQjp9Rld9yh+b0IY8QpRe4sVubjHLYH3XlX3nOPhjo2F8wDyeCzXVvkhqL9q++7T0MTSwoLT8npRIJ3+o2gde3998sD7toNGj9e81gxN4ZhGIZhGBcru3cfkq1bczUB+l//eo9MmfKITJo0RN1En+UWagrkhdqwYZ8MH95Z62Z7+ukH5dvfvlL690/zlfo05H2aM2eTht6lpsbKE0/cJE89db+uoldQUCozZ27QXFcjRnSW3/3udvnhD6/TFe8awr7Jk2883i7bffeN0vDDl15aoqF02dmHVYgiB9a//vVFuffeUZr/qjnAKUVer/ffX60iGCvzef1AbDMMwzCaHywsp/WnKyUlRZYtWyazp0yRLStW+PaeGggoJPiuKClRAYnV7Y7U1KiQhPjAf3wQkcgPRXJywu9wzoRERKgLCRBxCH/Ly8mRgKCg4w4ijlNvaXGx5mdiH/WpPdfVhbuK3Eg4inBBsSJcqWsXAcVzOEUnJGjeJl0RsKpKV7YjgbfnMtK4fXesMC9PHT7atuurB+Fr5FDy2qBOQvIQcE4kjHnjpR5cR7TL5kEbuJxwZHn5tHQ8bl6ok3mjz9TBXNA+4Y44vegXDi7PbcR5zDFzxzhwkzF2L7+XNwfspy+UPVE5Pz+/T80fObiYJ3JEMR7PxcW5CHxcZ8QlrgffM3eUAdqjLu4BEqIzz4zHy+/FeCjLNUEEZLyeG84wDONMybz5ZikNDrbljA3DOCMmT54smZmT5LHHnvftOTVw/+B+Ki2t0vxM5DjCRRQfH6FOInJPVVZWaznEGMLleCwmNK2mplaf4RBUyLGEw4lwNJKnExKHcEXycpxGhMbl5ZVo3ifPdUQYH2W9fZT18lnx7EiSc3I48fzFKnecTz2IRh6cU1dfXb4pqEuyXqShf+RvYlVAcl3t3++e4V0d9WGcOL+8fFXAWHAxIUgxHzExodoGnzicyBWFMBYaGqRzwfi93FDUg0OLcELO5/mUsTYsR33ML/PEHBCyh0sKVxpzDCSAJ8E7wtVvfztV9xmG0TgPP5zpfqZL7fnKaJQWEaYQmFI7dlQRwzBaAsQuHHJs5qAyDKM5MGHKMIzm4EyFKePcg9xWiHxf+MJQ6d49Rd1kf/vbR76jhmE0hglTRlNoEWGKHEjpvXtrLibDaAlwgbEq4fY1a9Q5ZRiGcaaYMGUYRnNgwtSFQfv28eqYCg0NVMcUTrDRo7tpqCRhie+9t9pX0jCMxjBhymgKLSJMGYZhGMb5hglThmE0ByZMXRjcdtsQGTu2hyZw9yDUEVFq6tR1Gu5nGMZnY8KU0RTOq+TnhmEYhmEYhmEYLc3bb6+U73znJbnjjn8c37785Wc1ATu5vwzDMIzmw4QpwzAMwzAMwzCMelRW1mgidFxS3lZUVK6hfCRcNwzDMJoPE6YMwzAMwzAMwzAMwzCMs4IJU40QFR8vad27S/dBg45vnfv106TugcGfLGF7OrBUbXRCgiaKT05Lk+CwMN+RkxMZGyttu3TRzc/f37f35Fzi2giLjJR23bpJt4EDj4+Br2kzJDzcV7Jp0KbXPn0xDMMwDMMwzm/i4yOkZ8820qdPW115jhXoTpWQkABNFj5wYAdJTo6WwMDPfk5tKvSPlfB69EiV8PAgueSST/fPWzGP/jMOyhuGYRjnFyZMnQD+4CE8dRswQDJvvVWufeABueree3Ubd9tt0tXtD404sz96fgEBKvAMveIKyRg2TEWwz6Jd164yZuJE3YJCQ317T4w3hvY9emj5q7/4Re3/lW674q67pKdrE2HsVKC+QRMm6JbcoYNvr2EYhmEYhnG+kpGRKnffPUIefHCMdOmSJP7+fr4jTSc2NlzGjeshjz12uQwZ0kkiI0N8R84c+nf77cPkjjuGqejFCnn1ob/0m/4zDsobhmEY5xcmTJ0A/8DA486iw7m58vpf/yr/ePxx3Z79v/+TJR9+KEX5+b7Sp0dNdbVsWrpU3v7nP2Xum2/Koexs35HmAREJVxTCV3lxsXz4zDPa///ntn/+4AfysWvzwN69vtJNo7KsTD74z39027F2rW+vYRiGYRiGYRiGYRjG6WHC1AkgzC4iOloCgoKkqrxcivPzpay4WLfykhKprqqSY0eP+kqfJseOSW1NjYo91ZWVcvTIEd+BptO2c2cZeuWV0j8z07fnE3BkEcYXGh4uVRUVUlpY+OkxuDaDQkKkU+/eMuGOOyStR4/PDCc85vpc6eaDjb4bhmEYhmEYzUvr1lFy000D5f77R0u7dnG+vZ9NVFSIDB3aSb72tQkyYECaREScftqJ66/vL1/4wlDp1autb49hGIZhtBwEaZ/WshIpKSmybNkymT1limxZscK399QgXxPiCWFnXs6ivVu26Gd8cvLx8LajR4+qc2nfjh1SeOiQdO7bV+LccYQVQDBBfNm1YYPk5eRo7iTC7agbkenIkSNSlJcnuzdulEL3Gde6teaJioyJ0TxMCDKUo47cvXu1XMbQoSr44DZaM2+ebHJjbYg/4XidO0tyx44qAEFtba3k7tolWdu2qQhEX1q3b6/lELoYa3lpqRx07SBwJbRpI2VFRZKzc6dUlJVpu1FxcRIQGKjjRgTauX69jr+Lm69+Y8ZoO7i4vJxRnDf7lVd0bJ7ARVtJboxX3HOPimsbFi/WMVS4toH57tizp3Rz56e4/u93fT6YlSV7Nm/WMaekp0ulKxvh5gj3VUlBgc5/qttPG5RnvrgWiFRhUVES6BtfjRsX48/ds0fb07Z69ZKYxETx8/NTtxjCGOPP379fnVtevwzDMM4WmTffLKXu9911113n22MYhnHqTJ48WTIzJ8ljjz3v29N0OndOkksv7SajR3eVsLAgWbs2S9aty5aNG/fJnj15Mn58hiQlRUlQUIA+J5aWVsrSpTulqqpW8yuNHt1NevRIkc2b98uOHQdl1ao9kpdXIt26JUtqaow+h+lz9eEyrXfbtlwZPryzXH11HwkNDZQXXlgkBw4Uy333jdJwvNmzN8mbb376OZ/8UUlJkTJsWLrmdiKULjjYXxITo6R9+zh56aUlMn/+VqmurpWuXVuruBUcHFD3DFxe5caRLwsWbHN9rtGwu44dE2T//iIdK+e0bRvrzkuW2NgwWbRou+t7ipuTrq7+SFm/Pvv4iniskrdly34dR79+7eSuu0a4+qvl/ffXyLx5W7Rv5LyiPuaL94F9+wpkyZKdcvBgsdZhGEbL8/DDmZKSUmrPV0ajEEQ+ue7LUyMiIkIeeugh2b12rYoLp8Pgyy5TASkhNVUi4+NVTEFA4pN98W4LjYzUfEaIVAgeh/bt01xLSe3aSWRcnJZBsEH0QOBANCFhOQIOgkqI62drVxYBCKif+noOHarn4YxCmEKsQmAKc+URVHAykUcKkQhxhj+mtIFTqra6Wh1J9LFfZqa0SU+XcFeGcimubsohSiHYIKD1GTVK2nfrpiIVbZFEHFGHcr1HjNB9CE+IM+m9e0t8SorWFev6hKBFewUHD6rAQ3geIDKFR0Vp2CFuqMMHDkiFaxORDpgH2kAwox3GEuLaQUBCjEPUa+36qonMXVuU59wSVxf5q4ZcfrnOMfPCHDIWnFaD3DVLdOMuPnxY6xl1/fXS2vUp2l0frhVtkdAdYS3PXSsefhj7oPHjtS7GGpOQoHPWxo0NgYqxM9+GYRhnkw49eki1+/384osv+vYYhmGcOmPcM2iHDj1l6tR1vj1NB4dU//7tJSOjjQpAiDCILZWVtZrU+5ZbBklCQqS6oRBcevduJ/7+rTDi67k9e6aqgFNbe1Sf6xClOLdLl9bSsWOixMWFqRDUoUOCnrdpU457YYzR4wEBfrJ+/T49NyYmVEpLq2Tv3nzZteuQr3d1xMWFq5h1ww39VfwhITltInwFBPirwES7bdrEyFVX9ZF+/dqryIWYlZ6e5NqOl+zsw1JSUilDhnSUCRN6ar0bN+ZITc0RTXR+2WU9VfhiX0REiKSluWfHNrEq1tEeY6Uu+rl/f6HuQwDj/G3bDkhubpGMGNFFhbq0tHiJjg518xXnxpkshYXlKmpVVJj73zA+DxCIIyKq7fnKaJQWEaZwziDCIGgEh4Sos0iFj6OfDn9L79NHRSIED/IsLZs+XcUlXFE4cnasWyfb16zRsggeiDDbVq+W7G3bZPPy5bJl5Up18uB+4rzt7hhiSq8RI6SivFze/sc/ZNWcOSp6sJ/V6SjnuZiCwsJk05Il8tHLL0vW9u3qsEJsqqmslF0bN6qDKND1H2dRjyFD1B2EOIbDKTg0VBOII26tW7hQFrz7rvbpSG2t5qZCtGHctNO1f39Zt2CBzH/nHVk+c6ZsXbVKhSQEKEQdRCzGi+OJXFO0zbgLDx5UQQ1xDEcVwlJ9YYp95HrC4UWfPFHKg77s2bRJ+9o2PV26Dx6sY6BfzAPusmPuuiB4LXz/fVk6Y4Zkbd2qIlYX12fEprXz58viDz7Q9qrcvHR3Y4Pc3btVVML1hsi1zJ274L33ZJ+7NohxzKPOqauL+WCs895+Wxa5uvLc/RLtxsQ1Ydz0xYQpwzDONiZMGYbRHJxMmEIICg8PlujoMBWWgoMDdUW56upP0jkgqOTnl6mog6vn73+fJR9+uE7L33PPSHUm/f3vs+W55xaoIwrBZtCgjirGbNq0X8UkRKIpUxbKq68uVZEoP79Uyy5btksdSAUF5VqGVfRwLuF0wqmFMLV69R7ZsCFHXUWLF+/4L1GKCINOnRI11NB9KX/72yzty759h1VQCw2tc3khqPXvn6ZOJ+bh6afnq4uKf/SOHNlFQkICZffuPA1bRCRj3LihEJYQoBDKEL3oB3XivEJ8mjVrk2vzI1c2S8fgubEQmhC0OJ+xIno98kimm9samTFjg5vDtXLoUImKXYQ8MieIY4ZhtDwmTBlNoUVyTOGCuuGRR+SRX/xCHvzpT+Xq++6TRJ9jqSEaIrZ9u24IKYBr6MYvfUnPZyO8Ql1JkZHqImrlV7daCOX6uz/+hLvNef11FU5wUCGMIZxg2YVDOTkqkvDHEFEKGzMOoFLXdm5WlraLIITDB3cSghplSXBOonMSnrMdPnhQeo8cKb2GD9cwOcZUSfifawsnFi6ijUuWSL4rhyuKviKoIWYhvhBS1xgIT1e5ufrij3+s4574la+o2ygiLk7FpNNl5Zw58tLvfy+v/OEPKvYh3OEoQxg6GUfdnBzYs0eFKsZ2MhAcCw4c0LkjBJBrgaDXys0fwhZtIKzhxCK8D1cY5fkapxeOKsMwDMMwjAsdHEWEyD311P3y/POPyK9/PUmuu66/7+jJwRWE6wfH0fbthzR8D/LySmXRom0a/oaTCIHmROCU+p//uVqefvpBbffxx685LtAgThHC11RO1hdCA5cu3SVlZVX6j1LcXYwXV9L27Qd0P+LTmjVZsnPnQRWdENmaSk1NrY53+/Zcqa1FfDqkIXyId4mJEZ9aqY9x9enTRlfwQwRjvE8++UX9RAQjFBKB0DAMwzh3aBFhijxFc954Q97461/lzX/8Q+a/+66Gop0InDIIFJ4oRTJuXDgIFrNeeUXe/PvfZcVHH0l+bq66kBClSIzllUNAWjlrltbBH0L+k+N2qmCivmYHXyO0AOU5Tnu0jVuL8yiDkMUZWsaBw4s8SJRBdNqwcKEKK15Ingpk7lzOo7+Ur6mpURcS0Bc26lTHmK8/JwKX0fCrr9bwxCVTp+rcMX4ELXWa+fp0OiCM0W9CFFfOnq3OLMIcvRxdJ4LxFLkxI6Y1Jh5xrLigQN1TjI/NEwR1/Fwv5sCVY851rr2vG6nXMAzDMAzjQuLgwRJ5991V8tOfvi0//OEb8qc/TZe5czf7jp4cnktxW/FcVffM6Xu+dc9RuK14tqLMiR4VyS01blwPSU6OkpdfXiw///m76l4iRI5zEHS8596mcPK+HFOBjEddNpxg+gzsviE0kONHjvCcfES/57irTc9tCtSpz4+uDr726qJe2qlPXR/9tG3Esn/8Y7b84Aevy3e/+6p8/evPy+9/P1VzbxmGYRjnDi0iTCHiEG5H2B2hZoSc4aQ5EfxRI2G4R0JKijptSouKZOPSpVpHWUmJ76io2ymlUyfpNmCAiiskPN+9aZPWUeHK4YLCDUVOKs9Z5eVr4i8ZAoqKRPrH7UidIMZfuM/CleEPoieskL+JcRJeqPmVIiJUsGrj+kYeJ8owBsL0/P39jyc0PxmcT86lI67vzB1J4BGQTuVhoalQp47FbY2BoEW5z6KxcjjQuB7knyLHFNeM0EIvqXpLjM8wDMMwDONco6KiWnbuPCRLluyQhQu3qTiSnV3gO3pySBhOGFpRUbk6lUJC6pxRhPcRgocIQyJxhJqG4A4ipxQuo3nztuqWlXXYPX/5Cpwi9AV3FPURhuf1BbcW3wcG+umzHaF0hNfVJUqP0uPkeSI5OiF4OKioAwghJAdVnVgl+nV8fN2iQh6IYeSaoi7ENOogzxRli4sr9Pncg3neu/ewzhfk5BTofHsbTityYBmGYRjnDi0iTJ0JCFiIR4gX7bt21ZxGhMwhYvBHB3GHvE4k2EbMQRgiGTr7EIQI28NlhAOJ3E49Bg/+VHJ0wvMQShoDQYucSOTA4nw2Vq/rkJGhghTuLfIz6Qp2RUUabkd4HzmnCJPDMZXvjiPIaf4kNybOpQ7qol7q94QzYKU6hCz+60MuLFbn4xwSwZ8M6iD/Fe3r6ob1/mNE6B/iHG2xch/tUie5shDj6B/jYIVAnk5Yma+Tq4t8XYRCNheIa4T2EdpI+2zkryK3GPsMwzAMwzCMT0BgQtiJigqVgQPTNHdSZWWNrr5HfipySo0d20NX7+vdu63mSmK1OU+8As4ZPLiThrPhquL5kn2EtpEgHZHHczvVB3GI1fBIWE47hO3Vh0TsiGmshoc4NGRIJ+0LoYGURSRD9CLEbuvW/ZrLidxTY8Z0k8sv76XJzmmDfFL0lZxYrChIInMSlVPXifqHy4rQP2/lwSuv7K2rDyJCITTVz9NF+CArGK5evVciI4OPzxcb/WDFPwQtwzAM49yhRZKfN5XU9HTNRcT55HgCRBxyPCE2dR8yRNL79lWhinC6ksOHVeRAbAmPjtak3dTB9whVhObhNiIXFN/3GDRIOvfvr24pRBgSdJMPChGHcxGoyG2FOIPohdCDk6essFBik5J0xb2ew4drHzr07KlCGDmktq1apcIUSdoRxtJ69FCxxROISMq+btEiTeztiWwde/XSOqiLvEu4thCjWFkP5xUiFrmXGDeClCe8MS8ISTjDEJtwZ1W780j0jmjXd/RorY9zNZzR51wi1JAV91g1TxO39+un9bIiHueu9/UPcSy1Uydp17mzikU4nwhfpBzjI/yPMECg/XauXySHz/UJbiRjr1+O8EDO5fowpr3kqHLHEQYR0ZgHVkkknxbj4noecJslPzcM42xjyc8Nw2gOzmRVPsB1hBsKEQaBqHXraBWfpk9fJxkZqboiHuJMt251wsyrry6TNWv26up0uIkow2p9hPEh/uCQImH5qFFdZcSIzpp4/MCBYnUt4drCscRKe4g/CE7kaJo4caAMGsRz4THZsGGfr2d14M4iLBGBB9Fn1KguKiwhMlHnunVZsnVrrraBe4r+Dh7cUfr2baf5rEjCTmJ2nFe0jQDXp087FbmGD08/Yf+CggK0LnJTjRuXIb16tVEBau7cLfL++6u1zySCR9AjETyrCebkFGmeK5KwI0hRN/1AOEPEI2eVYRgtjyU/N5oCntkmxLH9NykpKe4PyzKZPWWKbFmxwrf31MCZg8sHgcJzMXmr2bF5YV4aJnasLn8RoWH+7jw/3EG+44o7htBDSB/n4bCqH3OuIYPuOG3h1GGjXP0wNNr0cxuikX5PmXp11G8DAYjzj/e1XjnGQlvUSx8Qryjjwbkavujqox+Uo1/UhyPMq8sLG2SUiEVee4Dg5fXXmxfq8KAsddevz+NT/fPzOz5XWo87Rv+om3nge29+qJOyoOVcea5h/XJ6/Xzzyz4dl9tHP9gHiHEIVH0vvVTDNVmx8GQ5yAzDMD4vWGij1P2Ou+6663x7DMMwTp3JkydLZuYkeeyx5317Tg0cRYTABQXVPasiGJG/CSdVWJh7nnLPbm63gnCEm4pjPJcR8oawg0DF914eJurzQuX43nMjcS77EX+oE/cSeG1zPmXqo8+Yrn7C+Hh+5DzX1PE6Ea68ML364wCvT4hKXn8pw+Zxov55ea2ohraBMswLZXBq4aiiH95cUY4QQs712geOszGvhmG0PA8/nCkpKaX2fGU0Cr+l637znyLNIUwZFyc4ufqMGqUOqgXvvitbV63S1RkNwzDOJiZMGYbRHJypMGUYhnEhYcKU0RQ+baUxjGaGcERCCEdPnCjjbrtNxk+aJEOuuELDD8m/tX/37pMmxjcMwzAMwzAMwzAM48LGhCmjRSF8D3EqPjlZElJTJd5thAkiSpHnihxahFMahmEYhmEYhmEYhnHxYcKU0aIQordh8WJ5/S9/kZd+9zt56be/1e29p57S/eTsMgzDMAzDMAzDMAzj4sSEKcMwDMMwDMMwDMMwDOOsYMKUYRiGYRiGYRiGYRiGcVY471blCwgKkoyhQ7XjObt2aa6iphCdkCBdBwyQ8KgozWnEuTk7dkh5aamvxNklMjZWOvXqJTFJSbocLtTW1EhhXl5dyNsp5GGKiouT1mlpEuvq2rVxoxzOzZXqykrfUcMwDONE2Kp8hmE0BxfCqnzdu6dIjx4pkpwc7dsjUl5eLZs358iGDTlSVNS0hWv8/Fq5d4Zo6devvVRXH5EtW/bLrl2HfEcNw7gYsFX5jKZw3jmmEKZ6DR8uPd1GMu2mEBIeLm06d5Z+Y8ZIu65dNQF3WGSktPL395U4u4RFRUn7bt2k76WXav8S27WT+JQUiW3dWkUmT6hqKv6BgSrAxSQmSlBIyCmfbxiGYRiGYVx81AlJMXLppV1lzJju0qtXG2nfPl63Nm1iJTo6TPz9m/5ceckll0hwcIAkJkZKQkKEhIYG+o4YhmEYxiecVcdUYHCw++PmL0ePHpXK8qb95yU0MlImPvqofr1qzhxd2e2zaNuli/QaNkxSOnaUmS+9JPt375aqigrf0ZaHP8oqEPn5abLvhu6n9D59VJSKS06WaW4+9+/a9V/9CwgMVMHp2LFjUllW5ttrGIZhNBfmmDIMozk41x1TAQF+Khb5+/up8+no0U9eBUJCAuWqq/q4rbfs2HFQ3nxzhWzalOM7WgfPtdQRHh4sVVU1utXWHvUdNQzD+DTmmDKawlm10hBaN3riRHUytSS4rALcy0ZVVZXk7d//uYe1IcD1z8yUcbfeKum9e/v2fkJwaKgEh4VpWGFeTs4J+5fWo4eMvukmGXrFFb49hmEYhmEYhnFqpKcnyRe+MFS+8Y3LJSIi2Le3jlatLpGoqBAVn8rKqnRrCK6njIxU+d73rlEBq3XrT8L9DMMwDON0OCuOqaDgYBkwbpx0HzRIcyrhIDqUnS071q2Tza6uxLZtNY9UZEyMli8uKNA8S9tWrTqhYwphZ8R112loX2BQkFRT3759suCdd6Rz377Sc9gwSU1PF/+AAM1JtWvDBsnaulX8/P2l14gREhoRoX+AEYRwU62dP1+K8vK0D0nt2klweLiGxuFaotxB19dtq1fLjrVrtR9tO3eWzv36qSPLC5uj/U1ufnZv3Cih7vyrvvhFiWvdWja7fStdv0vcmDw6ZGSoOEc435KpU2XDkiXaPiCqdRs4UPqMGiWtXV+OHDkiB7OyJHfPHsnfv1/Co6MlOj5enViEKJJPKs+1fYnrR3JamqxduFBdaYyD9tnPOfQTIYz+LZ85U9vCsdWlf38VwQLcXIHmp0LQy8mRlbNn6z7DMIwLEXNMGYbRHJypYwrXUvv2cXL99f2ldesoCQz0l4qKatm585A8++wCGTGiswwe3FGPHXNP8TwbLl68QzfyN+GGGjOmmwwdmq7hc0eOHJWCgjJ5//016n7q3z9NbrxxgJ7/pz9Nl3XrsqWkpO6fopxL/bfdNkTPmzp1nbz99ko9BoTk0fb11/eTTp2SpLCwXHJyCmTr1lzdBgzoIIcPl0pMTJjExoZJVtZhWbBgqwwZ0kmqqmq1/erqWhk/PsPVf0yFMcrh2qKuadPWuf5kaT6qhnOASJabW6ShhHPnbnV17ZOios8vAsIwjNPDHFNGU/Bz2+S6L0+NiIgIeeihh2T32rUqkJwKiCOEtiEkIVIV5edrkm7EnNjERBVowlz92Tt2aPJv8i2RE6q2qkrKioulx+DBWk/u7t0aAojAlda9uxQcPKh1EO6W2qmTluEcQuA4/6jbv33NGhWnEJoQhGISEiRr2zY5fOCAil4JbduqgIXwQ4hdp969JSI6+rjgQ74qhCDEHtxXiDwIX4hpFaWlcsCdx/iS3Pc4pSpKSqSkqEj7gvhGvcVuvCQ29zjqHigQluhncocOktimTZ0g5uaIdqmHfFP0r9zVhyDGnDOH7d24Ecaog/k4lJMjPKVwfpobH2GBCG+ITQhnla6P9OFIba0mhKf/hYcOab1dBw7UBOz+fn6yd+tW7SNiF9cJ8dAT4gzDMC5EOrjfk9Xud/uLL77o22MYhnHqjBkzRjp06KmizunQpk2MXH11X+naNVl2786XnTsPyr59BSryeMITotHhw2WSn1+iwk1sbLjk5ZXqvt6928qECT21DOcgOpE3ikTmBQXl+n1+fqls337QbQc0nM8LxUPoQgRDKEIw6tw5STp2TJQePVJdmSMqLgUF+bs2o7W+vXvzZfPm/a5/hSqoXX55T4mPj9B+kOh8//5CfS4fPbqbREaGqEDG+ddc01edWQcPFsuePXX/jCWfVWVljdtXomGG48ZlyKBBHd2Y87Sf9K1Pn7aa74p5YE5IyG4YxrnNwIEdJCKi2p6vjEZpEWEKwYNV4RBCEJUQRnAjeWIMIkp+bq6uGocItHfLFlnw7rtSXlysDqZ2XbpIRVmZ7Nm8WQUTnD/Uw3+E9u3YcVyYys/J0fMHX3aZuqY4Rr04m9p1c38AY2PVtYQQpMKUO3/6Cy9IwYEDKn6x7du+Xea/8466tcgB1bp9e3UWIZR57eJuon+4nRB0cHmRsJxxJ7Rpoy4jBLPVH38s6+bPV5GL8ZO4nHHjzsLllLNzp4pA9UUpIJ9UyeHD6gyLiInR+aPtqPh43c+4CPVjQ3ib9cor6tpifKlujhk7LrCFH3yg4/Fzc4K7in7u2bRJnWGIS8wL87Fsxgw54PqDKBWfnKyOqNKiIumNeyw8XJ1pi1xdtMHxcNenYtcPRD3DMIwLFROmDMNoDk4mTIWFBanIgwDTqVOiJCVFqgCDU8iDMLmePdvIddf1lz178uXVV5fKRx9tkLVrszTnEwJSSEiAij2IMmVl1a6eKGHlu0OHitVVlJnZXV8E9+49rKIWYg+Jy6kXMWfjxn2yatUe/UQoqp8finoRrvbvL9L9OJ9SU2O0voAAf3VDITbhaOrSpbU6lxgnbincVIMGddDzZ8xYr/mpdu/OU9dWnz7tpKbmiGRnH1bBDNcV7iccUji5qBNBjdxVeXklKr5dfXUfHd+LLy7WcoWFZbpSYHR0qKxfn63zY8KUYZz7mDBlNIUWyTGFW2nIFVfIFXfdJRNuv10Gjh0rkXFxvqMnhtCyqIQEXUkOdxBuJc5nw33EH0qSpNcHoQbxhXMQkIZeeaWWH+DaI+QOIYrzGkL9nAe4nrx6EY3ysrMlMDBQxSHC6BCNcGLhskIYw92FCIWIhXsqwbWL4FNaWKjHKENZnFO11dUS4vrYFHB+ISK999RTuhEqiJg0ZuJEdUoxnhOByIWrbLc790gDwas+lEN8QthiXnBiIaDV1taqaIcgh9CFkMY4mBPmI2fXLv3eMAzDMAzDOH1wII0b10O+8pXx8o1vXCH33jtKBZr64Dbq2DFBBaqsLISXT3I88SxIwnGSk3/taxPkO9+5Susi9A5xKi4uXNq1i5MOHRJcPeEqUN1//2i5447huq9OxDmmK+99FjiqPvhgjTzxxFsyefJbsmPHAW1n1KiukpAQ6Sv13yBm4ZRCAGsMyiFS0Q7CWXZ2geTkFGrIHg4wXGNxcRE6B16eK8L21q7NloqKGnV0GYZhGBcOLSJMkXPqrX/8Q/7x+OPy5A9/KO8//bQKIk2FULPZr76q53vbcz//uSx87z1fiU9DGNz6xYvl5d///nj5f37/+/LqH/+ooWxnQk1lpYa/fZ4gBO3esEGdZOTMwrVEON+JwMFVVV6uDrMTiXAeTS1nGIZhGIZhND+Eu/3nP/Pk/vufkjvu+Id85zsvydtvr/Id/WwIlbvhhv7St287WbFit3zzmy/IAw88pa6qAwfq0kYAjiTC437607e0HbY77/x/8uCD/5Y331yp7qRTobKyWkUqzsPJFBYW6DvyaXi8xElFGN+JkqZ7NLWcYRiGcfHQIsIU7hxEEMLwyLuE6wiXTmPg0CHEDicPuZYIkSOHUmVZWV097pM8R/WhbsoTaoeritA5RBevXVxIJ2oXlxTnAa4k3E+A8yqxXTv3x7Ja+4J7iPpOJuRQN4IbwpiG4MXHa9gcYXjkisJxRT9OlWNuLnCDkduqBkfUoUP/Nfbj+PqnfTxJP5VGyrGPucLhRdgl4/BgTgj5MwzDMAzDME4fnnXJ34Tzh7xOhLxVVX3a7U7OJXI/4ZQilxLhfx5+fpdoWB2OJ0QikqET6kYYH6IVIPQQPhcRESLduqWoS4u22IqLK7S9U3Ub0V5ycoyKUiQux7F0cohwqNsa5+TlmB/C/GgLp1d4eN0c1IVCJmg/WD3QMAzDuHA4K8nPPXACkVybjSTkhMQhMuEOQtxBNGrbpYt0zMjQ8DsElcqKiuM5psjZxIYwlNKpk4ooCEJe/ihyLyEMIayQDByhixxLOKC8UDzaoW5yi5AgnKTmW1atkr2bN2tIIuFt9Il8V8D35I+i7uxt21SY4mvEnOT27TWvFiv0UY58T1tXr1aBq/fIkdKxZ08JcmUR2+izB31jTGyUYaP/5M/a7uaXvtDXRDcfJEZnnLSHiIQYh7UbdxU5uhCZCJtsmGOK8g3L0VcEwKJDh3Q/c0K/SQDP3NOPZF8OK1YJtBxThmFcyFiOKcMwmoMzSX5OiBuiC7mdunZtraJTr15tNUdT27axUlxcqUnHyedEvqqBA9M0fxShfwhS5I06cKBYw+FY1a5z59bSs2eq5nghrxUuJY6NGdNd80ERRodYRv4nIJSuX7/2mnj80ku7aqghCcj792+v9S5fvku2bSMVxBGtk/xRiGX0h6Tm5IBCWCM5OQJTnagV9akcU4yR78mZ5ZULCgqQYcPS9ZN8VYhu5NJKT0/SusnLRR/S0uqEKXJukXjdckwZxrmP5ZgymsJZFaYQQhCCEGvIxVRWUiK7N25UMQkxhNxHJONGgMGdRHJwEpnjTiLcjVxOCEO4mxBuELS88pxPfeSH8trCSZW1ZYuGtVVXVKhgxOp8OJNoiyTgHN+0dKn2gXoQkBifF4qICwoBjeOECR52x3CEISKRJJxzyJe1f/du2bpypQpnlE/v3VsFI0QpckLRtgfJ1hHBvETxbLjOELa8viAkMVeMyzuOYIZQxyfhj7jUKEcf6Q9tsOIgYyX3VcNy1IM7i7ExFnJQAfsR8/hkhUEELc41YcowjAsZE6YMw2gOznRVPoQb3E1RUaHqfEKkInwOB9GCBdtUuGKFO/JR4ZRCyCFZ+datB/RrxB/KhoUF68p3JAunPOdt23bQ1Rks3bunqKiEuHP4cLmWB5KPsxIfbisEMM6lfGlppcybt1XWrHHP3odKVBDiWHCwe44PqnNS1SU2PyabN+dITk7dink8QyIksZFDCvEMIYp2yEXllUPAwt2FcEbCdhKbs8ogghtjYNXB0NAgdVghWK1bl23ClGGcJ5gwZTQFfLCn5uf1kZKSIsuWLZPZU6ZoTinjwgOnFYnkO/bqpQLftOee8x0xDMO48Mi8+WYpDQ6W6667zrfHMAzj1Jk8ebJkZk6Sxx573rfHaA5I7H7ttX1l2LDO8vLLi1WkQ8gyDOPc5uGHMyUlpdSer4xGaZEcU8b5Dw4znFztunZVV9nnnQDeMAzDMAzDMDxwVOG84H/q5NgqLCyvO2AYhmGc95gwZRyn1/DhcsPDD8vd3/++3PX443K9+5o8VAezs2XXxo2+UoZhGIZhGIbRcpAHa9KkIfL7398uf/vb3bo99tjlGj44e/YmDV387ATrhmEYxvmCCVPGcch9lb19u+zasEF2rl8vm1eskKXTp8u6BQvkUHa2r5RhGIZhGIZhtBwkZSfP1MqVe2TZsl26IUg9//wimTNnsxw+bE5+wzCMCwnLMWUYhmEYDssxZRhGc2A5pgzDMD7BckwZTcGEKcMwDMNwmDBlGEZzgDB15ZV3yRNPvOXbYxiGcXFSUVEjd945XOLjC+35ymgUE6YMwzAMw2HClGEYzQHC1Pe+9wMpL6/y7TEMw7g4+eijjZKaGiMHD2605yujUc45YSq9d29JTU+XspISWTdvngwYN04i4+Jkx7p1sm3VKl+pz4+E1FTp2LOntE5Lk7ULFsj+XbuksuzzWZo2OCxMUjp0kL6jR0toRISulCfHjkllRYVsdnNPHqjSwkJf6caJjI2V9t276/wyl6dyrmEYxsWACVOGYXj0ds9LPd3zX4l7Hp05c6ZUuGevpoIwddNN98vf/z7Lt8cwDOPiJD+/RG64YYCEhx+y5yujUc45YarfmDHSuV8/Kc7Pl5kvvSQdMzIkJDxcDmRlSe7u3b5Snx8RMTGS2LatxCQkyN6tW6Xg4EGpqWr5/4AFhYToini9R47UPhzat0/K3cMRwlRNdbXk7Nypq+U1VSRjDuPdNUtq104Ourk8lXMNwzAuBkyYMgzDo3v37jJq1Cjp0aOHbN++XZYsWSLbtm2Twib8U89yTBmGYXyC5ZgymsI5vSpfbXW1bF21StbMm3dWRCkoKSiQHWvXyvKPPlJBp7lEqVatWklMYqK06dxZohMSfHs/AbcUgli7rl11RbwVrv15b70l895+WxZ/+KHs3bJFjh45Iglt2qjDLCwqSi5xdZ6MitJSydq6VZbPnKnnmihlGIZhGIZxYrLds9eaNWvk0KFDMmDAAH2hyszMlLS0NF8JwzAMwzCai7MqTPkFBGiIGsIMIg1bcGio+BGy5kBo4TiOIRxEhLJxnO8joqM1xC8qPl7LUBZXEN9TD3USvubv2tC6LrlE/AMD9VyvvWhXNtzVw7kBQUESHhX1qb4g9iAQUT91BQYHa1nqbNhvjtM3D/qi/azfnvukDdqiL1369ZNLb7hBHWLMRX0Qrvz8/bXfR48e1e/ZFN9YEK4Idbz0xhulU+/e2gbzRJ8ZV1hkpM6HN85Q9z1zxnHmkrLeXNbvI2PhGG1Trv68emPlPOaAPhqGYRiGYVxIEMKHS+p3v/udvPHGG9KtWze566675KqrrpLU1FQJd89G3vOqYRiGYRhnxlkN5UtOS9PQve6DBqlYAziUCFXD1TPn9ddl7C23SExSkmxYtEh2b9okPQYPVkGHMogjAYGBmjNp1quvyohrrpHu7jjiD26ivP37ZcYLL6hTCKEluUMHGTNxosQnJ6uwU1VRIft27JD3nnpKUjt1kr6XXiodMjLqcjk5tq5cKQf27lVBJ617d1n4/vuye+NGFWkIses1fPhxYSbftUUfF37wgX4/7rbbNC8V/SNPFeXo064NG2T13LmSvW2bTLj9dknr0UN2uTqXz5gh++u5whDAOHaFewji3IXvvafuMfJCIYzhtBruxtvePSgFurmrrqqSovx8Lcf4cVoR+kc5yhP6V1ZUJG3S02Wd6+dG97DFmHqNGCFHamuldfv2eg2OHTumYYMrZ8/WMtTVx80LY0XoAua12s0dn/SbT8ZmGIZxPmOhfIZhNIR/0gW6Z7l49+w3YcIEufLKKyU2NlaefPJJmTNnjhw8eNBX8hMslM8wDOMTLJTPaAooMJPrvjw1IiIi5KGHHpLda9eqKHM6IAQh3uTu2SNz33pL9u/cKRFxcRIaHq65nPZs3ixd+/VThw45kQrdvtSOHdUdhJiyZeVKWeoTdDIGD5b41FQVjgh127F+vaR06iSRMTEq2iDeDLniCgkICJAVs2ZpaNymZcu0jZCwMOkzcqQEhoSoyMb5iDIIXrST2KaNhswhlvHfMRKII3IhMi2eOlXbxz1EmWNHj8ph18/0Pn10bITQET63au5cPRd30hFXhuTjh3NzZbtrY4/rc2FenhypqfHNjIMk52VlGsYXm5ioAhQCHsISDir2V1dW6riq3CfjWeUekPa5OYxt3Vo69Owpka4txogQRigkfSRvFecSlhiXnCxpGRkqnq36+GNZ7TaEL+absvSxc9++KpAVHz4ss15+WecF11WsO5ewRvJuVRQXq6BlGIZxPtPB/a6r9veXF1980bfHMAxD5MiRI5r8PCcnR/a4Z1a+Hz9+vKT7nskQp2rqPcONGTNGOnToKVOnrvPtMeoTEOAnXbq0lkmThkrv3m2ltvaoHDhQ7DtqnK9ERYXIoEEd5Z57Rkrr1lGSn18qpaW2MqUhMnBgB4mIqLbnK6NRWkSYQvzoNnCgZAwZoqIG4WHlxcXqUAIcSbigeg4frm4ecjgheBQeOiRRCFOubgSSPZs2qQjE94hXiFWt27XT+nE6sTLdvu3b1Q01YOxYTe5NfYTcIc606dRJw9AQh9iHm4p6NixeLFkksHTtIf4gzuCUIuH6BtcPnFmHDxyQ0qIiCXFt0yb9pT84iBCHaGfdwoWyc906rQc3Ee3znzUELMaNKHZw717NT0XydgQ3QuEYf7brN2JUkTu3zM3Np0QpH7VuHw4y+sgnzqk41w/aQSjyXGPUhwBFu4wV9xPCGV8vmz5dx4rAhhCFS405wAnGmPie9pe6cswp/dewPrfluQewLn376vzjOkPgYl40hDI2VttH2OPamjBlGMb5jglThmGcDASoUvdcRc6pAzwjuq9xUZEkvaN7Lq2srJTD7tmMcs0pTCUmRsrQoZ3ksst6yvDhnWXIkE669e3bTo8VFJRJVVUN/888bwgODpTx43tIz55tJC+vVLZuzZWwsCC58sreMmpUVxk2LF3HOHhwRx1nq1aXSHl5tZvj/35WPhNCQwPdtUuQq6/uI/36pbnvg3Qf7brHYW2vpubMIgJO1EZxcaVeMw9EHAQdrjHL6hcUlEtZ2fkn6Pj5tZLY2HC9rh06JMj+/UXuZ6LsjOfQOP8xYcpoCi2SYwqhCNcNrpq41q1VoEHI8SBXEuIHQg0Jzgk5w2mEQILwUcbqcyeBv7s4hXBQIc5QL2JRWHS0CjcIUbRL+ziZEIBoA8ELt5QXKuhByBxlObeirKxu5btGIKwPZxUurGJXF/2mTkQzBCTyTCHuAMIQohXjohx1EwKHy4n8Va185RrDSwCPM2uJ2xCPEOZwUDHWk8Ec4YzKz81tNGE7xwrcnDMGhLDK8nKpcP3ERYUAhgjFfwYZg0dRXp4Kh4zJMAzDMAzjYqHMPeutX79ennnmGZkxY4Y6pQYPHizXXnutjBw5Utq0aSNB7jmvuUhIiJARIzrrcusIVGlp8dK2baykpsZKXFy4BAbW5SM9X/D395OYmFDp2bOtumk2b86R3NwiSUmJkeuu6ydXXNFLxSjGiLiBUHX55b30xZa5aE4iIkKkT592cuml3VT0Gz26m2u/t0yYkCFRUaGf5HY9A4KDA6RTp0SZOHGgTJo0xI2niyQnR/mO1sE4r7qqjzrIaDs+vnnH+XmBeLhnT56sWrVHx4AgFxsb5jtqGIbROGclxxRiUtsuXWSE+yOOU2jt/PnqVIKB48dr+BhCz8dvvCGX33GHxLm2cOvgTiInUo9Bg2TZzJkq2CDA4PohXxM5lljBb9vq1Z/KeYRLCbfUwHHjNA8UYXWE0QEiGm3i8MJ9RZgfOZY8yNFEmF/HXr20PwhK/Fed/4ixSh7uI/6t0nv4cOkxZIgKPOS1Gj1xooo621wfCbEDz0WGGDbvnXckLztbRZ+mgjMKZ9fYW29VBxPCG+4tcl7pSn2bN6u4REJ0+sL37MephlsqY+hQ6Td6tM4lc86YGpZjvL2GDZO2XbtqeGA3N9f8YcaRRUgiMIYeri6EqdMZh2EYxrkIOaaOxsbKgw8+6NtjGIbRODwPjxo1Sm666SZNmP7KK6/IcPdMmJY2pNEcUwgWISGB+nVpaaXU1h45oespIyNVbrihv3vJT5T33lutLqyKik/+wXomIGjRh+Bgf3UHISy0NJGRIRq+9+CDY2T16j0yffp62bMnX8f5ta9NkJ07D+k4lyzZoW6ja6/t57a+6rxhP+WbC8Sv8eMz9OuSkkrp0SNVunZtLdu2HZDf/36qFBXVRXqcCQgzCIpf/OJoCQ8PkvXrs/Uazpy5QY8T1njTTQPl5psH6T3B+P/f/5stGzd+8i5yNuDeoL8IidwbTb3ncL4RpvnlL4/TeeR6cZ2NixvLMWU0hbMiTOFOIh/TaPdHnJxLW5YvV4EDLrvzTk3KTVhaU4QpnDuEml3uzmOVOkQpEncjbHloInFX5wRXF+F6c998U5OBAyIZoXzDr7pKHU+r583TpOceDYUphLAu/ftrAnXyMiF00T/ELRKoE1646IMPJPOWW5pdmIpNSlIhqX9mpgpLJB3HOdUSwhSC1+zXX9f55lqRu2u6u9Ywyv1S6TpggJS4uZ/j5sSEKcMwLgQQpkbecIO+XBqGYTQF/nmHIx+XFGkN9u3bJ6GhobJ5c0GjwhQuKBw6CAAvvrhY9u7N01xLDWlJYQohZNy4DBk4ME2WLt0pH3641nek5UhJiVYHFO6o999fowIN4XwnEqYwguEIu+++S9VFtWlTjvzxj9N9NZ05hAhSP3DtCEVjO3LkqJtjwiPPPD4SYYqwxLvvHqn/1CZMb/nyXfL00/P0eLduySq+UaaoqFyKiyvkySc/PuvCFCGHEycOkHbt4mTRou0ya9Ym35HG4X6Ojg519/5lWsf06etkxow6Ec64eDFhymgKZ0WY4pcWK8DhjEIYIbk4AhMQJocziHxOTRGmcChRHqFohLvZk9q2VXHGC1/bs2WLbHX9I0yv5/Dh0tudjwDDccLxyKOEE6jnsGGaVJ3wQi9sjXPJn8Sqep4whasqqV07dWDxSXge+av0YcQdQ5Qi1A2BrTFhipxOiEokbCffE4nc811fPAgvJE8VYhJzxYXiU5NsZmXp+fSt96hRmkSeHFK4wNbMn6/94twzFaY+evVVCXJjYxXEVPc9q/oB4yUckXDKuW+/bcKUYRgXBAhTIe5vyI9+9CPfHsMwjMYhxxSJ0Ie6Z6w1a9bI+++/L8Pcc1Tr1n0aFaYQpXDrII4gUuzahTD1389SnyVMeQJCRkYbdSPxPEp+ojlzNqvYlJdXojmMxozpruJHUJC/L19WlbqQ+vdvryGBiCLbtx9Ul0tWVr66XvbuzVdRgnLUQQ4ohBxCtdaty5Z77x2p+YMIe0tMjNB+vfvuamnfPl569EiRpKS6kDWeERct2qF10b8bbxwgI0d2kVdeWar9pL8nEqY8aJcQtyNHjsmUKQskJiZM8xg11j/G7u3r3j1FnWHML/ms6CN9RewaMaKLlJRUaFnmsqamVkML33xzhTq5AgP9pFevtlpPXXjfJXouIhlCHmURsk7GJ8LUCNm3r0AdSIcOleg159zMzO66tWkTI4WF5SpOPvXUXBWm0tOT5LbbBru+Ratgxlzv3HlQpk1bJzt2HJRx43po3d48A+6kefO2ahvkyhozppu6mHj34l5gvmbP3qTXl2vA3FA37Np1SGbN2qhCIffcpZd2lYiIYBXTtmzZ7977dum9wb3L/Yjbi7Hn5hbKyy8vdffPAa0nPDxY7rlnhHTtmiwffbRR3n77k3/4GxcnJkwZTeGsCFMeJO4mDA9xBhcV4FpCWCIsD9dUx4wMzaVE8nDyNSESIUIRxkY+KhxMHggtHEc48UDsoSyJzAnpQwwifA9xiDBC8lTRf5KlkzQcMcmDczkPQYhk4KxAhxOLPFKURQCiHiAvE30kxA7oC6IOfUR4AvJtMVYmff+ePZpUnfYQsugjIpsHY2YsCEQ6N/zbyMH8UB+5phCjWPmvbefO2idW58tycxbg2kXYwh3mlaM+ckbRZ4QtRCXyfGki9XrluCa0y/kkgeda8D3nMQ9A4nOELgQ8C+UzDONCAWGq1P3+tAenxuFFfNCgQe7Fpot7iap1L4Gr3MvOohMum38+0rt3b/ey3l+/fvXVVzWnUHMQ4p49rrzySunmnkNIks0z1IoGz09p7m86uYqioqJkwYIF7uV/nXtJzPMdPfe5+uqr3Ut0a/fSvEPm+P4pdyGCQ6pr1656n3Tq1EkXBOI+Wb58uYpTDz/8sAwffmOzCVOEeg0a1EGFEoQJxIuyskrZuvWAu492auLsNm1i3T0WoKJN585JKi4g4hCONngwydMzVPjYv79QhSDCs6qqamXs2B56LvUiPLCSWlxcmAo2iC/vvrtKk1h36BAvDzwwRsP+EBvmzdsiTzwxUd0xCB6IRFlZh4/nFyKJN6u0IRQhItEmgsru3XkatoYo9K9/fawCFK6zxoQp5ork4YT2vfbaMhViEFUa6x8b7TAXiHCMHQGOvEe4tBBYEE4mThykfUd4Qfhp2zZO83ghTCHgtGsXKxMm9JT27eN0bMxZ586tNU/W4sU7tD+NJSqvL0xxPuIhyd/femuFXrvbbx+mrimEI08g8oQpxjlsWKfjghhiEHO6cuVuFfrIW0WZ/fsLjq9qyD2C4JWUFCnXXNNX6yXvE04swhWZ38LCMs1pRW4rwkizsw9LcnK0G2u8bNiQrY6u6Ogwnb+wsEAVK1es2K3n5ueXqJhF4n2EvPj4cJ1HxKf587dq2whhX/jCUL3GCF1vvHF674nGhYMJU0ZTaJFV+ZoKohLJuRFzcO2wEWKXu3u3CkDkieI4QgyOKkQSRBTyOiEYIaTUh3NwLXl1sZEvCjGHuhBSqB/Bi2OsVodAo8dcfbTT8FwEMpKD5+zapedTln7jTvLqYeM4ffOgL7ixPJcRkAyduSIEr6q8XL+mP4yxvsAGJD2nbfr4qXZcefZ7iceZF29MiEt8j9CF+FS/HPXRP+985pKyDcvRD/rOHJMIne8RBEki7/UhPCZGwwpxWLGiImNpDruzYRjG2cRW5Wsa119/vdxwww3Sq1cv/R7hZBd/A93fyAsBhAbEqcjISBWPqnwO7DOF+r785S/LrbfeqqJGofsbvMSXXxNiY2N1Nbdvf/vb+pnjniF2ur/ZiFjnC1/60pfUPYRgOW9eXajShUR4eLh7eW+ngtSll14q/fr10/0rV66Ut956S4WpgoICzTl1olX5eGEnETaJv/v0aSvp6YnqSEEQYTUzqK6u1e89EABwH7Vvn6DfI+JwDoIPLidEAwSbOrGqyj2PiSbXRmzauDFH6yVsEKHouecWyIwZG9VNtH79PhWSSCiO+DB37mZ59dVlKlwhWLAhOOEwQthBiOnfP038/VupswYxJzOzh+5HcEHIQahhlUCcNEA4XHl5lbqRCOE7eLBYhS+cQIhEH3+8RfvAWBgnAg7uHNrEXeSBUITDh3oZE44cQsxO1j/ORbi7667hWjd9RXzB/dSnT3sNYcT1FBDgr3mlcPow9oULt+n8I5IBIkuvXm2kb9/2smFDjjzzzHz3M7tTBST6Qx8QccjNdfToiZ+DcWpxLUiyvmVLrj4vIx4iQh44UKTJ3RGdcnIKVAwC5hPHE+MNCqKvNSoqIQJSF/fR9u25WifnkkAe4Qj3GU4qxLBhwzqrMMQ9iNC3YME2nTuuT79+7WX06K76Ne4xyjA/5NfiWiFqIighmCFgIuRRjv7SHvOGQMcxHGAIVdXVR1QgZM6Yc+aNurhXNm06vfdE48LBVuUzmkKLrMpnXDjgPsNFhdvM23BosTohqxIiWmEJNwzDMC5s+M97YGCgijaINX//+9/di99d8uSTT7qXmmxfqVOHfDwsux/j/tacCyxcuFD+7//+T7eWENuok3/upaenq4uKeYUePXqo2IH4gbBzsf5txY0UFxcn7du3VxEIwY59ZwvvvqcfPXv21CTnX/va12TAgAEyf/58+eMf/yhTpkyRPXv2fKZ7HMGAsK1HHx2nOZa6dUvRl/877himjgJCrxAtGkK4FMIF7pwf/OB1+Z//eVl+9rN35MMP16kz5o47hmtOn29+8wp15iBY4MzhGE4fXC2Eu9WJOJ/+R+iZggiE2wiBiblCNMON85WvjJdvfetKTYI9bFi6JCZGqRiFUOaJOIgankuoMRBoEEQQcxBEPut/oeHhdQm4cW4xx6xoyPzSL37cEIfoK/2orKxWMQchC1cR40EUQgTq1ClBBT3AdeTlAEO8w+GG8wmnEUJXU6Dvhw+Xus8adRkhHDEfXBvmrz4IWiSJ//rXJ+i1/frXL3P97+1+JnDGBWqfcTBxba+7rr/cdttQFRO5xwj9Q+hDOEKUq5/UnvlGUEPwQiREbGJeETgR6OgjrqyGMP84pAYMSJMHHrhUr+2XvjRWXVvMUXR0iIaJGoZhnC4mTBmN0s09eN3wyCPyyC9+cXwjvxZur+2rV/tKGYZhGBc6/v7+0rlzZ31Br8bVW88RfCYgxnzve9+Tr371q749FzaHDh1SYa9NmzYy2P09RfSA5ORk94KXqiJfRUXFRStMdezYUb773e+q42r69Ol6XzBXZwvvvqcf5J/jmr3wwgvyla98RV5++eVTEmURPf7zn3ly//1PyW9/O1VDn3CyfO97r8kjjzyt4V2IHk0FQYBQNBxIr7++3PXpWRWtcLggfnwe4HDCsQQIJuQmQnDBwfPNb74gDzzwb3UjHTxY9/sCNxgCEKIUog4C0GfhuYT27SvUVe3IA9UUEFxw/vz4x2/KHXf84/jG916+K4SYQ4eK9fPz4NChUhW+yCnVu3c7dWht3rxfduw45CtRByF811/fX11NX/nKc9rvP/95pgpIHlOmLNRjv/3th+oY+8tf7pbHHrtcQyebG64tIuqkSUP1mv/udx/Kgw/+W37xi/fUFfV5zZ9hGBcuJkwZjbJr40aZ9cor8sof/3h8e/l3v5P577xzPHeWYRiGcWETHR0to0ePlp/+9KcaZjZu3Dh5/PHH5a9//auGNT3wwAPy1FNPqZDARgLor3/965qPCnBF3XHHHfLMM8/o8WnTpmno0+/c3xPqueWWW+S+++6T9957T51K99xzj3vB/h8VKDp06KDiALktaecPf/iD1kWdjzzyiJb/xS9+IW+88YZuHGPDyeL154MPPtC+k5Ta47LLLtO6GvbZq5ONXE/AGH/84x8fL8vGudSBsERI1xNPPCH/+Mc/1EHmlUG4oM/03aO0tFRFPVZxw32GG4jjhBAypi1btrgX709EhbCwMG2fuX733Xe13pdeesm99H9TnVfk+kIk+de//iV/+tOfdKyUYS5++MMfHp+/huNlY46Yq9tuu00dcGPHjtVrDYRqUt9PfvITbQPRjLJvvvmmXj/OJyyD+WouGCfXnnvt2WeflY8++kjvoQcffPD4OD4vmHeuK/PM/YWLi/H+7Gc/k5kzZ0p+fr5UVlaeUo7NOodOjQozuFgQadhwMRGqxcv9yULCTgQ5pRB3EGrI3ZSdXaBiS9u2scedSPn5ZSqE4FYi5ApHU1PA/UJZwgQJj0tLSxASnDd0B9Ge12faTEmJ0U8SYiNYME5EGISNOo6p44l6cdkwhpOBQ4dwPBJ441ZCwPFcS431j7kkbI2QtNRUxK8QnXNvI+SReacfXv/5bAj5mvburXMy4UaiHUAQJAyTcEDERj6bCjmacnIKNRxx6NBOOj+EODZMoB4RESKRkXWJxwnZZLxcw/pCHveSN9ann56vIX0IeNyTzD9zQe4t9nnQDteFc3GUcf/gSEN0wsXFOYWFFb7Sn0AYJOIXTjzmD5cXyehx5bEPodGDcFP6yhzTjmEYRlM4qzmmjHMfckyRlJ08W95G+B4rAjbM8WUYhnE+YzmmTo6fH7lOgtQthUBBomeSPC9evFg2bdqk7h5cPgfIyZiTow6XpKQk2e+eD0iKPnz4cA37I3xm69atsn79es2ftH37dn3hRwzBSYTggTBDONvAgST2TdK8PeSxSkhI0PxFiEt8T/6niRMnqphCv8hzRb0kDCd/E6IB4gH7CRPEkcQLG/mAEEAQYxjL7t27dSz0Z+PGjSoSjRw5UpN4IwQRUkbCVpwy+/btk7XuuQcxCqGEOskBRfv0hdxR5Biib+Xl5ZKRkaECB/PANmHCBJ3HkpISdZ0x7tmzZ2tY34gRI1QIo37EGD6ZW8ogCNEP5gaHDs9giCaEBTJXuM7YCAGkbfrENSAUjq9pj7xgJF5nninDvFAfdeAIuuKKK7TNvXv36vVlLPfdd5+2RS4szkMYoo2srCw9j/FzjegT14Trw/fUfTo5psjNxPXkuiHw5ebm6tzQF9onqXp90a4loV1W2mMON2/erGF73O/btm3T+TmRkOGBeHuiHFP1QQwhlIqQLEQlQspOVCUhWYgGhPgRisfKeV6S9MDAAE2M7YVwkS8JFw6CA8fWrMly9/UBdeUQ2uatlkeOIXJdISAgSuC4wpWUmhqr9RD+xXEELgQfHDhsiBgIO/TZyzGFsEKfEGgQpOgP55GUmzrILYOQgzBFOBzhZ5QjjxMJuwlhQ1zxckwhaJCbiLEg3Awf3lmFG5xluLBI5s74EVFO1j9cRawaSLgaYWsk9aY89ZNEHlEIoSchIVIFJuapTmCq0X2sVAjkkyL0DuGle/dkDYtkPISzIVKx+t3q1Xt1nIQr8kliccQY71oybi/HFPNG32gnLS1O83uRAJ2+krfJa5ccU4iNhD9ybbku9Jvk5whHjH/r1gM6NySvpz9cQ3JxcS+tWbNXxUjmh3PoF3myuI+43sw5c0DeL+ale/dUzUNGf+gLc81KhR06JGqyeOohPJC22eLiIrQthE7OJxwRpx85tMj7hTh52WU9dZwkcUfgMy5uLMeU0RRMmDIMwzAMx8UuTCFakDcH0QYhAPcOL+CEnSEGIHAgPnAMAQrnDI4gRKDg4GAVnRBjcAS1bdvWvbikqZCDKELC9CFDhqjTB9cUAhQv+YhICC8IR7z840pCHEIwIucSdbI6He1Sjr4h0CBoIZYgAODmIb8PbiBcT3wNOJEQpxCKEEvoD2ICqwjSH8QnBKm//e1vKkCRWwrhg/r79u2rdeDqQixBUGIefv3rX8vbb7+tbSBMkXOI8SHSMD6Er6lTp6oTiXEwVwhqzN2GDRu0HvJKId5xHgIUggciE+Olv4hriHJ8IvggGvG85YmBnkhHewiG1I14gqDGnP7mN79R4Yn54lzGzNwyDoQvxChWzHv99ddVpENUpB+MhTlAVKIt5gGXFV/PnTtXrzmCHOIUji/GShmuFfcA1zIzM/O0hSkENpxSzBlzgiOLseIkY24Q8lj9sbFk9NxH3COcgyiI64txNbyfmwLCJHPIWF577TW9nlznptAUYQoBBXGHl/b6QkZDEFfYKM+LPwKA567BkYKbBmcR7iFEJRxFrFZHEmpWWEMIwt2CIIHAQjk22kMYIncVbhjqQERBkGBFPMojQoSHB6njpri4Ut1DCCvUybmISPv2HXZzVNcG9xqr35H8mjY4Th30G5cQwhrCCWIWCeBZ2Jr9Xh9CQoJURKNt8hyRlB2hgxX2EIlwAXmCHk6pxvqHe8xLIO71hfFTHhcS/cXpxFwyT4TY0TZzTd3kXsKhxTzSXxKTI8DgWCKhO2IWq/ZxXUgkzsqBiIfsp7wnXNaJ+n7qKKK+3bvzdY5IFs4nKyF6+aXqt0vf6Q/z4K1uSDgk42MemDfERlYRpF1vrghRRFzCLcbYEAoZM3UgCFKG+wMxkLlhTByrS6K+X8NLOV63cHudM41+AdeO3Fp1brU6lxTzyHwjlO3addDdk0dVdESoI2cVSfYRFo2LGxOmjKbAb52T/ClsHB6AePCZPWWKbGmw3PHnRZB7uCM5N86dCvew4a0sd6r4uYes4LAw9ws6QC7hr6SPavfwUl1RITXuYaipcH5YZKR+zbnUYRiGYZz7ZN58s5S6vykX63LGrBh344036ks9AhPCEyISIhDwNxIBgxA7xAxe1gm9Y7W5b33rW3LllVeqKIFgwT5EgOeff15Wr14tX/jCF/TYd77znf8SLO6991656qqrVIQhbAq4Bje764Gj41e/+pU6hxBBCItDYPnwww81zGzy5MkqPBBaRTlA4MANRb2IR4hq7MPpg+Dxl7/8Re6//34Vqp577jl15tTHO5cXS8LKCCPDxYObyOsfsJ9E2CvcMxAb4hGCzbPPPqvhdEDuLEQmXF+E+dFH3FVLly5VEeruu+/W/lAG5xiuLQQe5gkRD3EK0eob3/iG9ofrwjgAgQUhivnEzYWw+PTTT8urr76qc8842BCuuGaTJk3S64uQxDVFBERs4rogQHEc4Y3wOfYzz3zP17/85S+1PVxhd955p15j7gf+Sclx5tG7HoQnzpo1S37+859rP5sKAuN9992n4+Xe4gWGcXDNaZM+Mw7GczKYR8IXSaaPCIdgikMNMY175s9//rNeR/r/WSAoIIx6830qMA+ZmZPkscee9+0x6oNQ9MgjY4VV4BCdWNHvfAz5creHijP33TfK/d5McvdWlvudt9B39OID4QtXHknaWSGRZP2LF29X8cq4uGHxgZSU0ov2+cpoGud1jimScF//8MMyxj0oIVKdDq3cg0dc69Zy2e23y33uIa1+ku/L77hD2qSn+0o2jZCwMLnKPVhd7bZO7uHMMAzDMM4H/vOf/6gYxMs9ogRiBG6RxiBMDZEH9xGuGsLFcL2Qr+hUkkKfCbhYcNZ48OCL0EUIIYIY4VjkScJt1JLUd5V9FoTL0R/EKUQlEn4zX7jAGoIISL0IWzi9uD5shEeyOhxOHoQWHFg4sU4munjXF/GHcu+88478+9//VhfXZ0FYINeWcENEKJxRfI9wSdhdc4DIhUMJR1l9cODhemsqCEqIjgiriG233nqrjhU3IKIXbrOmwDyejihlfDY4gRYt2ibk1OrVq42Gop2PIMTgWCJsEafT+vVZviMXJ7jJuJ6EBW7blqsb7jTDMIymcF4LUzvXrZPZr74qy2fO1FxIpwOOq4HuoSw0MlJWu4fq+km+F77/vuSeYoLvqooKmffWWzLXbVlbt/r2GoZhGMa5DTmicPwggiAE4Fb5LGcJThQvKTXhbTibEBIQWnApAcIR4WMID7ibcOw0BcLGcF4hVuCcIlwNwcGr1wPhhs2DvEeek4ewPQSqxMREddEAYgNiDuDSYWsMxDlEH9pH2KBf5LlCUKId5strv2FfTgbzynmEDpKXCRc6eZsI96sPoZA4qJhT2salxHneNaJfjAc3FVtj18u7vriwcIkRTomIQ/gb84u7iPA1HEZcI5xPuKkog/sIpxdfI2ohRrGP44iTzQH3G+NpGGrnja2pMP+Ig7j6uc7MK649YKyE9BlnF0IQCTf7859n6CqFJO8+HyH5N2F1zz+/SN1B5Nq6mCE8kFBCVup78cXFGk55Kj+7hmFc3JzXwlSxezDb5x7qDmZny1H3MJbgHqRwUXX25YaAUPfQ2JEcA8OHS6x74MIh5eHvHvCi3INqsnvQPVJTIzk7d8qOtWuPb7nuIbvCPQxGJyRI/7FjNf9ISIMH4oYQVrjfPcSylboHQMMwDMO4UCHvD3mKEBRwShFGRfgaIhAvJIgECESIIDiCrr76al1ynzCvH/zgBxoih9MIMQKhh5Xz7rvvPhWzCGtDKPnSl76kK6ER9kY432flCEIEI9E4oW3f//73tS1EFi8sC5cSoX8kYWc//WXVNdog1I38WPVB4CD3EoIUoWSs1kfoIn0hhI/wQObhVEHcIRQPsYfE3sxPwxxGiDXkhyJkEhGIuaCv9ecPwagxqJ95JIE64Xucx9eIhwg41E+YHHmiuD6sksicXH755XpdvWtIOQSya665Rh1oTb0eTYVrw4bIieCHWAYIZghyCHFNFf3oL4IkoY/cXwhynEvdzIdxdiFPFEnMyWlEzqSCgvMz1IvfceST2rmzLhk8q9VdzOCEI58UIY3kozqV1QoNwzDOavJz3ErxKSkaLtfaPdwktmkj0e5hNiAoSEPikjt0UMEJ0YgHCkSmtl26SERMjDqk+ERUioiO1mM93ENtxtChktSunRx1Dzfsi4yLk64DBkjHjAwp4z/BublaJ/i5B53wqCjp2LOnBooXuQe0QrfV+h4wvf51wzY/frxEubqC3D7Kcoy2ySeV6B5i2cJdP8hzRb8p6/5i6YNVinv4i3UPlJRJ8pWNT07Wcda4BzrELMab2qmTpLqyHCe8MCYxUevxdw/D9Omz/nNtGIZhnD62Kl/jIOzgpuHvPyIK7ig+EVgQD+o7aHCo4DQiXA3HD18j7OB2wrXiOVc4n7A2Lw8UeZZw9iAEIZRQl+eaQmRgBT1yBOGEQYBCAMM9RF84Bog7vDDSH9xTCDcILwhRiCu4qPiav8/0gTYpQ3nEDMQYRBD6RbJtRC4EGUQNRCv6Qv2MjVxS5ItibMwBYhpteKFn9A9xifZYzY3vEU1wRjEn1ItQQh0IfN5cIsR4c4hoxep0zA9tE4pWf/44h+cDPjmH8jwzMR7AMUQ9JHQnCTjXiDllnlgRkBxVuKBokzpph/FQD7mxcHURpsk8MGe0T90nux6IQIyPeTgVaJMcZiRs5x6gTcL6WG2QfjPfiISNiYA4zwhDpczHH3+s42I8iHCEIeIW417hnmlJmpL83DAM42LBkp8bTeGsJj9HwOnrHji69Ot33MlU4B6EdpMvwT2k4nJa8O67ssM91CIqtXcPLJffeaeUuofVj994Q1qnpen5Je4BA9cUAlJ8aqoKTyXuoTDbPQgecA9kCT7Ba7N7wFrlHlTqh/0Fu4ewUTfcoOLUoX37ZKN7OMx1D1qUQSzKGDZM+riHnNjERE1kXuYe5Da5cRe5B8A+ru0y104E4pF7oMNhtWHxYhl65ZXa/1Vz5kiBe8gdfdNNKmCRBwsxjIe/S9x4t7kHyCVTp0q+e3BKTU+XS10/6D8PvCpE1dZqm8zvugULtC7DMAyjZbjYk58bxtmGHFp33XWXCnD/+7//q7mtSDCP44t8WDjvEEd5jsKphbCHqIhoiiCGgIXbC3CVIawhxI0bN+54Qvk33PMjImFLYsnPjXMBfi7qVkgMEsyGrCZ4PiaZP9dhnlm5kI0wVVx0uMeMT7Dk50ZTOKuhfIg+iEaILv/47nd1e/E3v5GNJ0j+2RiINytmzdINEWvt/Pny5A9/KO8//bQsnTFDPnzmGXnpd7/T4w1XySMn1ByWTJ49W2ISEmTio4/KAz/5iYxyD0eIZfRt6fTpcnDfPv185Q9/0PKHsrP1v6epnTvLtlWr5E2Wm37ySdm3fbsKSvXhP4xRru6Ny5bJq3/8o7z0+9/LFvewlNKhg7quOmRkSNf+/dUBRt3P/OxnMuOFFyQ/N1f75NnZDcMwDMMwLlRws82ZM0cdTohQJFont9YC9yxGOCNCFUn5X3nlFQ0JHTJkiEyZMkX/C4+AZRjGJwQE+EnPnqnyv/97tXz96xPO2yTz5zrBwf4yZkx39zvpern//kvd76+mLbBgGManaZFQvvTevWXIFVfIiGuukV7Dh2toWnF+vpSXlupxP39/Dd3rMWiQ2s33bNqkuaJqa2rUaRQcFqb5ojiPBOI4hQh5I9cTdeNm4hxC56inoqRE3UfkkIpJStK8ULijEIg0FNB96tf8u+AEeA6rrG3btB+US+vRQ0PtcC7hhkJEwn1FHipcU+SmIndVWWGhilc5u3ZpHwm7Y1yA86qyrEzSunfXMa+dN0+yt2/XMMMgQvfI7+DmLjQ8XJLcOLCuLXUPYoWHDqktPzgkREP6Duzdq21Tl2EYhtEyWCifYZxdyP9F6CHi1FtvvaUCFKvrIUwRWkj4ICGDhCCS24swQ8SsGTNmaBgj4YaE/BHGxzFcVYSJEgpJHax6yNfsa0kslK9pDBuWLpMmDZE77xwhV1/d91PbFVf0luHD0zVvU3FxxTnvQOnQIUEuv7yX3HzzIM2tdC70OSQkUK65pq/Ex0e4n40iCQjwl3vvHSXXX99f9zec89TUGHX75OWV+Go4N4mICJa+fdvJAw+MltatCSuulsLCs7f6H6+XhYVl0q5dnCQmRkpt7dHPNaE/99yECT0lJib0hAn4g4MD9PgVV/RSBx350D5vLJTPaAotYsUpKSxUAWfn+vWya+NGFWhwJnlgeSSJOMIPolBDF9PZAGEKUQpBC6EJsQtRiBxVJ4N8UoQeMl5EqZNBOQQswhE1p5Qbc5V7uCJkj9wSzENAYF0eKcQ7DeFzD2flrg/ss/UsDMMwDMO40EFIIm8Wea9IUI/gRL4xcmTxzEToHjmtyP1FXityRSE2kUSeFQzJm4UwxeYlkiffFGIUZciJhbhlnBscOlSiL/DLlu2UdeuyJDk5SiIjg931KpLly8lRlyX5+aXuRf/cz7FaWlope/bkaeLvc6HPQUH+Ktp07pykog2J5jds2CcrV+52801+u0qJjw/Xcsw/G4noi4rO/Z8P5pY5Zq6Zc8ZyNsHQQNJ3kuADIiVz26oVGXNaHoQmrm9OTqFvz6fx82ulomO3bsmSmBjh22sY5x4tIkzh8FnjHirmvf225oha7x4GEG88VKgpKlKxCicRuZf+i0su0RA2RBs+STZOnia+R9hqKRCOcGghCvEQdEkjYXQcx8XUMHSvIZRDaDqZYwuhCoEu0M0DydhxaDFOnGN8/fn8WjMMwzAMwzA+DxISIiQjo4307NlGwsODW/TZ9lxl+/YD8sEHa+Q//5knL720WLKzC1QcmTZtnTzzzHx57bVlsmPHQamoOHWHm/cy3qtXW0lJifbtbTkQ2RYv3iFvvrnitPt8IgjH69OnnQpMUVEneF86CaGhQSqQcJ8dPlymAs6aNXvl+ecXydNPz5P587fKrl2HZOPGfTr/bLNnbzqpuPFZkF+JEDbu59jYsBYVZZhb5pi5Zs6Z++aC+erePUXS05N8e5oO929JCYJfhLRvnyD+/n567/XokaLXoqVYunSn/swg1BnG+cxZWZUPoQZhitXzCM+DwwcOaLJxVr1DoCFUjlC3irIyFYkiY2M1zIKV6ziXBOn1Q/nILcUqdqyiBwezslTUwZGEwMOGyFRfROIhAKcSYhAr+NE+DilW0Uvv00fD7A7u3avCGPsI4UNgw8Wk/cnI0MTruMPoIyAosTogeKF87bt10+/3bN6szixENlbpa9e1q/aT8ZCEnVUJGS/hjLi1CAGMc+PZ7+pB7LNQPsMwjJbDQvkMw2gOmhLKN2hQR7nuun7Su3db95KNU6VCjh49sUc+LCzIveyzKmOoREaGaCgTL72U55+eiBfR0WEaysNxNsK4OA+Bxj3xqnDA+XzW1RGi5xFuRlmOxcSwCmZd/eD1JzAwQOLiwiUqqq5+hLSQkAD9dI/0Wi4w0E/LfNLHEAkKCpAjR+jjMa2TLTw8SI9HRoZq3zh25MhRrS8zs4eGZRGOtG9fgT6nUwd1ch5iC32kv7hmCFE60bwgiiCOEFp3zTV9tDyOFm+8tB0bG3p8PPXHy/lee14/+WSs/v6t9Ov684CeyDXgPOpBPOI9h3ETNkVd9MVrx7tulOGaUQdzxXl17YXoedTLJ+Fhjz46zn3Ga4hYaWmVnq/5a10/6l9zrrd3PZiXwYM7SkZGqqxdu1e2bMnV8EKPrl2TtW5CJRct2u7bW3evUW9wcN09QZ+ZN64VfaTPXnvMK/2kL+nprTU8cMyYbpoAnCTr9JfxMpfcG955XEeuEeW860s7lPOuJWW8e9i7L9kHzC33C/NK37z5PNF96l1zwhi960OdXjt14/PXe5D9o0Z10bDGLl2S3M/lIXWUeeOofy3ZuP+AcQBz37ZtrAqiuNQQz8aO7S6XXdZTnUo4AOknUJ83NuaCe8i7/6jbEyEbmz8vVJTxMg6ukTen1OtdK/qM2EYfdu48JJs2nd5q+meChfIZTQE5u+4n5BRpjlX5EGYGjB0rXQcMOO5Mwq20ZNo0ydu3T1dIapOeru4p8k/hsGJFPnJI1V+Vj1Xtpj3/vMQlJ8vA8eN1dT4EqL2bNsn+PXtUAEO02rBokSz/6KPjYYVBoaGS4uoYc8stEu/OJT8UE8Ivh5wdO2SOa4PwPlYPHEtfOneWmupq2bBkiRzOzdVVA0l2vnzmTF3RD0IjIzWBOnir8rHaHsx96y2tLywqSjr16iUjrr1W1i9cKJvd/JFnitX7EN6YC5xbjJlPQgvXus1W5TMMw2g5bFU+wzCag6asyjd6dDcZPz5DXzBxsOzaladiy4m49tq+MmnSUH3hBXIY4W55551V6jpCtLj77hHu5S9NX8apB+cRLFmyQ9av36dhPKNGdZWqqhp1dPBSjdvk73//SEaM6KICDm4X3ptZve3ll5fIrFmbNHdO164p8vDDY6R9+3h9UccVsnt3nr70v/32SnVs0Levf/0yLYOAw0sz7T7//EJZty5bbr11sIokvEAnJES6l+YQmT59g3z44Vp17SCwPPHERM1vhKBHvxFmevVqIxMnDtSXeAIP+B73zx//ON21FXfCecEZ1KNHqgolzAeiA+GB3niZq7Fje+jLfsPxIgLcddcI/WzdOlr7xTgZM8eZo3btYnUfYuIbb6yQGTPWqxAwYUKGJhh/7rkFsnz5bunUKVHFx0sv7fqp/nHdEN6+9KVxGm6HS4fQL4QYmDt3iyxYsE3HT1/btGHlSVERCXHj5ZcXa9uM3bvmiBrM3XPPLZSFC7epIEHuoSFDOqkb7eOPN3/KWUS/RozorILdb3871be37l4bNy5DhRXmmj7Mm7dFhS3Kk9uJfbwrIXK8//4aV2+xa2uw9OvXTgUtRKkDB4q0L9SDQEZ+I+YMCD2bPn29vPLK0uPXNykpSoWVtLR4LcP8HDhQrPcpjiNvH2OZP3+bjpvrtGLFbjf/G1ydef91n+IU86459wh96NcvTa83DjREH8IAuVavv75MxZMrr+yt5yMgIeStXr1X/v3vuTrH9a8lrF+fLe+9t8bdr2v1e36Wb7ppoIpzK1fu0XvqwQdHy9Ch6epOe/LJj7WfCF1cU8rRHvf7zJkbZP/+Qm37+uv76X302mvLG52/KVMW6vcIl506JWmYpjend9wxXBPfc624/6mbMeEy4579vLFV+YymcFYcUx6V5eWa1JtV7ViJb8PixSpy7d+5U5Ol79+1S3M+bXT7ObZx6VLZunKl5q5CGCrKy5O9W7bI7k2b1MmEowgHklcfLirqQAziHD69ED0gpJA+UIZ2vT6sX7RI28nLyVEhCiHreF9cH3Br4WDCAbXXbfSVcDwgJI9jtEdfENJy9+zRc+izJmF3ZdjPuSRDx0WFG0vboB+uDzs3bFABDkGNFQGpyxxThmEYLYc5pgzDaA6a4pjiBbxjx0TBFcTLLy+giAsngmOE6cyZs1lfYHnZxL3BCy4C0Q03DNAX7SVLdsrTT89XUQcRqC7ptXsOzS1yL4Wx7gW5k1RXH1GR4pVXluiLdefOrfVlm5f4t95aqS+8CASEZSEw4SYZN66HhiS9+uoy3XgxxumFaEOOqL17D6soQp4bRJWZMzdqriIEFwQlhKk+fdpqSBriC8ICL+0IWvSvzrX1344p+pGaGq0v9uSfYqz//CeJ77fq1wgXJ5oXBJyPP96ibcPs2Rvl2Wfn64s7uYlIBE4OK0QiRByEMspyrLKyVoYP76yhV4geCG+rV2epsMH1Wr8+S959d7XuS06OVhcKwpqf3yXqSuE8hDHmftCgDioQIQZQT1lZtdaTmBilIhHiA/PMWBGrPvhgrd4P1MsYEBcZY5s2MTpOyiDkMdcIffQbAQuBAgGmS5fWep0QVLhnEOdwy8yevVnzH9W/v07mmELMGDKko/Z/1qyNOlaOI6zgtFmwYKt89NFG7TMiI8m+KUebXFvqe+ON5Tpeclpx73HuokU73HkbdEw4fhAFGRvzPnhwJzdPwZpnjPuX+wvnEfVv2pSj1459jA03UJ0ryF9FN+rAcYhwdOutg6SkpErv4zlzNqm7jPsUAQrRKD09Ua8PfUdsQpDiGKIYwiM/P8w/9/2WLfvlz3+eofPKHPIzQjmuESGmjIuxI45yXQ8eLNKfRwRg2qBf/Hzt2ZMv5PQih1fdvV73vsg9z1i4Dtz7tMf59JdE5fQxJ6fAHW+tP9v8rBCGuXlzjrqpuBd5n83OPqyLBCBwIgZu3Zord9wxTIVSfhbpKz8r/Jzz88S9ao4p41ylRXJMNRUEn0PZ2bJrwwYVkdgQmooPH64Tg3bvPn6MT4QcwuYQejhOOb7HrYTYU78+Ns4nRJCQOm91PxR+D85B/EEcqt8H71zqg/p9YaMNRDFcVYhy9ZO3IzxRlq3Ul0eL/np99sogTNEuK/DhiqrfBn0ocP3ml6NfQECT8lgZhmEYhmEY5y684GZmdpcvfWmsunl4ieXF9Pbbh6mzAmcEwkpDeAHu27etvoiz8TKM4wJhAVcPLh7cOAgBiFK8CPOii0jQENxGuDnYyImDeMHLL33BDcMLJKIZOXYQOrp3p4+tVcxBQKN+zkVsqK1F6CDWgH9Yhwj5nBgDfeRcBBb6yIs+4NzgZRuHESIAdTQ1cTUOIV66eUFH6EJIONm8IAZlZR1WIQCBjHboMw4fXv5xpfTv317PYbxePxHa6jim4seqVXtk3rytKjQhACA+0ba3j/oR3xAFPBHMA7cU4iDzgIMF8QWBAUEBMcpLjk1/cL0hFi5dukMFM/YxBpxvCEoILAghiDRcP0QdRLCSkgoVrOqu+U4VQrgObdvG6X2EcMGcc2944WZNgfYLCspU2FiyZLvOG3CPeNeX9hHZEItwSSHE4JzCYce9h7MLNxYCEkKNd16d44z7NkrFJ+/eQEjzri8CYkFBue5DdPL2cc3j4sL03PoQssbc9u7dzs17gjq3+vdP0/uWPiK2MZ+A8Ml4mGfmnJ8Z5pn7BmGH+xOBkvn2fo68+4P+INwiViE6c90QidLS4lT0OREIalwjBDna9swRda6yYr2e1M09Qd87dIjXOpkLBCv6zzm0yXVGBEQMRlDjGnguKkAY5HzuOa4fP68LF27X60hfuQ8M41zmrApTRh3knEpITZVugwZJxtChuvUYMkRDCBGwDuXkaPJ0wzAMwzAM4/yEl0kEg5SUGBUXyPfEhsDCCz4OEcrUh5d68t4Qhodzho2XbF5CKU89CF6IF7y4A8ICTg2+91wyvNzWvZQfVMEAEEZw/PACzAsu9SYlReqLOS+1vKTXtROiLh1epoFQKFwYuD6oF6EAN9bll/dUUYs+kuOIejmfMDSgj7ireOk+WdjiiSAqARGIl3iPxubFy/3TEMaIEDd+fA8VpDgH0SEsrO46eC/5zNnhw6WaCBwnEKIOn8wngoW3D1ENRxnXlHbrg2Ol7nq2UtGK68v8IS4hINWJFKJ1Mba8vFI3zmMq7lRX17h6W6mo0xDGhliBQ4j+eMKed81pg/bYcOfwT26+PlFdJ4O+IeYh7pFonGvZr197ueoqwj3bqhCDsEa99If7jxxjDeF64JIjZHXw4A4qwHCvR0TUnccY6B/X1xODmBPGgIiCEIRA5e1jPAhADceC2wo3E9cR1xxOMvqEMIuoRa4n7lnmFzEPsYj5Yv7qXHI1eq3oy4lAsKReRE6uFWJfVla+ipVVVXU52k52bmMg4iHgMR6EYO5NhGbawX1InmTuy/LyGv35qwvXLFU3Fde9YZ/pR8N7g59R3HmMmetqGOcyJkydA5CXqmOvXjL2lltkwu23y2V33CG9R47UX0ibli7VPFaEHBqGYRiGYRjnJwhChHX98Iev66pzuHhw5fzhD9PkJz95W0OkeAGtDy/1vNzj7Pjf/31Zvv/919Q1wQs1L6oIJHwiqnjuE95VeZHmJd57cUVA4gWcUCdepj14caUucgX96EdvyP/8z8u60cfXX1+uL8GcW1dfXV0IWrxMUzfV41Ah3A8h4Wc/e0e+971X5dVX3fOrO7c+tI9AcKogBPCSzcu2R2PzcjJ4yb/ttiH68j5t2nr57ndfkZ///B0V4eq7y5jP4uLKU3IZNYRzmQ9cLj/5yVuuj6/ovNLPf/5zjjpoEOdol3lpKvSN8swJ15t3BeA6IExwzTlGmbKyOuEMsZEE2U2Fe4LQTtoCnEeEsjF/Tz45x90bb+gqfognjYGDDacU4if5kjjv73+fpfe8F9IGJ7q+pwIiU929XanuoF//+oPj9zHz/dRTc9UdSNQMgldBQd3PTlPhWvIzgGhM+B33PcIaTjF+Fug/1L8e3r7GqMuBtV0FUAQ7HGmInNwbzC2uJ8Q0fu74+eMa80nbtMW460MfKe/19ZN7o+58+moY5zImTJ0DEBa44qOP5N8/+Yn8v8cfl39897u6vfCb38iKWbM+FSpoGIZhGIZhXBzgLgFeuhEdCNMiFI1wHxwQuIiKi8vVkUNYGfBSSmgTL7memHQieOHmJZjyhPGR86g+uFVwTeHgoT6cGMAn3+OI4qUXQQShivK88ONeoY+8bLcUjc3LyeDFHPcLwhwCBUJLWlqCkDy+oePpTMFNg9uIsKoxY7pLcHDTHUuNQUjj2rXZ6oJhnhMSwnU/wgM5rZgXxDnC0rg2oaEB6lxCzDhdcObgmuM+437jvuNeIwl8Y+AaCw8P0vnOyytWsabOpRZzRv1pCE4rQu7oF0nRcUs1JzjHcPt5YYGIwPys8DMTFhas18S773GSHTtWd52aIn4hTuIg5GeFPFDUzc8kP5vcQ4ho/BwTGsrPKSF/hIbiCsNdV18A4xzaRVikr969gYjFfch1NIxzGROmzgFIws4KfOSSqqi3VZWX6379DWcYhmEYhmFcEJB3htX4SMKMs+hkDgsSNCM0sOT8X/5yt3z/+9fqS2xdWM4xfWF+/fUV6q6YOHGQ/P3v98ivf32bexFN1pdcHBQnA8GAJOG4THj5/epXJ+j5bE88cZOuwkbo3ZtvrtSX4q997TI99s1vXqEv4Tgz2HiRJkSNF/Xf/GaS/OQnN2oOJ8LUWorG56XOsUI4GqLVrbcOkf/v/7tVbrllsDpUEKhY7e63v71dvvzlse6FvlZf5psTXEEk4EY4++IXR8kf/3inzt0vf3mrrpbXFBC2EEVycws19PAb37hCVz5E3CEROq4jVl+j3l/96jYNlVuwYLvmv6JdcilxfyAqEXZ3upCfiDoJM/vFL26Rv/3tbrniit56/9TUHNXXFMIIcSVRhvuIewCXFn1AhPrqVy+TP//5Trn++gEqHtK/5gInFO3jRsQh5t2nf/tb3c8CIYgIRk0B9xLuq5Eju8if/nSnfOUr4/Vni58RRKRvfetKHQdj5GeGFQvJOcZcIAYRGoqzqS707qhe6x/96Hp58MExepz7sT64nphfzkHcRWTjZ5L6mDuuJ/tIaP6HP9zh7vPr9Geb+4sVAeu77RBbt23L1VX3EKTvvXeUzgP3Prm5ECoN41yGO/S0VI+UlBRZtmyZFGZl6WpzhmEYhnG+sn/PHunct69kFRXZcsaGYZwRkydPlszMSfLYY8/79pw+vFCTIB1nD84HXBh1IT5H9eWXleMQAFj1jpdiXm4J4cFBRaJtkmKz+hwiFcIFy/7v23f4uIADdYnOkz7lcCKUjVxI5JKiDzhEaIc+hIQEqTiCi+Oll5boamo4YzIy2mg7iFUID7RBP1lFD8cG9ZAjB1GuIYgXiAG8XCMoIRDwEk+fevRI0ZA3XuA5Hz5rXgiT5FxWOcPdg5uE/EDk2uE89lE/YgMCV6tWrbR+cktxDtBP2kOA8PrPfJO0mn3Uw2qBJKNGIGD+mXcvMTqOIcoQ0ubBnDA+6kZs4nrt2pV3XERrOF7msS4fVqzOLU4prgvCBe4d75qzthNhktSL0wbBAyEEAYWxT526Vu8DD64515B2SPLtwTjpL2NEbORcnGW0z7ywop6bKu0Xq9Eh8iGSMIfkFyO5OY46ry8ImiTk9tx8nEOdpaWVKmRRDvedN17C27jPcAUheHH/cb969zj3NivgUZ5QTu4T8qbhFGp4n3J+VRV5vfa74+WaCw2BjutFWC33CrnK6B/zSUJ0XEXefcU4EYUYH460hteSOrZuPaD9hptuGqgr5DEGQh05jkDLdSCsk3xS9KO+k8q75swtP0Pcn/WvB/PGtWJjrtGWGCt5s7yfI5xy5AHjniO0tf597/1s0D6fuLPYPm8efjjT/WyU2vOV0ShnLEzVFBdLScGnY8gNwzAM43yCFWHbd+smOw8dsgcnwzDOiOYUpk4HXnBx0rAyGTmOWLof4aC5QJDCfYQw8uyzC3TFsJZ0Rxmnh3cfINYgUL711koVtozmBXEJ0Yu5JlSUnznm2vgEE6aMpnDGwtTsKVNky4oVvr2GYRiGcX6SefPNUhocbA9OhmGcEZ+nMIWLAocKrhbcKUBOocceu0xDd956a4UmNj9dcOngMmHzQoFw9Nx770gVo/76149k3bps3W+cW3DtuFY33jhAwwJxTLFKndG84PYjOfzYsd019HL69PUa3mp8gglTRlMwYcowDMMwHCZMGYbRHHyewhSCESFEV17Z2z2bR/v21q3exsp406at01w1pwsJxW+6aYBcdlkvTXbugShFfqz587dp6JxxbkIoF2FohLURQkfootG8oNciCpPfirxSzDNhgsYnmDBlNAUTpgzDMAzDYcKUYRjNwecpTBFGVLc6W8Txlc7qlo0/qvlxCOGrnyD5VGG1uqSkSImPr8vJBNRPTh5y/xQVVeiLuGEYxskwYcpoCrYqn2EYhmEYhmGchyBA5eQUaMJtctuwEa5Fkm5W+zsTUQpIRk4CahJD16+f9kgMbqKUYRiG0RyYMHUe4ufvL6mdOkmHjAxJbNNGYpOSJL1PH0lOS5OgkBBfKcMwDMMwDMM4/yD8jBXvhg/vLN26JeuKgnzyPfs5bhiGYVw4nBVh6pJWrSQsMlIiY2P/S0hp5ecnIeHheiwkLOx4osXPA5YgDXZtRsXHa9v0paUJjYiQiJgYba8psJwtczf0yitl1PXXS3rfvtK2a1cZe+utMuiyyyS2dWstYxiGYRiGYZzfkNcpLi5cQ+mCggI+1+diDxKsx8SESUJCpOa0Ol0Qk6KjQ3UFM5K1e6GBJ4JyiFBf//oEGT8+Q/r2baeffM9+jp8JjIM5JVE842sOGA/jIvQxIiL4eDL6hgQF+euS/vHx4SawGYZh+DgrCgZi1JiJE+X6hx+W7oMH+/bWERUXp6LLDY88Iv3HjpXA4GDfkZYHQap/ZqZ84Vvf0rYRx1qa4VdfLdc+8ID0GzPGt6dxEO0QohJSU2XP5s2yfc0ayd62TbatXi2t27WT1u3bS2hkpK+0YRiGYRiGcb7Sv3+afO1rl8n//u9V0rNnqq609nmDiPPQQ2PkRz+6XlceO13S05PknntGyq9+dZuMGNFZRaGTgRg3eHBHyckplHnztsrUqev0k+/Zz/EzgXEwp9df31/zaDUHjAfR7Oc/v0WuvbafOrtORNeuyfLEEzfKN795pXTsmODbaxiGcXFzVoSpY0ePSuGhQyo6JbVtK/EpKb4jIjGJibrhqio4eFCOHvn8YtdLCgtl45Il8v5//iMbFy+W0qIi35GWY9XHH8vs116TjUuX+vY0TnBoqM7ZETcvuXv26BxVlJbKAfc1ySgJ6wuP/mRVFsMwDMMwDOP8ZMOGffLccwvkX//6WJegPxurqpFn6pVXlsrf/vaRLF68w7f31Nm7N0/eemul/PrXH8rKlXuktLTSd+TTREWFStu2cerQYkXBwsJyqa6u1U++Zz/HKXe6IPAhSOFeai4ws1EvrimcUCdzt9U5q4LUDWdRDoZhGHWcld+GR2pr5UBWllRVVEhkXJzEtW7tOyIqrISGh0tJQYHk7NypZRsjOiFBBowdq/mWcBOdCTVVVSqYZW3dKgXus7a62nek5cjfv1/279ql7TaFoNBQSWzXTqrd3JUXF2ufqysr5dC+fVJWVKQurwgTpgzDMAzDMM5ZcMpcdllPufzyXhrSdbJwMsSY7dsPyJYtuVJcXCFHj57WYtpnRG3tUdm165Bs2pQjhw6V+PaeOqWlVbJnT56sW5elqwWeLHF6XFyYtG8fp04tVhZEGAOErJ07D6qw07ZtrJaLjQ2TUaO6yFVX9dEQOsMwDOP8BD/w5LovT42IiAh56KGHZPfatSqunCoITiTrDouKkoqyMtm3fbu6gboNGiQRsbHqBtqyYoWG/SV36CCpHTtqmFp8aqrmZYLo+HjpNnCgDBw/XgWuoOBg/e9EbU0Na9lqyFuKO5fz4pKTtS3Em6NHj0pMUpK2T34nPkkizvFwt1GeBOO1VVUS6dqgDtqiH7iVKKthfq4NRCHyUrG/befOktSunSS6r6MSEtTBVOnG5h8QoH0hTDEuJUXrR4BjDhgPeaECAgN1HsgfRWLzFDde6kpwbXFeZUWF1se+7m6OivPzZfemTVJaWKjjYaN/jAeR68DevTpHhmEYRtPo0KOHVLvf/S+++KJvj2EYxqkzZswY6dChp4afnYzevdtJZmZ3SUuLly1b9ktR0YlFp4SECA2BS02NUYGIELZOnRKlY8dEd26ChoXxPeIWuZsQvLp1Szm+j1X7qquPSGJihPTs2cbVE6tlOI/PpCT3bFxWqav3EYrWvXuKpKREa93p6YlaJ7mSSD7OViegXaLl2rSJ1XY6d07SshwPDg7Q/lI/+3A2+fld4uqvVaGpQ4d46dIlWZ1fOJ7at493+xIkOTla62S8bdrEaZ2EwhG+l519WPvHczAmJEL5+J5VBwMD/eTGGwdKv37tZM+efBXOGHN9mLMuXVq7OW+r/WXOMzLa6PwQGrh+fbY6ndjfq1dbLUs5xC/q91Y2rJubGO0DIhsCGXNFUnbG4u/fytUZIX36tFMRDTcW4284z4x12LB0FdxwjtHnmJhQN4b2WlenTkluDmJ0LhHwDON8Z+BA944aUW3PV0aj8NfltP71kpKSIsuWLZPZU6aogHQ6jLjmGl1NLm//fvnopZc0pG/k9derrXX9okUaVte2SxcZNGHCcbEIDufmyrqFCzXkr8eQIfqJc4jQu83Ll+t51e77y++8U49xHqFvRXl58uEzz0jBgQPS59JLpa/bCINDpCK8EDGnprpaX05Wz50ra+fPl469emneKUQknEiEGCIi4ehaM2+erJg1S9voPXKkdOnXTwKDgqSVa6+yvFxWfPSRHg9w+yY++qgKWYEhIersKisulkUffCA9Bg9WkWvnunWy4L33JKVTJxnsxovIRDvMRbnr40z3g5yXkyOdeveWoVdcITtc+eUzZ6pTChDwyM3Vrls3HT9tG4ZhGE0n8+abpTQ4WK677jrfHsMwjFNn8uTJkpk5SR577Hnfnv9m9Ohumswboefpp+fJrl15JwzTo9zVV/fR8LDXXlumAgf7EFUQshB7OJadXSCVldUaIkZicPZlZR2WN95YLkuX7lTR4957R6pIhaASGRmsz5i4sP7+91numX6nilEPPjj6eJ2EoyHczJ+/VQYMSNOE3e+/v1o2b87VciRE98qxIUAR6ocYg5OpLpxN5IMP1srbb6+UqKgQdTYhLD311MeazJ0XVkS2wsIyFcFwhx04UKxCD0LR738/Vd1iZWVVOh8IOE88MVHy8kpU+EMAeuCB0Tpuxso4Dh8u07JAH8hnRc6nPn3aSnl5tQpcjD0/v0SFrxdfXKx9vuaaPlqW+QFXTMf+7rur3TwUyDe+cbmKd9OmrZPp09drKOAVV/Ry5/VVJ9fcuVskPDz4M+cZ0Y66EJ2efPJj2b37kM4DcxoRUZeMvaqqVlas2C3/7//NlqKi8hOKloZxvvDww5mSklJqz1dGo5zVwObDBw9qOB/CTruuXVWMwQ2FwHT4wAHNQTXkyitVZJr+wgvy75/8RKY++6wEh4dL+27dtMzS6dPlUHa2LJ02TV794x9lzmuvad2jb7xRjtTUyHv/+pf84/HHZeozzxxPuk7icEAgwpG0+MMP5aXf/U4WvPuuilcNQSBCcJr2/PPynyeeUBGtvKREOvTsqW4o2qfdp378Y/nnD36g/TiUlaVOrLQePXy1iCS0bat9fu/f/5YXfvUr2bZqlQpjHohfOMfedX3+1w9/qOMl3xUhhYQq4pZCQMMRRvu1nxHmaBiGYRiGYVxYREeHSElJpQpVX/ziU5p/CmcPAggCkLcP51CPHinq2EEgQkghVxNCzAMP/Ft+9asPtMzEiQNl6NB0rRt3FG6lrVsPyG9+86F873uvyezZm467hjwQXXD+cOzxx1+VH//4Ddm+/aCKTogv3j7yYuFmQqg6EYhgiDeIUY8++qw7500VtxDpEGRwQZWX14lSJ2Lz5v3y/e+/Jt/85gsya9ZGKSgo9x2pg7HTJ9pgTpibv/71IxWDwsI+WWBpwoQMLTtt2nq5445/6LZw4TZNOM+xptLUea4P+668srfs3JknX/7yM9r2668v1/6QdJ45MgzDuNBpEWEKF9RV994r9/7wh3LX44/LhC984VMJzj1wLhUfPqwCFKFrhMwRioczCEdSanq65p/q1KuX/icb19EY9xmfnKyhdYhFiDaINTU1NSpy4U7iHBxWuK0uu/NOmfTNb8q4227T8xDBKAOUxyW1e+NGFaRwS/FflIbgxkJQyt29W/tFwnHC5Qg9JAwvybU1+PLLZeJXvyq3PvaYXHH33SpIEYJHviwP2kB42r9zp7aNEFW/PZxdiE+Zt9wit3z96zpevkY8w1V1fIVCd46ed4K+GoZhGIZhGOceCDlf+MJQ+eMf75Avf3msDBnSSUWTH/zgOvnNbybJVVf1blKeJNw4+/cXqrhSXFyuIW0FBWXq6qm/D3EkMtI9q8bWPYsijhAWx7mEj23atE9Wr96rIlNERN0zJmU4tmjRNtm4cZ+KQifKBYWDhzYpQ/4pBCHqbbiPuhCACIE7UbJyBCjySC1dukOdTjiavPZ4zCVVRWOPu/SXc3BUcV7D53jCDQmvQ8jbtGm/OrOWLNmhIXQFBaUqxHXvnqw5rRDfdu/O07JsJJ6n/4QCElrnOak+i6bMswchlghQhPANHdpJnnjiJvn1ryfJrbcO0tBI7oemtmsYhnE+0yK/6UoOH5bs7dtl+5o1smPtWsnZtUtD2xpSmJengg/CUpv0dM3NRJ4lBBxcQTia/P39VQTau2WLbF21StYtWCAfv/GGrJw9W51KDUHcIVzOLyBA8nNzNQ8T/SA0cO6bb8qyGTO0XUBwQhwj7xQi0clAsKJP5ItilUBEMM6lbzEJCZrzibxQjHG7G2+W6yuhevxpbOX3ybK+iFpF+fkqSjXEPzBQ8071GTVKPxnzzvXrJWfHDs1jRQghbVIvf6QRqerXbRiGYRiGYZy7IKAg2CxZslOdPoSjIVysWZMly5bt0nC8iopPO5NOBAIKIg7CDzpMVVWNilDkLOJ8bx8CCXmPyJ8EiEn0wTtGniSEJMQcwvC8MoSY4WDi+MnwhCn6QH+oj09C0IqL63IpsY+2EFZYgc7rR30Q2aiHsEPKQ01NrdZDGB6i0pmsnFcXauin7ZDjibkhoTwCFW0QNkd4HvmcyOHlJVoHxCnm01vB72Sr7DWkKfPsQTgjfaQcYYzcG4sWbZe3314lzzwzX8MgmUvDMIwLnRYRplhxj/xM8995Rxa+/75sWLxYk3Q3BKEH9xHhbDiqSNxNUm8EHMLwOIek3+wjjxX1edsaV/+hnBxfTZ+Ag4p6K12dnL9l+XJZPHWqnkMOp1Vz5mh9QN4pxKSG/11pyMnK8QeKhOk4swjpIzRvkRvvZtdXnGAIbvVBYDrZSn+EC+K+6tizp84HQhoiGuIUQhZtcz7C3VH3NUnSadODvuAgO+b6inhmGIZhGIZhnDsQmkaY2gsvLJJZszbJjh0HVah6991V8vLLS2Tt2izNRfRZ4AxCrECMOhUQYXDsILLgFMLBRN4o9iPKAM+biCre9yejqeU+izrxqlbH4z1mMz6cVGFhgZp3CvEG6HN4eIiKbRz3hKzGqHNREV4XoOP1hCi+RvDin735+WXquEKACg//JGyO8EPC6OgfuawQnChDP4C6vHr42qMp8+zBHCKAFRZWqMvt/ffXyPPPL1JRilDAmTM3mDBlGMZFwVn3hiJC4WAivA5XEInNi90+hKD9u3ZpWF90YqLmn8JJxEY4HsIMjiGcTvxRCQkL09A59iF2IY4RAqe5q9LSjp8X6s7zkqifMZdcou0hBCFC4WIijBD3FCLbqbSDsERuAAQ50PxXqaka4sjYOAa0Q3skYveEKc5F2GJlQpxmCFiGYRiGYRjGuQnOHFxPiCJ1oWuN/5O0OeBZknBCkoqz6hy5nzIyUo87es4VEJwQgXAxkcgdxxPgLEpLi9NE52VluMOqVRQi3A0BCxGpYdgb7i/EPoQiVuUjPK5///a68h4hhghFOJV27jykghcrChL+x0Z+qago8l8VaRJ4xCn6QFscZ9U+Vh4k4XlDNxVlWHHws+aZ/tH+4cOlWoaynEP91IGIVl/0MgzDuFA568IUribEKMLlSOi9f/fu4wnIEViWfPihhgayEt0jv/iFPOy2B3/2M7n0xhtVnGFFPxxSA8aOlVsee0yTmwPJyHEtsVLd3Y8/rufe/5OfyKjrr1eBqjk4WlsrB7Oy1NWE4EVuqS9Onqx9IczvRCF7JwOX1J5Nm2Tb6tUqpt305S/Lrd/4hnTt31/H5zmt+Jq8WEFhYceFKUIX41NT1XXGPFadIGzSMAzDMAzDODdYuXK3/P3vH8nf/jZT9u7NP2Pn0WeBawghh/A48lw9+eR98j//c5UKOaxmt2jRDl/Js09ennsm3pMnlZW1vlC+uuddBCCEIxKZl5ZWqNDDCnc/+9nN8rvf3S5jx/ZQIas+zPOMGetVBGT1vn//+375/vevkz592mmonceMGRtUnLr88l7y/POP6DZ8eGdZvz5Hj+FOIxk6otndd4/Q43/9690qILGPUEFAUCNEk89bbx3cpHlmH8coQ1nOoX7GdP31/dV5ZRiGcaGDBH9a/6JJSUmRZcuWyewpUzTM7nTBVYT7KSo+Xp1P+T6hCdQJFBSkQpK6hnw5lbAP47QqITzQfR2TlKTH2U++KAQpnEM4pkhQ7rmNqB8hjFA+hB3apS2+5xhtsQ+3Uyn1u7pwLjUsF+TqDI+K0lX+cGcRQkdIH20BbeNsYjVBxDY2+qLhia7O+ivxxSUnq9OKfdSP64n2cUBRh66858ZFSCN9Z3/XgQNl8IQJGiLJhoDXbdAg6Td6tKxbuFA2u+tCfi3DMAyj6bDIRqn7fWzLGRuGcSZMnjxZMjMnyWOPPe/bc/ogtCDOkJvo4MFiFZbYh2MIAQTBBMEGdw0hZ+xDgGJfcnKUHDlSt2AODiEEFXJZrV+frXmW2E8OJUQgwslwHKWkRGu7OIQIbwOcRG3bxqmDifoJP2tYDvEkISFCQ+HIF0V97CO5N64fclbhDONrNhK114W8hbjnfdFE4XX5serC5RCO7rtvlIbsPfnkHNfnfTqGO+8crvPx3HMLZNWqPVoWFxSiDknUcSTVOdA+ISoqREPpYmLqVgb0HFmEyBFeSd+oh/5TN18D9Xh5wLx5Ztx80nd973DXgWtDXi3qoh/UA1wr5qzhPOPeYj4ZG+F7zB/7cFgRcui5r+gf7dO/poQtGsa5ysMPZ7qfnVJ7vjIa5awLU8apgXhGiB+rDJIMnXxWCFa4tPhDRl6qrG3bLJzPMAzjFDFhyjCM5qA5hanmgFxJrACIMDVt2nqZNWujurTOZQiTu/bavnLppd3kzTdXyNatuRridtVVfdz7x055773VKoAZhnHuY8KU0RTOeiifcWogRpF3C1cUebT4HhcX4Y9bVq6UQ/v2mShlGIZhGIZhnLew2h+r0y1dulPdRuSVIlwOt9fixdv1uGEYhnHhYMLUeQjC07KZM2X2q69qKN/Odetk6nPP1a04eNj+e2QYhmEYhmHUQdhaeXmVhoSVlFRoCNm5DonGV63aK7/73VR5552VsmDBVv3ke/Zz3DAMw7hwMGHKMAzDMAzDMC5QiooqZMGC7fK9770q7767WnMxGYZhGMa5hAlThmEYhmEYhnGBQvJtXFIkLSeJNw4qwzAMwziXMGHqAoVVArsNHCgjrrlG2nTuLCkdO0qv4cNl6JVX6kqA/oG29KxhGIZhGIZhGIZhGGeXC16YioyNlfbduknG0KHSc9gw6TpggMQmJV3Qwgxji09J0fF27NVLwqOiJDAoSOJTU6XPqFHStnNnCQ4N9ZU+Ma38/CShTRvp2LOntG7fXgKDg31H6ohxc8ix1E6dxM/f37f38yEkPFyvaSc3trDISN/eloN7qF2XLpLWvbvO5SWtTM81DMMwDMMwDMMwjObggn/DRqAZOG6cXHv//XLDl74kY26+WR1EQSEhvhIXHog1SW3bqjNqx7p1krtnj+zetEl2rF0rVZWV0rZLFwmNiPCVPjEBgYHSpV8/ybzlFuk7erRExcf7joj4BwQcP9bPHUP0+jxBKEJgGzhhgkQnJPj2thzcQ71GjNB5iGndWlqZMGUYhmEYhmEYhmEYzcIF/4aNILNi9mxZv2iRHNy7V+a89ppsX7tWyouLfSUuPCKio9XRdLS2Vg5mZUlled2SupVlZXIoO1udUMFhYbrvZBxx5x5w81VTVaVCUGxiou+I6PkJqan69QFX/5Ejn+/qLozhw2eflTf/9jfZv2uXb2/LwT00/YUX5P3//Ef2bd+uc2MYhmEYhmEYhmEYxpnTosJUREyM9B45Uq594AF12HyWS6c56Ny3r4yZOFHbI6Tt6JEjUltTo2LCsaNHpaa6WgUbEkGeCYwNF81ld94piW3b+vaeG4QjTCUkSLUba/7+/VJdWbekLgIVQhUOJxxVkXFx2nfGwFgYkwfztW/HDik4dEjD/hC6PAiFJKStorRU6/ssoaa55+oo17GqSsfF1y0N9xDtsfG1YRiGYRiGYRiGYRjNwyVuOy2FJiUlRZYtWyazp0yRLStW+PZ+mpjERBUkegwaJMtmzpStq1ZJSUGB7+in0dCx/v3ViUOYHWJHVUWF1NTUyOHcXHXvIESkdOgg7bp2lYCgIBWXSgsLJXv7dq2XvEM9Bg9WRw+CSu7u3RrKRt0dMzKkTXq6fPTqq5KzY4fmWyIhOGIVjiDyJHn1ZW3dKvvduSQQJx9T67Q08fflUaJPZcXF2seurr+EuO3dskXL497J3rZNeroxR7v9tItwgiC0fc0aFYkQdWiX/pMriTKEhpWXlKgQRF0IadRL/qZUV5acRpdccomOCccOc8EccByxr2EbPYYMkb6XXqp1vvfUU/oJXm6m0TfeqK6xXRs36thHXHutZLl2F0+dqkJTfUZcd5106tlTr8HHb74ppUVFMtLt69Cjhxzat0/mun3lpaV6XVLd/CKI6eovbgw4jRBzGAM5vhrOFV83Ng7mKtnVy7VBHCPPVaGbg+LDh1Xs4vutK1fqtWjKnJIri/F74X+0Rztcs3w3vmR3nZPatdNQRXJscf0L3P4i1x7hkezf7eaM64AAyn0R7NquP17CJi9kN55hXMhk3nyzlLrfK9e533GGYRiny+TJkyUzc5I89tjzvj2GYRgXLw8/nCkpKaX2fGU0ip/bJtd9eWpERETIQw89JLvXrtWX+xMREhamL/qITTk7d+rLv+feqQ8CA06aIZdfLolt2khQaKiEhoerKEHCaV78ceeERkbqynJJ7durGBEVF6f5f8JcXyrKyiSlUyc9BzcPrqjaI0ek8OBBFXUQIxBhEGMQsTr07Cn9MzMlybWHKBJEH1w/qZvy+1x/26anq8iDoEUfEEc8AYuxIYawr9rnpkHUQjjpkJGhohxiBgIV5yNccAxxhPxICCReu3GtW+s8IaogOiGCpfXooYIe4oefn5+OlzoQbhBgqCPRdw4OKU1Q7vYjHMUnJ9eJcwcOyM4NG/Q8oF7msIObU8Q1+ss8sb/AzdOBPXt0HuvDXFIffT3s6sMx1H3wYO03gs6eLVt0bhEEEZnoC33lOjA3fI0zq+FccR8wz42NI9l9zfVu7/ob4a4d+ysrKlR4Iok97SFKIoZ91pzWuPboJ/3C/UVfWrvj3EO46BDZSOaOw4/rRT0IUbjOuBdJtM61OOjKFefnq9jGvUqfmVPaRkAsOXxYhTPDMM4/ENyr3e/DF1980bfHMAzj1BkzZox06NBTpk5d59tjGIZx8TJwYAeJiKi25yujUVpEmEKMQJRRx0v79hKXkqIuE3IcybFjKm7gVPLASdNr2DAVodbMny8L33tPBRXqQCTArYOggWiEq4p8UesWLlShJDImRtIyMlR8QKTAAobgsWbePJn/9tvqYCGfkoau1ROmEMJwQ9GPWa++KstnzlSxBkEDUWn76tUqVDAG3D04g2h387Jlssv1DXECAY1wwY9efllWfPSR5OXkqAuH/uJA8sohEtE27h0ELZKP8znP9W/ptGkqipAXCvEGlxdCDuNENFnu6p371luybsECrQ9RjLlCKNm2Zo2OkzFyTqc+fVQYCY2KUsEkz9WLeOSF2iG0IPDgHkM8yXLzhaNsy8qV6ipqKEoBohhJ1JmT6ooKHTMvb5WlpcfnktX/uvTtq9d45ezZ2i8EobZdu6p7CPGKa15/rhCDPmsctMU1Z+5WzZkjiz/8ULatWqXXl3sFQZOE7ghRnzWnnhCHIwxn08716+sESzcuPzcvezZvVqGpXbduOse4AKc//7zsdftxTiGYIUripivKy5NCt3E9mQM+EUhpD3dVQ9eZYRjnByZMGYbRHJgwZRiG8QkmTBlNoUVyTOFmueGRR+T273xHBl9+uQozo2+6Sb+/5oEHNOSLl3wP3CuIArhhEBF48UfQQIjBZYTjh5d+yuDeGT9pktzz/e/LjV/6koaIITwhXuCkORUQuxCTEHBYrQ6RhfZw5iDGlBUVaUgXzir6TvgWgktjII5cdd998sUf/1ge+cUvZOJXvqKOHwQXhCGora5WYSN761Z1gtEuIhtCCfXjMAuPjKzL4ZSd/am8Rur0SUuT2NatdU7v/t73ZNI3v6niEEJesDv/VOehMUg0jsgDuI0I2WN+ELboM8KVrgCYkqLz9IVvf1vunzxZBl92mYp8XBuEyoY0dRy4q2h/45IljTqRPmtOud/Se/eWG7/8Zb0ubKwqiPCJK4y+cq1pD4EMkbMxhl9zjfaZeu770Y+k28CBOhbEMsMwDMMwDMMwDMMwmkaLCFO71q+XmS+9JO/+61+ydv58dRAtnT5dv5/9yivqbqqfMBvxgDAodVMdPaqOFTZWe1NnlfvaFapzIx04ILNcHa/9+c/ywq9/Lc/98pfy8u9+p44bHDGnAmIGYof2xdcm7anryvUHp89Hbhxv/eMfsmHJEhk4frxc9+CDMnDcOBXCGoJrZuS116pbad4778hLv/2tTJsyRR1XKi65MUCtaw/Ri09vrJ6D7PhcuE/2M2b65sFxwJ0088UX5cXf/KZuHn7xC/1c6+YBB9sRn5hHrqUzgfaZI+YWgbFdly4qFCLo4Qajn7TBca4x/WGb4q4L/Vnw3nuS78o2pCnjoF3aYq5wWDEfJ+Oz5rRznz7SuV8/vebTnntOXv7972XJ1Kk6juNz7uA4wtaJ3GOAyEZOLhxUG5cu1Wv8+l/+IjvXrdMwS8MwDMMwDMMwDMMwmg7qwFlPfs5LPg4UnFTz3npLy+HEwaE0wu0n7AoBgdxAhLgtmz5dRQGcVfXBsdJv9GgN38JhQ7gfuYzadO6sYWO4Y7zk5xnue/JHEapFiBhJzU9UzsvpRN3kMSKEjHAuNsLH6POMF16QPZs26ffjJk1CzdGQNdxOhAOOuuEGFT6mPvusikXkTUL8mPb88/qJO4scTT3d/gXvvqvOHdw9OH2WTJum40cwAVxjuJHIkcU8bFq+/L/mAdcRfUXUQQz0kp+TN4lQNZKfb1u9WjYsXqwi4WfBfHIdew4dqoIPYX+rP/5YE6gj1Ay76iq9VlnbtsnKWbN03PXBAYaoV3+umjqOhnMFJEvHZYUAiPDXlDmlPcZRlJ+vQhgJ20nijruPsMGF77+vyc/5nnxoq9z4EFQBNxTziRuK/X1GjtR7gjlY7+YQt9Vld9yh80voJaGKhmGcf1jyc8MwmgOSn99//1dl1qxNvj2GYRgXL336tJW9e9fY85XRKC2a/JzwqYCAABVIeNnHYcPXDUGIIf8QyarJF0QoF+4j3Dl8Uj/hVbhYCOVDiEAkILE4oge5mAjLw1mESEAZwsCok1Ay8lwhOhFOh0hDYm2ECzbEEMK2cE1xvH4uKs4lQTYbq8AhFJEIG8GCRO4kvSZXFecS3ka/EEsI58NpRF9SXbvkqULQYbU5xkcbCE3kd/r/2XsP+CzLs/3/ZENICGETCCPsvTeyESfuVbS2Wi122vf/qt21bze2b3+d9m21daDWugHBDbKX7L33Cpuwwvpf3zPPjQ8xYMBgBsf387lJco/rvtYzroPjPG9+ImjQDspC8MIVhuCDEEeYGb97eF8oGxDL+Jv7kf+IPFsIL5VCfxwNx7gGdxP1xb2GOId7iPvQDwhE5J7CrUTieHJBcQ3hjJEAFg91d1ErnIdguHbpUr8eh1LkfEKEJFcYfUcf0UaSjXNfNvo6vq+YG4zFudpBmTn7CrhHzhxTn9anuLqYVwhKHOc+iHTJoSzqQXuoB/MN8dTnW0wIY1+UY2rL2rVeNnMDsZEyESS5P/OYeY5DTghR9FCOKSFEflAtfI9JTAzfdUrt16Yt37Z27epZq1aptmnTwlyPa9NWWLedOzfajBkzbOrUqbF3SSE+yUV1TJ0P5BzCwcIT7RB8CH1DQECUwUG1YMoUd7ZE7pVIGOAchBxcMbh/eDoarqmaDRq4IINQgECDEIGIgiiFQ4d74JDh+LyJE/1cch417dDBhahp48Z5WSQKT6lVK1ZLs21r17prBjELoab7VVe5oLEvI8ND/6hDtA8OHzjgIlbZ0A4Sc5M7insgLk0eNcp/IuA0btfO93/0wQcupCCG4FJif8TWUFcSsONUat+njzu+EIOA/uI+E155xQU63E082Y/E6TicEF8QabpfeaXnicIllrFli7uPcACRsHv6W2+d1UHFEw9xKSEC4QgiOT3CVIS7k3r0sNrp6bE95vm6aA9hbjn7CocU4ZfnakdufQUImLitGMO89ilhgbjXqCfXQUZoM0IZLiqS7iNkMd44vnDckbMKuK55ly4uqFFn6NCvn+fcQqgjzJD+Q7jCybdIb7pCFEnkmBJCCFFYwYnXsWNHfUYJIYolhUaYQjQiOTiuE35HkEIo6nP99e5mWThtmm1etcoX/2yRU4fK48jBiYVLqVTJkv6UNRwyOH3Yx7mIWN7YsI9zo31+7fHsHFNcUzKUzU/O8b9DffgZQXnkb+KnO71IaB7Kohz28TPa54Ry2cffiGjcl3uwn3tQH/bRJspDKEGcoW7e1rAvwu8djpN7qzTHwvaJfgj3wFnVrHNn6zZkiLu0eOIgoZA4hAbdcYdtX7/e95HYnHtSTny7coM+wIHG/byvQx2oe4TXNWzxfRX1Ned+oq/CPvr9XO3Ira+AezDGXpc89illRm2N7hW1lWOcQ59zTvT36fvFrgP2A/UuEfZHc4prQsHZ4xM7RwhRtJAwJYQQorAiYUoIUZzxdXX2r+fHuYQpHCbkgiL86UJBDPBwtho1PP8T7pzIMSPODQIQ4WaEJh7JzHS3EKGOuMwIK6Q/cZ95+KPIVwgBXDFnjucFE0IULSRMCSGEKKxImBJCFGcuijBFSBSiFMJIXiA8jBxEhF4R0odzBXCeEGpHKBoheEIUdsijhjiVsXlzbI8QoqggYUoIIURhRcKUEKI4c1GEqfOlXEKC5w0iLxJOn0iYIiyLJ7gRjobrRwghhLhYSJgSQghRWJEwJYQoznycEKgA4QlsG5Yts7FPPWUv/+lP9tIf/uDba3/9q80ZP16ilBBCCCGEEEIIIUQxpFAIU0IIIYQQQgghhBDi0kPClMgX2vbubVfcdZd1vfzy2B4hxIVQvW5d637llXbD175m6W3aWIWKFWNHhBBCCCGEEKL4UShyTAGP46/doIGlNW1qiZUr25GDB23z6tWe+JxcU8UBnlZYu2FDS0xOju0xO3jggK1bssQ2rVwZ25N/8GTDlOrVrUHLlt6HW9eutR2bNsWOfhKS1ddt3NjrR9L5revWeQL6cxHdo9e113quMK7bvX27pYZ28nTAnBwP5W0L5W4M7SVReGEmmpOp6emefH/TqlWFus5lczxEoGQsV9upU6f8iZY8KTAjjD9PZcxPKiQm+njXa9bMjmVl+bw5FOZ1jbp1beOKFbZ/zx47HvZ/FiqGOUn53Cdz715bv2yZJ5mPhwcucE7FSpX8fWNLmO+HMzNjR4sOSSkp1rhtW+vQr5+/TuZOmGA7t2yJHT0/yNlXp1Ejq1Slim3fsCFPr+m8wJjz2qiRlubvXST7z21e8VRVntCadeSIrVm40PYV8te8ckwJIYQorCjHlBCiOFNoHFOly5a1Jh06WPPOnX0hlRgWZwgdJUqgnRVtEG9YpLfo2tWatGvnTy1EBGJLqlzZypYrFzszf6HnSpUpYwlhoc4ClT4+FwgxuDNY2CNy5KXvXbxJT7eksPBFkEK8oYyofYhibS+7zMUSFqkskFnUcl1hh/bTD/QHbSrsdS4T5hFum479+/vrqFaDBj4G9HuL8HebHj1c+KX/8xP6p1GbNi68Nmrb1lqGed62Vy9rGl7P5SpUyJfXcEKoM/foOmSIt69ukyY+NhG0qUGLFtZ54EDfaCfiXFHkwJ49Lqrt3rbNxZ/kMIaf9to9G+XDvEWsa9mtmz9gIr/mMH3LGLQPr23KjR+LeJh/7cI5Lbp08f9wEEIIIcTnT6OwthoYvh91Dd/Ryl7gdwohhLiYXFTHFIIMC1OElyOHD9uxI0fs5MmTsaMfw8IVl8D1Dzxg+3butIVTpri747NAmSzKWIjxv/VsBQUCW8+rr/aF9drFi+2j99+3vaGdxQEWqLilUsMH3uLp023OBx/EjmTTKXwIsigmuf30ceM+s1sHFxaLYMYVF9OpXOZTUYDXBUISDqOs0Ce4mj4ruIqYY31vvNHdKfMnT3Y3C2PUe+hQd67gMuKBArj08gvEMAQKhEle64hCydWq+VyfPGqUu7U+K4i5iFLNO3Vyx8+SGTNs7sSJ7gADxBccRk3at/f3mXmTJtmC0P49O3b48YKA9yDmK6JZ1tGjdixseXUrVa5e3V83bXr2dMfU8jlz3CnGe0mpkiXt8MGDeXKSVqlVyzr07euuP/ps4dSp+fJeiNjZplcva9mli8167z1bMXeuC2o5qd+ihQ25806v+4evvuou2MIMjqlTVava8OHDY3uE+Pzh8+BoeL/IyMiwIwX43UUIUbj4LI6p2267za677jpbt26d/eY3v7F94Tu0EEIUJi6qMMXiqlVYXDULi8k5YXG1av58X6DkhMUWIToDw5smC5dFYfFECMtngYV/50GDrFrt2rZy3jxbMnNm7MjnDwvTy7/wBasWFteIBR+FhVx+CBGFAZxY5MIhbGzehx/6wjee/BamcNMxn1hwj/3nP+1QEQzVAlwkiEhrFi92QQ/R4rNyNmHKYgLJ5cOGucCzesECF4zyixJh7BEKEQkRY/ibn4jQLp7kw1yn3l0GD3ZXFPfifYJ+Q7CB9n36uCuH1xh9yesdgbsghSne13A89bzmGn/vY8MFlRcQ1Qmr7X/TTbYhjOHiadNc4KOduA6nhdcSobmfhoSp8wNh6rIbbrBD+SCmCnGhZGVl2fzwfvGDH/zAZoTXrRBCwGcRpnBJlQnfBfluhuBdXNYhQojiw0UVpvKyeCHUg8V0pwEDPNztaHiz3LN9u7stloVySaqNuIRLhjfTg/v329zx4z2XEa4BwkhIFIwIhjjCoov8NiyIG7ZubeUrVHDxgrxGa5cssaPhGhZpO7duzRbK9u1zdweOD8LeyMPCPQh7ohzC4Mi5RG6mSa+/7q4T8r9wDZw4ccJWzZtnK0NZ5MVq2KqV1W/e3O9PiBOCANfyAdAsXIurhPpzfjy0r1roU8KQKJvryI+DsEDfed6Zdu28jw6ERR6LVkQecjbRJkLoWIyzKMfBQp8i4pCLp1boI9q0euFCPy9qL/0Q9evejAzvD8KG6MtVCxa4aw3BkDbXCefigANcKovDl2UWmTXT0uyKu++2feF6HCwrwxjHk5swRf0atmzp96eNLJ6PhoUg91wxZ45ddv313s6cY85YEApJH+M22rl5szuAqAtjFT8PcKbQ74gzO8KYture3XMQIRISUlQmfEAjpHAOdagT+jPatznMLepBOBXhaYw3/cP8JUcOoWo4cxiTnHOS8DnORxglvJE2UB/mPf3POVxPn1JX6r0nlI2Isj20hbFpF+Y8gh8CD/OZa3AA4SY8Gebb2TirMBWj25Ahfl9EAoSNpqENhIjxWmPj95ztxdnHPkIBK4fXM4ITY7g0zDXag4DCWDLXgDrQj9Q7es0gqDDmjF3jcM9SsXlEexhznE2fRiRMMU7kq6LfmFO0AwbcdpvPc+ZoYpgnS8J7E33qIcJnue+iadM+8VrgdYqLjWP0ScnQXkJwCVGkXf5a2bHDls6e7a+Pjv36+XxkvOKv3RXeX6gz72uIZUfCHGOcqTOCGnOe9wP6NJqvvEch4JNPinbwWhx6//0urtEWyh50++0e1jh59Gh/vdIP8VAX/jOA/gbmC2PEGCD4I0zhoPP3sdAvUWJ13kspj3nP+HYZNMjKhjl8trlBTiny5fHezvsr/UL/5GxHTmGKtuCoi5/j5zMPLjYIU+VD3yEICFFQpITPlscee8y+/vWv21tvvRXbK4S41MnPHFNXXHGFtQ6f61vD95XnnnsutlcIIQqOAhemWBixmGfxx0KN5NKIJ+uWLnXRgTwmCEMINQgBCDIkNiYciX1cx4KJhQ0LVgQhFsUsoFkUlguLza2hHEKXWBgi/nAfFvtzP/zQBZVqYSHSLyzmWXwh5FCHvjfd5EITrgQWYdQb0QUhDNGkAjmbSpf2RRZhOiz4WJAhpOFQQDzibxbnlIcAxuKWBTALURZt7GOBz2KNxSu5c+gzFrUsKCuHRTPuiI8++MAFO/IGkbOJaxEcWJRyPm3i93fCBwsiC32CI4cFKAtoXzyG4/MnTfJFJiFRaaFfEVQoCzGGxSXiEAt42sciEdcaoURR+bg9/H6hrvRfJEINDItl+mlBWDyvD+MWT27CFGPqeWdCe+gfrqXN/I4wSK4xxjrnmDMvSLbM+CH8sFjnOgQkxpwnmLFoZ7HLeQiDtHd2mHuRKIN7iLof2L3bBUQWxySgZwyifYgCCIeEXNL+9mE8qRtjxbzCtcL9GGPcO4hzmaEvF4T+rVKzprXu0cMqVq7s9WV+MYYIEYzNzHfeccGC/EvsY45z3sbQvkikpQxEVOYyrw3ykCECzXz7be+/s/FpwhShbowFr5MZoaxOYb4hxjB3EVP4Pb69CBkInQhCQHtxPzH+CDbzJk50YRaBg7nJfGf86H/mDO2e8MorLjwgUPA6pU0IcPQPgjPtmR36mfnBsbNBn+GARJjaFeYsIgivnymjR7tI2eeGG1x4Yh6nhXMiYYoymQts1LlSeE1VCXOY1zNjweu5VRgv6kH9EZcQV7asXm3HwrUIsoiatB1BhtcIrwWEbcYJlxav/x0bN/p8pS8om/cRzuM1j5jDOCPkMvfYGCuENOYfzipeV5THuDDWh8J8Qoi9KSxMKY+28D6E2M77DmUhcjMPI3jd8v7DexKvC+Y0/YYgS1sIs2WsEUapJ/WNnKmMDcLXstBvuNCGDBvmIu7Z5sbaRYs80T7vdYi1tA/xi3ZQD+rLfywgAscLU7SV1z3t5xpex1XD64B78378afPgYqPk56IwEH2/IqR0dHiPE0II+CzCVPfwXYZrD4a1DVx99dXWPHznJaRvYvg+91H4zJ4SPrsbNmxo/cL3xarhOynsCp/xEyZMsOnTp1tC+Aznuirh+11y+Bxnw4nFd8HF4fs2x+uF7zbRPt7H2AhN7hXWg506dTqd3+pA+I60NKwZ3nzzTbmUhRDORUl+zuKEBTIhVyy+WOCwoORvFlYsVli8Av9TjzCxbPZsywwLMBZtOGAQuw6GN0s2Fmb7d++2w+FNDNEgSgjMAqx+s2YuOLFoZ5E64623PCfL0vBGiLNn17ZtXhbiDov0E3lZ9IQFLOIRC3gELcokDIbFEwtBFsTUh8Uqi1KcLzyZDocBwgUCFwsx7jvr3Xd9ocdCkkUergREJtwGiDPNw8LWn24VFnO4cMjRg4DB9bypR09ZQ5yjbIQBjlEuggv9xsIfIYCFPg4QfiLKsFhGbIkWeixEqSv3YfHNIpQ+mxo+FAjDo00RCC64pViYI9Ahak0dM8amh77gPBa85JVC1TwV6klfUWZeoX8ZS9xxuIFwWCDQIAywoM9tzPkbAQfxg0X3jHfecTEMcY17M1d4AhznISAgzNHPkVOGe9J39BttwfHCdWzx+xh/+pPro3kK9CljgbhIuymLunIOriHEj+gaxD4W5zh6WHAjKiA8ML44sng6Gm0grI57R0IHTheENuYcY7M8jC+uOIQDXjeMy+eFh5M1aeJiHXMHsYS5j2jK2JP0nnlJvzI3qTeC8bSxY12E5hpERV6nOKpoOyFpHEek5HzEq0aILeHcvLI79BsiCKJlzfr1vY68xyBK5XxqImPL/OV1wNygDfQhfc14If5wb/J88XrhNcFrC8EGkbNeaDsi9PzwpY3XCRuvY8pB5OM1zxgyVrSJ3z3hfHidMT8QCBGAEWwRe/19LfzN/fhJnTgPYYz28D5An+YG85p68F6GqBMvSgHzkjZRLq9T5vOi8EVyV3iN8b7BOFF2/TBX6S/mOvVm4z8CmLv0Zc55fzai9zreYxGv6BvmOu9bjDvvXfH450CYB2nhPRtoN5uLu+Fz4nzngRBCCCHyRpuwLrv99tvtyiuvtNrh87lm+B6EO7NS+B6EGF45fMds27atDRkyxPr37291wvd8NpxV11xzjbUM3x3Kly/vx7/0pS/Ztdde644rhKzrr7/evvjFL9pVV111xr6bb77ZxbBm4XP/1ltvtUGDBvnvlFurVi2/P99NhBACLsq7ASICbiUSfuNiIaSJ/yXvEd6w+B92hKtPeyNigYKjBCcEuacGhDe0zoMHu2CQEBZXLP4QWXxhtGXLOUOczpuYa4LFH+IBsAhjYYUjgboMvuMOrxuCQaXwxooDgEUfwgoLRsQHFtDxIMIgQox54gmb8PLLvmBGnGoX+oSFGQtThCDcPT1C3+GOYsGKyIEQQrgMCznEmUhgQ8ChjjjPcAQRykO/IUYh8tGOCNwK3AeBhXJwCp0NxCCcDC6yxYQ4Fpws3gmNQ4giTJJ6nAxtZiHrwlkeYbwQddaGBTGLfPi0MT+bKIObA/ED5xbXsOFaQnzwUKXYXIvCRGkDbUEUPRDahhMmfh99hiiByBc/TxEhXPQLdSEMjjHCxZMS7sN1jA/9QN+4i2TdutMOGxdMQv8wBpFQFg91JawL3DEXygJC6XZt3uz/w0R9cApdKPQfY8TcoI3M1XOB29D7PinJ53m38OWEjdc3wlCopM8TxpK5jPjGfGVuIRbS34wNr3deO1yDSML5jAPOKcRE5mNehJAIQumYjwhd1IWN1wj76OsI5hPiatfLL7cr7rrLBjKfcF01amTlQ32YG4w79UV8u+y661xsos3Ul9cjr2nm57Yw5xlLYAxok4dihmO0AejTDStWeB0IC8bJlRPmE3ML11K/m27y3HMkpif8jn5AKKPPLgREPq6lH6L5zDgQ8krflwzjj3DF+xXvUZwXgYiPeIcolXPenw0PXTx61F8/tJn+Yc5nhHszLxifeHid8Pqm3xByeZ3j3ozygn3afBRCCCHEmeBSQmhq0qSJb2nhcz4pfG87G5mZmfb3v//d3n77bXczvfjii3bPPfd4OF/vsMbBWbVo0SL7yU9+4tuasJbo06eP3RS+s0QgYi1YsMB++MMf2n333eeOKsSmTeG7RPy+unXrWvvwfblx48bWIHxXw5k1YsQIe+CBB+xrX/ua14P6CCEE5H01eB7gCnjtb3+z58KbD+EyLHomvPqqPf/YYzb6iSds86pVZwgmuYFzhPA6Qj3GPf20/e2737VX/vxnD+nKk+vpM3Iy1A9BhoU2sOAj1I6nf+Giev63v7V/PvqouysQISIiYYqcMiy2coMFOwtdcs2wsGWh6gv3cA0hj/Qb7WX7x49+ZG8+9ZT3IYtv6oPLIhIucEvhBCOsp3pYULMQp8889Cx84ODyuljQTkQUXGP0T86F6LlAnKAtuMOiuXChY06oFGODU+TZX/7Sr3v3hRfcWRWPj8vBbAvzhUK9cYi8Hj5MozH6v+99z/7105+6k4XxQPg5FOZOYVto42BBrEHIjRe/zgXn4Az88PXX7ZlY3/4ttPcf4YsH++jj3MbyYsLrjbBS+hlRCrGV9uRMLM58wqWJiDRp1Ch7MnzBYj4R3sprEyca70W8J73wu9+5U7PjgAF2Z2gjwjoCTX7D6xzBue1ll7nw/Xp4n3z65z+398MXQ4Qi+rI4g7sSoYywvid//OPTr6Gnf/EL/4zg6a1CCCGEyBvdunXznHSzw3cbtn/96182OJaCIa+QIgDxCDdT586dPb9dVN6wYcPcAYUYFUF4H+LVkrAe4j/BtoTvlRs3bvzEPv6TC5fV4fDZviesXRCs/vKXv9gNN9wQK0kIIT7moghTvCGx8EMIYPGIoIKLhL/Zn5cFMa4EnFYICWy4PXAEJIcNdwVOIRailIcL4GxumtygbMKUEFP4n30EHcqOd6O4pHDq1GlxgTdXwnO4t7tYwhsubcMBgJPmDOKuy5VwDOcKjiRPuB7ezBG7EKwIkcKlxEI/2miju6Yo1y//uGx+RxBAuCLUC8cVjpzdYaGeUySgH3Fy4RChvWcLGQIWyDvCAhJhC4cFLgf6mPAtNtwgOK5wS9Eez5WTsx8+DdoT15ZPG/OzwVjiRELkwxlCPbgOZ9MZ5Ljf+YIjJCOMe4VwL/IY4dqLHyd3j8Xm9vneB2cL4goQzsW8BA85q1/fn9KEywgR8HzBBTP4C19w1xNjH4VM0h/0W+TQ4Z7cG/GE+Y5IgIjAOPAaYYzj28tr+vRr+Rx9S6gtjhrKpRzugysJ51JimFsIX8zvvMJ9eP0z1oSeMdaIOuyLh/lNnXkd4Co8HM7HlUTOLn+th3KoP68vXD+E2c4YN84FYr8ujCcuIsqhrlGicMbAhbCw8ZqjDYDol96qlSdf572B97uccF/CkDkX4Zu2816Am4ixiJxKjAljj9jL/fIiMBPKCLwn8Rpl3HjdIszxmqAfCJ/k/Yu/eT+LIJdZcvgb5x/zjNf/ueYGUG+vZ7gffUT/EMJXK3yB5TOA97N4cP4RskpZvM/5gxtic8k/K2jjWeaQEEIIIT4JT/D89a9/7aFzbA8//LBNvoCHibB2YFu2bJn94Q9/OF0eoXy33XabPf7447Ezw/e68H1rf/jOzWc98F2Kjc/1+H0RlPnII4/YddddZ6+99pqHBr788sv20EMPndPdJYS4tGD1+2j2r+cHbyT333+/rVuw4PSC+hOERQaLExwmLIhYiOXmqGCRhiDBos7DUDZt8gUSiz4WsiysyPXCYsZdOWFBxNOjOJcFJPmrSGjMwpuQHAQDhA0WZeRCwilCmBT/I8ACFSGLkCwWWoSAsZhiscg9PcFxWCjhjCIchvAkhB9X/cOiLApFIaEw9+N36sSCi2tZJHNPwuhoNwsuFqMkIG/Zvbsn7sbhQw4u3E0kZmdBjOOJ82qHcr294f4kTuYnHxQIQSzmERk8qXZYXEZv+oTosNCk7SwcqfPqRYu8f3B91AttpN/Ja0QYHjlzKIv2s+CmLuTqcfEt3JvFOyE55NmhbbQRwYt+Imk344JLizxCiDUsghkH2osLJB7y3uBccWdXzCnH+JAwnL4iyTeCAgv5MmGRe64x9/xcYWxYsDPmJIf3xXu4Llo4I/YxLvyOwMeCHucYfc39uBeJqQG3DXODMik72kd9WZjTfkQMHDm4scgThiDJXCH8iDKZP1H/RYIfbWORTRJrftI3zAnm3cYVK3ysWcgzhxgH6sCHOXVFqKRczqcdDVq08HHBhYhzrFG7dh4GxTyIwkwjIpGA6xhD+ob6Md/I7cbYUA7toF70NXWiz2g311UN9aG+lE0CcMbUywrnUF/mAO1FEMJVSDgn1+ccS+YM5yHsUG9eB4w78428Xzwpj3YTlkd+Ir7INOvc2ecZY0k58VAH5hL3IW8T9eI1QT0QvXBB4aSK5ioCIoIv7y3Uj3tRd+YN44cYxWsWt2L04AVea4wrQidP2mS+0hbGNnqt4Hbid5KJcz2CEn/XDcfo5+jhBNQRVyTznfHidUg96FvmEtfR/+Tgo16UgbCDEIgLjfvyuqU8/t4a3j95HRAKTbguziPmbfz7KddQBnOK8aRvyMFH25nPvKZ5X2I+ITYznpxHvWk783dlaDf9xvw819xg3LiXP1UwjBevV+rKeYwLrznmOvOU8hl/Xg98BvAeRV8yPznfXz+hHxAc6ZvzESnzG8YqK7yfvvDCC7E9Qnz+RN+vxowZYyvC60gIIYCk5ITtxX9G4UbaET6T14XPeDaeshclOI+HxOPtwncv3E7vvvuuO6PILYWzadKkSf49jLC76uF7FPt4/8H9RCgfbqjd4ftchfCdDzdWufA5vzB8ppPwnN9xbZH0nGTmc8L6LNpHaOGG8B2GxOkcWx++h+4M6wESq5OzihxT48aN8zYIIcRFFaZYKCGOsLAiD0tuohTghnHxpWxZF6VwIrCAQRDy/7UPb3CIDPxN6A0iB4seFqIsMDnOYodFEAtRFkHUiYUb5XIt/7tPXbgOJwEb17GIYmHL+SzcWVSyQOMJXlGCaspj0cR5iFsIACzQKIPFHg4DrkWYcndYaDcLQOrH79SJhRgLRBbYiEi0lfNJXs61uD+4L/txYLHoI8cP9yM/EffmQ8Pz3YR78jNyqPCTvuVa+gbhhfvTN9w7EuQQ2hAKcFbE34f2UG8caCRl5l4IiYwb9aIP6V/qzb04hijFYplFKYtYFvRci+hCv0dQPgIGYhl9zAKZezPmlM3in/qwn/Z92pizcAXKcBdI6N+obMbfXSehTpxPv5LnCxGNvnSRNJzHGAPnc0/6hnxH0T76grHhetpL3biG+cBPBCS/fyiTOkT9R39RHtdQJtczLswTxoG6+tPUwjFERd8fymF8cLEgSiDI0GfML+pCH5FTjHlCuZ0HDnRxxd1voax4aDf3oVzGHgGC+nEPBDUEIEQixjcU5v3BvWkL9+Q86sB8pq20BwGCe5UJ5TJfvI/DT8pmrKkfbc45lpTJawsnH3ORecd+5j9iFq9HxKXV8+d74m2EL8LnEDh43VCPeGgXZSIeM56MD69LBMttYR5GT8HjPKDvcQdGzrtonnMO85zjjCX7EHLIJ0V9GReOIeDRfvqI+e/jHI7TB4hCjC8uR4REyuY1UDocp508jY65ysMcqCNCF2XQZ9yfMUAYpK7MIaA93lehLbz/URbiHWIegg514v4ISNyP+/MeyftLBK8N5ibzIGqvu8FirwU2XhecRzupV/R+xHsjTzZlLHgdf9rciNx7lEU9oj7m/iR6pw+YOz4PQj2Yf1vCddwfMTv+PTvqU8adekSCe0EgYUoUBiRMCSFyIzdhKq/kFKYI3WNDHOI7Gd8x+U/SGuF7GIIS70P169e3Vq1aeaJyOBK+GyBMIVAhSuVFmEI0ywjfcUiKjvBFWWyUj9hFXShXCCHIVn1BsRPR44zHjxzpizhxacKCFCdL72uv9YnEU9d4apnIX+hnwq16XHmlix2ITP4EwWIAogfOGYQpRKN5Eye6KHSpgmCFAMXDIxBmp7z5povR4uLT/+abLbN8+Qt6FLcQ+UX0/Wr48OE2evTo2F4hxKXOo48+6k+5u5DPKJ6KRygdrioSkCNUsY+E57jA33jjDXv22Wd9/1e+8hUXpSIQm1566SV7//33PVQwOTnZxo4d61tiYqI/kY96vfPOO/af//zn9D6SpuO4QpwiLBDRi/+o4z80ly9fbs8//7y9Gb7jHDqU/XAZIcSljYQp8ZnBCdInfOAQyoMr4p0wJ0T+gsOkdc+e1rhdO3fQzJ0wwR1IxQEcOzydrWbdurZi3jwXNgsynKugwV3ZtlcvD+WdHBalhJniphQXHwlTojAgYUoIkRufRZjC+c6GK/no0aMuEPE37ujILUU+U/bzJGi+20cgJCFecQ5uKBxW0d/8Tjlc52kpwv5oH2VzP8rn97OVyXEhhDh7Rmkh8ggfOrhc3ho50ma/915sr8hP+PAm/8+EV16xFR99VGxEKSDcbOGUKfbha6+56HYpi1JAiOHMd9/1J/aR6wrXlBBCCCHEhcL3SJxJhM1FQhS5nQ4cOGCZ4XsG+/k+z3nkqGJ/tHEd+7mO87iO64F9CFrs45z4fdH9EMLOVaYQQoCEKZEveB6bdes+8ch+kT8g1pB/yvOEFTP3DF+EPMfS5s2ei+5Shxxt5EIjZ9fZHhghhBBCCCGEEMUFCVNCCCGEEEIIIYQQokCQMCXyFZ62x9PNeDw+j8Pn90sJ2ku7aT+/0x9CCCGEEEIIIYTIHa2aRb7CI+rrNm5sN3/zmzbw1lv990sJ2ku7aT+/0x9CCCGEEEIIIYTInSItTFWvW9ef5nX1PfdYanr6BYkAPIafay8fNsz633KLP6Y9N3hyWO9rr7Wrvvxla9apU2zvJ8El0+6yy1yYuPFrX7N2vXvHjnxMtdRUu/wLX7A7H3nEel5zjbejuFAxKcnqN29uJUuV8kTW5J2K2vvFH/zABtx6q/d3TujTG0J/3fytb/nTyCpUrBg7UrSgvbSb9tMP9MfnQaWqVa1tmHc3feMbPv+SUlJiR86Evu89dKgNDvO9fEJCbK8QQgghhBBCCFEwFGlhCrGoas2altqggZWvWPGMx5DmFZJKH9y/3zatXGlb1qw562PZSUC8bf1627B8uSdqPhvUoXL16lY71Alhok7jxi4SRCFdCZUquTjQuH17q9ukiVUJ9acdxYUKiYlWK7SdPiIR+uGDB719NerVs9SGDa1hq1ZWpVat2NnZ1Khb1xq0bGkNw1Yn9E3F5GQrWbp07GjRgvbSbtpPP9AfnwfHjhyx3Vu32trFi21XuD9PussNBD+EwlphPIpqHwshhBBCCCGEKD5cVGEKBxOiQ+N27VyAKVO2bOxI4YEngu3budOWzJxpyz/6yHZv3+5uF+qd1qSJ5wqC48eO2aoFC2zR1Km2fcMG33cushAGSpRwUQohoFQoE5KrVLGaaWnuVkE84P6FhVr161udRo2sUqjjhYAARX9VDht96n0QIxIAEWo4Hi/YINQhMHKOP4GsEDw6FiddYnKyC2mM3/mIh0cOHbKMTZu8H3EycW1CUpKXhTvuYoT3IYjxFLc548e7yEodhBBCCCFE8aZMmTJWq1YtGzJkiN1yyy02aNAgS88lOkEIIQozqCWPZv96fiSFhfb9999v6xYs8Eeb5wYL81bdu1u3yy+3Q5mZtm/XLss6ciR29ExwGiHi4JZhEc+GeINYwYbjiAW+n1Opkh+vGt6Eq9ep4wLC2iVL/DHrhNL5tRUrni6L6xADEEPi91HmiWPHshNWh/2cUzq8uVPvTgMHWvPOnV1M4xH2CEvUB8dJiRIlvM6U5ftCuVGZXF+7YUOrFOqJwHU8K8uOhHohZiG6cAwnFfeiXbhrdmza5E4t9nHvqH2Uy/0RsE6dOuXlU0+Sa3OcrWyoO5w8ccLrwvGojVxPHThGvSiX/ou/lj5gYz9hhemtW7socziMF/Xj/pyb2z1zPsY+pWbNbNdTo0a2ccUKd5ghkNAm2kw96GvmwIE9e2zf7t1WKtSLfsZldiIcpy5cu2fHDr8/94uvczRuCIVc6/1Be+P6DLiWOfWJ62OiEHWnP2hXfH9DyTC+7EdI6n3ddT6XOJ97RnWij09fF44jQp4K9Wec6PNyYSwatGjhYhzzh7na7+abrVxoP22jf4G5FD//IOpX2so9orni45ujvtH40tZo/Okf6sIx9tH/nM+GyFYtvGYY16WzZp3VWSXEpQjvX1nh/e+FF16I7RHi8yf6fjVmzBhbET4PhRAC+vXrZ7Vr1z7jM6p0+MxClOLY9773PbsufG9tFb6/wsqVK+1obA0hhBCFHRSWC3q3Sg0L3FlhYTt+5Eh3GuVGSo0a1qZXL2vZpYvNeu89WzF3rgsSucGieWj4IkbCaBbkLLb3h3M/fPVVW7tokS+2m3boYL2uvdaSwuKcv48cPOjCR9bhw/b+Sy9ZYliwIyYQQsWiHLGDBTvC2d6dO31RXz3Um2PsWzhlis14+22r27Spdb/iCg+H2hn2E3KGQINgQD3YR91xOyFILJw61UUXck4h+LhYFso+sHu3O6oSw98IUHxYUEfEiXeff95dLZ0GDLBWPXtaZjgXhxKhVwunTbM927dbw3DPvjfeeFrUQmjDBTPq73+3QwcOWMtu3azr5Ze78BOBO2buhx+6yNC6e3cX1HDl0G5EhwWhjbND31NH7h2fH4truS5j82bP/VSzXj1vM2Ia/UXf878wTTt29P6gTrB59Wqb+c47tmTGDP87grEjz1GjNm1s4muv2eoFCyxz3z6vb5/rr3fxBgGJfloxZ473f9UwHpcNHepjjsOKuk8ZPdrzNOGsIl9S2969XSyDaNymjxvn15IviTFHgMFpdTSMIcdwwNEHnQcNsrZhDvpYnjzpTqaP3n/fFk2fbn1vuslade3q8yL+WsaWOdTjqqt8XiIK0f9rwjzkWupEfzAX+LBHZKKPmReE8FEXQjgH3HyzbQx9vGXtWneSMce2hL4b/8orHjYKzJ/4+UcZzDWg3S3Ca+dYGI9Z777r7Wzdo4e/riB+fGkb53IN/bMozCnGq2VoX/crr8wW5EL/HwztOBTmI3V+5S9/8d+FENn0D6/ZzPBaGRreV4QoKKLvV8OHD7fR4fNQCCHg0UcftY7hO3n8ZxSi1FXh++qDDz5oGzZssJdfftlah++onTt3trFjx9rjjz9uB8J3PyGEKOxcVMcUThLEDlxNLMTJfXM2xxQC0I6NG235nDku7pBE2kO+QhkIJ9XCGy/OGhbb7zz3nM2dMMEX7NVq13ZlDfEKQYCwMESYdUuW2KQ33vDQPP5m27RihU0eNcr3JSQmWoXQBlxcLNrrN2vmIgNizYp58yy5alVftC+YPNmmvvmmO57ICYUYsT3UExcMIYoIUBybN3Gi18nrGtrL9QhSh8OHAWGM28I5CCD1W7SwpFDGptWr3b1CyBuOKQSNg3v32vply2zJ9OkuzHB/wv7oM/qBOnL/OeE+M956y+ZPmuQCz/7QBvq5y6BB/jtC1fRwHHGCfkCgo++SqlTxOnItrh0EMPI9HQj3ZXxw4OwL9aBcF2jCGHAeQtSy2bNd7KF9lIeiuX/3bhdsIghbIwQS1w59SFm4jCLHFHAvRCbGbOPy5b4fQQuhhP5CdIkcU7jIuN/KuXNdsNm6dq27h+hHzk1r2tTbvSb01YRXXvFzEJy4nrY0iwlq7EPYoe20AxGwQ9++fl+EQQQ4xCAET8YOFx1jzP0RlLgG8WdpaD9zh3m6MrSP/uVeuI+qhHm4NfQhfRKJlemtWrkQS98yrlyzcv58v3/kimLOHT148HS/MdYIWS7q9u6dPSZhjnAPBN6Nq1a5OLbso4/sZCiDOeGUKOH1r9uokdePjdcCfUAd3n/xxdNJ2Sn76KFDckwJkQM5pkRhQI4pIURu5OaYahy+y/bq1cvq169vTz31lE0K3+H5btkwrE+ahe+Ii8P33H1hzZIV1kxCCFGYuSg5pnDIdLviCutzww3WtH17Fyxa9ejhf3cZPNiqhjfVyH0TQVgWwk+Tdu2seadOngwbUQChACGkelqaCxyIOOuXLnXBBVEAUSynRTXKt7MunIf4wcKcBT8CS7QPYYOQKEQjnDURuGYQQxCeEF24H2XhIEI8i4f7IrwgbiAQIUBwLxw2wO9chxsI4cFFs+Rkd3khThBuFYFYQz8hpOBQ4sl0tcP5tBlhD0cMjiKEChKEU2/K2LpundcBlxfnZmzZ4vWhfxBD6B+ECAQohK7F06e7iBflyiobCxdDcKG9iDHe5pUr3e2EIIb7hzrhWCPvFveuHMrkfp8g9An9hPCSc1yA0EXGAtGRMUXYA8YjZ14k7o2rjHvj9CI0zudDuJawQQ/nC/1WI5RD+/l7M2OVkeFtQrSiDjj6Vs2f731C25hrzC/qyZixnz7D4cW8RPyjLPqOutLPiEVci2hFuY3D+DBPcTExn+lj5itjnRMEVOrEfKXPccJFUD/m684wbkCSeMabe6SEeY+AxJjwN2NFGcw1F+umTfPwx+RwHu2Nh7ogajJfojYivjEnEGOFEEIIIUTRJjl8Z60Svo/jisJpuTmsYbaF79q7d+929yUbaSTORmL4nogL67/+67/s29/+tv3whz+03/72t/bYY4/57927d7dKOb5jCiHExeCiCFOelyi80bFYZjGNeICbib9ZKPN3dpambNjH/1S36dnTF+CEwhFChfOE6/mda7mOMLAoYThiBm4Sz+3je8yFAwSYPRkZp8UcBA8W/7h1EI3YdywmalCvKGfU+UJZOGQQGxChckL9cIlRJ4QpntSH8OE5hkJ9IuGG/sI9Rahek/bt/XfcMxVC3egDwtBoE2FhPBUQGrdp42FdCFiEv9FngLgUL3wAY0E5nucLgS3UGyFqd6gHAoznjMrRB4RK4kyiPggwqY0auSOHsSod6ss1UU6kCMQo+rVEaCP3o4ycIPbQV4xpvaZNPbSSv71eMRcRUOd6zZp5n/ATBxrXcF/uT58RcoegRCgn7inmDznNEKoQzcgNRV8gCkXOIMIr6VvEJ44h/AAiFaIe+xgj6p8T8kYh0hEuR50Qx5iXjA8hj/RNzj7JK7SFfqDeCLQIdvQf40TfMBaMFfONucOc5hrGG2E1Sq4fEbURKJe5RlgpLjZeQ0IIIYQQomiDsFQ5fEckl1RG+I7HT0SqPeG7H98PK4R1FN99z0bF8F25RYsWds8999jtt9/uIYC4r9qH7/9f/OIXPZF6nTp1YmcLIcTF46IIU7iSxr/8so17+mkPd8JxQvgRf5N7iDAjnB4RuHlwUiE4TB492l79y188vGrn5s0uVnAuwgECEudEQhKLcdwv8aIK4gguFxdnYgLWxcIX+5mZn3BSRRCehghFriyEKQQT6oXLKR4EDcLKyBFEDqJ3nn/exj71lM2fPNkOI5zEBCycTm8984yNfuIJF1E6DhjgOakQ9cgLBXz45HSjuXsp9AVCHCIK/YeAwsbvkdAXD32LkIbwRdlTGZfHH7dpY8farnDv3Nrs/R7qi6iDiMT9ckJ/4JqijoTxVUxJsa3r13ser3jIH0XOLcQw5s5r4d6E6+EYoj1szCPmE31FmCFuriF33eViFsIM53AfxKzIFceYIfCwcSyqI/2A28kFnnBO5HqLhxxjiF84xsjtRO4vcochFh4P9zpNKMvvF+vb3MrKCa4mXFmcjyMOpxhzi3BKxE3qi1CFIEedqSfCJfOfNkUiZ8TJWBtoF9dE+LW5iG5CCCGEEKJogfBE+G88meH7I44p/rM4r5QPawIErWfCOgOR6n/+539c6EK0QqgSQoiLzUURps4XxBTyPZGPCXcRogauIRwpiAfkTeIJbiXDeSzYI+EF0YKnnbHYvjDP08UHoQbRpWaDBtm5fQ4fdqEuHsQi3DiIGbhhEFQ831HoA5xDkRAXwVP+EGkIx0O8oD/IiYQQgsjHtfHguuEa7o/jh/4iLI78ROXDBxpOqpziCXUhTxKiBteSNBsxBHENd9bZxI1IPMH5Ey+IxIODBxGL0EBELBKS4wqKp2KYA9TNXUI4fkL9PISwenXvr3hwDRGGN+HVV23fjh3ugsMVh7uINuBAQvyDKFQTcS3KPQbUo0nbti5oEXrnwmYOEEXpW8pGYOO+5WLhhpHABfweOcvoW/ovL9AviJm4v2gr7cblxxwijBDhjKTshOmRLwwBrkoYU0TCnLmicJHRx/QVY+aCW4D28poRQgghhBBFm/3799vOHN+hLwRELJ7itzWsWRC2li5d6jnuEKwUyieE+DxgtXrRkp8jKiDCrFm82BNXs5DPzT2C8IK4Qt4fHDosuMmvxMIagYT8QLvDPTgHlw2hZe379vXfESG4DyFdLNxZ0FMeLhbC3wiBYjHPeeSK8rCo5GQPlSIMiwU/C3/yYiEIEZZHnVn842LiCXPcB7EMYQcBiRAq8v6wH8jbg6gACBwIIVyPABLVA7GBUCpcT5vXrPEwK5JjI56Q+4pcVIg53I+E1biFEGFwjBFyR1/QbhxSPF2PJ8MhMhGySA4lEm9TJvfhPJ6GiLuHNtIm7k0uJJ5Q16pHD2vWubM7g0jIzVPcEEHISUSb02NtJu+R58cK+ymzVRgXks3jQKIfcSxFuZEAZxUurDqh/eToikLNaFfOviLMDuGNtjN2uOLIrcS9cEWxn3FknMgvRZ3JI8V1iDd7Q59wbs+rr/Z8ZrSLvE+EEZK8HaGKPkM0Yj9zihA86oH4SbsR8Rq1a2ft+vTxYzXDuTx5j2TnJKtnXpDzCycWuaTIbeUiY716/jdPIGQMEYYYd0IteS2QTJ95jEuO8acczueJX7QHoZV+yQkiEvcgTJC6k1CfXF+E7RF+h0iJoEgIJ2PBWOG+WxDaS94o2oPLjX4n1xZzi7GijfQhrxlCMnkdIWQp+bkQZ6Lk56IwoOTnQojcyC35eXpYLxF2R7jdzJkzbW9Yn/B7p/C9r274Hvr222/b+vC98Ej4XpkbhAKSKL1H+G5Jjqq5c+e6UwpBijC+hLDuIYE6mxBCXEyw4nwyQ3UeiB5nPH7kSBdGPgvxC3LP0VOihC+YcVDhzCFxM4tzHFRpYTEenYMQwnkIUxvClzf2Uw6CBk+9Q8BAmEEgQGAhVMoX+GGfJ4YOX/5wzuCiqVWvnosjkXuHJNsIWghSCAu4jiiDunIO+aMQBgDBC6EKcMsgPiDGIFIgCuEcIlcTIIR5cu7kZM+xxHWIHbQBUYG64gxDPMG5g1iGwEAicvIsIQxxHBCtuBYhgrZyX65HvImOcz/EC8QSRBqeHhdBX+C0QmAC2kO+KncchT5BVEHYQyDDAUS4GH2BuEh9aB/9Eg/iUe/rrvO+msGH4dKl3mfxfUXZjGVqaC+CHPVHJKNukVjFGNBeyovyZ+ECoj9wM3Ed/YrYFrWXeuFQQvyjz6g7fUw5CFbUH0GI8DjCRNPCfON+Pp/CMcpGNGRO4FyLxi1yVSGo0V76kXsi8DAHmQucSz/jpEJgu+z6630eznznHRcomQ+ML/2G8BbNl3hI9k4II21mTkbtgGhenW18qT99gVjHPtrH/SmP0EB3dIW/6XscX8fDhjjHHBNCZIN4nBneD+IfxS3E5030/Wr48OE2evTo2F4hxKXOo48+6onK4z+jyAlFbqgrrrjCfv/739vYsWNdqBo2bJiLWN/85jdtdfheTe6p3KgZvo8PHDjQHnroIfv3v/9tr776qjunSKg+YsQI//niiy/6JoQQF5NCIUyJ4gMiVuuePa1d796eX2zJjBkuzFwqRAnjOw8aZEtnzvQ+QIgUQhR+JEyJwoCEKSFEbuQmTNWqVcsGDx5s9913n23cuNFdUw0aNLCWLVu6y4lcUbiqEKn27dtny5cv92vq1avnIXvklWrevLmEKSFEgVMockyJ4gPOrQ3LlnnCblxTUW6nSwVCSXFM4a7CcUZ/CCGEEEIIkd9sC9+3p06dau+//74nKn/ggQdswIABnivqpZdeskOHDtnll1/u+2+55RYXpAgJ/PrXv2533HGHNWrUyPNUEe4XnzCdKJLt27fb5s2bXbwSQoiLjRxTIt8hLxihY4TOkX8pt6f+FVdoOyF+hNERGngptV2Ioo4cU6IwIMeUECI3cnNMAd89y5Qp4w+T4vsnICxlkRIk/CxXrpw/BIfvpAhP/M65/M1xvq+XLVvWnzDNxn7KYR8/o/1CCHExkWNK5Dv+wRc+DMmbdakJM7SXdtP+S63tQgghhBDi84Xvm+SQOnjwoIfnsR0mL+uJE36cYzinSIAeCVbR3whViE78zf7ou6vnlQ3XcY5EKSHE54GEKSGEEEIIIYQQQghRIEiYKsZgv+UJbvWbN7cGLVtaSo0asSOFH55iR70btmrlCcVLlNRUFUIIIYQQQgghihtFZrVPIm3ECjZiqS8EhJqExEQXaNhyS8xdukwZv0fVWrUsMTnZSpctGztS9CDXEYm4e1x1lXUZPNhqNWjgfVCmXDlLrlrVqtaubdVSU33j9wtpL2MRjQtjlF9Qp479+1vva6+1tKZNPRb+UwltY/ySUlI8CTltpK20OYL6Us9oDpRPSIgdEUIIIYQQ4vOHfE48AY98UOe7zuF7bvz1QghRFCkywlSjtm3t6i9/2a665x53AV0IZcuXt44DBtgXHnrIbvvOd1z4yEmNunXtqi99ye559FHrc8MNVjMtLXak6IFI06BFCxdn1i1d6knqSUpet3Fju/a+++y+n/3Mhv/qV77d9/OfX1B7GQvGhLFhjPKLdUuW2OqFCz1fU5N27bwtn0ap8EFepVYtu3zYMPvi97/vbaSttDkCMbJJhw72hYcftlvDHGjRtWvsiBBCCCGEEJ8/9evXt7vvvtuaNWtmFc7zP3rLh/VNw4YN/fr09HRPbi6EEEWNIiNM8b8HuHl46gTOmAsFkcKdU0lJVq12bXfW4CyCSlWrWp3Gja1mvXp+P3+62nn+r0VhgrbWCh9UhzIzbf+uXS7u1AwffF0vv9yyjhyxD197zUb+5jc28te/thcee8xmvP227dyyJXZ13jh66JCN/89/7IOXXrL1S5fG9n52SL64f/duy9y711LCGFVNTXVh8dNgvHyuhLbiAPOxjPuAJiwQoQvXVJkwn+KPCSGEEEII8XlDsvGEhAQXlxo0aBDbmzfq1q1rt9xyizumQA/fEUIURS6q6kLYXKM2baznVVdZ3SZN8jXUq0ZamrXq3t2aduwY25N3jh4+bCdPnHBxilC308JUSoqHkCFsINxwTmGBdtJe2p0XEHGqhbalVK9uWaG9Rw4dcrGGkDvaiKC0Zc0adybhplq/bJnt2rrV+4YQty6DBll669Y+hueCp3ts37DBt4P798f25g+IUnt37rRyoS042Zg/hBy27NrVWvfo4cJSbvDhTntPHD/uQlzkmIpC+BAkD4W6Hs/K8v2FgTqNGnmbeL0IIYQQQohLh53h++60adPc+dSpUyerE77D54VKlSpZy5Yt7bLLLrPZs2dbRkaGfw8WQoiiBorMo9m/nh9JSUl2//3327oFC1zQyA3cKY3bt/cF975du1xkQPDJDUST+i1a+AK9doMGLsDgZuIRpQgIiCnsL1m6tO3assWaduhgLbt1s1r166NEWMXwxowAw09EMDbcMpRTMdQVkQmhgv2IM7iuKJfyt65Z48e4d71mzfwNHbFq97ZttmPTJjt04IBVqlbNw+Jqhw8M7kl9cOQgnvA/E5XD8fj7siWF9vPRQJtx/XCMe3A9ghghdllHj1qFihW9XJJ9x19LHdjY33ngQK8b90SQod4Ia7XCueRgoky/LiXF20o/1Q/nkzwc0Wjr2rXeDkLZ2Mf1e8OH174wJrQdELMQgJp36eIhj5WrVrVyoW4eu16hgqWmp/uYkquK+3Ev+io1tKly9eo+DohAjCP9wXmMGeciKNGWY6G93A/Bi/5IC1vUn4w35dC+Y2Fs2DgvLbSDuu/cvNnHs03v3t7ujatWed+eiv3PEIJiQhh/2o1zCpGN+m5YvtyFOITHeqGvGAPmY4lQn+3r13vffNr8o9ycY0QbaS91I6SRawkdjK7nOAIZ7eF8ro3GKbqW41zXtlcva9axo4uJUR4w5gZ5suqF6+qEvuc65g1jQd8UJmFNiOJAw/DlPiu8Ll944YXYHiE+f6LvV2PGjLEVK1bE9gohijNHwvfZ3bt3W9PwPZVwvEPh++Ha8P003v3Ur18/qx2+T8d/RjUP3xERpaqG74tPPPGEhCkhRJHlogpTCC7RYhp3zq5t284qTJVLSLAeV19trbp1s8Zt21qj1q2tYdgOh0U/YWjJYSHPgp9FPsILwhSLfEQmXDEIGBmbNrkA0r5vX2vTs6c/iY7zcMkgTHB/F6bCmzcLe+rCdTiGeBPnfMSUjM2bXXRBuEGY4jxEme5XXun5iRq3aeNuohqhbRuWLcuuT8eO7gxr2b27ix+UVbFyZb8vwgX1wYXUrFMnFygQMPiwObhvnwsencOx9n36+LWURdmRI6jbFVf4+YgZCFzkUdq7Y4eLFpTXNnwgpbdq5XWrHfricOyeiBn0EcLMtvXrLXPPHq8Pokn11FQXRhA/SpYokR3eWKmSNQ/lteMDLtwjCXdV7H9sEMF6hvGhPPrUn5aXnGyHDx603kOHusDEPQm3HPyFL3g7mrRv7w4gck81Db8jFjEG9D1iTN8bbnAXGH1FnzDeiH+wJ7QP0a9CuC99Tdlb162zxDAuzAPEKNp0ODPztLAWL0zRtxxj3hwIH/SEBfK7i3thXPZs3+4OKsYXYepc848xSg1j1HXwYOs0YIALgdSTcaAtOzZu9HnVPYwTIiyLW+7DWO0Mrw3Etg7hywRjzP7G7dp5f5UtV852hXq069XL+7R63bo+NxHdqD91rB3GkMT1zTt39n5ijBmLA2EsmZ9CiPxDwpQoDEiYEuLShO9+28N3vyvDeoO8UcvD9/f9cdEIOYUpzhkUvlu2Cd+1R40aZQsXLrQs/aelEKKIUmiEKZJck+x6/ocf2uz337dNq1d7yBViDAIETh8ECULHxr/8sh0L5eDA2RC+tL38xz/airlzLXPfPhc0Vnz0kX30wQdeztGDB12QiBKAIyDwNyINYgcOIRxFCFw4U7jPxlAmScBx1SBc4JzaHT4oFk+fbnPGj7els2f7tYgLCFpc40+OK1PGJrzyik0I9Zv5zju2bNYsD29DUCCv0+bQpklvvGHjX3rJ5k6Y4OFziFKIGbiVaBfX0p8IbPQdLjOSluP6Yv+Mt97ye5ALio0+mxvqNG/iRG8H7UEcitxGuH7Whw82RDv6PupnykMMQSxDTMPthMBCGbh4EL3mT57s96IdtA3BjLFcOHWqTXr9db8nwg3iGGxbt87vQbkIRLPefdevX7tokQtd5Imib6kXghQi4OTQHx+Gc7gvDi1ERuaK1yOMHaIO4hbiEvsR2ZbNnGlLw4bbi/ZExAtTiFUHQ90QGPmd9iMkMWY4qRgXBB5ESISpc80/xDfmHnWZE+bV2yNHej6uRdOmZYtaFSrYwNtvdyGRNo975hk/b0mYL7SV8cUR9lEo951w7bow7oh+zBn6nWuYn9RzWRjrN/7+d58bzDHGmHnHtdSLe9BPZFmjL4QQ+YeEKVEYkDAlxKUJwhQhfZUrV/Zk6CnhOyzheRE5hanWrVvb4MGDPdn5//t//0+ilBCiSHNRckzhlLn6nnvslm9/2x0mLMpx1dzyrW/ZFXff7e6jKO9PRPmwuB9wyy3+pLQ7H3nErgrnuYhUvbqLIqcJC3kW8AhUvoXfXXAJb8a4aBo0b25D7rrLy2DDBROFoHmi85LZTT6wd6+LWNQDBxECESICYgBOFD4cIsonJLhD6Prhw/2Jfjd94xvW48orXbQg5A6BhLIQvPrddJNddt11LnQhDuGKQWDiQwOBi7KpbyQSValRw4UtBCjECFw+axYtcgEnEpdoI/XBmcU1hMPxOy6q/jff7HW647//2wbedpsnbydkLbFSpezKh/7yLSL8Tl/N/fBDe+3xx23Mk0/a5lWrPDyubdiqhA887kdf8pN7cU8EOPobIWfj8uUuklGO91N8+QH27cNttnGj9w3Op+3hd/qAPqM/+IkTiTbjZqLcTaEe7ItC83KDdtMvbPFj9AlCnRC2CP/DicTG+DOXqAtti+dc8w9hinFDPERgHDxsmLuh6BvGlz6nPYhnUbgqG3WsHMYXcQyxD8cXZSHgbVq50sUxrqNNPsb8DH0dzQ36nNfSdWGBEs1n3IDVw3zFSSaEEEIIIYoPfLcdPXq0bQzfVbt27epb2VgERU4GDhzo363Hjx9vx2LfG4UQoqhyUYQpxAhC3HCgIDgQWsainL8RNViQx4sPuHMIH0MI4Pxls2d7Um7OI/wrr0/GIzyMUCdC93AnLZ8zx++LQIEgUaZ8eQ9ZA8pGKMI9g8uIEDg+DHDWIChEYguCBaIVog3CBOLJqvnz3cVF/iFyOSEkrAltmzZunC2ZMcPb0+OqqzwEj/xIUdJ3wuYQHOLBKRPlXqKefKggjvEkPerjAl6szhGcj6MKpxKiHyFfuKoQs7g26i9ELn7nHjmFQMYo6qMFkyb5eOAIIkfX2eAcQghxpnkfnQXOw20WhdkhaNHPtALHD/2Bq4u+QKiJBDA/nw/W7GI+M4Qt4nhD3CMUz51yoe6rFyw4Yxw+bf5RP9xJM99+211izCGcZgiQzDecgcwv+iTn+CJc0bgs+lIAAP6hSURBVPeUcTTME+YVfUFbEfZcdM0xvhE4xRCmmLfUiY36cR/mgBBCCCGEKF5sC+uTefPmeRgfT9vjaX3x8ITytm3bWuPGjW3Lli02ffr02BEhhCi6XBRhCjGAcC/CmVjQH9y718UAwuAIS0IUiXe7ENbUrHNnX7Qj7BDatDK8IbN4Px/1H2EK9xOum+lvvWXT3nzThaQjhw/HzvgYxKQoITthe+RSQjDA5RMPSa0RrnAnIVrN+/BDF3K2kJDwxInTAhahZ4TUEeKF44mQtxZdurg7CLEIcF4hVMQTPT2OY7i6EEJwW7EhaPA/INE9IvjfERxAOMEQdBaFPuW+a5cs8T7j/EgMQsAgZA1RLTe4fk9Ghosm9HXuEkk2HI/qey4+7Tz2Uz8EKtxEiDP0C84xBKuoDpGIhRAUOYjOB0QvQu2Ya4TNcS9CMhkrH7sYeZl/hNQxp6ePG+dhhLjSSBLPnMN9x3yirp8Y31AHF6BCWxDIGF/aSV0YE8TKs7WLvFsIjzvDvJs2dqzNmTDhY+FUCCGEEEIUS8gX9dFHH1mLFi2sffv2lpycHDtiViF837zmmmt8jbAkfPfHXSWEEEWdiyJMRSA+kIOIMCiEingxICcszhEfWLAjuPCkt4rhTTgKvctJJFQgHLF4x/WCKMC+EydPuqhBTiGOIczktviPwqoI1+Ic6kpIXjyIIlzJ/RCEuA+5kRCruAduF0QHRCVcTAhK5LIiH9KRzEwXfrgHIhFiFcmsqRPnkjyc+5HcnetxxyCSkegah8/J49lPzqMMnETch/IJI6O+oVEuuiBqUTbXsB/xg76ORA/24fyiL0nyTUgbdWCjr0lOjk0YQY+8TLSVcrkO9xl1c2dPPsF9aDPlk2icOtCntN0FtJiDiHxRKYRyhn53h1GoF+NNnfzpfWG8aevZoM8RoRAgEfIoO+f4Rpxr/jHuOMmYT7iucC3xREBCEOljxpck5/QTQmTUt9Rz/549fk/+d4vE59SDZO6E/zGelOUhfIh4od20OZobuPF4DSFQch1CFXUodxaRUQghhBBCFH22hu+Vs2bNssWLF9ttt91mTZo0sdLh+yDf12uG7/EDBgywpWG9gYAlhBDFgYua/BwXCSFvJAt3p0dYxOcGIgjCCw4jQubYEH7IU8TiHLcVi3ESUMPS8EaNdMHTy1p07Wod+/Xz88nbg0OIcrpfdZU/BQ1RgbJxLW1es8ZFGZ58hiCwfskSFy1Ieo4ohdMJhw3iBE+5Q3gguTrtQxDi6Xft+vRxYQFRBTcMwhHiAfuH3Hmnh+9xX5J403ZPkB3uy/mEfXXo29c6hePtQ1mILGvDBw5PWONpdzz1rmP//i5QIWotmDrVFkye7OFnOMF4ShxJwxGSCDVDLOLpd53CNYSike8KqBPCGG6x9DZt3LGD4wehhmuvve8+63nNNdbl8stPPwmQUEQSspNvinJJEo4jiL5EoEGgow5REvLIBYY41DKMAUTJz+OTlXNeziT4a8MHKXVkPBlr+oR60e9cv2PDBs8DhThDbi9EHhxMu0IbcDYN+sIXrGWoF8n0KZ/xhfjk54h2jDHn4GRCUEQ8IhE710RJ8DmHNp9r/tF3JHRnfOk3xpdcZswPku4zt7NC3yIccS39ypxsEOrO/Zg/5JLiuo7hi0Sr0F+ITYRfksye8aGtiGGMbzQ3KBd3VZtevTx0kPpFgiNzhpBSIUT+oeTnojCg5OdCCMgMawEEqgcffNB27NjhoXs4qA4dOuSJ0V977TVbtmxZrv/5LoQQRQ30nQt6N0tNTXUlf/zIkb7A/iywSGchjguG/w0AxB6ELMSG3eHNmP0s3qksAkWpMmVcyPCcSCVK+NP3EHBwxURuE0DoQKQg/ImQK0QSRC6cQSTlRrjiaXF0BNfjzClboYLXBbGBPEMIZ9yLciM3km9hP3mMPIwrIcHrEjl4yLPEtQgICA+Ei3E9LpnoOPfjOO2nfMSrCMqlfpwDCCvR9eS2QtihHZ7fiPCxmOOHDyfqg/hCHfvccIPnyEJ0WzR1qosap/s55kyKrwt9Th/iVCoXyqZc2sF+RB/6hH6MRMac/UfdcArFn4fQhbhF+7gHfUybo3sgetEOwuKatm9vi2fOtIVTprhY16ZnT+/Td59/3kVEhBpEQtqJE4n7MA5AObjYEB6BPsAVx7jQd9SFOkXjgYuMeUB9zjX/uIZy4+cV/ULZjBHXM/6MET+pB8eZcwhj/M61OKqiPj8eyqa/aBPQNxynH2gbx2jbGfMq7HcXHPMujDG5xYQQ+QcPk8gM739Dhw6N7RHi8yf6fjV8+HBPgiyEuDTh+yQC1H333Wfp6enWvXt3f1rf/Pnz7YknnrB3333X81EJIURxgFVygQtT4uKAmNK4XTt36hA+N3/yZHefFUYQzxChmnXsaNPffttFlwYtWrjzbNW8ef4UQRcZhRDiIiFhShQGJEwJISL4D9NGjRr5+8G1117ruaYmTpxoP/jBD2zt2rV29Gju0ShCCFHUuKg5pkTBQt4ikrQTBkdoXBTyVtAQWkdYYKsePU6HzrXu3t1D+8jJRHgddcc1tH7pUk/qjhtMCCGEEEKISwUiEZYvX26zZ892IWr9+vX25ptvesJziVJCiOKEHFPic4eQOfJtkYeJsEEPfQvwhESeeDd/0iS5o4QQnztyTInCgBxTlx64Yho0aHA6nYAQOeF9gSToderUsccee8wyMjJOp7IQIiebNm3yHGVCFCUkTInPHYQoktSzZUtS2ZBbyRPhHz8e2yOEEJ8fEqZEYUDC1KVH7dq1PTyLn0LkhudRLVPGf2ZlZfl3ZiHOxi233GLjxo2L/SVE0UDClBBCCBGQMCUKAxKmLj2iMX/llcU2f/6G2F4hhDg/KldOsB/+8Dr74hdv1+eHKHJImBJnQJ6nOo0b++8LJk+29DZtrFJKiu3autVWL1zo+4UQojgiYUoUBiRMXXpEYz5ixHibOHF5bK8QQpwf1asn2ciRw+3ee4fp80MUOYpM8nNPmF23rjXt0MEq16hhpcuUiR0pOtAGnj7Xsls3a3fZZac3/k5NT4+ddW4SEhOtQcuW1rh9e6uYnOz5mhq2amUNW7f+zH2SkJRk9Zs3t+adO1u18CWJULvK1apZozZtPCdUYuXKVqJk3qdMfrSXNtJW2kzb87O9QgghhBBCCCGEKFiKjDCFKNKsUycbePvtVq9pUyuXkBA7UgQoUcJFFJ5E16l/fxt8xx3W98YbT2/dr7zSGrVtGzv53KTUrGk9r77aBtxyi4tHdRs3tt5Dh1rva6+1shUqxM66MCiveqjj8awsWzx9uh07etTWLFpkezIyrGqtWlanUSMrlZfEnPnYXupEW2kzbc/P9gohhBBCCCGEEKJgKTLCVFGmVMmSVqVWLes2ZIjVa9HCVs6fb3/77ndPb8/+6lc2dcyY2NkFR5WaNa1CxYq2b9cu27RqlSchz9i82cP4SpYubTXT0qxUqVKxs89OUWmvEEIIIYQQQgghCpaLKkwlpaR46NZ1999vzTp29FCxi02d9HTrcdVVdtnQoR5KVhgoXa6cte7Rw1Jq1LDNq1a5Gynr6NHTG86kwvAkuiq1a1v5hAQ7cvCgnYo9gpaf+3fvtkP791vNBg3cMVWpShXr0K+f9b3pJg/Jy+miKirtFUIIIYQQQgghRMGC/eXR7F/Pj6SkJLv//vtt3YIF7qjJjYqVKlm95s0tvVUr27lli+3ZscOyjhyJHT0TQr/IG9S2Z09r2bWrNWnXznMJIZQczsz049Xr1HEhBLEkrUkTP4fcQ7hzKL9BixbWtndva9a5syfxJgyMOhw/etTzJZGrqH3fvtasQwdLD/eqWru2HTl0yI4ePux/N27b1u9JyGDTjh29fMogO/yB3bu9noSnkYOpba9e1iSUR/4l6ojYUrJkSavXrJm16NLF60l5HKd+1BO30drFi2116LPjx455efGQvympcmXPwYSwg5hHGXVDW0+cOGFHQ10R92hn2fLlvZxy4SdthaWzZnk90po2tfZ9+pzRj1xHO+k7RKVa9ep5nZqHtlLnUqF/Ca+jn7etW2ebV6/2MoEwSvoqpXp127hihed5on8I7cvcu9d2bt7s9YugTtyjTNmy52wvglbdUEYbxjy0uWnoT8YBQevg/v1eX+5FHzBv1i9d6o6u+PbSLsYBAZRxpb30/UkEtV27vJ9ytpf+oZ8oXwKZECKiYXiPyArvSy+88EJsjxCfP9H3qzFjxtiK8Jkrij/RmE+Zss7Wr98V2yuEEOdHxYrl7MYbO9uoUa/q80MUOQpFKB/iQc169VygqN+ihecSIsE5ggoCC0KCu61KlHCxo3rdupZctaolV6vmAhWiBOJXpbCvQjivQmKiCywky8Y1hXOL3EStunXzcLSkKlX8fiT0RmTiOOJMm169rFX37i4+JSYnuyCEyNS4TRu/P+e52BS2anXqZJcbzkFU4XrPgRT+7jRwoAtLJP5ODOeQQByBDIGNMDnEsNygzpQdCVsJ4RraRJ1adO3qIlleoBz6gOvZWGwhctWqX99Kh/6jfMQaBJ2qoUzOoU/KlSvngg31jAfx5sSxY1Y6LNg4F9EnY9Mm27RypR06cMBOnfr4wY6ITX7v0F/nai91pL9oW6N27Vx0rBT6iScCIh4y9oh0nwZiIGPM/UiUjoCGsIjARd/l1t5ofpxPInchhBBCCCGEEELkPxdlZY6DCKcLTiEEGcQBRBxyGCEmlSlXzkqUKBE721yAaN6liwtQK+fNs7FPPWVv/utfNn/SJH8SX2OcS7VruwiB8HF4/36b+PrrNvqJJ2zO+PFWNpTXZfBg27Fpky2ZMcO2rF5t65YssVHh+PRx41xIQYRC2Fkyc6ZNGTPGw8twD7Xr3dvvQRkIZIcyM21SKPu1xx+36W+95aJKrYYNXdCgftSF8uZ9+KFNGTXK3UC0K3Jg0S5cPceysmzexIn29rPP2vKPPnLxhn0kFs8N2kZftevTx8uY/d579sqf/2xjnnzSMrZsccEO0SYvOZ62rltns955xya+9ppvG1eudOEmchoBQtTOrVtt/Esv2dvPPGNb1671th47csTD7c4F59KH7zz3nC2bPdvbFYHgg6jHGJ+rvYhD9Zs183HZvmGDffCf/9jof/zDpo0d64ntcWQhpH0aB/butRVz5tiU0aNt0htv2OwPPsgOO0xLc0dXRHx73wrt3bB8uTvQhBBCCCGEuNhUqZJo9epVtYYNq1v9+tWsatVEK1Pm07/XCyHEpcBFEaZwrFw/fLgNe+gh6zpkiDuceBrbFx5+2K697z53L8XnJUKIQBwitApRZd/OnR46t2T6dNu1fbufi9CBuENI17YNG1xUwK3D+YgMZUMZOHpyA1EMhxRCxzX33mv3/OQn/hP3E9chknAPhBnCEqPE37vDvQ/s2ePHEitV8nAwwsxad+9uN33jG3bv//yPt4uyEZUQf6gj7Vgf6kR4Ib8jiBw+eNAFu7M9TZA6IHwh0hGChuAChMCtXbTIjmZm+jFcQJ8G7qo7Qt8P/9WvfGMMaoQ6lq9YMXaG2e5t22zTihXufMpP8tpejuFMCx3mdSEkEFGQsURYRIDLy5MXmTfkurr3pz+1+3/xC7v12992sQshqnxcjrGL1V4hhBBCCCE+jTvv7GF//vNd9txzw+2f/7zXvvzly6xOnZTYUSGEuLS5KMIULiJcKa8+/rjNmzDBxR6cMK/99a/27nPPuZgUn9sHh1DkoELYibYTJ0+6cJGT+HNwPeFg8utjZeQGIWqb16yxF3//e3vml7+0p3/xC99e+sMfbPXChS6k4BY6kpnpZTqxezjUsWRJF68WTZ/ujirKeernP7enw/buCy94/iXOx3F0+MCB086jkydOuIsH4QrnFcnDP0GsD9iitkVwffRX1E9ng7BGBLcta9faM7/6lW+MAWJXPORwos3ch/7bs22b/02uqc+aND5P7Q1EoXSn28vPUJfT/X8OyBmGU42cYknJye4wG/mb37iLbv2yZT7e9GlEfHuFEEIIIYT4PHn11dn29tsLbdWq7fbBB0tt1Ki5tm3bvthRIYS4tLkowlTmvn22bf16fyLbnowMyzp82MUpEmoTtuVPfYsTCBBwcEmRPwpHkruPEhOtXtOmnngboeM4QlaJEh4qRpggoXcIKOQpIj8RQsTJsySy5n4IEzifEHYyNm70RNoIGNTxYKgvQhkCzdmSYXNsb2iLh62FuuPW8jJi5ewIZbIPToX6Uk4ksPA74XQIbeSiSm/TxvfHgxMMhxV5mcjjRDggIMDUrF/fwwxpR3SPs0Ff0H/7Q3/iPsIpRGJyQgXj8faG/cBYMAbs4z64t+KhzwnHPHbsmDvZ+Hku8tJexmtf6E/ACUZ7uTf15+mA9Hd8iGBOELUIGSRclHnBvEIY9P4J7cmZPyq+vUIIIYQQQnyebNq0x7Zu3Wv79x+27dv32ebNe6x8+TLWo0dju+qqdla/flUrVeqiLM2EEKLQc1Hf/RBbEGxWzJvnAsnZhAbcNeuWLvWwOZ44R/JrNpKRk6OI8CuOIfQgsuDAIVzLn7DXqZMLOTz9DUEMwYPwNwQuEmtTHvdFgKIsyuQ6nEUkKOdJgAgvnwaiF04v2sP9eOIdZbCR/JxE52dzGlEfcl4hnHAOSdija9nIW4U4Qx/RD4huJEHnGAnh66Sn2/7duy1j8+ZcE4nHQx/Q77Tfy+/Tx39H4Po0EL4Q7hAF40E0wv3EvRH4EL6ipxeSyyln3qu8tJck9QiV5M8i1LNlGCsS3TM+hOBtD/3MUxzPBmIa9fFQy3B/ks7zpESegkhdEaeEEEIIIYQobJQsWcKqVUt0Uer66zvaLbd0sWuv7WADBrT0PFTJyRX8Z//+LezKK9u6cNWnTzNr1Ch8p49d27lzA+vdu6nv5zhb377NrVu3dOvZM1vsivalpX16KhAhhChIUBQezf71/IgebbtuwQJ3Q+UGIhEuIEQj3EYIFrnh7pmdO93RRP4pRA+eSoeoQWJrEprjakJwwFWDqwgnDqIT7h4EIxJfI1LguuLpbAhFnIPohJuGcziGCwsRg2Ti3AORBTEI8Ybje0M9tqxZ4/WibJK1I3IgomwLZSD6VErJfopfg5YtvRxyV9E2RJvIcUQoHcIKbUNE4Rj1Q3SibiRL51o2nD84fUjeTj8Qokb5iCwk8EaAWTBpkjugCLUjEfzxEydc/EFwIp8SuZ0IoaQc2sTTCulHcjCRv4l7Ux/aRhJ1BCzuFx/iRzm40XAbcS9cRjilfDxCPXZt3mxrwz0pE1GPNtBuyuHciLy0F+cVbjOuo//YT53pW3J8zf3wQxcBaUv1tDQ7GNqAC4vxpJ6IaAsmT3YXFP0VXU8uMsIxd23b5kIe8+5s7RVCiHh4gmlW+Bx64YUXYnuE+PyJvl+NGTNGj/u+RIjGfMqUdbZ+vb6nFGdatEj15Oc7d2bawYNZdvnlra1jxwZWq1ZlzzeFGLV9e1hPlC1tXbs2si98obt17tzQxaZWrepahQplbe3anda4cQ0bNqynC1lt2qS5wNWzZxPr1KmB34N9CFbs69ixvh0+nGWrV4d1yTFFDxRnKlYsZzfe2NlGjXpVnx+iyEESnguylqSmptqsWbNs/MiR/tS5/ACRhe10HqVT2fmPohAsBJMoJM3PYQvnIIR4qF/4yX4vh/PC71xLGRyL3+/EXct+ruXv0/eLlcVPnFo4tjjvdB3jyvF6hs2vCefwu+dLCsciovLOqEOA86J65nZOVKcoNBABD6gTZ3A+0I7o79PXh2ujOvCTa0gS72XG6hiBgNOpf39/eiHC0OJp06xanTrWoW9fF6xmvP22i2HUxe8Zyvd6hy038tLe6Pjp0LtYfRGs+Mn+yJHFvqhM8HGL/R1dH99WQipPhp9na68QQsTT/+abLbN8eRs6dGhsjxCfP9H3q+HDh9vo0aNje0VxJhrzESPG28SJy2N7RXHkxhs7uZg0b94Ge/HFGZaeXt2uuaa91ayZbC+9NNP3HzqUZdde297dUkuWbLGXX55lKSkV/bzWrevazJmrPU/Vrbd2c2cV+aooq127NLvrrl6WmFjexo//eN8dd3S3/fuP2Jgx82zyZIkVxZnq1ZNs5Mjhdu+9w/T5IYocMTWgcIBYQbgdLiPfwu+RQOHCAsePHfONY9E57sQKx4HzuCY67tcjSOTYn/NayuZ4vMgSXcM5kaCBuHHG/WPlRPeJ6shPro8n1zqEzc+PlZ/bOfRJVB4b50d1iurDFg5+8vrwMzrOfs6Jfs8p0hAyidOLYziccGcRUli5Rg13L0VPKzx9z1i9zkZe2hv11+njsfpyLVBHv1dsX872Rn+fLpvrw3Yi7PN7nKO9QgghhBBCFAQnT/Kf46Qpyf4+n5V13I4ePW5paVWsceOa1rx5bRs6tIP97nd32KOPXm9DhrSxWrUqubuK/9Tluh079tuGDbvcEYULa8+eQ567Kn4fQle5cqWtUqXP9nAjIYS4mBQqYUoULIQpEnY58513bPGMGS7wbFy+3OZOmGBLZs78RNJ6IYQQQgghRP5BOFaFCmU81G/hwk3ufho7doE9++wU++c/J9qECUvt6NFjLkwhRO3adYD/h7Xjx3lY1Ak7cuSYb9G+EydOGXmpSpfWsk8IUXjRO5Q4A/KFLZ01y5aFDfcS+bfI8UWOLSGEEEIIIcTFY+/eQ77t33/I1q/faa+8Msuef36ab6+++pFNn77a3VW4rI4cybLDh3PP4SuEEEUJCVNCCCGEEEIIcRGpUiXRKleu6AnMk5MTwt8VPZwvK+uElSlT2mrVSra6davY/v2Hbc2aDBec2rev50/iI2F6w4bVPEF6UlJ5z7kqhBDFCQlTQgghhBBCCHERufPOHnbTTZ2tXbt6njvqttu6eUgerqjU1Mr28MPX2O9+d7snR1+3bqeH8NWpU8X+8pe77bnnhtszz3zVfvGLmz0pevnyZWKlCiFE8QC5/YKSBl2Mp/IJIYQQBYWeyicKA3oq36WHnsp3aYDbiafrlSlTyp1Su3dnWkbGAUtMLGc1alSysmXL2LFjx2379n2esDwhoaw/rQ83FQYp8rySO2rXrkx3WVWtmujn8zfuKsSqmjUreW6pvXsP+pP42IcTixxT5KPinqL4oqfyiaKMHFNCCCGEEEIIcRHhaXmLFm2yuXPX2/z5G2zjxt0uNPHkvCVLtti8eett8eLNp5+kx0/+Zj/XzJu3wZYt2+pi1r59h2zNmh1eBuciWvEUPpxWOLD27Tt8et/atRm2evUOiVJCiEKNhCkhhBBCCCGEEEIIUSBImBJCCCGEEEIIIYQQBYKEKSGEEEIIIYQQQghRIEiYEkIIIYQQQgghhBAFgp7KJ4QQQgT0VD5RGNBT+S49ojFfuXK/J8gWQojzZffug7Z16157+OGr7a67btPnhyhySJgSQgghAhKmRGFAwtSlRzTmW7Ycte3b98f2CiFE3tm584A/kfHBB4fYnXdKmBJFDwlTQgghREDClCgMSJi69IjGfMSI8TZx4vLYXiGEOD+qV0+ykSOH2733DtPnhyhyKMeUEEIIIYQQQgghhCgQJEwJIYQQQgghhBBCiAJBwpQQQgghhBBCCCGEKBAkTAkhhBBCCCGEEEKIAkHClBBCCCGEEOK8qVw5wWrXrmxVqybG9pxJiRIlLCmpvNWqlWwpKRWtTJlSsSPnR6lSJb2cOnVS/J6lS5+7nOi+qamVrVq1JCtXrnTsiBBCiMKIhCkhhBBCCCHEeXPddR3t+9+/1u68s0dsz5mUL1/G+vdvYQ8/fLXdemtXq1kzOXbk/EDUopyf/ewmv2eNGpViR3Inuu+Pf3yd3XtvH0tPrxE7IoQQojAiYUoIIYQQQghx3rz11kL7wx/etpdfnh3b80lwO+GU4meJErGdF0DJkiWtbNnSeSrn6NFjNmXKSvvd796y55+fZuvX74wdEUIIURjhbf1U9q/nR2pqqs2aNcsObN1qe3bsiO0VQgghiiZ1Gze2ucuW2dChQ2N7hPj8ib5fDR8+3EaPHh3bK4oz0ZiPGDHeJk5cHttb+OjTp5k7kdasybBVq7bH9p6bChXK2hVXtLEBA1ra0qVbwpyeaxs37o4dzTuE4/Xu3dRuvrmLffDBEnv77YXuokpPr27r1u30so8dOxE7+8IhJLFt2zQPA5w5c41t27YvdkSIwk/16kk2cuRwu/feYfr8EEWOCxamKleubD/96U/9pxBCCFEcmDdvnv3+97+P/SXE54+EqUuP/BCmKlYsZ2lpVcOWYuXKlfF9Bw8etdWrd9j+/YetadNaLrrgNjp16lTYd8RdRJs373HRp3btZEtOTvDcTAkJZa1kyRJ25Mgxy8jYH87Zay1a1LYbbuhsiYnlbNmyreG9cr0tX77N8z0h4nAP9icmlrfGjWv6AhmXFLmgGjeuYc2bp9qcOetcmELsadkyNZxTyYUu6pOVdcLWrcvw+hw6lOXlxtcZgathw+rWvn09e//9xTZ9+mrr0iXdunVrFPpujb344gxvbwTXkI+qbt0UO3DgiO3alRnaVc5zXXEM5xV5p06ePGWZmUds0aJNXpeuXRvZoEEtvS8mTVrh+zds2GWbNp2/mCbE542EKVGUuWBhSgghhBBC5C8Spi498kOYatWqjl11VTvr3r2RnYp9s9+2ba+98cYcdzjdfnt3a926jpUpky3IINS8995ie/XVj6xLl4Z2+eWtrVmz2nb4cJYLNGzHj5+wxYs3e7jeLbd0dTGJa/ftO+xiDWJQ584NXUBauXKb/elP77nb6I47uruIhOgDCE8IXuPHL7VRo+bYnj2H7Itf7GUdO9a3ypUrWunShOaVcCfU669/FOq93wWoL3/5MheXjh8/Gco66YLSiRMnbezYBbZq1TZvc8uWdWzJki32zDNTXGCKiJxa11zTPrR/R+jftS7cDR7cyuvF/Whj2bKl/Lo///k975urr25nXbumexl79x6y+fM3uhBG3YUo7EiYEkUZHmnxaPavQgghhBCiIElKSrL777/fxowZYytWrIjtFcWZaMynTFln69fviu09P4YN62FNmtS0yZNX2I9//Jq9+upsD3dDlNq9+6BNm7bKRSqEKJxJVaokWqNGNWzSpOXuImrXLs2SkyvYBx8stREj3nR3E38jDOFwmjBhmaWkJNiGDbvt3/+ebn//+wSva4sWqX7O7t2ZtmDBRq8H5XGvX/5yjItNnTo1sEqVKoRrd7qrateuAzZ37gYbN26B12f27LXu+EL4Wrhwk7uVBg5s6YLXv/41yf7xjwnuzsJh1aBBdVuyZLMLTR9+uNzeeWdRuH6d55SKB7cWzi3K2LPnoG3ZstdD/7p2bRheV9vt2WenhAX8VNu6da917NjAxTzuvWDBBk+szvm//z25s2Z5qCDimhCFHV5HN97Y2UaNelWfH6LIoeTnQgghhBBCFEJ69Wpi3/vetfbPf37F/u//vmTf+c4Qa9CgWuxotgCDoFO3bhUPgUMsQqRhy8o67g6j+vWr2je+Mcj++Mc77fHH77Zvfetyd0kRLlevXlV3F5GfCRcVzqeDB7PConabi1qUgVCEYwmnEeVxblR2FHhBGfXrV/O67dp10MUs6oAbCeFo584D4fzscwmpu+uunvbrX9/q9fnJT66zfv2aW9WqSZaammJNmtSy2rUre33mzdtgGRkHPOxw4cKNLoBRDzYcXdSDn3nRjRCXDh8+5mVRP8qlfOpG/XGDHTuW3U42wgs/bqcQQoiLiYQpIYQQQgghCiE4embPXmPvvrvI3n9/qc2du97zQ0UQkkaOJ8LSEFDICxUPYtFllzWz1q3rer4pQgVxQyHKkP8JQYYQOUQYQvQQaRChELkOHTrqAg3i16dBGeSmojzEnKNHj/t+rt+375D/jTBEziiSqJMbivvh5Jo6dZVt2rTHz6cdFStmi0TU6cCBwy48ISjRbvZdqHuJy2jXzp2Zno+KcimfMsmpxVP/hBBCFAx6BxZCCCGEEKIQgmvp3XcX2wsvTLf//GeGh9ThGopAREJowZmEgIRIFU+9elVclEJ4GT16nofhkTgcsSgeRC0EJYStC9F9cFGRAJ0yEhPLuUgF3JcQOgSn6HdyOOHWmjp1pdeH9mULYtk3RiiiPMohfA+RCsGL0EJ+R4y7EBC0KJc28lMIIUThQcKUEEIIIYQQRRASg+OEWrs2w4UpEpiTO4qNMD3C8Ai3QzBC1CEfFInJEXzyKkAh6CAWRWXUrJnsZfMEPpxSQNjeli17PCk6uah4El9UD3JfIZghKEUbZeHYIp9Tenp1D0VEuKJOCG/bt+/zvFQ9ejT2JOc8FZByEKjQpXjyIImeqQc/88vthNCHuwshjSf60V85xT4hhBD5j4QpIYQQQgghijCEwxGeN3RoB3vuueG+/e53d3iuJpKLI/z85S93+/5rr23vIW24hvISFoebCsFp8+Y9lp5ew7797cvt97//gvXu3cTFowjKfOGFGbZjxwF/CiD3IocUYhkiFI4ocjuRsBxB65FHrvZzKI/QOsQvziEJ+ZtvLvBzv/KVvvbXv97tebZIUs49qDJi1v339/M28hN3VX6A84xk5yRN/+lPb7Sf/OR6Dz0UQghxccELm8f/LxFCCCGEEBeT1NRUmzVrlg0fPlyP+75EiMZ8xIjxngPqQiB0rlq1JA+Rw3kEOH94Ih0CFE/Ki3JF4VbKDmUrYdu27Y0LASxhO3bssyNHPs4HRXmZmUc91I7yq1SpaGXLkiT8uG3dui+WV6qM54DiSXbly2c7qigP8QkRifvxk/BBNvanplZ21xN1xfV1+HCW1wNxjZBAfkdUQ3DCYYVghUDGtmcPOauOuSjGU8gQtRDNOBYRhQ1SX0L3Dhw44vcjHJCk6tyDPihduqTn4eJ3+oo+4xrayjHK5nyebChEYQf34MiRw+3ee4fp80MUOSRMCSGEEEIUEiRMXXrkhzAlhBASpkRRRqF8QgghhBBCCCGEEKJAkDAlhBBCCCGEEEIIIQoECVNCCCGEEEIIIYQQokCQMCWEEEIIIYQQQgghCgQlPxdCCCGEKCQo+fmlRzTmq1Yd8KfLCSHE+cJTJXky5kMPXWV33XWbPj9EkUPClBBCCCFEIUHC1KVHNOabNx+17dv3xfYKIUTe2bUr09at22nf+c4Qu/NOCVOi6CFhSgghhBCikCBh6tIjGvMRI8bbxInLY3uFEOL8qF49yUaOHG733jtMnx+iyKEcU0IIIYQQQgghhBCiQJAwJYQQQgghhBBCCCEKBAlTQgghhBBCCCGEEKJAkDAlhBBCCCGEyDfKly9j9etXtX79mlvr1nWtZs1ka9Ei1Xr1amJNmtS00qVLxc4UQgghJEwJIYQQQghRLEAQSkurYo0a1fCtTp0US0oqHzv6+VG1aqL16tXUhg8fYN27N7K6dVOsZ8/GduedPe3KK9tacnIFK1mSZzAJIYQQEqaEEEIIIYQoFjRvXtt++cub7amn7rPnnhtuP/nJ9danT7PY0c8PBLHGjWvYzp0H7PXXP7K5c9fb7NnrbPXqHdauXT1LT69hCQnlYmcLIYS41JEwJYQQQgghRDFg5crt9oc/vOMC0IwZq+3NN+fbtGmrYkc/P2rUqGQpKRW9PkePHreTJ09ZRsYB27Rpj5UtW9rdXImJEqaEEEJkI2FKCCGEEEKIQkxycoJ1797Y7rqrl7Vtm3ZWUefgwaMuSh04cMR27z5o27bt833ke7r11q7WuXNDF4wuJrVqJVu9elUsIaGs7dix306cOOn79+w5aBs37rLMzCMxYerzDzEUQghROJEwJYQQQgghRCEGIaply1QbMqSNh8GVL182duTccF3TprXsqqva2y23dLUbb+wUfm9rnTo1cIGqQYNqHup39dXt7Jpr2tvll7f28xGVKlYs5+F4Awa08KTl3JtzrriijfXu3dS6dEm3wYNbn97XrVu6u6FSUyt7svMSJUq4OIZbCg4fzrKdOzNt165Mq1072SpUKOP7hRBCCAlTQgghhBBCFEMqVargT8MbNKil531CTLrqqnY2YEBLS0+vbgMHtnIX1j339PFt+PD+LjSlpVV18eiyy5rZgw9e4cfuvru3feUrfe2BBwba1742wIYN6xGu7Xl635e/3CdcU9mqVEn0JOxHjhyzXbsOnBamICvruO3de8hFLz2ZTwghRISEKSGEEEIIIYohW7fus/Hjl9q//jXJNmzYZf/+93T78Y9ftaefnmTVqye5G4ocVA8//KL91389b2+9tcjdUDxBj5C8UqVKurPp0KGj9utfj7H/7/97wcaOnW/VqiX5U/V++9txvm/MmLlWs2YlF7yqV69kWVknPJxw374jZwhTQgghRG5ImBJCCCGEEKIQgkj0gx9cayNG3GY339zFQ+/uuecye+yx2+zhh6/y8L4yZc7uPDp16pTneGLL/v2UHTt2wkMBCdnD4XTTTZ3tZz+7yX7xi5vtuus6umDFRg4orjlyJMtWrtxh+/Yd8vxQhOft2XPIE5tH+/btO+wCVEpKgpUtG18fiVJCCCE+HQlTQgghhBBCFEI2b95jM2assUmTVtjKldts//7DtmjRZps4cbnNnr32jBxO50O2E6qsHT16zBYu3GQffLDExoyZZ88+O8X+9Kd33WVF4nLKPnLkuG3ZsscOHz52WthiI6n68eOIXtni16lQjdKlS7q7ipA98k0lJJSzEiViNxVCCCHOgoQpIYQQQgghCiFr12bYe+8tttGj59r8+RtdiJo5c034e5598MFSf+pe9NS78+HYseP+lDzyQK1Zs8Pef3+JvfDCdA/1+89/ZtqsWWs9UTli0/HjkQh1Inb1uUHA4lwSqOOgKlny4+UGwhX7jx49bidPnn+9hRBCFE8kTAkhhBBCCFGIwaFE+NymTbvtwIHDZxWjSDqempri4g+Jz6tUqeiJxg8dyvJrEIrq1q3i+xC9CMNr1qy2tW9fzxo1quFb/frV/FpEpAsBFxb1LVeutOeiKlUq2zJFeYQHso8QQPJQCSGEECBhSgghhBBCiEJMRsZ+GzVqjv3wh694mN3evQdjR86kefPa9r3vXWOtWtWxvn2be/6odu3q2cKFG/1peEOHdrD/+Z8b7e67L7MdOw7Ym2/O9zxT5Kt67rnh9uyzX7U//vFOT2JeuXLFWKnnx5o1GS564cZKTk6wErFYPsojRxb3w/mFgCWEEEIAnxTKSiiEEEIIUQhITU21WbNm2fDhw2306NGxvaI4E435iBHjPXfUZwEnVJ06Ke6cQg86eDDLdu/O9NxUaWlV/TjwxLyMjAP+xL2qVRNPn0/oHm4n8kshHJEjqnLlBBfGDhw46uckJVUI11T0hOeIXSRIx2GFEwoH1q5dmda1a7pdeWVbF6Yef/wDW716u99/0KBW1q1buueymj17nYcTCiHyBx5aMHLkcLv33mH6/BBFDjmmhBBCCCGEKAaQC2rFim22YMFGz0m1atV2dyeRpBwX06JFm3xbv36nJylHRIo/n59Ll27x/ZmZR12g4jhhhOSNQrRC6OKJfBwjyTn7OH/58q2erB2nFD/XrdvpolfbtmkeHoiLq2HDan7t8uXbXMQSQgghQMKUEEIIIYQQIt9AtProo3U2adJy27Mn05/uR26spUu32ocfLrPt2/e5oCWEEEKAhCkhhBBCCCFEvkGo4OzZa+3Pf37Pxo5d4G6qd99dbE8++aGHK/JUPiGEECJCwpQQQgghhBBCCCGEKBAkTAkhhBBCCCGEEEKIAkHClBBCCCGEEKJY0rx5qt1yS9ewdbGEhLI2YEALu/32btajR+PYGUIIIQoaCVNCCCGEEEKITyU1NcV6925q117b4fR29dXtXOThUfUlS5aInZm/pKRUtDZt6lr//i2sbt0UK1eudOzIualcOcE6dKhnl13WNFxXxUqVKmk1alSyzp0bWs+eTT5TnUuXLmVNmtSy7t0bWf36VWN78wf6uUuXhta+fT0rU6ZUbO+Z1KqV7O3g/hez74UQ4vNAwpQQQgghhBDiU2nduo7dc08fe+SRq+xLX+ptd93V0+67r5//jpCSlFT+oggk1aolhvLTbejQDtawYXUrX75M7Mi5adiwmqWnV7cjR47Ze+8t9p+zZq21zZv3WFpaFWvZMvWsws+ngTjWt28zu/POntapU4PY3vyBfr799u523XUdrUKFsrG9Z9KsWW279daufn/aiFAmhBBFFQlTQgghhBBCiDxx6NBRmz9/gw0f/pQNG/Y3+/vfx9upU2a3397DxZKEhHKxM/OPVat22NNPT7aHHnrRpkxZafv2HY4dOTe4pCpVqmDbt++zRYs227FjJ2zNmgzbsGGXlS5d0ho3rilBRwghCgESpoQQQgghhCjEEKp1zTXt7Sc/ud769GnmIWoXG8Lfvva1gda3b/NPhM6dPGl2/PgJF3q2b99vW7bstQoVylhycoULdiCdi1OnTtmJEyf9nidPnort/XTS0qpaYmJ5O3DgiJcB/MzIOGB79x6ypk1ruTBFeB/upK9+tf9nclEJIYS4MPDa5v3dXQghhBBCXDRSU1Nt1qxZNnz4cBs9enRsryjORGM+YsR4mzhxeWzvmdSpk2JDhrSxAQNa2ssvz7LJk1fYzp0HYkfPhDA3cjGlp9ewihXLuZiTmXnEjh49buvX77IVK7baoUNZ1rJlHevYsX4sVCxbrJk/f6MLTYTlUQahcFu37rOVK7fZtGmrrF69qp5jCo3nxz9+xfbsOeR/E2JHnqW//vUDF6gqViwf6lHakpIqeMLxxYs329q1GX4v8lER8leiRAnbvTvTj1E24GBq166e37dkyez/P1+xYpvt2LHPnVgNGlSzqVNXejsQwdq0SbPWretaqVIsaT4ub8aMNVa1akX7+tcHeRjgpEkr7MUXZ3h50KFDfe9PQuB++9txnsPqiivaeHjfm2/Ot7feWmiHD2fFziafVMkwBlVC3Rt5/ifELO5ZpUrFsCWGa+bZq69+ZGXLlvawPvJhVa5c0a89duy4u7XmzFnnohh5qVq0SLWZM1d7Ow4ePOrOrv79m4ffs7x9bdum2VVXtfOwyHXrdvrP0F0+RnPmrLelS7d4jizye9G/zz47xebO3WDNmtXya6kr98rKOh7m1hpbtmxr6JuDXh9RfEHAHjlyuN177zB9fogihxxTQgghhBBCFAMQKXABXXFFW2vXLs1q1EhyN1DXrul2/fUdrXPnBlavXjVr0qSmDRrUyn8iyiBkkMNp8ODW4XgVq1072V1Z5cqVcbEFQQkXEQIJPykTYYfk5yTf5vjs2es8dxOC2BVXtLbLL29jzZvXdhGKMhCBELGoF+F1LKIRxvr1a+7ncc9evZr4xrkVK5b1DbcW90PwufLKti5O1axZydq3r+/iWYsWtb28OnUqe10GDmwVyqtl1aoluUhHXqmcoX+R26tMmdLeTtxYq1Ztt3nzNtiuXZl2EktYHNS/V6/G7h6jzxDFEKgQlBDiIOp7+gVxiL6njQhtCEj8xMGFKDVkSGurX7/aaSca59H3uNQQuqBs2VK+n/YyRpzfq1fT0wJavIuNpO4IgxynX7iOOnLPfv1auAiJSCmEEIUVCVNCCCGEEEIUQhBcED8QJ6pWTTwt0vA3LirEEJxHEYgxl13WzNLSUmzChKX2u9+9ZX/96/suuOA4QmCpVStb5OGJb3PnrrdXXpllb7+90PbtO2Q9ezZ20QfH0cyZa2zlyu02evRcL+fDD5fbzp2ZLuYgAt1yS1dPft6qVR3P24QjCVfU0aPHPHzuxIkTfu1vfvOmvfPOIncXdexYL5yz0156aaa98cYcd2chmiC2dOzYwLp1S3en0rPPTrWf/OQ13yh39eodsRZmQwJ0XF2U+cors+3nPx9lf/zju7Z8+VZ3DSFOIUohOB0+fOwM91Nu4Ch67rlp9uc/v+euNdxlEYg+CEOEUCJyvfTSLPvFL0bZE098GAsRzD6Pvke4atu2rrue6LPHHhtrY8fO9/FCNMNxllfoZ8br1Vdn24gRb9qTT060jRt3uVMKRxaCXwTzgv30IeNI3/7nPzO9XYwPfUX9hBCisCJhSgghhBBCiEIIYgh5pX7/+y/4E9hwEt13X1//+/vfv9af3hafDwlBqFGjGpaZedSWLdtm27bttT17Dtrs2Ws9DxSCCwIF5+CwIdTt8cfvtp/+9EYbNKi1X1+jRvIZbpyc5Ex+fv/9/7I//vEd27hxtwtBsH//YVuyZIuNH7/UxZxGjaqHraY1bcqT5LrYP/5xj/3v/97hjiuEsNq1U9xtVL58WduxY79t2rTHyzkbiHWIReSJQrQ6fvyki2MLF26yjIz97hjKr6cDZocM1g1lVvIk6oRQEgrJfXnC39692SFyufU9dXn//SWhPbt9nCJ3VV5A4Nu6da8tWLDRHV/0CSGBlF+1alIYo4/LIrQQJ1eDBlXt+us7ed/Sx/Q1YhgiFu4zIYQorEiYEkIIIYQQnzvt2rWzJ554wkaMGGEtWrSI7RXx8AS6X/96jH3vey/Za699ZOvW7bKnn57if//ud+NsyZKtHpIWT2SgIscQbh62nAnDs7JOeH6j//3ft+yb3xxpX/nKk3bvvU/at771rI0aNcdzGZ2L+OTnbAhSUXJxwKWEOBXdF1cXx3H8UP9vfOOZcM9/2j33PGEPPvic/fOfE13soe7Z5ZxZ35xwXva50fnZP7kff/ITMYg6IAh91jC2SOTKeb/szf90cu97+iZ7//mSXUb2xfw8V+J3+hhR75lnJnvf3ncf/fukPfDA06F/J7lTTQghCisSpoQQQgghxOdORkaGvfUWIWIf2q5du2J7RTy4nXDmEJK1bds+D0lDcOFvHEIkNY+ECyDR9v79R9y9Q64oQt1w6RD2h2uGsDTEGlw/iC38vWHDTnflLFy40V1OhNeRNPuzgFAVuacA5w8OIkQswg+pP/dk457r1+900Yr7kjQcR9C5oP60PTGxnNWuXdkTkZOjihC/5OQE7zeELsQz7pfzKYaEyOEKw5WECMfPs0E7SEpO3QmnpHyg7+jX7OTxZkeOZHmieEIIyQFF33PfKOcTri7aR053wvQoh5+cx1gRthnv8kJQ4xhtQliL8k1RPmMYL0hSR/J7cQ/aRtuj/l20aJPPmU8LZxRCiIIE7++j2b8KIYQQQoiCJCkpye6//34bM2aMrVixIrb37HTq1CksVhu4W2L//v2xvRdOfpd3Lg4cOGBLliyxlStXhoV//jwxrHTp0taoUSNr06ZNWNiXsd27d8eOFF6iMZ8yZZ27mHKDUC02BAeeyIYzJjfxCLEEQYOQMoQows8I/yMZN4m3N2zIfiofoWGIJzVrJruIxTGeiIfIwz1w5rAPIQRRBHEH/YsQOoQSiML0ckJCc+6L4EMOK8BBhYDD/UiOzvziJ+F7CEqUTVgeQg85tAg3RARq1iw7sTkJwTnGRpkbNhAaV9rLIxSQsD7yK5FYHIFowoRl3laSqteqley5oAhnjGA/4XmIO+S/4h7kuqI+lJvT7YVgRL1oF/1KfUi63qFDPReKGJOlS7eGs0956ByiE3WjPJ5CSNgdYX/k7EI44lpyflWqVN7PoS6Uz7h89NE6rw/7OZe+pw0kMmeMEN0+/HCZl8n4MN4IUIRqUgZjyBb1H2OGaytnAnhR/OC1euONnW3UqFfz9PkhRGFCwpQQQgghRCEhL8JUqVKEJuGyqGcPPvig9e/fPyyOy4eF5z4j4XRKSkpYlFb1rUaNGmFRywKXp5uV82P169cPi+aavlWuXNkFHDhbeQkJCV5OWlra6euoJ4tdjleqVCksfuuGxXqVsHCvbqmpqX5+cnKyH+P3+H1Hjx61Y8eOnW4D52RlZbs5qA/1o85R/UqWLGmHDh3y47Vr1/ZyaBtlcg5/V6hQwdvIdXfccYd94Qtf8HvhyqLdXE9ZderU8bpG7aCdtIH706+UyXHuw3HaQ/9wnPMuBnkRphCAEFoQLXAfnc3RhKiEOyYlJdFFDAQPfiKmIGBQPs4oBBLcNS1bprogQyJ0RB0EEEK+cGchfPC0Pp5wRxkk1S5RgkTbZezAgcOeID0+SXhEJJYglOCMiiA3EudTFuIV92zdmrFI9ifh4ezB/ZWaWtmFNJ7ex4Ygh6PpxIlTLgKR32rFim0u0LAQ79y5YWhnmgtwCEqTJq3wZO64iBCSeHoec2j+/I0uRJUtW8aTgdN22opghUg2cGBLTwpPX+NGw20F9BPCFnWsWzfFr6P+5MsihxSC2rJlW9z5Rb9RX/qyQwfOqeWCHHUaPx4RNrvfEZAQDzmP/kJQ5J67d2d6niwEKdqGAwtxKVtYrOJ1GDdugc2Zs96PIz4h+kXuKNqMKBXffwhTOMwoXxRvJEyJogx+0bMHKwshhBBCiM8NhJFZs2bZ8OHDbfTo0bG9Z4Lg0rlzZ/vFL35hrVq1cuEIsWfDhg3205/+1I+lp6e7EIPIUq1aNXvuuefC4nmZNW/e3L74xS+6iIMThH1vvvmmvf/++2ctD9Hn2muvtcGDB58WsWbMmGF/+tOfPAxvwIAB9l//9V9hwX3chRzEJoSnpUuXhoX1VheauG+07zvf+Y5NnjzZevfubb/61a9sx44d9stf/tK2bNliV199tX33u9/1fkAoon7PP/+8/eY3v/H7PvbYY9axY0evU+vWrb0d3Pfdd9+1KVOm+L3uuuuu08IZZRIuSJm04Z577rEePXp4WfD666/b3//+d28/ot2vf/1ru+KKK1zggszMTO+7xx9/3Ot+MYjGfMSI8f5EuPwAoYPxRUjCEYVD6P77+7v48847C/1niRIl3QnEOREIQwhA/ORY9vHsE6LQvJx/5yS6JrecSNllUrfYjkB0HlvOewL7OSe7PSV8XNnH79H5EeG008eBJ9LdcAMuwGrh9TTP3VENG1bzpOsIOP/+93QXeRCsovvGXx8PxwgZ5GcE9QLOj67JrtOZbcw+np1r6mz1Dv/G6k/bPu5nfkZlxfdVVA7wN8eics+s45l9IoovhHuOHDnc7r132Fk/P4QorMgxJYQQQghRSMiLYwohZu/evbZp0yYXndasWWP//Oc/XbSZO3eukVQccQqn0CuvvOJiy9tvv20LFiyw2bNn+75nnnnGxSVEKMQkjnEt4kzO8gi1mzp1qv3nP/+xF154webPn+8CEItvXFUIYIg5hOZxHMFq3bp11rVrVxe4XnrpJfvzn/9sa9eutQ4dOtiRI0fcycS9ue7w4cM2ceJEr/eVV15pCxcutJ/85Cc2duxYdzRFAhT1GDhwoItnCF6IVZTLohshidBD6o1ohbuJulAOdSdE8ZZbbrGdO3faX/7yF9+2b9/uZdF+RDDcVDfddJN98MEH9sc//tG3Z5991kUr+pp+vxjkxTF1vsQLGCxWebofLpolSza7i2nPnkNnnBO/RWQLGh/v5+/sLVsEORsfnxPbEQf74suML/tsx6OyovpG50K078zzYwcDuLTI88QTCKtWrWjTp6+2IUPauGuL3F0IVTiksu/xyetzkvNe0RZ/Db9/8viZheZW7/jz+BFfpzPP8VOc6JwIfs15fs5rRPFFjilRlFHycyGEEEKIQgziDAIOIguiz//8z/+4+wdxhhxKiDwsQhCREF5wJrGtXr3axSSEGcQmhCrEottvv91D3SiTXEyErREat379+lzLI6Stb9++fh0b4lCTJk1cnELMARbHGzdu9GumT5/uP3EbIeggerFv3rx5Lu5ELq54KKt9+/bWpUsX32699VYbOnSoC0qNGzd20SpyayFkrVq1yp1QuKRmzpzpohihhAhS27Ztc+GO9n/00UdeL8oh5G/58uUu+k2aNMlGjhxpmzdvdmGK+nAd19Mn9BOCEWUjqHHPogALU1xCX/1qf3vooavskUeutuHDB1ivXk1c9CLc7NOeuFecIOE3oXr//vcMe/vtbBGKcEiecPj++4s9gXq8sCOEEKJgkDAlhBBCCFGIISwHUQaHEXmZ+BmF4p0NnEwIMyQXR6RCeCF07vrrr3fXEuGACF6Uw0/yPOUsL8q5hIuJjXA87s35UX3YWNhzD0L/ELIQd0hmTl4nRC6cTOzjb4QpBDLuGw+iERvHOIdy+Yk7a9y4cS5ucQ/Ys2eP34sn+eGWQkzjfjilENhwcsVDO6LQPMIG2SiLvkHcyw5zOumOLEL7CB+k3TfccIPdeeedHvqHK6yoQBgfuZjYyG9EmBqC1FtvLfAk3eRLupQgNxchkmzkuJo3b4MnR6dPhBBCFA4kTAkhhBBCFGJw65Av5JFHHvEcSeRo+te//nXOJ9lxDY6lCBxO/fr1c4GGcLcHHnjARowY4Y6gKPF4ThCfcCrhkKK8P/zhD5776q9//auLXvGhbQg9CEbx9zwfEK24FnfTa6+9Zl/72te8rbm1l/NwROUVhLMoeTqCFwIW4hUOK/5GkEM4w3X1+9//3r7+9a/b008/7U4qwhm//OUvn3aGFXYOHjzqSbD/8Id37Gc/e8MeffQ13375y9H25pvzLym3lBBCiKKDhCkhhBBCiGIOjilcUeR3IiE4QkyjRo2sQYMGLs7kRuSYQsjB9YQbCrGKUDcELtxN+QWJxXEqUSZPBczPshHeyFsFuL5atmzpbbruuutceCtdurQ7zOIhmfpvf/tbz8OFC4vzhRBCCHFxkDAlhBBCCFHEwK1EniXyH7Vo0cKfavfyyy/bkCFDPIF5TngK3oQJEzwUEOcTv5NwmxA1QuFyK48cTIg65GUi/9OTTz7peZ0I6wMcRvkFoXTkfRo1apTnlCIPFLmx2PfUU095vqm8iEM4txYtWuQCGk4rnGb8HD9+vJdJ2bivSHD+gx/8wMW2V1991RYvXux9Rx+SiJ3+whmGeMeTB0mULsTFoFatZLv22vb2m9+QV62DJ6sX+U+jRjXszjt72q9+dYv16NHYKlWS2CxEYYJkAsr4J4QQQghRCMChNGvWLA+Zy8vjvknq3axZM88ZRYgboXnkakpMTPRcSiT/jiCcD4dQlG8JYQkhh5+E5pFjqW3btrmWl5aW5qFvCEi4p/hJ+bivELXIW8X1JFknbI5runXr5oIO+wnzI4k6+Zr4HXcUrq2ePXt6mCBtJlQPBxdPFERAI9yO+5BLCscT5VAmbSNROy4raNiwoQtIhOSRi4ocWNSHdvJUQM4lSXp6erq7pUj2HkG7EbK4B20k6Tnl4xajflEfEGIYhQPmN9GYjxgx3vMgFSaqVk0Mc6yBtW5d18qU4WHeZ5KVdSKM5RabN2+9bd16puussEH9W7asE9pSx3buzAxzZUOhqHPXruk2eHBrq1MnxUaNmuN9Xq1akucIywmhmjxNcPz4pZ7IvbDTrl097+/duw8WeJ3p1+7dG9n113f0/GIkwF+3bmfs6MUlLa2K9evXIryHHLWpU1fmOu8aNKhmLVqkhvefch52e+hQ7iHW5wJRc+TI4XbvvcPy9PkhRGFCwpQQQgghRCHhfIUpUfQpzMIUC12EEwSGsmVLW/36Va12bVx2B23Nmh2+eF68eFOo/1rbsiXveb8KAuqPwNa+fZrn2uLpfAVdZ56ieOWVba1Xr6a2fv3O8Jqfax07NrBGjapblSqJLlbR3wgoO3YQTnvAVq7cbu+8s8ifOFjYQdRs1y7Ndu06WCjq3KRJTbv99u7ep88+O8Xmzl3/uYhlvG4QHxEWP/xweZh3e2JHPqZbt0Z2xRVtXJT88Y9fsT17zl8IlzAlijISpoQQQgghCgkSpi498iJM4fZJSipvFSuWt337Drnz4vjxk7Gj+UfJkiWscmWe+ljaF9E5n+B3442dbMCAlv5kuxdemO7nfBZwBSUm8pTHUi68nDiR/236PCAsDJGJcaHPTp7M2/KK8LJrr+1gjRvXsLfeWmjvv7/YDh/OFkoQpYYMaeP9/fLLs2zy5BUuTF0ojC39nZJS0euZmXnUn9hY1GCuMGcSEsrarl2Z5yUsETZJfyIGjhkzz19vlMH4Ue6ePQcLzNUlYUpc6ijHlBBCCCGEEIWYGjUq2dChHe1nP7vJ+vdvYZUrV4wdyV8qVChr11/fyR54YKB17944tvfi0bgxDpZu9p3vDHHhrajSt29z++Y3B3u4VrlynwzBOxuRIwoyMhDmLp5fICGhnIcyfv/717gwE923qJH9Wuhg3/3uNda0aXZYcl6JQiERden7atWyXWnknvrWtwZbenr12JlCiM8bOaaEEEIIIQoJckxdeuTFMZVX9wzOD3L63HhjZ6tSpaLnysrKOu6hQ//5z0xbuzbDQ/Ouuqqd1ayZ7Nds377Pxo6db+vX77JbbulivXs3dUfK/v2HbeXKbTZp0gp7912cPFm5OqZwoRCyddllzWzDhl3WpEktK1nSbMaM1WEOz7P77+/nAhTCCHm7CAN89dXZ7tzp1atJuLahlStX2jZt2mPLl2/1kK+9ew/anXf2Cu2ufLoNq1Ztd5fLihXb7IoryIVWy5KTE1xcQFAjH9nKlTvcUdamTd3T+xYu3GQTJizzvELkGOrdu4lt3rzXPvxwmYfysW/gwJaeB4g8ZZmZR7y95AKiP3GyEAII5CnCdYTjiL6kPv37twxtbxr6s5K7pcgf9Oab82zmzDWhfhXO2Q7Cu9jolyefnOjHIhfT2cYcAY8+PXbspLvb6H/qQ5+WKVPaOnas7+3nfkCZCxZsdMcU86Jevarexm3b9tmcOevt7bcX+r5+/Zp7H5Db7dix47Z06VYvk3FnfBHfmBMIWswP7rl1696w74gLOowF+7jf3/8+wfuCMhlj7vXvf89wVxn7mGOcH9WPMV+6dIu1alXHRTMcZ5UqlQ/9neRjiHto1Ki5Xi8EU8YrMbFcmLv7XWiaMmWlvffe4tCXrXwsatTIntu4n6ZMWeHHGOtSpUq6sPWjHw31v99+e5EdPXrMvvGNQV6fp5+e7OO+d+8hPzc1tbILwmXLlrLZs9f6awE6dKjv7WIufPDBEg+77NOnWa79xzxhrt52WzfvqzfemON9yuuQtjJPmXfHj5+wU6dOuWNOjilxKcI71qPZvwohhBBCiIIkKSnJn5bHE+RWrMheBIniTTTmU6asc3EoNxBIEHcaNqzuAgsCUG7JkRENBg1qZfXrV7P58ze4gLRixXZf/K9du9Patk2zLl3SPWyJxTz5ilhMs6AljA5RhXsgjixatNkX6WvWZLggglhAcmaOIzQsWrTJz2NRTh6hAQNaeHjVkiWb/d6rVu1w0YtF97Zte70cBJEGDap7qODGjbu9zlzPohyBZPHizZ5rCVGDsjmHupcuXcoFGBb9iFfduqVb584NvV/oD4QXyiGXD+GOiBXRPoQIBCGEAgQbhCaEIEQVhB1C6bj/8uXbwv12WWJiBc9FtG/fYRc/EKUQQxArFi7c6CIfAgtunW3bssMPs0PBSntdpk9fbcuWbfU+RYBp2rSmTZy4woUX2oEIVL16Jdu8eY/XFwGKshE4EFJOxSwDZxvzihXL2g03dPZy6aPly0k+vyG0OcP7jRA9xgdBhHYzvtQRQbB06ZJhjiR7W8mxhWi3adNuP49r+X3r1j1eB8QUwiv5nbbi1ON3+oDzEKdataobxte8frSHfkGYRDCiTS1bpnp/c92MGWu8P+hP6jhr1hoPnWOuIrZxDmIUomP58mW9/tyLPsHphYBEbrBIDGUOT5680gUj2kY7EVwRfehr+otymzWrHa497vVBWCtTpqQ72yiXecKYUw/mM3MLURRHFe1i7tIGxoD5T04qQADjtUSdeW3wmmNOI+SuWLE1nFHC5xoOOO7LWF59dTs/Z8GCTT7m1CEpqYKL0cxF5hrzgvZdaKJ4+h/xcdSoV/X5IYocCuUTQgghhBCiEJKWVtUX8yx8EYUQUtq3r+d/9+zZ2MUPnDARLNZZ7LIPEYOFNnmLcIxkO18a+oKZcDP+ZsP1wcIfwWTatFW+oEdkQJTi6WAITZGL52ywgGdD3GBRjbsFsYSFO6IHLhDuxVP8cEchdLCgR/xCgEAQe/31j7ye3B8RACEiqiPCCu4jxBLEHUCkQqjAgfKf/8ywjz5a6/fiuvh9CAz16lVzcYA6RvA3fYGohsiSfe1xK1WqhDVvnhq22i5sZbfN/OmDOMtwniHqUQ8cNSQmR+BDXEAkoe2IawguiBf0JW178cUZ7gyizoxh3bopPg6IYrQRASOvuamA+yPavf76HB8n7oljKbu/s1zYoC/ot5SURN+HGMV95s/feNoVxt84fGh7dn8f8/5mbiHIRH0ACI2MEW1EfGSe4exBVMvet9HFEcQc5mEE51EezivyajF22fU77nOa81u0yH5aJv2PUDR9+irva8pFIEOMQuhBTMNtxpMVue+4cQtciMOBhDONMeA6trfeWnBanIocgjlhPBgX+hChKsrxxVjQN7yG6Beemkd/UI/09BreJ1xbrVolFxB5GMCYMfPDOM90xxxt4zXLazielJQEFxUpB/H0lVdm20svzTQeIICjSohLFQlTQgghhBBCFEJ4Otvll7e2667r6GIG4Xk4UK67roMNHNjKF7eEHEXg8uEpeTg+CHciF0+XLg19UY1QgpDCAp1wv2HDevpGsmUEpc+SyJxFPIt3FtqE0gGCFwv5L36xV9h6+72uvLKN1alTxcWISGDKCUICbf3KV/p67h+uQ5yrVSs7hKxkrLnUF/cSTizaSxtIZI14Er8PUQ0RilC7+L4ihArRgGMISNdc094dN3XrVnHRDGEB8QGR5sCBwy5AHTyY5ffA2cb9cYjhQsoJ44QzCREO1xd1AcQrxA90HgQcyke8o16cG9N/8gShaAhi/KQc6oI4c8cd3e2++/p57i7mSGpqiotT9F1OuC91HTCgld19d2+7554+dtNNXfwpgYwR4W0VKpTx8UVIol9pN31z4MBRF1IiJ1ckbCEe0bb4fmGsCfdj7jH+1JOn40VOI8qJxE9+bt6825/kxz1pH2PKedQlNxhLXEiISowNY4S4hUiFqEVduP5CYPxwZFF3whkJ40Nk4x4IYgiMjCH3Qciif1as2O7zhfvmrDOvwSi/F86zyM1G3+LeEuJS5ZPvpEIIIYQQQogChzCfn/70dfvOd55zJwaL1yee+DD8/bz98pej3XEU72YigfZrr31kDzzwlP3qV9k5Zv77v6/ypOm4jRCLcJv83/9NsGHD/nZ6+8Y3nrGRI6f6+RcCuXEQEbg/AgUgRJALCZHid78b5/f50Y9edafNuRxYhM0hxLHI/8Y3nvXr/vSnd90dFA8iCMLTZ4H8RQgM5Hf6+tef8Xvdeef/2d13//10zieEg8zMLBf9zlXvC+HgwUg4S3CRLMoLlRcQXgiNBJxyiI2EmOGY+sMf3rEvfekfPgcIj2RfbiBY4WK66qq2Pi+Ya1/72tP217++f8ZTEnMb3wsBdxjhcP/7v2+dnntsDz30b3vjjbku8NAfCDX0TWGA1xyuQeYari6cdECY4Zw56/x3IcRnR8KUEEIIIYQQhRCcKogDOG4QUSD6m58IBvHwJ9dwnETghCe9996iWOhUljtPEIrI84Ojh+sRC7LLP7Os8yGqBj+jOuFQIWwJNwyiBjl0cCPhGCFc62zg/MEBQ4gYIWY4eriOJOf5CaIOogNuHkQ73GfZfRH1x5n9m7OvzwU5lnDu4OAhX1XkDsO5hoBEX5PvCBEmO/yynItE8WGZeSGqUnaoXCXPzYRjZ9eu7MT45PMiYTv5r3KDUEJycJF3CaGLOiFeIioSihc5zKL78PN8+iGCdiKQ4X6qWrWi98nHfX3C53I0vyH7PrE/8kA0lsztaCxxNZGYHkcT92cOMrcQAJlfuLzY92nQXkL22JiHbdvWc5Fyx44DLlZFDrhojuLAIzwUAYu2MR7x4Lrj3vQzIYCRs4z6kidLiEsVCVNCCCGEEEIUYnAPkf/pqacm2YIFG87qJiFE6NZbu9p///eV9u1vX+6JkBEnEKQI+4pyRjVuXMO+9rWB9sgjV/tj9wmZy07WfNJzIiGSEAb41a/2t549m3iY2fmCsIQ7CnFq2LAeXh9CtxADItEBIYS2EYb1zW9ebnfd1Sss7Mt7viTCGL/1rcvt618f5Av9z+LUyQ3uTR4snh5Ifi3uTV88/PDV3jeEE+YW/pYT2knoH0IDibu//vWBnpidUC6eCEcI4Te/OcjLJkyOUMUJE5b68Y0b93j7EYAQkM5XmIpAACHhN2Ui/BH++J3vDPGQOYQvHFOIIeTzQijp0aORh+7xxD9ENAQj+vjee/t6OB85tuhvBLr8AHGHhOfMYcIZqRf9wfbQQ1fZzTd38aTpeQGBlRA6RKgobBExiifm0Qc47r75zcE+dwjN5GmPhPQRNsc15LhiDBCzyMmFGPSlL13mc/1sY874RvdkPiM6EkbKHCKvFk9gRGT68pcvs//6ryHhNdjN+5xE+DwEIB7KwjXG67FDh3r24INDvB94eABzSIhLFT2VTwghhBCikKCn8l165OWpfDg+WNDiCkEIOZtggFuDhTd5o3jEPUITwgNJwOfO3eD5clgw4+BBsEAQwbGBWIF4xbnkCIpA8CCkC7GKshISyrmwhMBBPhz2URYOKIQPXDEkpaa+XIuzJLoPYhRhc9GT4HgKGqIMZZAjiXIogzbSD7h82IeThvN50h35jAhfRCjDiYUQwz7ABUOyb9qIi+XjfcddnEAIoE6cwz2yE5bv83K4P3WM6kqdKIdj9BduIgQ92kPf4waj37gPT2IjrJAnsQFuKEQLjlE+deBJgZRNrirq/+GHy/wc+pLcWbh6osTeUdgdbY/GhsTrjAPHEK8QVugj2k/duCfzwoyxK+H34ieCE0m5uZ72MmaIH9yLNjJW5AWj3zmftnMP2s75CD3UEyE0fnwZE+pGMnueQrd5894w5iSOL+ljz1P/qBvQ/1F/M/78zXlRfi5+Jy8ZDiSeiEfdeNIgdadfcftxLu2nLcxR7kE/MG7UgfmJCErZzA3Ghz7hNcOT+0j6Tr3JE9WrVxN3JyGSkQuKc6MwV+bJ7t2Zp8cggrLoL+rG0y0RM6PcWghubPQ5c5Y6MW+4J/fmiZTZ86WUX8sY0zbGNZrj9AP1oz68tnKG6OYVhDM9lU8UVXgHPQ+jpBBCCCGEuFikpqbarFmzbPjw4TZ6dHaOIFG8icZ8xIjxnlNKXFqQUJvE6zjFfvWrMS6yXIgoIc4NwhOOKNxkiE/PPTfNyKtVnEBwGzlyuN177zB9fogih0L5hBBCCCGEEKIAWLcuwx1CuHkIrSPnk8h/CLW77LJmHupI6B3uLSFE4UHClBBCCCGEEEIUAOQuGjVqnj3yyIs2Zsw8T7It8h/CAJ97bqp973sv2ZQpKz0sUwhReJAwJYQQQgghhBAFAHmRyJ9EXqYoj5TIf8gHRW4nwvfIbUa+MSFE4UHClBBCCCGEEEIIIYQoECRMCSGEEEIIIYQQQogCQcKUEEIIIYQQQgghhCgQJEwJIYQQQgghhBBCiAJBwpQQQgghhBBCCCGEKBAkTAkhhBBCCCGEEEKIAkHClBBCCCGEEEIIIYQoECRMCSGEEEIIIYQQQogCQcKUEEIIIYQQQgghhCgQJEwJIYQQQgghhBBCiAJBwpQQQgghhBBCCCGEKBBKhO1U9q9CCCGEEKIgSU1NtVmzZtnw4cNt9OjRsb2iOBON+ciR82zOnHWxvUIIcX6kpFS0X/7yZrv77jv0+SGKHBKmhBBCCCEKCRKmLj2iMa9Vq7adOqWv5UKIC6dUqZI2dOhQfX6IIoeEKSGEEEKIQoKEqUuPsmXLWqtWrfynEGfjK1/5ijVv3tz++7//O7ZHiNxZvny57d27N/aXEEUDCVNCCCGEEIUECVNCiNx49NFHrWPHju6GEUKI4oaSnwshhBBCCCGEEEKIAkHClBBCCCGEEEIIIYQoECRMCSGEEEIIIYQQQogCQcKUEEIIIYQQQgghhCgQJEwJIYQQQgghhBBCiAJBwpQQQgghhBBCCCGEKBAkTAkhhBBCCCGEEEKIAkHClBBCCCGEEEIIIYQoECRMCSGEEEIIIYQQQogCQcKUEEIIIYQQQgghhCgQJEwJIYQQQgghhBBCiAJBwpQQQgghhBBCCCGEKBAkTAkhhBBCCCGEEEKIAkHClBBCCCGEEEIIIYQoECRMCSGEEEIIIYQQQogCQcKUEEIIIYQQQgghhCgQJEwJIYQQQgghhBBCiAJBwpQQQgghhBBCCCGEKBAkTAkhhBBCCCGEEEKIAkHClBBCCCGEEEIIIYQoECRMCSGEEEIIIYQQQogCQcKUEEIIIYQQQgghhCgQJEwJIYQQQgghhBBCiAJBwpQQQgghhBBCCCGEKBAkTAkhhBBCCCGEEEKIAkHClBBCCCGEEEIIIYQoECRMCSGEEEIIIYQodJQqVcrq1atnTZo0sapVq8b2CiGKGxKmhBBCCCGEEEIUOpKTk+1HP/qRPfHEE3bjjTfG9gohihsSpoQQQgghhBBCFDr2799vv/jFL+yrX/2qvf7667G9QojihoQpIYQQQgghhCimtGjRwm6//Xa76667LCEhIbb3wunZs6d95StfsV69elm5cuViey8Ox48ft3Xr1tmyZcssIyMjtvezU716dbv66qvtnnvusebNm1uZMmViR4QQBUGJsJ3K/lUIIYQQQhQkqampNmvWLBs+fLiNHj06tlcIcanz6KOPWseOHW3o0KGxPXmjffv2fk3//v2tdOnS9vLLL9vixYstKyvLypcv7/sSExP99+3bt9vmzZtdpGnVqpXvK1GihB06dMj3L1++3Fq2bGm33nqr14VypkyZYrNnz7Zdu3Z5Dqi2bdv69Vx38OBBW7NmjU2fPt3r0r17d6tWrZrfs0qVKlayZEkXnnbs2GFHjx61+vXrn97HdUuXLnXHVLdu3Tykb+XKlS5QUa9+/fpZjRo1XBjjWsqYMGGCHTlyxIWmpk2b2okTJ/x+1OfUqVO2e/dubwP1oj/oF95zJ0+ebAsWLLCZM2f69XXr1vXrqQvt2Lt3r9973rx53g4hRP4jYUoIIYQQopAgYUoIkRsXKkzhCLrzzjutQ4cOLtRs2bLF3nnnHU8qjvhSuXJl/x1mzJjhW8WKFd1hhRhUoUIFF4oQdP7xj3/Y9ddfb4MHD7aaNWvanj17bNOmTfbUU0/58WbNmtkXv/hFvx7xiPsh+pAjinN/+9vfusgEiGEnT560lJQUW79+vQtL1CfaN2nSJPvXv/7lYtCIESP82LPPPmvPPfecC08/+9nPvA6IR4hOCGPf+973XMwaNmyYtxvxjTZwPCkpyYUpwgERoO6++24Xp6jHtm3b3JVF2ZTHftxgCFi048CBAzZ+/Hj73//9X3dt0S4hRP6iUD4hhBBCCCGEKIYg7vz97393N9Ebb7xhAwYMsIceesgFKESbxo0b29ixY13MefDBB+2FF17wROOIT127dvWE4+zjqXiEvz3//PP20ksv2dSpUz3305VXXmlPPvmkC1D8xMnUpUsXF7AQ1xs0aOC/I3AB90QcQ8DCQfXaa6+dftpe/L7atWufFrHiwbH1gx/8wF1SX/va16xz5872ne98xypVquQCGMeBkEVEp4cfftjb/MMf/tDFq969e9v8+fPtT3/6k/fHxIkT7Zvf/KbdcMMN7sbq0aOHpaenuxh22WWXeZ1wU9Ef9957r4tuQoj8R8KUEEIIIYQQQhQxEG5+85vfuAOIDWEIASUe3ELxG46k6HccQYgxhPfhfGIfghBuo3Hjxrn4hAj1wAMPuChFiBsOouh6tqi8tLQ0+/KXv2zvvfeeTZs2zV555RX/u169eh5OhxMJEIdwV61YscIdTTipNmzY8Il9gHMqHuqAWwrxqU+fPi66ESb4f//3f+7WwnEa5bzKzMz0MpcsWeLhgIhha9eudbEKkQ2BiXpD1AYEKcIDqeOiRYtc/CJckXtwfZ06dU67y4QQ+YuEKSGEEEIIIYQoYpD36f3337d//vOfvo0ZM8ZzM+UVhBcEF3JL8TuiDI4i3EOIQ6NGjXLRas6cOR7OV7Zs2dMCUzwIRriSEMUQdSJX1cKFC11oinJOwb59+2zr1q12+PBhF4Mol7xO5LGK3wfkooqHcnBCIQ7heuIetPsPf/iDO6Mee+yx0+2nrI0bN7pARegd7eM+XIt7KzeBif20kfsj2lEXfiJscT3HonYIIfIXCVNCCCGEEEIIUcTA5US+qL/97W++EQK3evXq2NFPJ16AAXI2kbyc8D7cUuR0yovYhTDVrl07d03hlkIswnFF3ibcSPEgDnHPCwHxCuGLXFEIXIThPfPMM9528l8hVCF6wbFjxzw3VM77nwvEOOqGQEWbEK/4iVOKHFWIXOdTnhAi70iYEkIIIYQQQohiCq4lRCiehIfwRMgaQktuRA4mQt0Ij+vUqZMnHo8cRjiHcCPxN2F6bdq0sVq1armTiPuQTJ17kCuK++Ayyi94Oh7JzXkKIOJZ37593eFFUvhIGCPUMC9EDi3OpyzCA6OwQupMqCBtHzJkiOfawr1FeB+ClxAi/5EwJYQQQgghhBDFFFxEuIxIVE7oHyFvCEc5IfTuzTff9PA+Eonjxvr5z3/uAhNPriMkDpfWqlWrXNgiCTnOqJ49e9rKlStd2CHJOE/U4xjCFQ6n/IScUT/96U89jPFb3/qWvfXWWy5Ucc/vfve71rBhw9iZ54ZyqDPJ2f/85z/bq6++6vmrcIrhECM0MHJkIbS9++67nhT+Qt1eQohzQ5BstndTCCGEEEIUKCTvnTVrlg0fPtyfaCWEEPDoo4+6M2jo0KGxPXkH9xMJyKMk5AhIOKNwAfETsYmf0blR6Brn4hDiGCFsXIfAxTmE/fGT/YhWnMOT8aKE5VyHkIWLipA68ljx/oYbiTC8nTt3+nkkW6ccBJ8oDI99lIWriX1R0nVEroyMDK83YhmJzCMnF/fi+I4dO3w/9SD0jvtyjHvgGOMYohb342/cXiRMp74IclE74hO246yi7Kh+Qoj8R8KUEEIIIUQhQcKUECI3PoswJYQQhR2F8gkhhBBCCCGEEEKIAkHClBBCCCGEEEIIIYQoECRMCSGEEEIIIYQQQogCQcKUEEIIIYQQQgghhCgQJEwJIYQQQgghRAHBE+6GDBliaWlp/oS484Gn3PFkOa7n4QnRk+SEEKIooXcuIYQQQgghhCggKlWq5E/cGzRokFWvXj22N29UqVLFevfubV27drXKlSvH9gohRNFCwpQQQgghhBBCFBBHjhyxPXv22NVXX23Nmze3hISE2JFzU6ZMGUtPT7frrrvODh06ZIcPH7aTJ0/GjgohRNFBwpQQQgghhBBCFBAbN260l19+2UqXLm29evWyZs2axY6cm2rVqln79u2tQ4cO9tprr9mGDRtiR4QQomghYUoIIYQQQgghCpCDBw/aP//5T2vdurX17dvXKlasGDtydhCkELFeeOEF2717t9xSQogii4QpIYQQQgghhChAjh49atOmTbNly5ZZnTp1PG/UuahXr561bdvWk6W/8sorLmydOnUqdlQIIYoWEqaEEEIIIYQQogDB7ZSRkWHjxo1zkap///5Wt25dK1WqVOyMMyHZOU/zW7VqlYtZx44dix0RQoiih4QpIYQQQgghhCgE4JpauXKli1I8pa98+fKxI9mULFnSn77Xo0cPT3Y+YcKE2BEhhCi6SJgSQgghhBBCiEIA4XgzZsywRYsW2T333GOJiYmxI9kQujdgwACrUaOGC1izZ8+OHRFCiKKLhCkhhBBCCCGEKCSsW7fOpk6dauvXr7c777zTGjZsGDtilpCQYLfffrutWLHC5s6dG9srhBBFGwlTQgghhBBCCFFIOHLkiC1fvtzGjBljgwcPtk6dOllKSopVq1bNk6Ljmpo3b56tWbMmdoUQQhRtJEwJIYQQQgghRCFi165d7prauXOndezY0Zo1a2ZpaWk2dOhQd0qR8Hz//v2xs4UQomgjYUoIIYQQQgghChHHjx/3p/Q9++yzVqtWLWvevLm7plq3bm3vvvuubd26NXamEEIUfSRMCSGEEEIIIUQhg5C+t99+20P2+B33FE/hW7x4sWVmZsbOEkKIoo+EKSGEEEIIIYQopIwdO9bGjx9vCxYssBdffNEOHToUOyKEEMWDEmE7lf2rEEIIIYQoSFJTU23WrFk2fPhwGz16dGyvEJ+N5ORk+/73v+8/RdEjKSnJWrZsaYmJiTZjxgwXpk6ePBk7KoozCxcutL/85S+xv4QovkiYEkIIIYQoJEiYEheDaF6tX3/Itm7dG9srhCjMtGiRaqtWfeQJ74Uo7kiYEkIIIYQoJEiYEheDaF6NGDHeJk5cHtsrhCjMfPWr/cNrN1PClLgkUI4pIYQQQgghhBBCCFEgSJgSQgghhBBCCCGEEAWChCkhhBBCCCGEEEIIUSBImBJCCCGEEEIIIYQQBYKEKSGEEEIIIYQQQghRIEiYEkIIIYQQQgghhBAFgoQpIYQQQgghhBBCCFEgSJgSQgghhBBCiFxITa1sd9zR3b773Wvshz8c+ont5pu7WMOG1WNnCyGEuBAkTAkhhBBCCCFELpw6FW2nrF69qtajRxPr2rWRVapUwUqUKOHHCjuJieWtefPaNmRIG/9ZsWK52BEhhCgcSJgSQgghhBBCiFzYunWv/fvf0+03v3nT3nproa1cuc3mzVtvf/rTe/bLX462V16ZZWvXZsTOPj+Skspb7dqVrUaNSrE9F4fExHLWrFktGzy4Vfj52YWpsmVLW9WqiVa/flUvq1QpLSmFEJ8NvYsIIYQQQgghxKeQkpJgJ06ctPXrd9rGjbv8dyhR4swtnux9JT5xnJ8dOzawe+/tY7ff3u30/ojscz95HcTvi8755P7sfbBt2z5744259tBD/w4/59iOHft9f/Z5H18fT1RG/BZRu3ayXXllW/ve966xVq3qWEJC2diR6FzKzL1cIYTIDd4uioABVQghhBCi+JOammqzZs2y4cOH2+jRo2N7hfhsRPNqxIjxNnHi8thecb58+9uXW506KTZ9+mp79dXZvq9Pn2bWsmUdq1mzkqWkVLQKFcrYuHELXLyqX7+aXX11e9+3f/8R27Ur0zIy9oefB91x1LlzA6tbt4odO3bC1qzZYe+8s8gdWm3apFn37o3cmbRnz0G/bvv2/bZuXYZt3Ljbhg7tYEeOHHOnVVpaFTtw4Ihf27BhNUtPr+FhhlyDm2vhwk3hnKrWs2djq1w5wR5//ANLSChn/fu38Lpz7okTJ3xefPjhcjt8OMuP1aqVbNWqJVmVKhWtfPkyp8ujjd27N3ZRDScW+7l21qw1VqZMabv++o5+TsmSJWzLlr02efIKF8PE+fPVr/YPr93MMN5DY3uEKL7IMSWEEEIIIYQQZ6F06ZKe4ByxBg4cOOw/oWnTWtajR2Nr3LimO5MI90NEatGijl12WTM7efKUjR27wB1WdeumuOhUtmwp27x5twtSGRkHbNq0VS5mIViRv6pt27q2c2emvfnmPBe0yAvVqFENq1Il0UPxunRJt/bt67soxLWEBF53XUdLTU1x4Wrdup3WoEG1UIdUzy+FmIazqWrVpNCGyjZkSGvr1auJZWUdC3Wb7/Vo06auh+YhXnXrlm69ezd1YWzFim1nlEcdqTPXrly53V56aaYtXbol1K+mDRrU0sP6aAuCWHJyBRfEOnSob2XKlIr1mBBCfBIJU0IIIYQQQghxFkqVKuXCDE6grKzjLhbhCEJ4QaxCaEK8QZQaM2aeHT58zNLTq7sbaeLEZfb66x/Z3Lnr3dmEUBWJR7ihcEpNmLDU3n57YbjTKWvcuIYdPXrc3n9/sY0aNc+WLdtix4+fdCfTwYNH/SmBOJi2b99nU6asdLfSwYNZXrdly7ba+PFLbd68DaGeJ6xChXKhjglWvXpSuKasX1OvXhXr1KmhC0WzZq0NZazw9lSsWN5dXLikatRI9nvNmLHay0N4Isk7Tqu9ew/Zzp0HbNu2/TZnzjoPEVy/fpe7txC+pk5d6e2lPZs37/V99F3p0hKmhBBnR8KUEEIIIYQQQpyFUqVKuGCDGwgxiXA8fidUD0EoO2RtuSdFx32EKMX5hOVNnLjChSYEKQQkXFWIUjiZEGt27z7o+xCKcDVVqFDWXUrz528Idz7l1+3ff9g2bdrtLirEI8ShCROWuWOJ5OOECi5evNkmTVrhohdOJ/JfUVfOR5g6duy4H8NVhSsqM/OI1xX3VaVK5W3z5j0ugOGuom2EK+LGon44sngqIYIU50YCHe0gDBBxDhGOdkTtRYTbv/+QHTmS5fdR9hghxLmQMCWEEEIIIYQQZ4FE3rijjh495k/gW7Mmw0UlwusQeXbvznTRJyK3JOnkgqpSJcHFGkQgcjchAOFMYitZsqS7jhChcCARDohY1aRJTXdIIQodOnTU74nzCVGI5OKE5nHtqlXbXWxCECMkr1y50n5NtWqJ/uQ/2LXrgItM1HnAgJb2yCNX24MPXh6u3WFPPz3ZhS7qSbmrV2eXh4CWlFTBXVUcR6BCDDt+nDDE/aFtpzzXFK4x2ha1F4Erum90nhBCnA0JU0IIIYQQQghxFhCQqlev5OFxhOlBdihfQkys2uliVTw4nxCB+Hn99Z2sb9/mLmZt2LDLc1YhOOEkwgmFCBWRfU0ZF3ZuuaWrJ0FHrDp2LFvsyRapMv2+/M751AURCqcS+3BMkQdq4cKNLhIBYtiiRZv9nghbTzzxoQ0b9je7554n7amnJtmWLXv8Wp6whxtq377D7qDK3lcmtPuo1508V7imqHNUHnBPjtWrV9X7q2VL8luV8/DC+POEECI3JEwJIYQQQgghxFlA+MHhdOhQlmVmHj29DzcSYtW+fYSsZQtWsGPHATt58qR169bIHn74KrvssqYuSiEoEYZHvqYjR457iN3ll7exW2/t6oIOoXAIWTzJjyeytW2b5vdEZMKphGuLa3k6Hy4rQupq1Ejy35cv3+rhc4hBiEuE8R04cNQdT9SV+xKWR04qRCiStiN8sXH/Vq3qekgeuai2bt3nDjDyWlWtWtEFOFxc3AenFOdQN+pIknSOrVy5zZ8w+M1vDrYf/GCotWtXz0Wpd99d7NdRfyGEOBtkoXs0+1chhBBCCFGQJCUl2f33329jxoyxFStWxPYK8dmI5tWUKetcRBDnB8IOLiFcUatX73CRh7xT5FUivxQhbohH8SBY4TzCsYTTiLxRS5Zs8VBAQv8oExcRghaOKIQghCOcUFyHKMS5JB7nOsQkRCrEp48+Wns61I8wPp7wRyJzyiJBOeIR165atc1FKtxP1JvQQp7kx3XZW2nPYcX9qGOUYJ32LFq0yR1YhPHRFnJYEaZnVsLbxFP5cFThxEKUQrAjBJCwR0So9eszwnxb5eWIC6Nz54ah/7PshRdeiO0RovgS3j6UiU4IIYQQojCQmpoaFpizbPjw4TZ69OjYXiE+G9G8GjFivDtmhBCFHxxpqamZNnTo0NgeIYovCuUTQgghhBBCCCGEEAWChCkhhBBCCCGEEEIIUSBImBJCCCGEEEIIIYQQBYKEKSGEEEIIIYQQQghRICj5uRBCCCFEIUHJz8XFIJpX//73Aps7d31srxCisMKTFG+9taslJ+9S8nNxSSBhSgghhBCikCBhSlwMonlVu3Zq+Etf/YUo7Lz11kKrXj3Jtm5dJGFKXBJImBJCCCGEKCRImBIXg2hePf/8fJszZ11srxCisLJ//xG77bauVrnybglT4pJAwpQQQgghRCFBwpS4GETzasSI8TZx4vLYXiFEYearX+0fXruZEqbEJYGSnwshhBBCCCGEEEKIAkHClBBCCCGEEEIIIYQoECRMCSGEEEIIIYQQQogCQcKUEEIIIYQQQgghhCgQJEwJIYQQQgghCi1VqiRaz55N7L77+lnr1nWtYsVysSOfL717N7UHHhhgP/rRdae3r399oHXsWD92Rt6oUKGMXXtte7v77t7nfa0QQhRHJEwJIYQQQgghCi2JieWsadNaNmBAC0tLq2LlypWOHfl8KFOmlLVokWp9+za3Vq3qWIUKZe3EiZO+nTx5yk5dwDPOue5Cr/3/27sPcKvKM2/jL7333kF6xwMqVsBescZYownGkkkmZNJmUiZMJiYzOkk+U02iptkSu9i7YEERBem99947fPt+zt54PIJS3efg/buufXFYe+1V3rU4yf77vM+SpMONwZQkSZKkz7Tataum5s3rpjp1qqWyZctklxaqVKlC6t+/U2rbtmEaN25+uu22Z9NPfzo0Xr///UvpvfdmR1jWuHGtCM4Irj7Oxo1b05NPjkl///vr8VlJ+qwzmJIkSZL0scqUKbPrRXCTe/H3ona/TvbNDH7OrVN0vT0tK45FufeLr8OPxbdT+HPu/Q9/jlcO1VBf+9ppEUARRBXF+g0a1Ew7d+5MS5euSUuWrMm+U4jNNGtWN1155bGxDQKs3PZ574Ofd/f6YBtFlxc9zqKKvpd7P/eSpNKK32AWkEqSJJUATZs2TSNHjkw33nhjGjp0aHapdGBy99Utt7ychg2bnF26b66++rh0xBENU8WK5aMqqHz5cjGV7f3356aXXpqQRo2atWu9Y49tF5VHTFUrrA4anUaMmJZZf2c67rh2qU+fI6LCqGbNKplX5bRly/Y0YcL8VLlyhdSoUc34bG7ZAw+MTNu2bU8nn9wlnX/+kWnWrGWpVq2q0adp/fotaerURel3v3sxrV27KfZ7/PHtI1iqV696Zr0qadKkhZl9T08rV65Pl1/eNzVrVif2vWrVhvTee3PSvfe+kRo2rJkuvviozHG1yZzHzKiCYns5VatWTBdc0Dudc07PtGjR6vT44++lV1+dlH03xX7PP78gPs+0vxUr1qUxY+am8ePnpa1bt8f5btmyLdWtWy32PXXq4vhcjRqV0/DhU9K4cfN2Oy7btu1I8+evSH/5y2txHhz7GWd0Tyee2CHGim2uWbMxc0xr0ty5y9OLL07IrL8ytq3S74YbBmT+7a5LAwcOzC6RDl/lMq8hhT9KkiQpn2rUqJGuv/769MQTT6QpU6Zkl0oHJndfvf76rDR79vLs0n1z2mldU/fuzaNq6O23Z6Z3352Vateulho2rBEByZQpi9NZZ/VIffu2TYsXr0mvvDIpzZy5NLVqVS81blw7QpatW7dFryiqkzZt2hqBDIELzcxpar516440ceKCNHnywlS1aqXUrl2jtGTJ6vhss2a1U48eLdK6dZvTyJEzMustTGXLptSlS7MIc6hkIjCjQTmfmzdvRYRlY8bMieM/5ZQuETAxdW7y5EVRYdSlS9MIwAiS5s1bGcfCMS1cuDpCtxzOefXqjWnz5q0RYtGwvFevVpnPN8nsd23mvQ0RhjEVkECLc3/rrekRfrVuXT/Ot2LFcrHfN96YGiESvapYn5/ZX8+eLT80LmPHzotj6Ny52a6QrH37Run007umZcvWx/YJyerXrxHnsXLlhhg39qnDA0FnjRpb0n333ZddIh2+nMonSZIklXAVKlRIPXv2TAUFBalx48bZpQeO4GTAgM7pkkuOShdd1CeqcahY2h0qoBYsWJUee+zd9Mgj70Y4QrDTunWDdMQRDSL8oaKKQOjRR0dFZRHVSnXqVI3pbQRZBEJUFc2duyKqjp566v0IuQiXFi1alYYPn7xrGUFSy5b1otKImWo0CieMefnlSZn9j4oAaO3ajemYY9pGhRTY/o4dO2LbTzwxOkIegi/WYTscX/nyZWPbLVrUS0cd1SY+R2D1/PPj4k+CtqIIxqjUeumlibFdjr1evWqpf//O6dRTu8Y2qZBauHBVvDguKtPmzFm+63w5bkKpp5/m3GZHJVVRxceF83vqqTFp06YtMQYEdx07No5rw5hybozvyJEzs1P6shvSZxa/I7p27Zp69+4dVZJSaWIwJUmSJJVwFStWjC+cZ599djrxxBNT69atU7VqhUHPgSD0IIxiKtq55/ZKffsyDa9q9t0Po2qISiR6LBH+UC1ENQ/rU7lE8+9VqzbuqtohfGE6HtPNqBhi+h3h1oYNm2PKGVU+VFHxJ9uhcoh9sIwqJNatXr1yTFsjlCIw4nMbN25J69ZtihBn+vQlsV2mFoKKI5YTjnEcBDmcY+5PQjimBfIzIRL7LVod9XFYn6blt932XEyvW758XTwp8Kijjohwandy50u1FKHenhQfl/XrN0fFGeNJYNWgQY1Ur16NtHnztsx2GIOtsS7BG8ext+egww+/Gxo0aJC6d+8e0/769++fmjdvnn1XKh0MpiRJkqQSbvPmzWnYsGERRl133XXp+9//flRH8KX0QFDZ8+MfP5auvvoP6UtfuiPdeutTacaMpdl3P4wwaHdTxQiNeIGc7KNZ2QcLmBa3YcPWCKAIkQ5E4b4+vDPCMI6RoCeHnwnHHnronfRv/3ZvnOvenO+ebNhAb6vF0dOJEIlqLXpj7c7enu/+jssB5pIq5bj/mzRpki644IL0y1/+Mh177LFp+vTp8ZJKE4MpSZIkqYTbvn17mjt3bvr1r3+dfvWrX6W1a9emW2+9NX3jG99IRxxxRHat/CBIWbBgRUxdo+cR1T1get5xx7WP4GbTpm3RH2p/8QWcyqj27RtHFRUVUB07Nkk9exb2nSo+NS6HKXT0XiJM6tOndUznOxiYDkjPJ6q5qFhavHh19p1DgzHmRWN09lu9eqXUpEmt1Llz0xjzcuX8WvdZw7+J8847L/3whz9M55xzTnrggQfSv//7v6eXX345rV59aO9H6WDzN5gkSZJUwlFRQ9XUggUL0ogRI9KDDz4YL6olbrjhhnTFFVfkLaDi2Jhy9uCDI6MJOX2X/vM/z0/f/vbZ6eij26Zp0xZHz6hly9ZmP7HvCJ6Ydkcgw5P/vv3tszJfyo+MHlf0s+LpdbvD9D/6Q73wwrhUo0aVdM01J8Sx/eAHA9M3v3lWOumkjjEN8bzzeqWvfvXU2GaVKh+uQuPvLP+3fzszPsvrW986Oz7Hk/eYrkilEyEYDdgHDTopffGLJ0ZD84OF0I+eXjNmLIleXoMHn5E53tOiYTrTKjOXQJ8RNWvWjMqo733ve+nkk0+OwPruu+9OTz31VDw0g1Bq27YP90mTSjqfyidJklRC+FQ+7Y2NGzemhQsXpmnTpqWyZcumli1bRs8pmqLzd76Ybt26NQIjHIyn8lWrVjF6StH3iKfugb5K9DyaP39V5n5dlDmeJfGkvHLlykVfJMIkAhUamhPeUNlElQfT6nj6HtujsTjLCJB4Kh59nNhm0WX0UmJ63sqV62P/vAd6XdGsnCl1hFZUaFFVxD4Jw9g2CK+WLVsX48GQ8Pnt23fG9un7RDVV7dpVI7iitxVT+3KfBdVRbdrUj3XoZcXUQM5t5sxl6bXXpqTp05fGtnjxOfZHUEVIt2TJ2g+dL+uwfyqtqLKi9xTLWVZ8PZqaE4oRrPEUwjlzlqX167fEuuyH4+bPGjUqx7hNmLBgt1MtVToVfyof03bbtGkTPeZOOeWU1KxZszR16tT0wgsvZO7D1zL3zdIIKaXSiN/q5uuSJEklAE9SGjlyZLrxxhvT0KFDs0ulj9etW7d05plnpiOPPDK+nD733HNp0qRJadGiRWnDhg277qtbbnk5ekrp8EBoxdMGr7vupGj2zpP8CLF0eLjhhgGZf7vron9UnTp1IpSiUop/5wTQ//jHP9Lbb7+dli/fv7BZKkmcyidJkiSVYuPGjUv/93//l26++eb4wvrb3/423XTTTalz587xdx0eqJSiiopryqtDh8bpuOPapbp1q6c1azbtsc+WSi+uedWqVdPpp5+efv7zn6dzzz03vfrqq+mLX/xievrppw2ldNiwYkqSJKmEsGJKB6Jy5crRc+qoo46K3jP8/b333ot76pFHHkk//enzVkyVUjR7LyholS64oHf8XK4c0wErxvREnhD4u9+9ENMSDacOH1RMnXZaq+gdxbQ9esu98cYbacKECWnFit33VJNKK4MpSZKkEqJhw4bpoYceiulY/pdw7Q/6O9WtWzd16tQpVa9ePXpRTZ48OV144YXpe997xGCqlKInVePGteJJhPxMJQ02b94aTdfHj58ffal0+CCYuuyygjRz5sz434YZM2akefPmpXXr1mXXUA7/e8m0xocffji7RKWNwZQkSVIJQZDA09Xat2+fqlU7OI+112dLhQoV4v4hmKIRMs2ReV122WXp+99/1GBKKiUIpj73uZ7xIIwuXbrE0/cImRcvXpxdQzk8kXTWrFlRbazSyWBKkiRJKuXoQ0ODZKaD9u/fPx133HFp5cqV6aWXXooeVM8880y655734il2kko2nup46aVHpz596kaTc57EN378+DR8+PA0evTotGzZsnj6pk/hKzRkyJBUUFCQBg4cmF2i0sZgSpIkSSqlmNLFq0ePHjFd7/zzz4+pP/fff38aNmxYTOXL9S5r3LhJ5hP+X3+ppHvmmXGpYcMamX+/49LFF18cFZBU0/JUvlWrVqW77747wub169dHn7HPOoOp0s9gSpIkSSqFKlasmHr27JnOOeec1KFDh7RmzZr02muvRQjFdB++tG7dunVXMHXPPaPTu+/Oyn5aUknFUxYvu+yYVLv2igibeZABFZEEVH379k29e/eOf+/PPvtsev3112Oa32eZwVTpZzAlSZIkfYzjjz8+nXTSSalFixZRgUSDeqqSNm7cmF3j01W7du0Ioqie6Nq1a3xBpY8UT+uaNm1aWrJkSdq+/YOns+WCqVtuedkeU1IpQY+ppk3XfShsqVmzZmrevHnq2LFj6t69ezyFkyf08fRNntrH76ei//Y/Cb9LcuE2PzNN8JVXXonfJaWJwVTpVy7zGlL4oyRJkqQcKpJ69eqVPv/5z6cjjzwynnbHY9upXKB/Ez1eqEj6NDBdj4b4BFH9+vWLsKxx48YRQvEIeabt0UuKJ3YVn9pTo0aNdP3116fXX5+VZs/2aY9SadCnT5vMv90t6b777ssu4SmMm+OprTyhj99BPOyA30utW7dObdu2jcqqLVu2pE2bNn1iQFWrVq2ovqIii5CbflVsh22wbfpYlRb01SOkKzpWKl3KZv+UJEmSVESVKlXS5z73uXTMMcdEBcHvfve7NGrUqHTJJZfs+iL0aSlfvnx88TzzzDPTWWedFft+8cUX0//+7/+mJ554Is2fPz+7pqTDHeETVVK///3v09///ve0aNGi+J3E76ajjjoq1a9fP7vmnrVs2TKdccYZqU+fPhFs33zzzRFIDRgwIH7P8EAFAnHp02AwJUmSJO1GrofTpEmT0vPPPx9f3nhRjUAlFY8o/yR8sStbtmy8ypUrt+vF3/flSx9VDKeeemp8Wfzzn/+cvvKVr6THHnssb9MJJZUMVEr+/Oc/T9dcc01UUvE7q3379tl396xNmzYRYPEZmqm///770a8KVGS2a9cuAvGPw++w3O+zA/n9JhlMSZIkScVUr149+jgxfY7pcTQS588pU6ZEVQH9WJgK80m+9KUvpV//+tfp3nvvjd4t9Hp655130l133ZXOO++87FqfbMOGDfGkvdtvvz2m7jGlR5LANLzly5env/zlL+mOO+6IaqpPwu+vSpUqRY8qetNt27YtpicTvBOAM2WZgGlPqLi69tpr0yOPPBK/z6jg5HcbD2Ag6KLSlN+j0t4wmJIkSZKKoUKpUaNG0Z8J9GvhRUBFjxe+CFIZ8EnYBtVVNCwePnx4+sMf/hBfGmlIztQblu/Ndtg303Vobrx27VofES9pF34fECzxNM4FCxbE74hPUq9evfj9xueovGQbhFuEU/xMtdTHVT0RajGlmP579N574YUXYlrhxIkTU7du3dIJJ5wQ+5D2hsGUJEmStBu7C39YRvXSvjz5iqoDekD99a9/TXfeeWd69NFH4wsgjYb5Qrc3wRQIw3Z3TJKUs7e/J1in+Hr8biOkYht7g+CKbcyZMyd+r/H7jZ53BGNdunTZq6pSCQZTkiRJUjE8bY8vV3xJy/VRyaH3FFUGvPbGmjVr0uzZs9PkyZPjM1Q0EExRkcBUl4+bLiNJh0Ju2h6/z3KNzvmZ33UE7/yu+qSAiwCLMIsqKX5fsk1CKiq3mO7M9qS94f8KSpIkSXvAFysex06vKfClrUGDBvEljMBpbzD9b9WqVdm/SVLJwHQ8phvnGp3TDJ3fdfzOovfUJ1VO8T7hPWE7IZe0vwymJEmSpGJodE4VAFVOjRs3jp5QBFTHHnts9FXhSxhf3iSpNJo+fXpasmRJ9IGiJ1SFChVS27ZtU8OGDT/UEF36NBhMSZIkScUwlYWn79EvhRDqyiuvjKfrffWrX41qKZ48RRP0fv36pZ/97GfpP//zP+MR65dcckm6+eab0+DBg3c1Tpekkobg/c0334yKp5tuuin9/ve/TxdffHFMx3v99dejgurrX/96/D7j91rPnj3j9+Btt92Wrr766gixpIPFYEqSJEnajc2bN6dhw4ZFU9/3338/puPxZe7+++9Pb7zxRlQbEGBt2bIlXkxrocKAn+lRRX+WUaNGpWeeeSb+zCHQ4gl9Tz31VJo3b55VCZI+dcuWLYvfQ7nfb1SJvv3222no0KFpxIgR8fuL32P8PuN3VO73G78X+ZOqKp4w+s9//jNNnTo1ek2B32/8zuPFz9Le4PmPPtpDkiRJOkwxDXHkyJHpllteTsOGTc4ulVSS3XDDgMy/3XVp4MCB2SXakyFDhqSCggLHqhSzYkqSJEmSJEl5YTAlSZIkSZKkvDCYkiRJkiRJUl4YTEmSJEmSJCkvDKYkSZIkSZKUFwZTkiRJkiRJyguDKUmSJEmSJOWFwZQkSZIkSZLywmBKkiRJkiRJeWEwJUmSJEmSpLwwmJIkSZIkSVJeGExJkiRJkiQpLwymJEmSJEmSlBcGU5IkSZIkScoLgylJkiRJkiTlhcGUJEmSJEmS8sJgSpIkSZIkSXlhMCVJkiRJkqS8MJiSJEmSJElSXhhMSZIkSZIkKS8MpiRJkiRJkpQXBlOSJEmSJEnKC4MpSZIkSZIk5YXBlCRJkiRJkvLCYEqSJEmSJEl5YTAlSZIkSZKkvDCYkiRJkiRJUl4YTEmSJEmSJCkvDKYkSZIkSZKUFwZTkiRJkiRJyguDKUmSJEmSJOWFwZQkSZIkSZLywmBKkiRJkiRJeWEwJUmSJEmSpLwwmJIkSZIkSVJeGExJkiRJkiQpLwymJEmSJEmSlBcGU5IkSZIkScoLgylJkiRJkiTlhcGUJEmSJEmS8sJgSpIkSZIkSXlhMCVJkiRJkqS8MJiSJEmSJElSXhhMSZIkSZIkKS8MpiRJkiRJkpQXBlOSJEmSJEnKC4MpSZIkSZIk5YXBlCRJkiRJkvLCYEqSJEmSJEl5YTAlSZIkSZKkvDCYkiRJkiRJUl4YTEmSJEmSJCkvDKYkSZIkSZKUFwZTkiRJkiRJyguDKUmSJEmSJOWFwZQkSZIkSZLywmBKkiRJkiRJeVEm89pZ+KMkSZKkw03Tpk3TyJEj0/z5m9LixWuyS3U427lzZ9q2bVsqV65cKlvWWoTSqEOHxmny5JFp4MCB2SXakyFDhqSCggLHqhQzmJIkSZIOY7Vq1Urf+ta3Us2aNbNLdDhr2bJlOv3009OOHTsinBo9enR6//33s++qNBk/fnz64x//mP2b9sRgqvQzmJIkSZKkw0DdunXTeeedl37605+m6dOnp3r16qV77rkn/fa3v02rV6/OriUdXgymSj/rOiVJkiSplCtTpkzq169fuvzyy9OaNWvSTTfdlGbPnp169+6d+vTpk11LkkoegylJkiRJKuUaNGiQjjrqqFS/fv10xx13pPnz56f33nsvNW7cOKqoJKmkMpiSJEmSpFLu4osvjuqoKVOmpEcffTStW7cu3X///WncuHGpV69e0XeqcuXK2bUlqeQwmJIkSZKkUqpixYoxVe/ss8+OMOqBBx6I/lI0Ph87dmx69913U4UKFdKll16aqlatmv2UJJUcBlOSJEmSVEpVq1YtXXXVValJkyZp+PDhUS1VFOEUVVP0n+rQoYPhlKQSx2BKkiRJkkqhsmXLptq1a6cLLrggTZ48OY0ZMybt3Pnhh66/8cYb6eGHH05VqlRJX/nKV1K7du2y70hSyWAwJUmSJEmlEL2jbr311rR58+YIn0aOHJl958PmzZuXnnzyyXTCCSdEM3RJKkkMpiRJkiSplGnTpk06+eST05FHHpnuvPPO9M4770SPqd2ZO3duNELfunVrGjhwYDrmmGOy70hS/hlMSZIkSVIpQ7XUSSedFNVQQ4cOTYsWLcq+81Fr1qxJo0ePTq+88koEWUcffXSqVKlS9l1Jyi+DKUmSJEkqRVq0aJGOP/74aHj+4IMPRkUU0/k+zoYNG9J9990XVVPdunVL7du3z74jSfllMCVJkiRJpcigQYPSKaecEg3P//SnP6Vt27alypUrf+yrTJkyacSIEfEZKqauueaa7NYkKb/KZF4ffmyDJEmSJKnE+utf/xpP4tuxY0eaP39+duneocqqXLly6amnnoqAa9OmTR95kp9UmgwZMiQVFBRE/zSVTgZTkiRJklSK0FuK6XwETLtTu3bt9F//9V/pz3/+c/SWKm779u3Rm+r111+PaiupNDOYKv0MpiRJkiTpMNK0adM0cuTIdOONN0ZjdOlwZjBV+tljSpIkSZIkSXlhMCVJkiRJkqS8MJiSJEmSJElSXhhMSZIkSZIkKS8MpiRJkiRJkpQXBlOSJEmSJEnKC4MpSZIkSZIk5YXBlCRJkiRJkvLCYEqSJEmSJEl5YTAlSZIkSZKkvDCYkiRJkiRJUl4YTEmSJEmSJCkvDKYkSZIkSZKUFwZTkiRJkiRJyguDKUmSJEmSJOWFwZQkSZIkSZLywmBKkiRJkiRJeWEwJUmSJEmSpLwwmJIkSZIkSVJeGExJkiRJkiQpLwymJEmSJEmSlBcGU5IkSZIkScoLgylJkiRJkiTlhcGUJEmSJEmS8sJgSpIkSZIkSXlhMCVJkiRJkqS8MJiSJEmSJElSXhhMSZIkSZIkKS8MpiRJkiRJkpQXBlOSJEmSJEnKC4MpSZIkSZIk5YXBlCRJkiRJkvLCYEqSJEmSJEl5YTAlSZIkSZKkvDCYkiRJkiRJUl4YTEmSJEmSJCkvDKYkSZIkSZKUFwZTkiRJkiRJyguDKUmSJEmSJOWFwZQkSZIkSZLywmBKkiRJkiRJeWEwJUmSJEmSpLwwmJIkSZIkSVJeGExJkiRJkiQpLwymJEmSJEmSSpHKlSun0047LV166aWpe/fu2aWlk8GUJEmSJElSKVKhQoV05JFHphNPPDG1bt06u7R0MpiSJEmSJEmfOeXKlUsVK1ZMlSpVSmXKlMku3X/ly5ePbfHnobZ27dp0yy23pK997Wtp6NCh2aUHrmzZshF6cR6Mz6fBYEqSJEmSJH3mHHPMMenf//3f0w9/+MNUs2bN7NL9N3DgwPQ///M/6YILLkhVq1bNLi1dmjdvnq6//vr0k5/8JB199NER3B1qRII7C3+UJEmSJJV2TZs2TSNHjkw33njjQa2kkEqiIUOGpIKCggiF9gXrX3LJJRFOURn07rvvptdffz2tX78+1ahRIyqG6tevHz9PmTIljRs3LlWpUiX6OrGMCqvVq1ensWPHpmHDhqVTTz01nX/++aldu3ZpwYIFadKkSemxxx5Ls2fPTq1atUrnnHNO9IXic6tWrUojRoxI99xzTxzLlVdemdq0aRMhUIsWLaLiavPmzWnatGlxPJxfbhmfe+mll9LixYvT5Zdfnho3bhzH/fLLL8dx8e+eYyAY27BhQ2zj9ttvjwqrAQMGxNS/bdu2xfQ/jmfnzp1p7ty56dVXX03Lly+PMTn99NNT3bp109SpU+PcH3nkkbRmzZroZXXSSSftqgjjPNn3448/Hn9nTI8//vj4HZTzzjvvpBdffDHGb0+smJIkSZIkSZ8phDYENExd27hxY1q2bFmEL4QqZ555ZrrssstS+/btYx0CKNbhM4Q3S5cujeWESYRRRxxxRKpevXoEXAQ9hECsx/pbtmyJP9k+n9u6dWvq2LFjBFzdunWLaXO9e/feFeqAz3bp0iW2TRBUdNkZZ5wRvaUIzvr27RshEkFUo0aNIvzKBUfsi+DprLPOSuedd168z3rnnnturFetWrU4XwKo/v37x3Y5fo6Pc+DFea9YsSKqyQi0zj777NgOwRrr9unTJ1100UXpuOOOi20TzvXq1SveY/+82Afb/DhMGBxS+KMkSZIkqbSjaoKpOE888URUO0iHM0KVJk2apPvuuy+7JKU6depEWNS5c+eoVuLv27dvj4AoZ8aMGRHcNGjQIKqK/uM//iO9+eabUYF07LHHxvI777wzXlREUaFEOLVo0aKoJCJoYrs9evRI77//fho9enRUPBE0PfTQQ+k3v/lNVE2tW7du1+f498jnON6WLVtGNdT48eOjkqlt27Zp8uTJMYXugQceiKCHZfPmzfvQMs5r06ZN6e23345wq169evE5gqR//dd/jcDpqaeeikomzrlfv37xGSrCODem5/H5m2++Od17770RMrFdjucf//hHHCfbJFD77W9/G+vwd4IrQqm77rorlnO+hHhUc1FJRgjFvjjXZ599Nqqs/vnPf8Z+CdU+jhVTkiRJkiTpsEFF0Q9+8IMIaHj94he/2FV5tDcIjAiVHn300bRw4cKoqmKK3aBBg9KDDz4Y27zjjjvSNddcE9P9mjVrFiFXcXyOqqovfvGLMa2PzxF0UY1FLyeqlVgHhDcEV9OnT99VpcUUO0KwostQq1at+DOH4KhDhw5RiUXwdNttt8W+6HfFsVHxlJt+x7mxH16EZgRRTDck0CIIo/KrOM6BoG7lypVp4sSJUQHF+DBlmOl8nAdB1cyZM6P660c/+lH67ne/G0HY3jRRN5iSJEmSJEmHjbfeeit9+9vfjqlmvAiGnn/++ey7n4xeTlQA7dixI/5ONREVQ0xlu//++9OFF14Yr9///vcxbS+3XnGET0zHY6rb3//+96juojH6X//6149UERE6sc8DQUUYwdnnPve5XefOdL8rrrgigiNQ0USYRDXVwUYAyNTBb3zjGxFkPf300+nWW2+NPl4fx2BKkiRJkiQdNqgKmj9/flT18KIiiF5He4tpcVQo5TBlj3Aq1wh9woQJEUhRZZRraL47tWvXjuluNCJn6iBT7gi9mPpWvMKKoKjoPvcF0/FmzZoV1U9UdjGlkJ85d/ZJJVNuGiMhWq6P1N5iOiG9pqjUoqqK6iumB9IMvWHDhhGocfxLliyJaZHDhw9Pf/zjH2P6I+EcUwA/jsGUJEmSJEn6zCGsIrChF9VNN90UTcLpSVUcoQzhDgEQ1U/XXXddPL2O5uj0ayLk4T36RzF1jSbg9Hljeh2VUOyD5uFf/epX08UXXxxPxNvfEGp32D5T7OhtRQhGQ/LBgwenf/u3f4t9nnLKKTHdbm8QaHEerM92qDbjnNg+gR/VWPSy+trXvhb9pai+4ol+hE+MCe8xxbFnz57Rb4uwirH5ODY/lyRJkqTDiM3P9Vmyu+bne4vKInoqERQRIhEW0fSbwIrAhSmB/J1wiX5MhDWsRyBFAJSrEKL5+ZgxY6IaiYCGnkxUWFGtRCUTy7t27RqfI+ShwihXzUXzc/ZPuMT6bA8EZARe9Jdi+7ll9Gui+oqm4lQtMTWPfdPviX/vVEyxHv2mOnXqFOsQKLEdKryo1qJvFfulcooqKF5UPNH8nfU4Ro6fz3I+Y8eOjW2zDk/dY7uMOSEWvaz4XcN+eeIfARznymc5J6bzjRo16mMr1qg32/v6LUmSJElSicbUIb6k3njjjWno0KHZpdLhaciQIVG5M3DgwOwSlTZO5ZMkSZIkSVJeGExJkiRJkiQpLwymJEmSJEmSlBcGU5IkSZIkScoLgylJkiRJkiTlhcGUJEmSJEmS8sJgSpIkSZIkSXlhMCVJkiRJkqS8MJiSJEmSJElSXhhMSZIkSZIkKS8MpiRJkiRJkpQXBlOSJEmSJEnKC4MpSZIkSZIk5UWZzGtn4Y+SJEmSSrpWrVql1q1bZ/8mfVS9evXSH/7wh/SLX/wivfHGG9ml0sExbty4tHz58uzf8m/IkCGpoKAgDRw4MLtEpY3BlCRJklSK8CXsBz/4Ydq8eVt2iSQdemXKlEmVK5dP559/fho6dGh2af4ZTJV+BlOSJElSKcKXsLPP/kL66U9LzhdDSYe/unWrpVtvvSxde+3lBlM6qAymJEmSpFKEL2EDBlyWBg++J7tEkg69Bg1qpLvvvjENGnSlwZQOKpufS5IkSZIkKS8MpiRJkiRJkpQXBlOSJEmSJEnKC4MpSZIkSZIk5YXBlCRJkiRJkvLCYEqSJEmSJEl5YTAlSZIkqdSrUKFcPM6+e/cWqXfv1rtevXq1TO3bN0rly5fLrnlgKlUqn5o0qZ26dWue+bNWqly5Qvad/Chfvmxq3bp+6tnzw+dd9PyPOKJhqlKlYipTpkz2UyUXY9uhQ+PUokXd7BJJhzt+M+0s/FGSJElSSTdkyJA0YMBlafDge7JLRODSuHGtdNJJHdPVVx+fatasnMqWLQxh1q3bnMaNm5d+8pPH06pVG2LZgWjatHY67bRu6cwzu6enn34/vfzyxDR37orsu5++mjWrpK985ZR07LHtUv361VO5cmUjhNu+fUfatm17WrNmY3rnnZnpL395Lc2evTyWlWRf+MLxEahNm7Y4/frXL2SXqiQg+L377hvToEFXpqFDh2aX5h+/EwsKCtLAgQOzS1TaGExJkiRJpYjB1EcRSp11Vo/Uv3+ntHHj1vSb37yQ1q7dGO/t2LEzbd68LS1bti7z845YdiAIfapVq5h5VUrr129OGzZsSVu35i/sIYCrU6daqlKlQqpfv0bq3btNOuOM7mnEiGnptdempIULV8WYrF69IUKpnSX821+tWlWiCm3Llu1p5cr12aUqCQymdKg4lU+SJElSqVZQ0Dqm8K1fvyU98cToNH364qgO4kU105Ilaw5KKAXCndWrN6YFC1bFnwczlKpXr3o6+eQu6dJLj07t2jXcq+mHBG/Ll69L8+atjBc/b9myLarD5s9fGee/bNnaOM79CaUaNqyZzj67Z7r88r6pWbM62aWHDmO6ePGagxpK1ahROaqwrruuX+rRo0WqXr1S9h1JJYEVU5IkSVIpYsXURzGVjeBh6tTF6Y47Xk0rVlAd9dGvOQQU7do1Sm3b0nOpsDcU1UTTpy+JqWNUVrEdqqGqVq2YeVVKFSoU/rf8OXNWpClTFqW1azelNm3qR98mPkeAUrt21ejzNGHC/LRw4eq0adPWCHTYFtsfO3Zuqlu3Wux3+/adqV69ahE67dy5MwKkadOWpA0bNqdjjmkb0xGZkjd27LxYPnr07Mz2tsUUQj5PhRStoghwZsxYGtMUc6iYOuGEDumSS45KL700IT377NgIp6pXrxzH17JlvQjWODf2v2jR6jR37vLo6cRn6VfFuFFd9fbbM2O9449vn/r37xzTI0eOnBnHNW/eiqgU69mzZVSPcUxUOC1duja9/vrUzDhujb5exc+X6YVMLWQ9jqdixfKxjOCM81iyZG3q3Llp9O5iXN95Z1acF9vhujVsWCPCNUI2xprgkd5i3bs3j20ROFWqVCHOY+vWHZnxWRLb5lr169cp9ejRPI6f68iffJ6eYUce2Soqtfjctm07Ymzfe2/2rpBPhayY0qFCBD+k8EdJkiRJJV3//v1Tmzbd0jPPjM0u+eyitxRNvQkdCJ0mTFgQU9j2VBlEw3J6Q7E+TbZbtaof1Vb0aVqxYn2EJldddVw68cSOsS4BVOvWDdLRR7dNjRrVisCCoOLEEzukz3/+mJjKR5DTrVuLdNFFvdP8+auiOoswirDny1/uH2HQ5MmLUteuTdPnPnd06tKlabzXsmVhw/JOnZpEsEPgRZ8o9lu3bvUIxzgnjolG4AMGdI7QieMmvOHF+zNnLsvsb0uEXARp7K9Ll2aZ5UsjOGO7BAqESwRWBEZt2jTInE/NGBOmPHJ+uSbxbJeqIsKnWrWqxnuFAVSlCLgYc/ZHiHPyyZ1Tx45NMufTJM6LKi8CI8aFYy1+vuyDbROCEQYxtiwjeCKgmzNneUzJPPXUbnFub701PdWrVyPz967ppJM6ZcawWWYs6mU+2zKm+61ZsynVrl0lcy36pr5928WxEHhxPH36tIlAjMCM7fP3hg1rxf1CgMW1JEDr1atV5tr1iXWaN68b14NjYty4lpyLCnEPMFaPP/5wmjJlSnZp/vE7sUmTJum+++7LLlFpYzAlSZIklSIGUx+gCofQhqqesmXLpkmTFqbJkxdm3/0wmoJfcUXfqJ4ZPnxy+u//fiwNHTo6NW9eJypuqA6iSqZv37aZdRpERc2f/vRq+sc/3orgiHCF6YAEKFRD8Xcqb6iqIUgilBkzZm5UKBFMESARNBHivPvu7KiC6tGjZQQ79MC6++7Xo0KoVat60SPrkUdGxbQ7KrkIQ6j8uvfeEVER1K9fxwhNHnxwZHx2zJg5EZSxPSqFJk5cEFVEewqmCN443qOOapM5/vXpgQdGpttvfzmOi2lz7747K73wwvg0bNiUNHv2stSzZ6sYr3Hj5qf3358b50J11W23PZ8efXRUZrtLM39flV57bWp67rlx6a23ZkQFFcdDUMc0R8a1+PmyDuESx/Pb3764a1mnTo1TjRpV0ttvz4j3mTJI1dt7782JRvMnnNAxzuXOO4fFVE2uFYEi5051GudGIPXkk6PTXXcNS6++OjlCFAK1CRMWpvHj50UQRUD35z8PT/fc82YaPXpOjNU115wQ/cc4xrvuGp5mzVqWjjnmiDgOgk7OW4UMpnSo2GNKkiRJUqm0ffv2qLIhxKhYsVxMqdsdwp1u3QoDj3XrNn3oKXoTJy6MIIWwhKCCQIbwiSCEqXJMfWOaH5+jSqd69YrZT+47QiqmjxEaEcgwzYx9U8XDvglciiOQorn5qlUb4zg4Ho6L4Gzp0jUxvY1j/iRUVDFdkKmBhC/Ijcv3vnde+vOfv5z+9Kcvpf/4j/Mi6KGqifPdHaa9HX98h/TLX16R/va369NvfvOF6N/EdEOmLLJdFD9fAjvCuOLLmKrItSMALIrtUMXVunW9dP75BekXv7g83XHHoKjEItCjqoqwhDCM6YFcS4IkrlXhWO3IvF9xt+dBGNixY+OoAisM8Aoro6icY8oiXW8I5PZ0T0k6eAymJEmSJJVKuX5DTOmieobqKQKH4kENVTuEEwQdhBhFG5ZTccPf+Qzvsy7T23LT9tgHf1ItlXkrKrP2F/tavLiwBxXHQcjEvtkm+y4ezIDAjWOjF1PR4yH0IXjZmwbp4HMEQUuXrtsVsjGl74ILekeV1iuvTEx//vOwqDoiMOP4GIviCIOYbnjOOT2jGuvRR99Nf//762nYsMkRfHEOuc8VP1/GsPCct2XHtHAZoRnnuJvdRQ8opjPSM4uqpt///sV0yy1PpptvHhr7JthjG/Sk4rwYT8aKfmFsl7Hd3XkwbowBx5u7vuCzjBNYZ29CP0kHxn9lkiRJkko1pp8RSuSaXBNmFEXYQFNywibeK1oFQ68lKoCo3Fm5ckMEFPQlIkDZW+QehBhU3/An1Vdsl2qeomETx0GgRGCyt6jeIighPKKKie3x9D6qk9gf4dDebI91CLIIbPiTcaAiiB5QbINpdMOHT4lqKo5zT9gn1V00I6dxOtMiR46csdspb/tzvkURXFEJRbDFOIwfPz+msPJ64YXx0TCda8rmOS8are8twkemMRJKMZ40TQdVa5wfzwgjEOP4JR1aBlOSJEmSSjV6LBFa8AQ9mpsfffQR8UQ8XlT30BOK3k/0oCIsIYzJvU8fIsIkwq1cpdC+IDQhFCPQonF2QUGr6HlFc2+quAofhL531q/fEiFU5coVU/v2jePYCUYWLFgZlTucF028+/fvFH2kOBd6ahWtANtbhDlULhG+UDlEqJcbL6YW5gI1pktyTDQM79y5SUyt42fOmQCOZun0e6LHFg3RDyaOjycaMr2O/Z5+ercPXVeCur3BNVq/flP8TC8q+kfRj4spnUzjI4iiET3b5bpxLtwvjLvNz6VDz2BKkiRJUqlGlc/TT7+fXnhhQlQB/fjHF6fbbrsyXj/4wcAINAhfmA42ZcriaEqee5/G5zT45j1QecPT2opWDfEzfZCopMpN+cqh6oZ+T4QcBEbs71vfOiv17t0mjovpbXymsFqpcNpgDiEYFTubNm2Jn2fNWhqf4UlzPNHv+98/L3M+daKpOsvps/S//3tp+sY3zoh+WTyB8Mknx0TwgsKqqO0RZrGfXKUSf/J3lvM+fyeQYrs0MCeU+vrXT0vf+c45EcxQpUQVFcfNn4Q3TZvWyaxzerrssr4RktGAnSflcb5f/nK/eMLhvHmr4lgKj+Oj58s4sowxzikcW5bxucKpmfzMuLAeVVwvvjg+wsMvfvHEItf1vHTcce3iGAu3yXTBwmvDdjhPtrtt27ao5qJRPetceukx6dvfPjudd96R8f5DD70T98a//Mupsd3rrx8Q+6VBPE8mlHToEYPv238SkCRJkpQ3Q4YMSQMGXJYGD74nu0SgRxPTsKjioadQrq3Q1q07olqGgIV+Q1T7MB2tXLlcRdDOqP5Zt64wQKLRONVChdVLm2NbTHujtxIhSq1aVdMpp3RJ557bKw0d+l56/vnxEXwwPZCAg/0SjLAu4QzbZLoZ1VMcH+FIYeizM7ZL5Q5/MlWNMIa/16xZOCWQbfBZtkEVFccO9kGAQzUP7+cQGFHtxHqEUJwDAQ3bogk473GevMe2Oc/CBuKVo9qMXIflfEUknGH7nAOf5al5rF8YpG2Nn3NTFTkXxpFAivcYT6bGFT9fzo1t8TM9oXLLcufF0/Fq1KgU40gIyDrIXTPGKYfzp7cYx8NUTDAW/J1xYBvcC5wD58u1zzVmZ78cI5VgHD/XrkKF8pmfCQsLK7Vy14N1VYinGt59941p0KArM/f+0OzS/ON3YkFBQRo4cGB2iUobgylJkiSpFDGYyi8qlc48s0c67bSu6ZFHRqVXX5202/5K0uHGYEqHilP5JEmSJOkTUFlE/6izzuoR0/+oPCKQohpIkrT/DKYkSZIk6RMwla516wbR4JzpYPSlomG6zbEl6cAYTEmSJEnSJ1i6dE16+OF30re+dX/6l3/5W/rVr56LhuSSpANjMCVJkiRJkqS8sPm5JEmSVIrQ6Pemm76R3n13dnaJJB1ay5atTTNnLk1f//rp6aqrPm/zcx1UBlOSJElSKcKXsEGDvpZefnlidokkHVorV66PZv/f/e456eqrLzOY0kFlMCVJkiSVInwJGzDgsjR48D3ZJZJ06DVoUCPdffeNadCgKw2mdFDZY0qSJEmSJEl5YTAlSZIkSZKkvDCYkiRJkiRJUl7YY0qSJEkqReincvXVX0mPP/5udokkHVpr1mxMK1duSD/60QXpC1+w+bkOLoMpSZIkqRThS9jXv/7tNG3a4uwSSTq0Fi9enSZOXJhuuGFAuvLKSw2mdFAZTEmSJEmlCF/CfCqfpE+bT+XToWKPKUmSJEmSJOWFwZQkSZIkSZLywmBKkiRJkiRJeWEwJUmSJEk66KpUqZBatqyXunVrHv2JKlQol31HB1v58uVShw6NU0FBq9SrV8t0xBENU7161VOPHi1Snz5tUufOTVP9+jV2rcerbt1q2U9L+WUwJUmSJH3GlS1bNkKE6tUrZV6Vs69KqWrVSvFFtkwZnpl0YNgG26patWKqVKl8Klcuv19FOKWKFcvHOX5wzkVflTJjUjHvx7m3ypcvmypXrhDXsSQcM9e7WbO66corj00/+MHAdOKJHVPDhjVTtWp7Hm/ui7JlD/xeO9Q4xsJ7p2L8WRKOuUaNSulrXzst3XrrZem//uuiGPfevVun733vvHTbbVemb33rrHTcce1inG+8cUD61389LR1zTNv4ty/lm0/lkyRJkkqRQ/FUvnbtGqUrrjg2de/efFdVy/btO9KyZWvTffeNSKNHz0mrVm2I5furdu2qqWfPFulznzs6vf/+3PTKK5PSlCmLsu9++ggVzjmnVzrllC6pceNa2aUf2LJlW5o8eWF68MGRacKEBWnr1u3Zd0qmo48+IvXv3ynCtEcfHZX3Y6Yap2/fdunii/vE/TN16qLUsWOTdOyx7SJAK27Tpq3p5ZcnpqeeGpPmzl2RXVoyNW1aOx13XPu4d156aWIaNmxyWrx4dfbd/KhTp2r68Y8vThs2bE6vvjo5vfXW9BjTWrWqpC9/uX+qWbNyLH/uuXHphBM6pHPP7ZVmz16Whg4dnaZNW5zdysfzqXw6VPhfnSGFP0qSJEkq6fr375/atOmWnnlmbHbJgWGqD19SCY3eeWdm5svrpPTGG9PSyJEz07vvzo4vratXb4yg6kDs2LEzbdy4NS1YsDJNmrQoLVq0Om3evDX77qdv586dmS/xW9KsWUvTmDFzI4Rr165hmjdvZXrhhXHxJZ7lc+Ysj/Uyq5dohFCLF6+J6zVnzoq8H3Pz5nVjSlnLlvUjcCKEnDdvRebPxWn8+HkRoFEpNWbMnPTYY+9l7r1Zady4eXFflPQQcPv2nWnt2o0R7EyevCgtX74ubduW32OmUm7AgC7xb3Xs2Hlp6tTFMY5r125Kffq0jvEm8Js4cUGEzN26NcuMf5W0cuW6NHPmsuxWPh7Vbhdd1Cc9/vjDmes4Jbs0//id2KRJk3Tfffdll6i0sW5PkiRJOsy0aFE3qiJOPLFDqlOn2h6nGrEeFSxdujRNM2YsTc888356+un307PPjk3PPz8uDR8+OS1YsCqqhw4U21i4cFV67bWp8eV49eoDq8Aqjqqvfv06pvbtG8WUwU+ybduOzDkvyZzjlDjft9+eEV/YCRs4xhdeGB9BHaEDodq+InSht9Jpp3WNKWyH2pIlayLkGTVq1n4f8+5w7JwD58I57S36GTVrVidz3bdG+Me1Hz9+fnrxxfGZ14QI0AgDWcb4s5z7Yv36zdkt7D3ub+5zpqoxfY3eSocSVUn8e+He4R7auHFL9p0DQ7UiQTH/dlu3rp9denBxX3B/zJ+/MlWsWC5+B0j5ZsWUJEmSVIrsTcXUkUe2Sqef3i21b984KlWoothdUHHUUW3Ssce2jy+oTz45Jr333uyoaiquUqUKqUmT2umIIxpkvsjWi8ChYcPCRsqbN2+Lfk2tWtVPjRrVimlOfNmlYob1mDJHCMT+CQ+oSqK6g88yva9Vq3rxHhUn/FmjRuVYh/fYNn9nnwQkH2y3bqpfv3psg6oglp91Vo/MOXePfVANtWNHYYUXU5kYB9bhc40b14y+UkxzKloFxvnRc2fp0rW7qkoICtge5127drXMOrViOzVqVIkx5VjatMmNSe2YEkhvJapTOnZsHFMFTz21a1SuMEb0fmK/hGicd/Pm9WK8CHEYI8aA8y5+vk2b1omwhXFr3Zr9FS7j2FA4ZatqZt06sS32x6tevRpxXTjGosfHe1xTwg/2w3ViP7w4R/omcbxsiylrl1/eN6ZxcfyMK9eJz3MeNDfPfY7pe1wzzqVr12ZxHxLiEHYWDZzYPtNGOZ6ZM5dmxnth9p0U2+M+4vryM9eF4In7IDfeHC/jVq1a5cwxlYlKHqYyXnhh7xh3rhuf4VgI0/gc15Drz2e5J3Lnwfnn9sl7jD3nwv44Zz5bdBljzTg0aFAzjoXeXoSu7I9rVPReq1evWqzLGHDP5M6HfXFd2F/u3xGvtm0bpvPPL0jHH98+1axZNbZb+Pktse0PrmWdeOX+bXGeuYop1p02bUkETzkEdowRFVNUeKFJkzqxPfZLZeTeVERaMaVDxR5TkiRJUimyNz2m+vXrFIEIX5b/8pfhMVVnd1ON+BJ88sldouLjT396JaqF+KJbHF/qBw4siLCL5skgaKBfzWOPvZuWLVuXvvGNM+LLMuEEIQl9hAgIXn99anr44XeiXxPhwaBB/aI6iWlbfLk/44xu6W9/ez164qxYsT7CDLZFVcef/vRqImxhqiGBDUEJX8AJNqgQeuGFCemNN6ZGHyNCJdbZsmV7WrNmQ7r//hHRZ4mnk1111XERKjAeBAtM0WNcCO0IacB+aQhNBc9DD70TgQnnwnavueaECKzYPgEBU9FuvnlobJfxI0QhINu+fXv6xz/eivPo1avVrmtAwECFDeM1dOh76fvfPy917UoFUqUIRwjB7rprWJxLQUHrj5wv4QHT9N57b1ZmDNtGvyCWETQ88sio9OSTo9NRRx2RzjmnZ4QVf//765nxnZ8Z2+4R2HXu3CSmn23dui16Zj3//PgIzwYNOimzrSpx/AQ4hE3cJ1SLUQ1EuMQ2GzWqGffFmjUbo9rplVcmZq5BhXTDDQQCteM6M45Mw7v99pejcuvUU7vEZ2fNWp5uu+25+GwOAQdhF1P9XnppQub+GJV9J6VvfvPMuGYEaNx3BCb//OdbmXfKpL5928YxgffffXdW9Hdiuhp9lLj/CHLWrdsU4/2HP7wc12vAgM5x7zFmBFlMc+M6ca25Rqec0jXOgeOqVatyXBPGj8CWe5SAiWVMkWObnAv9pc4778j0xBOjI3jjOE86qVM0HSf4IrCi2pCxvPfeEXHcnDNhHPcKx8q9wbESMhOGUpnG/Za7Dvx7fPrpsfFvjP2dfXbP1KlTkziWChXKxpRb+om9+ea0uL/pMUUVGtvj31MOY0oAx7/Fxx9/L5bt7e+IouwxpUPFiilJkiSpFNmbiikqYXJf7nONy/kyW9yxx7aNyh2mWTGdak9VE5deenR8Iabv1M03Px5BU646hACKL/FMCaSag4oMvujee++b8UWXipOtW3dEWEPYQvBCNQfBEkEA1VEERSyjWougg20RllHJQXDSs2fLCIloxP6Xv7wWwRBBCuc4evTs6FvE+bGfxx9/N/3+9y+lUaNmR1XOgAGd0ty5K9NPfzo0wiq226VLszjvkSNnRLUJ2G/xiinCG6pfaOLNE+MYc0IWwhDe51yZ8kg4ROhEiME5EnwQDBB2EEL86lfPZ8OieRGiUJlGk28+R9iRq5qaOnVJfL74+dLniuOgcuehh0buWkbIwecIKPi5Q4fCaiECNxqNU3kza9ayCPgeeODtOE/OnXPh2nTu3DSqZphGxzb5k/CGzzJFjWCP8SCQeOaZcRGeEUxxTa666ti4Xn/4wyvpjjtejbGgT1n79g3j/Lk/6C9FwEdQRWCY83EVU1T3MLWUyp+//e219Ne/vpYZrzlp0qSF6fXXp0RIw/23cuWG2Afj+9RT72eOc01UkDHG3H///Ofbmeu+PPpacd/S5JsXASn3JMERPc4Yvz592sT53n//WxFKbtq0LfXu3SrumwcffDuzbFScKwEf9zFjx7VmnBhrpiUSsp1wQvu4l3/5y2ejRxkBU6dOTeM+577juvLvhet1yy1Pxv1HYERAyXFStUgISChLgEgIRtN4KhsJhQknOTfuJcJg/k1SFUe4tWLFun2qmNrb3xFFsQ0rpnQo2GNKkiRJOgzwBfeCCwrSj398UfrCF45PBQWt4svy179+evrhDwdmK3tqZNcuRNUTYRQhD1/yiz86npCC6Vp8gaVihi/gfLnlRRi1Zs2mzBfp2pkvhbXis3z5Zh0Cpdmzl0foQvBDFQoVHfuLIIAv3lRaEQTwIpihOojtMlWKwIf9r1y5PipVCE8IXZi2l1uf4ybg4M/c1K3dPSGuOKZ9EfBwbnzhJ6zhSzy9gK699sT0L/9yarruun5RFcN0LcIhpvpxTFRLEcJRTUSlDWEXFVFf/nK/+BxPKWQKV9FjKX6+hBZsgwDi7bdn7lrG9giNmNZX9Dy4boRObJepeFR2XX99/13hIfcK48Y5sE2uE4HO9OmERAsitOGe4N7gPAiV6AnGOXCdCTUaN64dFT30j2I8p09fEhVIVMsRtDH+TKnkviE82heMG9t7660Zcd04zzZt6qeLLz4qxowXFURt2zaKe5oKJdbZtGlLnA/Xh6fkUR1HAHnuuT3TTTednG68cUA6//wj457m+hcGW4XTSDmX6dMX7zongqi5c1m2JJbx4twJpDi3ogi6CAUZc8JAxpoxp0qL68p4cU3YF6ETIRj3E4EQf7Jdpu7xHsES9zGVTwTG/EwARSjEcdEknmowgmTuAf4NcB5SaWYwJUmSJB0G+HLNl3O+kFP9wBdrXlRWEGqsX78pMdWsKIIlqoz4YktgwTSoopjmwzQmvhQzVWvdug/6BFE5QrBF9Q0hBuuyf75Q8yehB2EG08fYLmHN/iLc4TzYNj9zXhwLfZCovikeqIGwgilv4Dhy1SCEHowPQQHHzZ8fh1CFcycE4BjAORP4UIlChROBDdUshAhMFSPY2R3GuX//ThEQgc8RRnBOhedBp5WPni/BEIHF+vVbMut/sIwXnyNkKnoebIfjAvcDQQZPG6RS54kneALezF3XiOtIkMP2uVa5fmRsr/j9AIIQKpNy4VtuKiQhEGPAlDvCQCpxcqFn7rz2FttlvBkbjiUXsNGAnSon7mfWYftUJbEP9lcUx04VHOEhDcU5XsaC8+WYmabHZ7m+jOuSJWvj3mCbjAX7Wb2asLOwFxnXlmCJa1/8nim81+hbtTPGkuuaa47OVD8q5BhbQrrceLMt9sfT/fi5cuXy2a19GOeVu5ZcM14cDwFpYZXTjgP6tyWVBAZTkiRJ0mGAL7wvvTQx/fa3L0YfGSpfmLZ0zz1vxHQrqk+Y/lQUX6CpMOKLLz2W6DVU9EsuX5j5IkzoQNhCtU8OYQj9j/iSn/vSzpf43NS4vUGWQKjEl32CBKp+2C5hS9GggS/0hGC5cGlvsD4BA4oGFwQrTJ0ipOO4+ZL/SVhn7drNMQ7gOM8+u0dUK9G359e/Lpyqx7Q0poHtCUEJPZ8410cffTdzrV6IqYcEOrlm7dif8y2Ka0HlEOENIRTTv/7f/3s2Xtwf9JhatGhNrMd+2N/eIrAhUCEIJbDMhTRcs6LN2HPHzz21r8EU14XP51D5xxREqsj++MdXYjrla69NieBqT7hfeUIj9zXXhF5MnPuzz45LS5as3jW2jAFBH/dK0emG+4JjZbw5Hp6KyFTS3HjTu43xZky4xlT3FT23T1J4LQvXZ7x5MZ7ce7nQb1+uXw7jw2f598u5sx8pXwymJEmSpMMMX1T5Ilz4ZZgvnLv/0knvHxpq48wzu0dzafr+8IW3MHQomyZNKpwGRxjDlCTe48W0Nb4cExZQjbM3AU9RfBHm2KhcyT1hju2zXX7elzCD7fAifKIKhmNnOh9BEQEKAQVVLRx3mzYNowKHKiqmoBGC7Cv2Q8BFCMd5MA5M5eJJbB9MqcsdU4pAj/UJ8ngRNBDocN5MR2PMd1f1tb+ogqOXEMfWvXuL6J2Vu25UM+1thU3uGvEnwRPnsGrVxpjSSMhJc/JcQMJ0ziOPbJm2bNkaU9B4nwCO0JNzLZIz7rPc0/cIxAjbGE+m6BWdwsb9x7GyL8aYz3AfcQxM8SN0oqqJ61S3buETHQ8WpuMx5Q+9e7fO7LdqdrwrxZjtS0UT58G9z32Uqzxj6iYBElWNTBfkvGnYzhRbmtozJvuKAJjj4kEBVF/t679f6WAymJIkSZIOMzytjKqN3/3uxQiVPu5L58svT4ym1oRY118/IPO5a9I999yY/vSnL6XvfOec+AJLxQdTk3iCHu/xYmoVPYV4b38sXLg6ehtRLcTTAX/5yyvSz352aTxBjWBjX74oM0WLqV/VqhU+ae43v7k6+m2xj9demxpTwG6//do4bp6MxlSq++57a1dF1b5irGheTrhxww0D0h/+8MU0ePDpEYBQUQQqrOglVLt2tfS9752Xbr31sniiHk3SW7Sok370owvSr351Vbroot4xNa1oxdSB4hh4ct4LL4yPMIansuWu2y9+cVmM8d4gXJozZ1kEQhde2Duuz/XX94vzppk6wc8PfjAwtvvd754bIQoNxGk6zjTE+fNXRYhE3y1Clv311lvT4v7jnsudBwENoSLBI6ENPbK4l2hk/oMfnB991TgGGrHTgPy///ui9Mc/fjGdeGKHtHNnYZXTwcR0Pf4t0W/qt78t/Df0t7/dkG6++ZIY7w8Cyz3jXDhe+mZ95SunZK7V5VFhN2LEtPTqq5Ni25zHnXdeFz3NCIW5xvx731c00ic84z6V8o3c2po9SZIkqZTg0egDBlyWBg++J7vkwBEw0GCZCo/clDe+JNPDhibnVE5RDdSsWe2onAHTnwge5s9fEcFA7olwTA/kRdUH2yWUKKze2hJhwqBB/aKpN8EODdJpRM0T6Fifihe2S+BA1Q/BDhUnVBSxj1zlCMtoXs1yGkIvX74+tkEVDc23OXaqWAhWqJ6isodKKk6NzzPtkW1TuUQ1EDhWKquYukglFcEF50qPrdatG8Q5EYARZuXOjQoWKoIYM4I0Pst7Cxbw1MG1UdnCUwcJJfgcU72obsktA5U8TAMj7OH8mNZY/HzZDst4j+vBGLGMJuOcH2EG79GYmwohGnUzRZMG5c2b19nVowgcB2NGfzHGBYQ+HPvuzpfjyl0jxip3fcF4sX/2yfkzZhwL50gFVf/+ndM55/SMpxkSyDEu4H7iviC0Y1odFXc5HTsWPulx6dJ1u9bnehe//zj+nTuZGrc1zodr2aED1We1Y/u5Y2GcqOriODl+pptyn9HbqfB6lY0n4XHNCbK4HYqPARWIbIfx4l6jyohjpOKNYyQAJVhk/Ivea+yP46IiiX8DNELnT/7OvsH6hIf8nX8PXGfGhn+LHCvbJ1xu2LDWR64lQVyuFxdVWj/+8cVxDow3T4XMIZik4T3TTnmCIZWJX/rSiXHNCJZ5yuTeYBzvvvvGzL/hK9PQoUOzS/OP34kFBQVp4MCB2SUqbQymJEmSpFLkUARTnwaCDaaUffGLJ6bhwydHrx+CFx2eCILo7/T5zx8TQeE//vFWGjNm7n5NndQnywVTVA2OH78gvf329AjAevVqlc46q3uiz9bzz49LL744IV166dFxbajyIiAm4NobBlM6VJzKJ0mSJOmQ4gstzaupDqFKgwoTejzp8EXFEn2XaFJO5V2FCuV3VTvp4KPCcMqUhVGt1rBhjdS+feP4d1dQ0Cqq8qi6Ygor1X1UY1FNlptKK+WbFVOSJElSKVIaK6bOO69XuvzyY2OaElPseFrZ++/Pzb4rqTSwYkqHihVTkiRJkg4pmkJ/85v3pS984Y/pe997IE2evDD7jiTps85gSpIkSdIhRQNonrRHo2YaSm/evC37jiTps85gSpIkSdKngifH8cj/M8/sEU/x06HBE+NOPbVrvHi6nCSVZAZTkiRJkvYaj9en1wyP9W/evG6EIMWVK1c2HoHfpUvTXY++r1ChXGrUqFY6//yCdNppXVP37s1T+/aN0tFHH7HbV+/erVPTprV3u/2ShsCtadM6qUePFiXimGkyfswxR2TG+sgYR56Q92nI3RudOzdNrVvX3+N+y5cvF/dPmzYNUq1aVbJLJX1Wlcu8hhT+KEmSJKmk69+/f+YLfbf0zDNjs0s+XYQuJ5/cJX3+831TvXrVY3remjUbs+8WIpAgnPj618+IoGLFinXxZLA+fVqnE07okF5/fUpM56Ny6stf7p9OP71bNEg/55yemZ+7x/ZZb+PGLWnJkjUf2X5J07BhzQjbrrnmhHjqIE8/y+cx79yZ0tq1m1LXrs1SlSoV4ngYx0OtcuXy6cQTO6bLL++bmjWrkxYvXp2WLVuXffcDhFHf/e65EUyuWrUxzZ+/MvuOSjL+XV90UZ/0+OMPpylTpmSX5h+/E5s0aZLuu+++7BKVNlZMSZIkSTrkqlevnI44olHasmVr5kvtovT88+Pi6XxXXnl7vJ5++v301lvT0x/+8HK66qo/pC9/+c/p0UffTQsXrs5uoeRaunRNHCsN3h97LP/HvHXr9jRu3Py0ePGaqFyjsu3TsGnTtmh0/+MfP5buvHNYmjFjafYdSdozgylJkiTpMMMUuksvPSZddtkxqXHjWjG1Lt9q1Kic2rVrmNav35J5bY6G6MuXr4uKK17r1m1KGzZsSStXro+/L1iwMqqOtm3bnt3CvmEMLrqod1RlHWrbtu2IY6WxO5VK+3vMu8Pxcx6cz97auXNn2rx5a5o7d0UqW7ZMatGibtwD3AuXXHJUOvvsnockrGK/XFuCOq7jli02uZf0ycpkXjsLf5QkSZJU0g0ZMiQNGHBZGjz4nuySj+rXr1M0viaU+MtfhqeZM5ftMSyhCTlTvqisAdU2s2YtS1OmLEwrVqxPtWpV3dU7id5FBBz0U2rbtmEaOXJGGjr0vZgm1rt3m9S8eZ1UpUrFVL582VS7dtV01FFHpHfemZmGDZsc04CYtjdjxpL0t7+9HlVTRX3zm2fGlLjXX5+aHn/8vVhGoNKqVf3YFsdVOC1wfZowYUHauHFzOuaYtnF8nCdT6DiOSZMWxhTDU07pEse9adPW2D+h0ejRs1PdutX3eL6ESpwHPbGqVuVVMXpjsW3CMs6/fv0au5ZNn74kTZu2OHMsW9MRRzSIMeHvs2cvT2XKlEmdOzfJLG+4a32Ob+zYefFnly7NUuPGNVPlyhV39eDiM7zH8axatSH6QxEi8T774rOcA6EeY8P+GG8w7ZF1GFfOA2ec0T3uBcKiO+54NYJBAsu1azdGhRpjncP1ZXuM56hRsyI0JFhq1Khm6tOnTZzj++/P+djxY1oefaPYzurVG9LUqYsyf26MaZ3t2jWKcHLHjp1xf5x8cueoqHrqqcJKOZV8/Pu7++4b06BBV2b+3Q/NLs0/ficWFBSkgQMHZpeotLHHlCRJklSK7E2PKRpPE4gQdIwePSdCDgKB3aES5/jjO6ROnZpE2FFQ0DqCIAIgQpJevVpFxU6vXi2jeTnr8CK0IZDgxfpXX31cfJYgqVmzursaWxPS0OOoTp1qERQRnIwfPz+OqajjjmsX4RVVPpMnF4ZWRx7ZKp19do80YEDn6FnENgmH6F1EHyXCJ0IPGqwTlrRpUz+CKPZFmMIT6dgmIRPhFQFds2a193i+vK688th04okdYntslxfHRnBDuELT7twyghbOjQCnf/9O6dJLj44QiOopjvfcc3vGOVCdRADIddmxY0eEZPTVOu20bpn3W8aYEeox1pwjzcEJn1iH4yQsolcULwIytk3gxHHmrgn7YbypVFq4cFWMH/vNjRkhEMdLaEd12pw5hZVqOaw3YECXCDS5BsuWrY0AiaDuC184Pq43FW2MF8fVpEntXeNHYMF7XFMa119wQUGM6aJFa2Lc6Ut00kkdIxjjPLlmBFxMNeRa22OqdLDHlA4VgylJkiSpFNlTMEUAUKlShajAadu2sGqF6iYqiKimIZhiqhWBTlGEGCNGTE8vvDA++j4RXhB8YNq0JRHU1KtXI3on/d//PZ2GD58SlTyEJXPmLI8w4phj2kUgQRUOvYVee21KBBOEKnPmLIugg2Pr2LFJHE/Rqp6c3QVTBDmEWYQvEycuSDffPDS99NKEtGDBqqjEoRrrxRcnxHETjBAYcVz33PNmVIgRrIwbNy/98IcPp7ffnhFVPB93vgRmxx7bLgItPkeV0UMPvRMBD4EU41F0GcEM4R3TDgmtCJ84N57SRzDG36lYe+CBtyN84fj69m0X2ykMDxtkjmlT+uMfX86s91pas2ZTBDeMHef2/vtzo4qMAOmBB0amP/95eIRaF1/cJ4KkYcOmpJ/85PH0xBOj4xx40iEBEufHdS4aUI4axfbmpVdfnZTefHPah0IpMB2Rz3bu3CxCMQJFtkngxnmyD657167No3/VD37wUCzjM1R/UUXHZwipGAsCMoInQrdzz+2V3n13dub4X0tPPTUms7cyqWfPFjF2EycuNJgqJQymdKjYY0qSJEk6DBAiXHvtiemuuwalf/u3s+Kpdscf3z797GefS7fffm268MKC6DFUHFOqfv7zy9M999wYL6Z6EWoxhYtgg2CB6hkqg0B10MiRM9OSJWvT9u07o6k561MpROhE4++VKzfEOgRIPH3vQPA0v/nzV6Q335z6oW0Rev30p5ekv/71+jjur3711Kj+qlOncGrfnuzpfDmPHAIspuRRZUSFEwEKIUvxZQQ+BEcEZ0XlwhmCqf/4j/PSHXd8Kf37v5+b+vZtm/lyXzHVrl0lpu4RABHcEfQwJY6wiKfY8V6tWpU/ch4s79atWVxrPls0XCK4Y7yZYkcARii3LwgYC4PG9al371apbt1qMW2Rc6OSjPepROP6z527PPuplMaOnRtVcxxbzZofPmamIFIlRUjGtpcv5z5aE6HgzJlLY3qgJBlMSZIkSYcBwgOqYW6//eX05JOjIySaPHlhuu++EVHlQ1BUfPocU+SOO659VLf8+tcvxGvEiGmxHtPJmAJG4EA1DS8QMlCBRUUSFVgEERUrlouKLIIjltNPqXCdHbE+1VGEW7xHAMS29xZBCNVRBGEEQujZs2U688zu0V/pr399LY772WfHRnhUtmzZVGYPudTHnW+5ch98iKl4VC+xb46f8+HY+XvRZeyHAKh4CESlGuNB+PL737+Ubrvt+ag2o7rp1lufTmPGzI0gjzFatWpjNCpnLAvHbntsl/MojiCscuUKMX5snzArh7Hn7+yba1bYTnjvFfbAWpvee292XCOm21HhxrlxvGyfY+I4P7rfbXHM7Lso1uceAueWu4/Wr2dsC+8fSTKYkiRJkg4DBB1UzTDVjb5STFlj2hfByyuvTIpKH6a7FUX4QEUMlTcvvjg+po8RcBF6EMDwMz2bqPBhyhsIcBo0qBlTuAilCBzYN3+nIouKHaayUUlEdRDrE7ywDurVqxbv761cAJMLhMDUsvbtG0egRBjHOTIdjHDl43zc+RbF/jiv/UU1E+EXx7NoEVMHp8W0QSqFmObIteF8CGkIdfYW2yucxrghxpDqsBzGnh5ThF3smxCPdQiLii77OFRLvfvurLhejBWVZJs2bYtpjVSIrVixLrO9clE5lUPvLfpWUT3HvVI0bOJ4WUZQxmeooKJPFtP+ONZ9reqSdHjyN4EkSZJ0mCGE4Ol3PKWNMGpPlSkbNmyOgITQgCfc9evXMXocEWiwnFCFqiuah9MMnD5S9E5q375RVNVQwUNlEdVZhBAFBa2iyTVP46OHEOvkKn8IetgfTa9zVTT7i+CEbbEdmrKfeGLHmDaXe0IdOG8CJ0I0jpkeUVT17Ol8DyaCp6lTF8e50yic42Ps6NHEcexNxRjXjHMgVKK3D1MDmcbHMnpUEWrR24nt8mK8CXqYVsd0QM6d8+TcqABbsWJDBEjdujWP0IlpesWx7VmzlkflGdM4WZ9AiimMhJz0vFqzZkNMz8vtl3HkOuemIRYN+bhGNJwnQOT4WffYY9vHPcKxEXJJksGUJEmSdJghQKBR9l13DfvYSiKaZPM+/aj+538+F32aCHfoA8QULUIRGn0TOvAEuVtvvSz9539eEE9koxKG92n8TWN0mlsTAH3722enb37zzAhhCESolKKahul8BCo1avCUPCqpPvxVhP2xzaLTxAizCvezNRt4FIYeBGFUhRGQDRlyYeyPnwmEOCZyOI6ZQITgij5bgwb1i3P9uPMlDMqdF8FPTm4sik9hI8jhT9Yl8OJc+TuBIE3ZR46cEVMHv/vdc2Lsfvzji+I4qBzKbZM/cworjFi+NZZzrARN9Ky64oq+0a+KcWVaJk3WCQDZLi+aljPl7uWXJ8a2GF8qyzg/pkJWqlQugqHBg89IN910cuazbWK94hjzCRMWROjH+dBDKncP0dyexulUUuX2y1hyjLxHLzDGLzcuBFxU8FEpRt+rr3zllPT975+Xzj67Z6xTeG98fBWXpMMfE493/59PJEmSJJU4Q4YMSQMGXJYGD74nu2T/ET5QjUNQRPUTwQzhS+5PpoxR3VM4Pa9CTN3j60MutCFYIVwgNOJpePQ/IhDh87nKGdYhhGAbJ5zQPl155XFp2LDJ6bnnxkU1Vg5PouOzBBtsE0z7ylVBEWwRmhA6cUwcc2FF1gfHRMjB+0w5Y53cuYGgZNOmLalChfJ7PF+CNM6DbeaOm5/ZD2OVO9/cMs6X6i22zftsl/cJlqjOYv+82BcYEwIsjq9aNbZZLvP37Zlz2xjv57ZB5dPatYXVbOyHKZEs4xw5Rv5kbNh2riKNaXrsmxf7oxH81VcfH+EcT8J777052TGrFMeRC4aKy50b67Jebps57JNpnbmqL8Yuty3GkM9RYce1Yhl/5rZX+JnCe4PrVFj5tiWuuUo+AtK7774xDRp0ZRo6dGh2af7xO7GgoCANHDgwu0SljcGUJEmSVIoczGDq00TowrS5r371tAg/CEsIp3TwERzdcMOAqFJ6/fWpUc1EoCUdCIMpHSpO5ZMkSZJ0yFH9Q+NuAikagPOzDg0qquhxxXRCnrJnKCWpJDOYkiRJkvSpYMoW/YYefHBkPOlNhwZTDun7xYteVJJUkhlMSZIkSZIkKS8MpiRJkiRJkpQXBlOSJEmSDjt9+rRO1157YjwFsHHj2vHEPx18PP3vqquOS4MGnZTatWu062l9krS3/O0sSZIk6bDBE//q1KmWevduk7p0aZbq16+eWrasmy66qE/6wheOT9dee8JHXmef3SNClZKOcK1Jk9rptNO6pv79O6UWLepl38kf+obVqlUl9ejRIsLAihU/vWCqQ4fG6ayzeqTjj2+fKlUqn136YVxXxuqoo9pkl0gqaQymJEmSJB02CG9at66fjjiiYTyNjibrZcqkCE6OPvqIdPrp3dPllx+bvvCFE9IJJ3RIxxzTNgIsHoVf0hG6EQJ16tQktW/fONWpUzX7Tv7MmLE0jR8/P61fvyX17Nkyc3xVP7XqtIYNa8a141rvqVKLii7Cq5NO6phdIqmkMZiSJEmSDjN8Sa9SpWK8ypb9bP1ffs69bduGqVq1Smn58rVp0qSF6a23ZqQf/vCh9NWv/j3ddttz6Y03pkaY8u1v359uuumv6f/+7+n05pvTslvYN2XKlEkVKpRLVatWjD/5+6Gydev2OJ9f//qF9Kc/vZLef39u9p0DV7582VS5coV47es5LF26Ni1ZsiamTBIKMhYHsr299dprU9LPf/50+vvfX0/r12/OLpVU2hhMSZIkSYeZ3r1bp5tuOjl95SunxDQ2QoLPCsKh9u0bpcqVy6dly9alxYtXZ985NKha6tevU/r+9wemY49tFxVNpVG3bs0TPbmuv75/hHr7YvnydWn+/JVxn7Vt2yhVr175gLYn6bOF6Hpn4Y+SJEmSSrohQ4akAQMuS4MH35Nd8lEEJaee2jWmfv3lL8PTzJnL0rZt27PvfoBpUD16NE8NG9ZKmzdvTa1a1Uvz56+KShSmwZ1/fkFq1KhmTM3i72PGzElDh46Oz553Xq/UvHndCIIaN66VWadc2rJlW5ozZ3nauHFLTKHKLeNzI0ZMT/Pmrdj1WaZ91axZJe3cuTP6FA0bNjktWLAyeij16dMmjRo1K7333uy0YsX6mLJF6EO/II6Nc+HYu3dvHtvbvPmDfaxbtyn94AcDIwzhWJ96akysk8PUvTPP7J7q16+R/vM/H0orV26I5W3aNIheU/y9adPaEa5wPGyza9dmse8aNSqnHTt2pg0bNqc33piWli5dEwHMySd3iUqhefNWxvlTkbVgwaroucQ0M8Zox44daeHC1VGZNXr0nNgeY9+sWd24TnXrVotxpvJo5cr1mX1V2TX2LHv33dkxRm3a1I9paZwzyyZPXhjjc8opXSKQo0qOyqoZM5akZ58dF2PbrVuzdPTRbWNsWJeKJq7LkiVr09NPj4lpgUxr5DzLlSuTpkxZHGM/YsS0tHr1xujhVFDQelcfJ4Kod96ZmV5/fWpsn+VHHXVEuu66fnFMjz32blx/7h/86lfPxZQ/1mVcOU6Od+rUwv0wZlRWsZ+OHZtk7teladq0JXE/Hndcu8zxVooxWrt2U5o0aUF68skxmWuwJXMtj4jjWrZsbSyrW7d66tu3bdxbuWOl51W1apXjcz//+TOxTPuH6a53331jGjToysy/raHZpfnH78SCgoI0cODA7BKVNlZMSZIkSZ9RfNHki32/fh1Tx46No8KIsIVAhJCAAIEv/QQuhDKEQ7lG0zSePu649hEQERIsXLgqNWtWJ51wQvvo51R0GQFC585N4nN8nu2wPbbLNDBCoQEDOqeuXZtHYMQ2Cadq164WIQrhDg2sC3tHNYiKMEIUpm8RALEOy9g2AQ/hDCEGAdLeql27ahzX6ad3i6CNbXPuhGyEY5wLx8tymo4T5BAe8T6h3s6dKQIlQiRCPJYznoRbfG7HjhTjSdDCOOTGnr83alQrxoEpbwRdJ57YMY6BbbGsc+emEbg0b14nPnfkka1ijPmZbRFEsg74DMfCufCZdu0axvhxjQlsCKQ4HwIi9s0yZtpt2rQlQkJ6RXGuK1asi+CQcWXsCY4IpAjEuA5nnNE9gkGuI8sYFz5PEESINHfuigjSXnllUuZaFL4HArrt23fEcXH+3B8VK5aP8+U86J9FMMj9SLjaoEHNGE9enO+pp3aLEIzrxWe5T7hfmMLZq1fLuNdoeM99wTHVrFk1c65WbEklmcGUJEmSdBggjCEw4Is6oRFfzuvVqx5BR0FBq/gST7hQHNU8oKLlj398JT3++HtRbUQ4QphABcxbb02PwIMAiUbSue1QzUOI8ec/D0+//vXzafTo2dHTikCg6DICHKpyqGgZOPDICJwILaikuf32l9Pbb8+IsKdFi7pRoUMFTatW9SMgo4KKEIP3J05cEEFIp05NI5gYO3Ze5rPT09y5y6O/EaEEf3JcHMPGjVvjOPcWIRBP9ON8//rX19LDD4+K6p2pUxdlxmFWLKev06pVGyJkonqKv7/99swI9J59dmy65543opKIqW30g+Lc+ByVTazPsRP4cIyMPUHRO+/MyIzDS+mRR96JcWY54/aHP7wcy5iOyNhQZVW0yTfrUQF16qldYptcQyqZOF4CPqrDCKUIitgfPbcefHBk+v3vX0rPPPN+VJ4RBE2evCgqw6ZPX5ImTJgf+6UCifGgYTzh0KOPjkq/+92L6a67hkWVE/dYYXi4+wbsNJ2/99430/33j4jrQ3gFAsvCMV0cnyVsa9iwRvQFY5ucK6Ei1VKMMWN5553D4t4cPnxy3NNUjHF+ORwnUygJpqiu4t7i3rvjjlfTtGmLo4JMUsllMCVJkiQdBggoLrywd/rv/744XXPNCVGNQmXN4MFnpB/96IKYOlX0y3wOX9qpLiHgISShKoUQhJCrd+82aciQC9P//u+l6bzzjozwg4oYggCsWbMhQiRCGKpgCIMIVpiyV3QZ2G7LlvUS0/+ovKGaCOxz5MgZaeXKdVH9w2eYxkUFDVVRBGt8hkobQgaOge0QQvzrv56WfvrTz6ULLuidmjWrndlamVS1KqHZzjjG3HHuLYKa6dMXR2N0zoNAh6CKXkk//vFF6dZbP5++9a2zojKLUKVJk1rxFLri6LVEqMLx/e//fj7dcsvn05e/3D+qkwjWOJ/clDvGgWl327btiFCOSiVCLsKb3DLGkKoiQhmOKYdtMWWOa8+1Ziod1+uLXzwxjo+Akc8RiDGNjnFdt25zZptctxVp8eI1cX6ssztUn3HduF4EVgRGHNfIkTOjOozt7+lpeB+HcZ40aVFmDCrE1L3u3VtEbyruLe4djpeAkWNmf7n7avz4BWn27GVxbkWPmYCOgC1X6cb9zH3EPUhARngqqeQymJIkSZIOA3wJp0pp0KA70i9+8Uz0YqLa5HvfeyDdeONf0iOPjEqLFn20EfiWLduj99Dq1ZsiEMihcuWBB95O1113Z7ryytvj9eUv35VuueWpmFYFpmjlejQdLAQQL700PvbPFDcCBwISKmzozURQQyjy9NPv7zouXtdee0f66U+Hpvffn5fZxtoITWrU2LcpXJw/n81V91BldvHFR0Wl0oMPvpP+5V/+nr797X+k558fH6HJnhCm0ceKEI0n/jFuP/vZExHAFbWnsd9XBD0vvTQh/ehHj3xoTH70o4ejT1SujxeB15Yt+1ZFdihs2rQtvfLKxKjwYpod15gpmkx5pApud/eppMOXwZQkSZJ0GCCcYIoZ1SJUuDBlij5HBD003abahXWKI7QgFKEiCXyWbRBkUDlFA3OWEXyxnAqfXIjCZ3Kf+yRsL7cNgiZeoEqmV69Wiel9BEIcJ+ET08qoBGJ6V6VKFSKYKqyGWRnnRvUQwRG9mQq3uzJ6QrEfqmWoJqIqaV8xRrnzY1oYU8oYI6q1pkxZGEFSgwbVY2rcnnBuNJSnxxVBCwEM41R82lvxsd9XVD9NmbIoekYxHlRqMRa5F2PDWGV2E/uiAmtfAjBCR64958N1oC9VrlqNc2HbjBcBHJVVjAnHtLv7rCiOhWtJtR0VV/SIopqPceJcCNB4MWWU/dFDjPfpO5Wb7kmlXQ7bY7/cP0zpo3Iqh5+ZQiqp5DKYkiRJkg4zfOGnH8+rr06O6qJ9CT4IG8aMmRu9pfhSf8klfWJqINPDLr64T+rZs8WuvlT7grCC4IjeRoQ7NOdmm1dddVz0QqJKhp5MBBMEKPRJIpggFFm7dmNUGxFGTJiwIKZnVahQPl166dG7ju3znz8m+iERvBDGMYuPaXb0t9pfhCdMJWObTN+74opj0xlndIvAi2UEPlSPFe6vTDRE50l09MdiOcHWOef0TFdffVwcW26q4sHCeBA6Uh3H0/RoUs5YMPXwC184Ppqb079pb3CuhHr0pOI8aUbPsXIfEHiee+6RsU3eY5ro7NnL40mIhERcI6YnMr2O+43jIshiLJgCSjPz3U0XpPcUVWMEkCntjP5YXH+mGBLozZq1LHOftE2XXXZMjCHjS3BJFRhTHnM4TirsqKijr1ju3uLFVEemDEoqufhflCGFP0qSJEkq6fr375/atOmWnnlmbHbJRxEkUHHEK1cxsztUlxD+ECYQChEYUX3Cl362QahBrx8akFOdRGUMQQShBNPs2DbhAX2BQLNyQgKeyEY/o9wy9s8yGoUT9FBtQ5BBCEIowX5ffnliGjVqVuybUIngh+MjiCAoe/XVSbGM46ISjEorGqLnjq1OncIKHs6DMIptsz6BBZVDOZwDQQUVNoQuucobqoGoOuLcGDfepwcU/ZhoJM9+2B8BC9VbBCgEZJwPgQ4VQ/Xq1YhjJiyaOXNZVG3l+mqxDmNFiDV27Nw4NiqMio4914LP8GS8XEhHmMX58NQ89sv6TFNkyiFVXPRPYpss41oRijEe9L/iHFat2pg5j21RmcTxsi7nTGhGfykqomgqz7pUpnHNOVc+wziwj7Jly8Z4EjAR9nGNeNreG29Mi0CLqY6EVZw7Uwqp1qKZ+dFHt4lxYYzWrPloxR7XmWooQinOjXua681YcTwcJ+PH8TC2XHcCymefHRfBH8sYH+6tkSNnpWXLChvHs37LloXjwBhSTcf1INTU/uMeu+iiPunxxx9OU6ZMyS7NP34nNmnSJN13333ZJSpt6Jy397WckiRJkvJqyJAhacCAy9Lgwfdkl6goprMRSlx33UnxRZpA69FH30v7O11OH4/Aiyqyk0/uEiHXb37zwq4eZDq8EDLeffeNadCgK9PQoUOzS/OP34kFBQVp4MCB2SUqbZzKJ0mSJOmwUVixtTymdYH+VS1b1o3ASgdf796tY5oilWRvvDF1V+N4Sdpb/naWJEmSdNhg2iBT8Oi7xFMKH3xwZDRs377diSKHwowZS9JDD72T7rprWEzVZAqgJO0LgylJkiRJhx2e/kfVFGFJrneWDj76dzHG7703O/o50TtLkvaFwZQkSZIkSZLywmBKkiRJkkoZnj7Hk/V4ql0ZHm93kLAttsm22YckHWoGU5IkSZJUyvTt2y5997tnp+9855xUs2bl7NIDx7bYJttmH5J0qBGtOwlYkiRJKiV4NPqAAZelwYPvyS4peZo3r5vOOKNbOuKIhrutulm7dlN6552Z6e23Z6Tly9dll5ZMVA+dc07PVL9+jfTuu7PSW2/NyL6TP4zvuef2TJ07N02vvz41PfHE6AiR2rVrmBYuXJWGDh2dXXPfcb7nntsrHX98+zRx4oLMtsekefNWZN/dvZ49W6YTTuiQWrWql13yAXpOrV69Mb300oTY3po1G7PvlEyM7amndknVq1dOTz45Js2cuTT7jho0qJHuvvvGNGjQlZl7bGh2af7xO7GgoCANHDgwu0SljRVTkiRJkg4qnsxGU+z581dGKNGgQc3UqVPTVKVKxbRo0epoTM7ybdt2ZD9RchGs0NR7yZI1af36zdml+UUA1Lhx7RjDN9+cljZv3haBD2O+atWG7Fr7h22xTbbNPnYXNhW3YcOWGB+uN2N0xBENUps2DWJaIKHWokWrYvn27SX/enPv8hRHzmfz5q3ZpZIOJf7zxZDCHyVJkiSVdP3798986e+WnnlmbHbJR9WpUy01a1Yn1atXPW3atPWQB0Dly5dL7do1StWqVUrbt+9MK1euT5MnL0ojR85Ms2YtjeoTKqeomrn//reiUmru3BX7/cW/Vq0qqUmT2qlu3epp7dqNh/RJcIwdVTNU+yxZsja79MBVrlwhNW5cKzVsWDMCm61bt6e9fXAg1UyEPwR8zz8/Pp44yM+TJi1Mc+Ysz671yYpfty1btsW2CLk6dWoSFTKETuPHL4hKqhYt6qUaNSrHmHC8OStWrEsTJsxPo0bNiiCK9QjJuEcfeODteDoiQU/Rz+wLjoOxou8V1XaHEgHalCmLMuc8/6DtK9e3a0/jV1pwn1x0UZ/0+OMPZ8ZoSnZp/vE7sUmTJum+++7LLlFpYzAlSZIklSJ7E0wdc0zb+AJZUNAqzZixJKpf9hTeEBhRycSrUqUKqWLF8vEqX75sfKHesWNHBBgEKbl1eJUtWybe571GjWqmwYPPTC1b1kubNm1JK1duiICDfRIidexYGHIQ8EybtiTzxXx77Jdtsi+2x8/lyhXuk23zJZhluf3xHl/oK1Uqn4466og0cGBB6tOndZo0aVFsr/BYysbncp9h22wrF8x9sL3ymZ8/OBfOITcOuWVly5aNc0Dh8vKxD0Ik/iRoKLp+7vjAfnPnVnSdwmmNhePWqlX9dN55R6aTT+4SYQhhENvmeNkXIcwHn2PfKd5nP2ec0T0z5rUy13ZphD4oPKfC42C93LgWvgrf+2BbZWK9j7tuTZrUiuWMzahRM1Pr1vXT1VcfH9MFcxVkxTFmdepUTb16tcpsJ8XxzZ69LN5jO+y/cuXycQyMC8s43z1dN8Iy1jv99O7prLN6RNhK4Mnx82JdrkPuc2wXRa9RbhyK30vFrw04d86hSpXCY2AcWMb61apVzGyjcP3c8eWuN+NbuJ2P3lesx3F16NA4XXXVsfHn+vWbdv2bLDyPwmPJHWNu+4X7j12UCAZTOlTsMSVJkiSVInvTY6pfv07p1FO7xpfbv/xleJo5c1mEN7tz4okd0/nnHxnhEZgKRkhCBQ4VT8OGTYoeQoQhBF18SWdbL7wwIXouETxddlnf1LZtw/gSzxfu99+fG5UyVJ1Q6UIAQz8kKqYI1DZu3BL77d+/U3wRJ7SqXbtKVOa89db0tGXL1nTllcdFXyf2R3BDNdAvf/lMHMeZZ/ZI7ds3ii/1q1dviD5LY8bMicqsCy/sHYEE71HJM3z4lHTHHa/GuV13Xb+oECIIIGghOKCibPLkhWndus3pmGOO2LVs+PDJ6emn308LF65OX/rSSalZs9qZ45+Ynn12bJzzN75xZlQV8WW96PFx/hwjfYq2bt0RQQ6BA2Mza9by9Pzz49KyZWvjOAsKWsexUplDb6h//OOt+DzL+TzHAqqQXn55Ynr44XeiB9INNwyI/XI8jz46Kta59NKj4zoR/t199xvppJM6peOOaxcVWQQtjCXYD9uiqu3jrhs9o045pUuEI/fdNyIClYsv7pMZp03Rw4qxKY7jbdOmfrr22hPjcy+8MD69+uqkeI+wlEovwi6uP/cboSm9xghfdnfdqK5j7E86qWPmPqoZQRCVWNxHXLNu3ZrHfcT4gnN76KF3PnSNKlYsF5V13If8e6ACjPuWqkLuydyyRx4ZlV57bUocA+PC/XjXXcNjLLp2bZZuvHFAVDxxPxa/rxh7jqV27aox3rnzoMou10ftmmtOiHuO/fFvjNCOf5vcd7mx5vPg/RdfnBDnwTmVFPaY0qFixZQkSZJUiuxNxRRfgGk8zpdjKmr4oktQUFyXLs3SgAGdMl/aa8cXbUITqk1atqwbX9yZbge+NBPm0HuIoIGAgACCL+n0jFq1amMEJlOmLIzQ4JVXJkWlDAFEzZq7r5gi1Dn22HYxJY2Q4eWXJ6URI6alWbOWxZS52bOXx9QwvtzT94hAicBs3ryVcUxMiVqwYGW6994RaeTIGfE5jmXq1MXxd/ZD9Qr7zfVfIuDo0qVp5ri2xrkS0PB+ixZ145j4e24Z0yAJLNjugAGdY+og0xLXrt2czj+/ID7DWBAgsO3u3QuDicWL18TY9O3bNlWrVjnGghcBBFVIHPdrr01N9DKqUaNKTGd87rlxsR3Wodqoc+cmEXQ9+eToNGfOisyxVIsKKyqIGIvu3VvENWAdAg6wP8aIkOydd2bFebKM6hvugaefHhPHyXGXK1cufuZY93TdCJC4h7jGhH6EYxMnLoxrwhgTUBX3cRVTHFufPm1S27YNoofTo4++m95+e3psi95Uu7tuhI7Tpi2Oe5F7mZCIsGrcuHlxHxDaTJiwICq6uE7cx5wvIRtVSeec0yvOj/uYkIztcy8SHnHuXOvcMsKtwumGO9IJJ7SPII9glso0qtoIAh9+eFSEoIRLBHrc29wTvXu3Tj17tohgbtiwyRHaMlWPbbBdxo2wk4CMqZZMv2Tf/HsgRO7Ro3kcD6EgwSyVbFynzCnHOZcUVkzpULH5uSRJknQYIBQh6GG6FdU2fHEmWCBEueKKvlFNwxfpojp0aBRfgKngIQThCzNVI3PnroxggS/afGmnYoSwhWCFL/r161eP8IsAi8CA/kKEP4QoBBdUpDDda3dhWHF8YSeUIjggQKEahS/ABEEcG9O3+KJOUNG+feMIVKi04U+qugiHqPRh/5wfx0eowucbNqwRfxKKMF0MBFAEIQR77JNtcQxUtRRdRqDQtGnt+EwO0+to6k2FS7NmdWNfHGPTpnWiIocphnXrVot1CZE4JgKIF14Yl0aMmB7BB8dDgEPwRrDG2L/33uz0xhvTIgRiTAk+uA6EVU89NSbCF/bdo0eLqACiwong45P6FLGdpUvXRHDDteUaM2bVq1eKa7u3142wcv78VRGasN7+VvFkTjutX0/PqnnZUGhmjPuerhthHP2eCMW43tOnL0mvvDIxAjnOnaCnRYs6uz5HEMT1aN68TnaPKfpmsT7hH6ER4SXnQ2hWdBmfJYwsiuMi4CNQI/Ri27xyx0YglZs+yL8Xri9VTtxDr78+JQLh2rWrZd7bEeHf8uVr41wYQ17cY4SQVA1yD/O53L8D7hHud0I5rqN0ODOYkiRJkg4DfMnlyzLTwNq1axzhEV+0u3ZtHhUshCysUxTv86WYaV1UlfCFndCBwITKm3LlykTgwhS5evVqpA4dmsS2CEkIVqhaoYJnfxEIERKNHVsYLFHtQhB18smd08CBR8Y0rV69WkYYRFjFi/CmOM6LqWanndY1nXder5g2RohDYMSx5qZWgWoawhkCEQIYjoEAgYCo6DIwBa4otkNowrjxM6EdYRTHTNBB9QxVVqBnEyEElTCMEU3a6eFUsSLT6hj3wkCjKLbLORLeLF5MgLIzwg6qbBgfqq2o9iKUIazIhW17wnkQ6LANri3XmGtNsFX8Xvg0bNmyPY6FKiACwn25bjn8neXcF0yZPOOMHhEcEZ42aFA4fkXPjeos7mmqr7i23NeEbwR2RZfR/4vQryimAxKIEvoy9kce2SquN/2gqHbi+jKuYBvsJ/fviH1wzcuXLxPrFz8P7mNCLoKnXDCaw78JrhPnyb1CSCUdzrzDJUmSpMMAVR/33z8ifeMb96Tbb38pvfXWjJim9NOfPp6+851/RE8gQoGicpUxfPHNhRz8zJfm3BdpvmQTirz44vj04x8/mr7ylb/G62tf+3v63e9ejEqP/UXAQlCUOw6CAIIvwoaxY+elm29+PH3vew/G9C2+qNOIfXeYmkX/IqYmUgXzzW/el/7rvx6N6pPiU84IEAgk9gdVMYwHU93eeGNqjO2//Mvfdo3HzTcPjalnIIwqDLp2f8y7w7ZZndCp8BoUBhhUN7GM8SK0IPAgRCEw/DiFgdimXWHZvsjlKFwbArKD0ZqY42f8OSa2uy/XLYfxoLrq9NO7pZo1K6d//GNEjP3//M8TUWnEtSmKa80+90fu3An3+PfzrW/dv+t6c6y/+c0Lu46TcGlf98N0TPbBv7WiVVH8W+TvB3PspZLMYEqSJEn6jKKCB61a1YvmzVSNMA2KL/5M96KqhaCFQIGqJSqEDiUqXahM4Ys5gRX7pWKEaYRUreypcoQnpvHKNfHmC33uPKigOVhWrVofvYzogUVlD+NBT6WDhQqclSvXZc61SmrbtlGEMPTgon9VgwY1I1jMBV2EUlTbHCpsn/CLUHLu3OURmh1s+3PdCGyYYkc1GxVY9OVinBgv+kEdzEowqtbokcV9eNRR9MdqGFVMBwM9xuiVRdDIvzWqp3Joyk6z/UM59lJJYjAlSZIkHWboHUT1FE9T46lye/piS88gXkyb+upXT0s/+9ml6corj43+UXwZ58W0K55QR1XHFVccm2655fPx+s//PD+dfXbPCBD4ck1owvSqG244OZ4ax1PzqPTZF1QYcew0wu7Xr2P67nfPSddfPyDzRb3ZruACBGpUqjC16r/+68J0yildozqIkOKii3qnn/zk4vT5zx8TvYD2t1pmdxhHpuzdd9+bsX+eJPejH10Y48E++TtVQHuDPl5MKWR9nhb4ne+cnfm5VjR7X7p0XTzp7eabL0nf/OZZEYDRl4mqIipzuKZM6SPE219s5+OuG8EI15bqLK49U9gGDz4j3XjjyTF17mCgb9W4cfM/8bpRDUj4dNpp3dKQIRdGo/FFi9bE+X/hC8fH584+u0dMmeO8DhYqmuiD9dxzYyOQuummk9N///fFcb25N3kowN4EYQS83NNMKyQAZgz/9V9Pj95YPLWP69C/f+dd/7aY0kgASp8x/g1SqScdznwqnyRJklSK7M1T+Zi6lestRPPnPSFcIQDI/cm0J6o0aOjMl2GaTTOljml0LGc9pmHxM03Kc09GYxkVIARGLCc0oNKD5WyHL/hUn1B9xXERMFH5QthErx6+hLMOX8KZisX2N2zYHL2fFi1aFV/qmTI4adKC2C7Hyov1WIdm5RwrFUecO8v4efLkRdG/aurURRECgeMlXKKnFAg8GCeW5dYpXLY29pt7MiF/sj22S8BA2JAbr8LjWB/vsX1CMsaM82WbBFqcL+fG+zTjZv+sRz8pxo3G2DT6Zj8EdLzH9hkvmp8TYBDaMXZUj9EkvVatqrE+40h49MExL49jLjyGJRF88PQ/cG4cQ+7Yil83+osRSJ10UqeoZGJ6HGNDlRLVTWvWbIrP5cZvd7jn6EHGteVagPPnfqACie0xFoRIXC/Cr4+7boWh46Z4n3HmHHMN8Am1OH76ezFOVCFxL3CNwM/cX1yj3PRUmr2znD5QuWW568t5cfwcIyEhoRjXofB6bIwX22I9xpX3UfweYrubNm2LdTheeo1xH/BZ9svnGR9CRrbJeBA28j7nzVRczid33UoC7gufyqdDgX+F5q+SJElSKTFkyJA0YMBlafDge7JLDi76/dCImmqOJ58ck156acJBrULRgWPqJc3hmU44YsSMqI4rWmF0IKg6OuOMbpl7rHMENTzJj5BJohH83XffmAYNujINHTo0uzT/+J1YUFCQ+TcxMLtEpY1T+SRJkqTPKKpnCCJoOk71DS/6GdFPisocqpxy0+dUchAUMQWOypv9mTL5cXgyYt++7SKMpGLIUErSoWYwJUmSJH1G0Vj7y1/ul+64Y1C6++4b4kVPJ5pe09+GaVFM9VLJM2LE9HTLLU+lW299KqbCHSxsi22ybfYhSYeawZQkSZL0GUXfGx7N/9vfvphuu+25eP3sZ0PT7373Uho2bHL01bHxcslETyJ6UfE6mFVtbCu3XfYhSYeawZQkSZL0GUWjZRosv/LKxAiocq933pkZDbIlSTrUDKYkSZIkqQRo1qxO6tKlaWrVqn6qUKFc6tSpSbzq1aueXUOSDj8GU5IkSZL2C42yq1evFA3Uc4/dPxCEMTySnteBbq9SpQqpRo3Ku5q6F76qxLHS9P1QyTWUZ1wYn709DRqYn3NOz/TVr54aT9xjDK67rl/8/Zhj2h7QMZctWybGo3r1ynFM/P1gYbtVq1aKP3eH8y96nxzKsZdUOvlbQZIkSdJ+OfnkzumHPzw/XX99/wgeDtSxx7ZL3/nOOZnX2almzcrZpfvn/POPTLfeelm6554bd73uvHNQHCtN3w8Vtj1o0EmZcbkgDRjQeY+BTVEEct26NUvt2jVKCxasSm++OTWeivfUU2PStm07omrqQI65YcOaMR7//d8Xp/79O6fatatm3zlwbPcb3zgj/twdzp9xYDwYl0M59pJKJ4MpSZIkSfulatWKqX79GhF0HIyKqcqVK6R69aqlunWrH3BVD9VSlSqVT9OmLU6//OUz8aKfVocOjdPpp3dLTZrUPiTVO7mG8v/851tp7Fiearg9+86eEUy1b984ValSIc2ZszxNmbI4bdmyLY0ePSctW7Y2Mx7VUosW9bJr7zvOk2qpBg1qxDUrW/bgnTfjzPHx5+5wXxTeJ9WjYo3qKUkqymBKkiRJOsy0bFkvnXRSx9SvX6dUp061gzp1qzThqYJz5y5PL744IV4EPeRnVCYRlByKcaGh/KRJC9OoUbPSggUr0/btO7Lv7BnT+Nq3bxQhzsqV62MbPB1vxYr1af78lRFctWhRN46X63nCCR3SUUe1iVBQkkq7cpnXkMIfJUmSJJV0/fv3T23adEvPPDM2u+SjevVqlU47rVsEMFOmLEqrVxcGHbtD76VWrepFxU7z5nWjATfVL1TV0BOoY8cm0Yybip0mTWqlmjWr7Npe585NowKJv48YMT2ClaZN68R++QzbIwCicqlatcqZ424QQQ1VRHye/fB5wpbNm7fGPtgfXn55YipfvmwsI7Thz9z2+Oz69ZsjsOHzNAenAopArlGjWjH9rXv35qlx49ppxYp16c03p8U2W7euH8dAwDNx4sLo40S4w2cJfjh33itTpmxmOzU/dB5UhXHsGzdu2VUFxLaYmtayZf34LMfBuDVsWCPGgfU2btwan2Xfbdt+cB657VEZxefoK0WQNm7c/DRz5tI4XjRtWjuOoUKFslGBdcQRDdPFF/eJ4122bF1M/SuK6iiuUYcOjWKf7C933pzn+PHzoyprZ+Z2YBuMX+6YqKji8xs2bMmMTcXMOdXNjuf2uGZ8hmmBbI99rF27MXOvtdw15lu3botrwOe4ttu374zljCP7IXQjtFu+fH3sq23bhnFc7Jtrxdhv3rx9r8I8ffr493LRRX3S448/nPm9MiW7NP/4ndikSZN03333ZZeotDGYkiRJkkqRvQmmCA4IMAhGqBJatWrDboMpgp0+fdqkK644Nn3xiyemk0/uktl+p9SgQc0IBwhYvvKVU9J55x2ZzjijW1RgtW/fML399owIaOh9VDSYaty4Vrrwwt5p0KB+6ayzuqdTT+0SAREBF4HFtdeeEGHK0qVrI7Dp2rVZ+ta3zoo/p09fGmFH0WCqSZM66YILesexnXlmj5iCR6UQoRSBG32tvvvdc1Pv3m2ij9G55/ZKBQWt0+LFq2N/hE5r126KQIdpgiee2CEzNg1i/wQ0n//80dFzifMmyON9wiGmm51yStf0pS+dlM4+u2fst3PnJrGtWbOWRYDCeXNcl13WN3Ns3WI7jMeOHTuiWo3P0Sdq3rwV6eij28YYX3XVcZkx6ZpZv3uEeuvWbUpLlqyJcIbPLFq0Oo6LKqkcAi6uJ8c/d+6K+LlnzxaZa1c+KrKmTVuSXbMQvbl69myZBg8+I8Ku00/vmhmzI3aFTmPHzo3Pca0uv7xvnCPXlnPkXuDcmf7I+HEtBwzoFMe1ZMnauCdY95prToiwjKowrh3BFudw9tk9Mu93j3VYxnViX9yLuWBq8uSFce0Zb+6HCy/skxmTwrFnXBcuXBUVY4RgKlkMpnSoGExJkiRJpcjBDKYILAguatSokv7852HpT396NT344Mg0fPjkCCfmzFkRAdFjj72bXnllUlq+fF3q1KlpVMEQ7uQqbnLB1AUXFESwRHD1k588nh5++J309NNjIyiiKqZdu4ZpzJi5EbwQTlDBQ8NzQq533539kWCKfk2ESjQBf+yx99LIkTOjkonjpaqH4xkwoEtmPOqnqVMXpb/+9bV0zz1vRljDdrp1a56OPLJVOuecXlFlRHXTu+/OSo8++m4EJgQxhEns56GHRqY//vGV9P77cyNYoTrs5Zcnpf/3/56L/RJocQ6EM0uXrkk33nhyfFFnbP7f/3s2PfLIqPT88+OiaojqM6rAZs5cFoEST9tj/B94YGS6/faXIpxhnVxVFZVHBGqMCxVFHE9O0WtJEDRu3Lz06quT4jV9+pKP9LBifcIDxvJ3v3sx/eEPL2fGZnHq0aNFHAvjT0Py445rn3r3bp3uv/+tdNddw+IcCRB5AuCWLYXVUVSB0ZuKfRJOce7Fq+QIprgnCKH+8pfh6Y47hkVFFMdBeEUQWadO9bj2BFNsh/uGwJH7hGv2zDPvR1UWx8S9wOcJAVWyGEzpULHHlCRJknQYILC56KLe6eabL4lKHkIHQplvfOPMNGTIBVGpQ9VMUYQHVBURtBAy0I+JihV6GzEljSohnqT29a+fHk+zo6qGShsCpaJPm8v1SKJqhoCBYIgpZryoCFq/fkt2zX3Dvqis+epXT0uDB5+err76uAibCI1ouJ1DQEVjc0IX9ke4QeUSFUmEObnm5z//+dMRSjFVLhfoFFZUzU1vvDEtQhT2yXl0794inXVWjyL7bZYN1xpFmEXoQoBC+MR5Mm6EdYQ6OUxFZFwIqWhiPmnSghhjxpqKLyqY2F8O4dXOjykV4j0COfbDOfNzUYRRHBcvpuuxL45txoylEbgxLmyDe4WKKMIkwiGuF4HdW29Nj6mFVMpVrrz3TcqZhkmoxrbY5+jRsyPUJAjjWpUr90EvL6rcCsevXlS5ca9yj9E3i2mLVMntqZG6pMOTwZQkSZJ0GCAQISghkCCcWbducwQPBCZMAVu9esNHqmsICQiVWI8wKldVRf8kAhWmZVHdwtQqpqSxDrlJxYrlYtpVDj8TFFFRwT7Y3oFge1TZHH98+1RQ0Cp6VM2eXRgAEa4QmjENMYeghvc4zqKKNz8fPnxKVIKxjRyqyRgjgqOi58E6VFURYjG97oknRqennx6TZsxYEj2hCF1YZ9OmPYdubI8eXgRUrMu4MMaMI9VDVCCVyQwjfycQYlyZore/mIZHqEPlE2ORC8kIjrgnqHTj+nHsXGOq1ujBxb6pgKKaiXUZW8Z4b3HNCQFz9xBjyv3Gz5UrV4xqrxzOjwCN96gM47pSJUYFGNVbBIl8XtJnh8GUJEmSdBgg6ODLPVO3nnxyTEwXoyrn/vtHpDvvLJyqVfwLPxU3hBUEGTzKPxc2MVWO6VpMdWMa2L33vhlT5EaOnBF9k4oX9RAyEGwQvhDCEHoURzZBhRAhE38SjhBQ8PeiwQVylURMNWS9l16akG6//eUIh6jMoSqrKAIfjmt/8DkCLOTOg5CFsIog6ze/eWHXizGgkTrjSIDDsRWtHCuO6iQqsgigWJdxLgyrqkRgxXkSIC5fTqXVtpg2V3zsGE8+Q/jD9fq4iiqmEbIO1WIEVLnwjvCRv7M/hprz5bypiuI4WI99Uz1HuMU9wVhwXcqVKxfnyOcIMlmPAK2owmteadc9xP3D/viZcSp6zFw7xoRrRpUWYVRufH//+5fSK69MjIBM0meHwZQkSZJ0mMmFGLx4MlpKuw8zZs9eHpUtTM1j6h+VQIQLtWtXiaohAgWqbqh6oXKKKW6EE7kAK4ewgaoXpm8RvrAegQcvAgqCC8IZAhKe2FavXuET2ehPxDrFt0cIUqVKhVjO5zJLopKJvlE0Zic8ORRy58G4cFxduzbddR6MC2NCoMO0QSq0mBrJ9L7c+4Q2hD85BDzTpi2K6qXcU+gYY8a6Y8fGEfwwjZLcZvv27bv2URQhD0EQ14kKLrbPfrgOxceBUI112B/XgCfocWy5JwwSRLFPqqcI+GrWrBrHQi8pmtT37ds29k8V1caNm+P6E5RxjkxH7NKlWWyH/RfF/cE26JPF+bEtpoly7egvRsiVQ+hHPzDeo18V28uNceG5lv/I/SDp8Gbzc0mSJKkU2Zvm50xto8/PO+/MiClqheHOR7EeQRJBAg3Cefre+ecXxOP/qcCiiueUU7rEU+R4shwVNYRdhB+EM/QPKtoImzCDp7HxlDue6EbD8eOPbxdBB32M6C1Eg2uai9NfiHULQ5APNz8nyHjooXcihCG8OuusntHviRCDqWD0gpo1a2lMW6T5OcfE9glbcpgCSFjC9qlyKo4qIBqv8ydNxHnlcD4EYfQ9uuSSo+I8aOxO2EO/LPZDQEUfKsaHJ8vxPhVeGzZsjnCGIIeQ6623ZqStW3fEOPHUQMaXJ/hxzM8+OzaqwQimCH8Ir5gyyedy6OvFeTDlbfz4BfHZm246OXPs7eO60j+qKIJErh39xTi2iy8+Ks6jsLKrTPSaoqE8FWHsj2M677xecc0Ih6i6ow8XUxYJihh/rhVPGWQ7hGdUjBF+5ZqfEyISOp52Wtfoc8aTEwm/uEeZmkfPK86f42L/kyYtinPu1atl3As0Qr/wQsalU4wL/bOYZqiShdDS5uc6FIiid/+fTyRJkiSVOEOGDEkDBlyWBg++J7vkwFBNQ0BE4ABCIXoFET4w/ayweXXZqMLiRRjCe4QztWtXjSl3hcHQ4gi5CFHYZq5yiPcIkJi+xVPxCGyoiGE/BF8EEFQqzZq1LAIOqrdAXyeCMBpisx+CDKaFUQFG+EOoRuhGMMLUNCpzOO4cKnbYV2GFzuLs0g8wfa0w6CoXny36JLzceXDuuaqk3Lhw3oRdHBOBC3/mzofjWrhwdVQZ8SWen9k2x8H2CLty1UCEX/S/Yr+M84kndojQimBq6NDRafLkRYmnDdIcnDF/7rlx0aCd0LB58zpRjUW4xKsoAqKaNSuntm0bZY6hYlwH1mXsQFUbUwdZjzAsd31R2FdrVRwDnyl+b3AcuWmAvLjmnBcVVGyP9dgWlVa5sSKM4pjZD9P32D5/5s6Dyi+quHLXl/uA65qbXqmSgyDz7rtvTIMGXZm5R4dml+YfvxMLCgrSwIEDs0tU2hhMSZIkSaXIwQ6mlH+EOQRw1157QoRxVHgRTl122TGpZ8+WUU321FNjogpJyheDKR0q9piSJEmSpDyiEoknJ7799syYUkhlGlVETL+jif3YsXMNpSQdtgymJEmSJKkEoOfUr371fPTXYgri7373Yvrtb1+MPk2SdLgymJIkSZIkSVJeGExJkiRJkiQpLwymJEmSJEmSlBcGU5IkSZIkScoLgylJkiRJkiTlhcGUJEmSJEmS8sJgSpIkSZIkSXlhMCVJkiRJkqS8MJiSJEmSJElSXhhMSZIkSZIkKS8MpiRJkiRJkpQXBlOSJEmSJEnKC4MpSZIkSZIk5YXBlCRJkiRJkvLCYEqSJEmSJEl5YTAlSZIkSZKkvDCYkiRJkiRJUl4YTEmSJEmSJCkvymReOwt/lCRJklTSDRkyJA0YcFkaPPie7BJJOvQaNKiR7r77xvTb3/48vfXWW9ml+XfRRRel6tWrpyuuuCK7RKWNwZQkSZJUihhMScqHXDBVseKOtGXLluzS/Js7d256+OGH080335xdotLGYEqSJEkqRQymJOVDLpj6938fnF544YXs0vzbtm1b2rBhQ1q1alV2iUobgylJkiSpFDGYkpQPuWBq0KAr09ChQ7NLpQNn83NJkiRJkiTlhcGUJEmSJEmS8sJgSpIkSZIkSXlhMCVJkiRJkqS8MJiSJEmSJElSXhhMSZIkSZIkKS8MpiRJkiRJkpQXBlOSJEmSJEnKC4MpSZIkSZIk5YXBlCRJkiRJkvLCYEqSJEmSJEl5YTAlSZIkSZKkvDCYkiRJkiRJUl4YTEmSJEmSJCkvDKYkSZIkSZKUFwZTkiRJkiRJyguDKUmSJEmSJOWFwZQkSZIkSZLywmBKkiRJkiRJeWEwJUmSJEmSpLwwmJIkSZIkSVJeGExJkiRJkiQpLwymJEmSJEmSlBcGU5IkSZIkScoLgylJkiRJkiTlhcGUJEmSJEmS8sJgSpIkSZIkSXlhMCVJkiRJkqS8MJiSJEmSJElSXhhMSZIkSZIkKS8MpiRJkiRJkpQXBlOSJEmSJEnKC4MpSZIkSZIk5YXBlCRJkiRJkvKiTOa1s/BHSZIkSSXdkCFD0le/+s00duy87BJJOvQqVSqfevdunS655KI0dOjQ7FLpwBlMSZIkSaXIgAEDUv/+/bN/k6RP17333psmT56c/Zt04AymJEmSJEmSlBf2mJIkSZIkSVJeGExJkiRJkiQpLwymJEmSJEmSlBcGU5IkSZIkScoLgylJkiRJkiTlhcGUJEmSJEmS8sJgSpIkSZIkSXlhMCVJkiRJkqQ8SOn/A+jKby0hD93tAAAAAElFTkSuQmCC;" vertex="1" parent="1">
          <mxGeometry x="440" y="70" width="720" height="503.39" as="geometry" />
        </mxCell>
      </root>
    </mxGraphModel>
  </diagram>
</mxfile>
